<?xml version="1.0" encoding="utf-8"?>
<!-- Generator: Adobe Illustrator 16.0.0, SVG Export Plug-In . SVG Version: 6.00 Build 0)  -->
<!DOCTYPE svg PUBLIC "-//W3C//DTD SVG 1.1//EN" "http://www.w3.org/Graphics/SVG/1.1/DTD/svg11.dtd">
<svg version="1.1" id="Capa_1" xmlns="http://www.w3.org/2000/svg" xmlns:xlink="http://www.w3.org/1999/xlink" x="0px" y="0px"
	 width="36.793px" height="36.792px" viewBox="43.625 0 36.793 36.792" enable-background="new 43.625 0 36.793 36.792"
	 xml:space="preserve">
<g id="Back">
</g>
<g id="Grid" display="none">
</g>
<g>
	<path fill="#1E100D" d="M79.418,31.539c0,2.35-1.904,4.254-4.254,4.254H48.877c-2.348,0-4.252-1.904-4.252-4.254V5.254
		C44.625,2.904,46.53,1,48.877,1h26.287c2.35,0,4.254,1.904,4.254,4.254V31.539z"/>
	<linearGradient id="SVGID_1_" gradientUnits="userSpaceOnUse" x1="45.8706" y1="2.2451" x2="78.1724" y2="34.5469">
		<stop  offset="0" style="stop-color:#FFFFFF;stop-opacity:0.3"/>
		<stop  offset="1" style="stop-color:#FFD820;stop-opacity:0"/>
	</linearGradient>
	<path fill="url(#SVGID_1_)" d="M79.418,31.539c0,2.35-1.904,4.254-4.254,4.254H48.877c-2.348,0-4.252-1.904-4.252-4.254V5.254
		C44.625,2.904,46.53,1,48.877,1h26.287c2.35,0,4.254,1.904,4.254,4.254V31.539z"/>
	<path fill="none" stroke="#FFCC33" stroke-width="2" stroke-miterlimit="10" d="M79.418,31.539c0,2.35-1.904,4.254-4.254,4.254
		H48.877c-2.348,0-4.252-1.904-4.252-4.254V5.254C44.625,2.904,46.53,1,48.877,1h26.287c2.35,0,4.254,1.904,4.254,4.254V31.539z"/>
	<path fill="#FFCC33" d="M72.754,11.783c-0.022-0.002-0.043-0.006-0.064-0.01c-0.043,0.017-0.088,0.017-0.127-0.02
		c-0.021-0.021,0.014-0.055,0.051-0.063c0.035-0.108,0.139-0.151,0.223-0.211c0.92-0.658,1.576-1.52,1.977-2.576
		c0.005-0.014,0.005-0.026-0.002-0.057c-0.098-0.005-0.168,0.058-0.247,0.102c-0.917,0.509-1.894,0.854-2.911,1.093
		c-0.199,0.047-0.344,0-0.49-0.144c-1.191-1.174-2.645-1.666-4.293-1.552c-2.398,0.164-4.443,1.951-4.97,4.294
		c-0.163,0.732-0.163,1.47-0.048,2.211c0.048,0.311-0.004,0.362-0.317,0.338c-1.304-0.1-2.581-0.338-3.825-0.743
		c-1.844-0.604-3.525-1.51-5.041-2.721c-0.787-0.627-1.51-1.323-2.162-2.089c-0.197-0.229-0.23-0.229-0.357,0.052
		c-0.307,0.68-0.5,1.386-0.539,2.143c-0.059,1.236,0.246,2.363,0.936,3.383c0.34,0.503,0.734,0.958,1.238,1.31
		c0.025,0.016,0.049,0.031,0.07,0.051c0.049,0.045,0.125,0.084,0.109,0.152c-0.023,0.09-0.115,0.076-0.186,0.076
		c-0.373,0.002-0.734-0.086-1.094-0.178c-0.342-0.088-0.661-0.227-0.979-0.373c-0.104-0.047-0.156-0.051-0.152,0.096
		c0.039,1.092,0.369,2.088,0.998,2.979c0.766,1.086,1.789,1.813,3.074,2.17c0.098,0.029,0.266,0.016,0.266,0.141
		c-0.004,0.143-0.174,0.127-0.282,0.146c-0.601,0.111-1.208,0.15-1.817,0.063c-0.213-0.029-0.248,0.012-0.166,0.207
		c0.508,1.232,1.32,2.195,2.502,2.838c0.609,0.332,1.256,0.535,1.936,0.645c0.137,0.021,0.275,0.018,0.412,0.027
		c0.058,0.004,0.129,0,0.154,0.063c0.029,0.07-0.025,0.125-0.074,0.166c-0.196,0.162-0.402,0.313-0.616,0.451
		c-0.765,0.5-1.582,0.898-2.438,1.207c-0.451,0.162-0.912,0.301-1.387,0.383c-0.082,0.014-0.163,0.025-0.24-0.008
		c-0.039,0.098-0.14,0.098-0.225,0.113c-0.898,0.172-1.807,0.168-2.715,0.135c-0.1-0.027-0.202-0.043-0.307-0.049
		c-0.004,0.002-0.012,0.004-0.018,0.006c0.002,0,0.005,0.002,0.005,0.002c0.604,0.369,1.226,0.703,1.869,0.992
		c0.812,0.365,1.649,0.652,2.51,0.877c0.664,0.172,1.333,0.311,2.013,0.389c1.041,0.123,2.086,0.148,3.135,0.086
		c0.683-0.043,1.359-0.131,2.031-0.258c1.688-0.314,3.283-0.885,4.775-1.74c1.258-0.723,2.393-1.6,3.391-2.652
		c0.914-0.961,1.697-2.021,2.359-3.18c0.805-1.408,1.389-2.898,1.756-4.475c0.193-0.818,0.328-1.65,0.381-2.499
		c0.029-0.507,0.027-1.017,0.029-1.526c0.001-0.197,0.063-0.343,0.227-0.463c0.904-0.665,1.668-1.47,2.328-2.375
		c0.047-0.066,0.092-0.137,0.152-0.191c-0.727,0.315-1.484,0.528-2.256,0.697C73.131,11.754,72.942,11.769,72.754,11.783z"/>
</g>
</svg>
