<?xml version="1.0" encoding="utf-8"?>
<!-- Generator: Adobe Illustrator 16.0.0, SVG Export Plug-In . SVG Version: 6.00 Build 0)  -->
<!DOCTYPE svg PUBLIC "-//W3C//DTD SVG 1.1//EN" "http://www.w3.org/Graphics/SVG/1.1/DTD/svg11.dtd">
<svg version="1.1" xmlns="http://www.w3.org/2000/svg" xmlns:xlink="http://www.w3.org/1999/xlink" x="0px" y="0px"
	 width="36.794px" height="36.794px" viewBox="0 0 36.794 36.794" enable-background="new 0 0 36.794 36.794" xml:space="preserve">
<g id="Back">
</g>
<g id="Diseño">
	<g>
		<g>
			<path fill="#FFD820" stroke="#1E100D" stroke-width="2" stroke-miterlimit="10" d="M35.794,31.539
				c0,2.35-1.904,4.255-4.254,4.255H5.254C2.905,35.794,1,33.889,1,31.539V5.253C1,2.904,2.905,1,5.254,1H31.54
				c2.35,0,4.254,1.904,4.254,4.253V31.539z"/>
			<linearGradient id="SVGID_1_" gradientUnits="userSpaceOnUse" x1="2.2461" y1="2.2451" x2="34.5486" y2="34.5476">
				<stop  offset="0" style="stop-color:#FFFFFF;stop-opacity:0.3"/>
				<stop  offset="1" style="stop-color:#FFD820;stop-opacity:0"/>
			</linearGradient>
			<path fill="url(#SVGID_1_)" d="M35.794,31.539c0,2.35-1.904,4.255-4.254,4.255H5.254C2.905,35.794,1,33.889,1,31.539V5.253
				C1,2.904,2.905,1,5.254,1H31.54c2.35,0,4.254,1.904,4.254,4.253V31.539z"/>
			<path fill="none" stroke="#1E100D" stroke-width="2" stroke-miterlimit="10" d="M35.794,31.539c0,2.35-1.904,4.255-4.254,4.255
				H5.254C2.905,35.794,1,33.889,1,31.539V5.253C1,2.904,2.905,1,5.254,1H31.54c2.35,0,4.254,1.904,4.254,4.253V31.539z"/>
		</g>
		<g>
			<path d="M29.026,17.352c-0.429-1.209-1.197-2.113-2.414-2.576c-1.131-0.43-2.306-0.525-3.493-0.318
				c-1.385,0.242-2.486,0.938-3.229,2.154c-0.025,0.037-0.04,0.102-0.096,0.084c-0.068-0.02-0.039-0.09-0.041-0.137
				c-0.001-0.539-0.009-1.078,0.004-1.617c0.005-0.188-0.052-0.232-0.233-0.23c-1.283,0.006-2.568,0.008-3.853-0.002
				c-0.193-0.002-0.242,0.049-0.242,0.242c0.007,2.342,0.005,4.686,0.005,7.027c0,2.35,0.002,4.697-0.004,7.049
				c-0.001,0.178,0.04,0.234,0.228,0.232c1.343-0.008,2.688-0.008,4.033,0c0.188,0.002,0.244-0.039,0.243-0.238
				c-0.007-2.336-0.008-4.672-0.002-7.008c0.001-0.693,0.047-1.383,0.272-2.047c0.261-0.768,0.745-1.309,1.546-1.533
				c0.375-0.105,0.76-0.127,1.147-0.104c0.946,0.057,1.556,0.527,1.864,1.426c0.196,0.574,0.249,1.172,0.252,1.77
				c0.008,2.496,0.007,4.992,0,7.486c-0.002,0.209,0.06,0.25,0.255,0.248c1.356-0.008,2.714-0.008,4.072-0.002
				c0.161,0.002,0.214-0.031,0.213-0.203c-0.007-2.75,0-5.498-0.013-8.246C29.535,19.635,29.424,18.471,29.026,17.352z"/>
			<path d="M12.581,22.006c0-2.357-0.003-4.713,0.001-7.068c0.001-0.166-0.027-0.23-0.214-0.229
				c-1.364,0.01-2.728,0.008-4.093,0.002c-0.152,0-0.204,0.031-0.204,0.195c0.005,4.719,0.005,9.439,0,14.158
				c0,0.164,0.054,0.193,0.204,0.193c1.357-0.004,2.716-0.006,4.073,0.004c0.201,0,0.235-0.063,0.235-0.246
				C12.578,26.678,12.581,24.342,12.581,22.006z"/>
			<path d="M10.329,7.477c-1.44,0.004-2.605,1.176-2.612,2.625c-0.007,1.445,1.181,2.637,2.625,2.633
				c1.443-0.004,2.631-1.193,2.629-2.637C12.969,8.662,11.768,7.473,10.329,7.477z"/>
		</g>
	</g>
</g>
<g id="Grid" display="none">
</g>
</svg>
