<?xml version="1.0" encoding="utf-8"?>
<!-- Generator: Adobe Illustrator 16.0.0, SVG Export Plug-In . SVG Version: 6.00 Build 0)  -->
<!DOCTYPE svg PUBLIC "-//W3C//DTD SVG 1.1//EN" "http://www.w3.org/Graphics/SVG/1.1/DTD/svg11.dtd">
<svg version="1.1" id="Capa_1" xmlns="http://www.w3.org/2000/svg" xmlns:xlink="http://www.w3.org/1999/xlink" x="0px" y="0px"
	 width="36.793px" height="36.793px" viewBox="0 0 36.793 36.793" enable-background="new 0 0 36.793 36.793" xml:space="preserve">
<g>
	<path fill="#1E100D" d="M35.77,31.54c0,2.35-1.904,4.254-4.253,4.254H5.229c-2.348,0-4.253-1.904-4.253-4.254V5.255
		c0-2.35,1.905-4.254,4.253-4.254h26.287c2.349,0,4.253,1.904,4.253,4.254V31.54z"/>
	<linearGradient id="SVGID_1_" gradientUnits="userSpaceOnUse" x1="2.2241" y1="2.248" x2="34.5245" y2="34.5485">
		<stop  offset="0" style="stop-color:#FFFFFF;stop-opacity:0.3"/>
		<stop  offset="1" style="stop-color:#FFD820;stop-opacity:0"/>
	</linearGradient>
	<path fill="url(#SVGID_1_)" d="M35.77,31.54c0,2.35-1.904,4.254-4.253,4.254H5.229c-2.348,0-4.253-1.904-4.253-4.254V5.255
		c0-2.35,1.905-4.254,4.253-4.254h26.287c2.349,0,4.253,1.904,4.253,4.254V31.54z"/>
	<path fill="none" stroke="#FFCC33" stroke-width="2" stroke-miterlimit="10" d="M35.77,31.54c0,2.35-1.904,4.254-4.253,4.254H5.229
		c-2.348,0-4.253-1.904-4.253-4.254V5.255c0-2.35,1.905-4.254,4.253-4.254h26.287c2.349,0,4.253,1.904,4.253,4.254V31.54z"/>
	<path fill="#FFCC33" d="M20.115,35.336v-13.42h-4.706v-5.402h4.706v-4.707c0,0,0.219-5.053,5.271-5.924h5.359v4.705h-3.138
		c0,0-1.611,0.174-2.092,1.873v4.053h5.229l-0.74,5.402h-4.489v13.42H20.115z"/>
</g>
<g id="Back">
</g>
<g id="Grid" display="none">
</g>
</svg>
