<?xml version="1.0" encoding="utf-8"?>
<!-- Generator: Adobe Illustrator 16.0.0, SVG Export Plug-In . SVG Version: 6.00 Build 0)  -->
<!DOCTYPE svg PUBLIC "-//W3C//DTD SVG 1.1//EN" "http://www.w3.org/Graphics/SVG/1.1/DTD/svg11.dtd">
<svg version="1.1" id="Capa_1" xmlns="http://www.w3.org/2000/svg" xmlns:xlink="http://www.w3.org/1999/xlink" x="0px" y="0px"
	 width="36.793px" height="36.792px" viewBox="46.895 0.001 36.793 36.792" enable-background="new 46.895 0.001 36.793 36.792"
	 xml:space="preserve">
<g>
	<path fill="#1E100D" d="M82.688,31.54c0,2.35-1.904,4.254-4.252,4.254H52.149c-2.349,0-4.254-1.904-4.254-4.254V5.255
		c0-2.35,1.905-4.254,4.254-4.254h26.287c2.348,0,4.252,1.904,4.252,4.254V31.54z"/>
	<linearGradient id="SVGID_1_" gradientUnits="userSpaceOnUse" x1="49.1411" y1="2.2466" x2="81.4429" y2="34.5484">
		<stop  offset="0" style="stop-color:#FFFFFF;stop-opacity:0.3"/>
		<stop  offset="1" style="stop-color:#FFD820;stop-opacity:0"/>
	</linearGradient>
	<path fill="url(#SVGID_1_)" d="M82.688,31.54c0,2.35-1.904,4.254-4.252,4.254H52.149c-2.349,0-4.254-1.904-4.254-4.254V5.255
		c0-2.35,1.905-4.254,4.254-4.254h26.287c2.348,0,4.252,1.904,4.252,4.254V31.54z"/>
	<path fill="none" stroke="#FFCC33" stroke-width="2" stroke-miterlimit="10" d="M82.688,31.54c0,2.35-1.904,4.254-4.252,4.254
		H52.149c-2.349,0-4.254-1.904-4.254-4.254V5.255c0-2.35,1.905-4.254,4.254-4.254h26.287c2.348,0,4.252,1.904,4.252,4.254V31.54z"/>
	<g>
		<path fill="#FFCC33" d="M76.026,17.352c-0.429-1.209-1.197-2.113-2.414-2.576c-1.131-0.43-2.306-0.525-3.493-0.318
			c-1.385,0.242-2.486,0.938-3.229,2.154c-0.025,0.037-0.04,0.102-0.096,0.084c-0.068-0.02-0.039-0.09-0.041-0.137
			c-0.002-0.539-0.009-1.078,0.004-1.617c0.005-0.188-0.052-0.232-0.233-0.23c-1.283,0.006-2.568,0.008-3.853-0.002
			c-0.193-0.002-0.242,0.049-0.242,0.242c0.007,2.342,0.005,4.686,0.005,7.028c0,2.35,0.002,4.697-0.004,7.049
			c-0.001,0.178,0.04,0.234,0.228,0.232c1.343-0.008,2.688-0.008,4.033,0c0.188,0.002,0.244-0.039,0.243-0.238
			c-0.007-2.336-0.008-4.672-0.002-7.008c0.001-0.693,0.047-1.383,0.272-2.047c0.261-0.768,0.745-1.309,1.546-1.534
			c0.375-0.105,0.761-0.127,1.147-0.104c0.946,0.057,1.556,0.527,1.864,1.426c0.196,0.574,0.249,1.172,0.252,1.77
			c0.007,2.496,0.007,4.992,0,7.486c-0.002,0.209,0.06,0.25,0.255,0.248c1.356-0.008,2.713-0.008,4.072-0.002
			c0.16,0.002,0.214-0.031,0.213-0.203c-0.007-2.75,0-5.498-0.014-8.246C76.535,19.635,76.424,18.471,76.026,17.352z"/>
		<path fill="#FFCC33" d="M59.581,22.006c0-2.357-0.003-4.713,0.002-7.069c0-0.166-0.027-0.23-0.215-0.229
			c-1.364,0.01-2.728,0.008-4.093,0.002c-0.151,0-0.204,0.031-0.204,0.195c0.005,4.719,0.005,9.44,0,14.159
			c0,0.164,0.054,0.193,0.204,0.193c1.357-0.004,2.716-0.006,4.073,0.004c0.201,0,0.234-0.063,0.234-0.246
			C59.578,26.678,59.581,24.342,59.581,22.006z"/>
		<path fill="#FFCC33" d="M57.329,7.477c-1.44,0.004-2.605,1.176-2.612,2.625c-0.008,1.445,1.181,2.637,2.625,2.633
			c1.443-0.004,2.631-1.193,2.629-2.637C59.969,8.662,58.768,7.473,57.329,7.477z"/>
	</g>
</g>
<g id="Back">
</g>
<g id="Grid" display="none">
</g>
</svg>
