<?xml version="1.0" encoding="utf-8"?>
<!-- Generator: Adobe Illustrator 16.0.0, SVG Export Plug-In . SVG Version: 6.00 Build 0)  -->
<!DOCTYPE svg PUBLIC "-//W3C//DTD SVG 1.1//EN" "http://www.w3.org/Graphics/SVG/1.1/DTD/svg11.dtd">
<svg version="1.1" xmlns="http://www.w3.org/2000/svg" xmlns:xlink="http://www.w3.org/1999/xlink" x="0px" y="0px"
	 width="36.793px" height="36.794px" viewBox="0 0 36.793 36.794" enable-background="new 0 0 36.793 36.794" xml:space="preserve">
<g id="Back">
</g>
<g id="Diseño">
	<g>
		<path fill="#FFD820" stroke="#1E100D" stroke-width="2" stroke-miterlimit="10" d="M35.793,31.54c0,2.349-1.904,4.254-4.253,4.254
			H5.253C2.905,35.794,1,33.889,1,31.54V5.254C1,2.904,2.905,1,5.253,1H31.54c2.349,0,4.253,1.904,4.253,4.254V31.54z"/>
		<linearGradient id="SVGID_1_" gradientUnits="userSpaceOnUse" x1="2.2456" y1="2.2471" x2="34.5474" y2="34.5489">
			<stop  offset="0" style="stop-color:#FFFFFF;stop-opacity:0.3"/>
			<stop  offset="1" style="stop-color:#FFD820;stop-opacity:0"/>
		</linearGradient>
		<path fill="url(#SVGID_1_)" d="M35.793,31.54c0,2.349-1.904,4.254-4.253,4.254H5.253C2.905,35.794,1,33.889,1,31.54V5.254
			C1,2.904,2.905,1,5.253,1H31.54c2.349,0,4.253,1.904,4.253,4.254V31.54z"/>
		<path fill="none" stroke="#1E100D" stroke-width="2" stroke-miterlimit="10" d="M35.793,31.54c0,2.349-1.904,4.254-4.253,4.254
			H5.253C2.905,35.794,1,33.889,1,31.54V5.254C1,2.904,2.905,1,5.253,1H31.54c2.349,0,4.253,1.904,4.253,4.254V31.54z"/>
		<path fill="#1E100D" d="M20.139,35.336v-13.42h-4.706v-5.402h4.706v-4.706c0,0,0.218-5.054,5.272-5.925h5.359v4.706h-3.138
			c0,0-1.611,0.174-2.092,1.873v4.052h5.229l-0.74,5.402H25.54v13.42H20.139z"/>
	</g>
</g>
<g id="Grid" display="none">
</g>
</svg>
