<?xml version="1.0" encoding="utf-8"?>
<!-- Generator: Adobe Illustrator 16.0.0, SVG Export Plug-In . SVG Version: 6.00 Build 0)  -->
<!DOCTYPE svg PUBLIC "-//W3C//DTD SVG 1.1//EN" "http://www.w3.org/Graphics/SVG/1.1/DTD/svg11.dtd">
<svg version="1.1" xmlns="http://www.w3.org/2000/svg" xmlns:xlink="http://www.w3.org/1999/xlink" x="0px" y="0px" width="52px"
	 height="52px" viewBox="64.334 0 52 52" enable-background="new 64.334 0 52 52" xml:space="preserve">
<g id="Capa_2">
	<path fill="#FFE120" d="M78.27,2.097c0,0,8.782-2.681,13.497,6.102l17.656-0.278l-0.092,27.734l-17.103,0.462l-14.422-2.404
		L78.27,2.097z"/>
	<linearGradient id="SVGID_1_" gradientUnits="userSpaceOnUse" x1="93.6152" y1="1.4614" x2="93.6152" y2="35.8677">
		<stop  offset="0" style="stop-color:#FFFFFF;stop-opacity:0.8"/>
		<stop  offset="0.1168" style="stop-color:#FFFFFF;stop-opacity:0.7066"/>
		<stop  offset="1" style="stop-color:#FFFFFF;stop-opacity:0"/>
	</linearGradient>
	<path opacity="0.6" fill="url(#SVGID_1_)" d="M78.27,1.847c0,0,8.782-2.681,13.497,6.102l17.656-0.278l-0.092,27.734l-17.103,0.462
		l-14.422-2.404L78.27,1.847z"/>
</g>
<g id="Capa_1">
	
		<radialGradient id="SVGID_2_" cx="576.4453" cy="6011.6074" r="17.0614" gradientTransform="matrix(1.1083 0 0 0.1273 -548.1899 -715.1476)" gradientUnits="userSpaceOnUse">
		<stop  offset="0" style="stop-color:#E6C816"/>
		<stop  offset="0.417" style="stop-color:#EDCF19;stop-opacity:0.584"/>
		<stop  offset="1" style="stop-color:#FFE121;stop-opacity:0.003"/>
	</radialGradient>
	<ellipse fill="url(#SVGID_2_)" cx="90.684" cy="50.13" rx="18.633" ry="2.203"/>
	<path fill="#1D1210" d="M109.567,6.86H91.734l-0.156-0.288c-1.019-1.785-3.971-5.827-9.935-5.827c-1.154,0-2.382,0.153-3.646,0.456
		c-0.286,0.067-0.484,0.317-0.484,0.61V6.86h-4.389c-0.349,0-0.632,0.282-0.632,0.628v28.417c0,0.347,0.283,0.629,0.632,0.629
		h36.443c0.348,0,0.631-0.282,0.631-0.629V7.488C110.198,7.142,109.915,6.86,109.567,6.86z M89.6,32.4
		c-2.153-2.146-4.834-3.233-7.966-3.233c-0.688,0-1.399,0.054-2.111,0.16l-0.752,0.109V2.308l0.541-0.096
		c0.789-0.135,1.563-0.203,2.301-0.203c6.066,0,8.594,4.557,9.038,5.47l0.055,0.145l0.01,0.091l0.001,25.794L89.6,32.4z
		 M108.939,35.275H91.974V8.117h16.966V35.275z"/>
</g>
</svg>
