<?xml version="1.0" encoding="utf-8"?>
<!-- Generator: Adobe Illustrator 16.0.0, SVG Export Plug-In . SVG Version: 6.00 Build 0)  -->
<!DOCTYPE svg PUBLIC "-//W3C//DTD SVG 1.1//EN" "http://www.w3.org/Graphics/SVG/1.1/DTD/svg11.dtd">
<svg version="1.1" id="Capa_1" xmlns="http://www.w3.org/2000/svg" xmlns:xlink="http://www.w3.org/1999/xlink" x="0px" y="0px"
	 width="36.793px" height="36.793px" viewBox="53.895 3.001 36.793 36.793" enable-background="new 53.895 3.001 36.793 36.793"
	 xml:space="preserve">
<g id="Back">
</g>
<g id="Grid" display="none">
</g>
<g>
	<path fill="#1E100D" d="M89.688,34.54c0,2.35-1.904,4.254-4.252,4.254H59.149c-2.349,0-4.254-1.904-4.254-4.254V8.255
		c0-2.35,1.905-4.254,4.254-4.254h26.287c2.348,0,4.252,1.904,4.252,4.254V34.54z"/>
	<linearGradient id="SVGID_1_" gradientUnits="userSpaceOnUse" x1="56.1421" y1="5.2476" x2="88.4432" y2="37.5487">
		<stop  offset="0" style="stop-color:#FFFFFF;stop-opacity:0.3"/>
		<stop  offset="1" style="stop-color:#FFD820;stop-opacity:0"/>
	</linearGradient>
	<path fill="url(#SVGID_1_)" d="M89.688,34.54c0,2.35-1.904,4.254-4.252,4.254H59.149c-2.349,0-4.254-1.904-4.254-4.254V8.255
		c0-2.35,1.905-4.254,4.254-4.254h26.287c2.348,0,4.252,1.904,4.252,4.254V34.54z"/>
	<path fill="none" stroke="#FFCC33" stroke-width="2" stroke-miterlimit="10" d="M89.688,34.54c0,2.35-1.904,4.254-4.252,4.254
		H59.149c-2.349,0-4.254-1.904-4.254-4.254V8.255c0-2.35,1.905-4.254,4.254-4.254h26.287c2.348,0,4.252,1.904,4.252,4.254V34.54z"/>
	<g>
		<g>
			<path fill="#FFCC33" d="M69.999,20.492c0.189-0.134,0.322-0.229,0.455-0.322c1.512-1.053,1.77-2.543,1.49-4.23
				c-0.277-1.648-1.332-2.53-2.875-2.899c-0.557-0.133-1.141-0.202-1.713-0.208c-2.391-0.022-4.781,0.006-7.17-0.022
				c-0.539-0.007-0.689,0.142-0.688,0.683c0.02,5.166,0.02,10.331,0.001,15.497c-0.003,0.527,0.127,0.699,0.679,0.692
				c2.416-0.031,4.836-0.016,7.254-0.016c0.664,0,1.311-0.121,1.943-0.317c1.963-0.603,3.197-2.02,3.35-3.845
				C72.938,22.97,72.2,21.575,69.999,20.492z M64.749,15.695c0.77,0.001,1.539-0.05,2.303,0.08c1.099,0.186,1.6,0.795,1.578,1.937
				c-0.023,1.106-0.718,1.772-1.798,1.866c-0.6,0.053-0.935,0.01-1.935,0.01c0-0.012,0-0.023,0-0.037c0,0-1.462,0.266-1.864-0.068
				c-0.479-0.399-0.089-1.337-0.101-2.038C62.911,15.693,62.989,15.688,64.749,15.695z M67.489,26.71
				c-1.334,0.219-2.682,0.055-4.023,0.106c-0.354,0.013-0.484-0.129-0.48-0.48c0.014-1.234,0.016-2.469,0-3.702
				c-0.004-0.382-0.062-0.46,0.261-0.454c0.633,0.01,1.651,0.003,1.651,0.003c0,0.012,0,0.024,0,0.036c1,0,1.562-0.051,2.214,0.012
				c1.229,0.116,1.995,0.881,2.034,2.154C69.186,25.775,68.764,26.5,67.489,26.71z"/>
			<path fill="#FFCC33" d="M80.516,17.172c-2.359-0.383-4.771,0.773-5.873,2.928c-1.201,2.355-1.193,4.777,0.041,7.115
				c1.055,1.999,2.867,2.791,5.063,2.769c2.037-0.018,3.688-0.76,4.694-2.633c0.796-1.477,0.794-1.478-0.884-1.478
				c-0.109,0-0.223,0.01-0.33-0.002c-0.58-0.063-0.963,0.106-1.355,0.623c-0.787,1.029-1.931,1.187-3.133,0.834
				c-1.127-0.33-1.539-1.229-1.729-2.29c-0.086-0.484,0.03-0.932,0.58-0.913c1.182,0.044,2.363-0.229,3.543-0.229
				c0.688,0,1.375,0,2.063,0c2.301,0,2.301,0.243,1.898-2.097C84.633,19.14,82.922,17.562,80.516,17.172z M81.495,22.259
				c-0.659-0.042-1.32-0.01-1.98-0.01s-1.322-0.021-1.98,0.007c-0.438,0.018-0.588-0.104-0.494-0.562
				c0.244-1.207,1.266-2.04,2.547-2.033c1.275,0.007,2.113,0.712,2.383,1.965C82.061,22.055,82.038,22.293,81.495,22.259z"/>
		</g>
		<path fill="#FFCC33" d="M76.333,14.891c-0.053,0.363-0.117,0.774,0.523,0.742c0.873-0.044,1.75-0.012,2.627-0.012
			c0.904,0,1.811-0.031,2.711,0.012c0.619,0.03,0.602-0.347,0.545-0.732c-0.053-0.359,0.303-0.949-0.494-0.945
			c-1.807,0.01-3.615,0.014-5.424-0.002C76.012,13.945,76.381,14.538,76.333,14.891z"/>
	</g>
</g>
</svg>
