<?xml version="1.0" encoding="utf-8"?>
<!-- Generator: Adobe Illustrator 16.0.0, SVG Export Plug-In . SVG Version: 6.00 Build 0)  -->
<!DOCTYPE svg PUBLIC "-//W3C//DTD SVG 1.1//EN" "http://www.w3.org/Graphics/SVG/1.1/DTD/svg11.dtd">
<svg version="1.1" id="Capa_1" xmlns="http://www.w3.org/2000/svg" xmlns:xlink="http://www.w3.org/1999/xlink" x="0px" y="0px"
	 width="57px" height="57px" viewBox="0 0 57 57" enable-background="new 0 0 57 57" xml:space="preserve">
<g id="Back">
</g>
<g id="Diseño">
	<g>
		<g>
			<g>
				<g>
					<rect x="3.331" y="2.909" fill="#ECCE16" width="51" height="51"/>
				</g>
			</g>
			<path fill="#1E100D" d="M0,0v57h57V0H0z M54,54c-17,0-34,0-51,0C3,37,3,20,3,3c17,0,34,0,51,0C54,20,54,37,54,54z"/>
		</g>
		<g>
			<path fill="#1E100D" d="M29.977,23.252c-0.099-0.193-0.098-0.402-0.092-0.612c-0.009-0.07-0.017-0.145-0.023-0.217
				c-0.135-0.474-0.266-0.947-0.401-1.42c-0.293-1.014-0.876-1.879-1.545-2.652c-0.422-0.492-1.05-0.808-1.585-1.201
				c-0.322-0.15-0.645-0.302-0.966-0.453c-0.309-0.102-0.616-0.203-0.924-0.305c-0.206-0.048-0.41-0.097-0.614-0.144
				c-0.076,0.007-0.15,0.015-0.225,0.021c-0.2,0.162-0.437,0.072-0.657,0.095c-0.452-0.201-0.932-0.09-1.397-0.102
				c-0.745-0.02-1.49-0.008-2.236-0.008c-1.263,0-2.529,0.023-3.792-0.009c-0.495-0.013-0.617,0.159-0.616,0.634
				c0.014,7.973,0.011,15.965,0.011,23.919c1.21,0,2.418,0,3.627,0c0-2.409,0-4.784,0.004-7.179c0.001-0.208-0.06-0.439,0.107-0.607
				l0,0l-0.014-0.033v0.004c0.336-0.217,0.642-0.111,0.954-0.104c0.669,0.018,1.352-0.111,2.014,0.074
				c0.044,0.018,0.093,0.031,0.138,0.047c0.179-0.007,0.36-0.01,0.539-0.016c0.063-0.01,0.124-0.018,0.187-0.025
				c0.37-0.184,0.826-0.018,1.177-0.287c-0.045-0.027-0.088-0.053-0.131-0.078c0.211-0.049,0.406-0.248,0.64-0.056
				c0.146-0.046,0.292-0.091,0.439-0.136c0.36-0.404,0.846-0.531,1.352-0.62c2.207-1.093,3.331-2.962,3.81-5.296
				c-0.086-0.146-0.213-0.295,0.015-0.432c0.217-0.143,0.069-0.411,0.197-0.585c0.008-0.064,0.018-0.128,0.021-0.19
				C29.984,24.604,29.982,23.929,29.977,23.252z M26.027,24.177c-0.039,0.584-0.063,1.162-0.179,1.738
				c-0.423,2.104-2.372,3.465-4.447,3.433c-0.623,0.079-1.246,0.045-1.869-0.002c-0.252-0.005-0.505-0.011-0.756-0.016
				c-0.031,0.011-0.064,0.018-0.098,0.018c-0.18-0.131-0.136-0.326-0.136-0.502c-0.002-2.867-0.002-5.734-0.002-8.603
				c0-0.162-0.025-0.333,0.11-0.463c0.035-0.013,0.072-0.013,0.107-0.002c0.038-0.005,0.075-0.009,0.114-0.011l0.022-0.024
				l0.027,0.016c0.001,0,0.002,0,0.003-0.001c0.027-0.025,0.054-0.05,0.081-0.075c-0.027-0.036-0.176-0.07-0.063-0.101
				c0.189-0.051,0.411-0.076,0.585,0.084c0.736-0.002,1.47-0.003,2.207-0.005c0.185-0.153,0.396-0.104,0.758-0.064
				c-0.248,0.047-0.351,0.065-0.456,0.084c0.029,0.026,0.055,0.053,0.083,0.078c0.219-0.043,0.38,0.194,0.605,0.12
				c0.16-0.021,0.312-0.001,0.439,0.109c0.324,0.163,0.699,0.214,0.989,0.448c0.968,0.674,1.569,1.581,1.753,2.754
				c0.024,0.162,0.063,0.319,0.097,0.479c0.011-0.104,0.021-0.208,0.033-0.314C26.099,23.632,26.222,23.91,26.027,24.177z"/>
			<path fill="#1E100D" d="M42.415,22.298c-0.362,0.013-0.728,0.024-1.091,0.038c-0.333,0.099-0.665,0.196-0.998,0.296
				c-0.248,0.116-0.496,0.232-0.744,0.348c-0.917,0.61-1.809,1.248-2.459,2.211c-0.03-0.375-0.059-0.75-0.087-1.125
				c-0.009-0.062-0.019-0.123-0.027-0.188c-0.157-0.325-0.055-0.729-0.307-1.029c-0.974,0.004-1.947,0.016-2.923,0.006
				c-0.323-0.002-0.537,0.062-0.492,0.443c0.113,0.2,0.104,0.421,0.111,0.641c0.182,5.506,0.086,11.015,0.108,16.522
				c0,0.257,0.001,0.514,0.003,0.77c1.006,0.002,2.014-0.022,3.018,0.014c0.488,0.017,0.621-0.146,0.619-0.624
				c-0.018-3.714-0.013-7.429-0.008-11.142c0.002-0.227-0.091-0.482,0.139-0.667c0.027-0.009,0.056-0.012,0.082-0.009
				c0.033-0.023,0.066-0.045,0.103-0.067c0.156-0.151,0.321-0.3,0.474-0.459c0.864-0.908,1.94-1.389,3.174-1.549l0.01-0.029
				l-0.028-0.012c0-0.064-0.217-0.132-0.021-0.184c0.152-0.042,0.33-0.046,0.465,0.086c0.333,0.006,0.662,0.008,0.994,0.013
				c0.115-0.107,0.144-0.242,0.144-0.394c-0.004-1.161-0.006-2.319,0-3.479C42.672,22.522,42.604,22.381,42.415,22.298z"/>
			<path fill="#1E100D" d="M14.799,40.906c0.036-0.004,0.072-0.006,0.108-0.008c0,0,0-0.002,0.001-0.002
				c0-0.013,0.001-0.023,0.001-0.035c-0.012-0.008-0.024-0.018-0.037-0.029c-0.038-0.045-0.064-0.094-0.083-0.143
				c-0.002,0.068-0.002,0.14-0.002,0.207C14.792,40.898,14.796,40.902,14.799,40.906z"/>
			<path fill="#1E100D" d="M15.424,16.191c0.175-0.025,0.349-0.044,0.523-0.06c-0.104,0-0.206,0-0.309,0
				c-0.278-0.033-0.555-0.051-0.829,0.031c0,0.07,0,0.141,0,0.211C14.885,16.253,15.053,16.243,15.424,16.191z"/>
			<path fill="#1E100D" d="M18.52,16.155c-0.857-0.015-1.714-0.017-2.572-0.023c-0.175,0.016-0.349,0.034-0.523,0.06
				c-0.371,0.052-0.539,0.062-0.614,0.183c-0.004,7.851-0.007,15.701-0.011,23.553c0,0.254-0.004,0.51-0.009,0.764
				c0.019,0.049,0.045,0.098,0.083,0.143c0.012,0.014,0.025,0.021,0.037,0.029c0.001-0.022,0.002-0.049,0.002-0.069
				c0-7.972,0.003-15.943-0.011-23.916c-0.001-0.475,0.121-0.643,0.616-0.63c1.263,0.032,2.529,0.009,3.792,0.009
				C19.066,16.069,18.783,16.159,18.52,16.155z"/>
			<path fill="#1E100D" d="M14.754,40.877c-0.005-0.006-0.007-0.016-0.011-0.021c-0.002,0.019-0.006,0.033-0.01,0.053
				c0.018,0.005,0.035,0.007,0.054,0.007c0-0.007,0-0.013,0-0.013C14.776,40.891,14.766,40.884,14.754,40.877z"/>
			<path fill="#1E100D" d="M14.81,16.163c-0.026-0.006-0.055-0.008-0.083-0.004c0.007,0.033,0.01,0.068,0.014,0.102
				C14.757,16.228,14.779,16.194,14.81,16.163z"/>
			<path fill="#1E100D" d="M14.771,40.798c0,0.021-0.014,0.038-0.015,0.06c0.003,0.006,0,0.015,0.003,0.021
				c0.012,0.007,0.019,0.013,0.03,0.021c0.002-0.067,0.014-0.139,0.015-0.207c-0.031-0.082-0.033-0.168-0.033-0.252
				C14.771,40.557,14.771,40.678,14.771,40.798z"/>
			<path fill="#1E100D" d="M14.745,16.654c0,7.888,0,15.778,0,23.665c0.001-0.059,0.003-0.115,0.003-0.172
				c-0.003-7.735-0.003-15.467-0.002-23.203c0-0.31,0.003-0.473,0.063-0.57c0-0.07,0-0.141,0-0.211
				c-0.03,0.031-0.053,0.064-0.069,0.098C14.751,16.392,14.745,16.523,14.745,16.654z"/>
			<path fill="#1E100D" d="M14.804,40.689c0.003-0.254,0.002-0.51,0.002-0.764c0.004-7.852,0.003-15.702,0.007-23.553
				c-0.059,0.098-0.064,0.261-0.064,0.57c-0.002,7.735,0.01,15.467,0.014,23.202c0,0.058,0.009,0.114,0.009,0.172
				c0,0.041,0,0.078,0,0.119C14.771,40.521,14.771,40.607,14.804,40.689z"/>
			<path fill="#1E100D" d="M14.74,16.261c-0.004-0.033-0.007-0.068-0.014-0.102c-0.004,0.063-0.012,0.123-0.019,0.183
				C14.716,16.315,14.727,16.287,14.74,16.261z"/>
			<path fill="#1E100D" d="M14.743,40.855c-0.027-0.056-0.043-0.112-0.047-0.178c0-0.391,0-0.781-0.002-1.173
				c0,0.463,0,0.925,0,1.39c0.011,0.004,0.026,0.01,0.039,0.014C14.737,40.891,14.741,40.874,14.743,40.855z"/>
			<path fill="#1E100D" d="M14.757,40.855c0.001-0.021,0.015-0.039,0.015-0.059c0-0.12,0-0.24,0-0.359
				c0-0.041-0.015-0.08-0.015-0.119c0.001-7.887-0.006-15.776-0.006-23.665c0-0.131,0.005-0.263-0.008-0.394
				c-0.015,0.026-0.026,0.055-0.033,0.081c-0.008,0.086-0.018,0.171-0.018,0.255c0,7.637,0,15.272,0.004,22.909
				c0,0.392,0.006,0.782,0.006,1.173C14.706,40.743,14.729,40.801,14.757,40.855z"/>
			<path fill="#1E100D" d="M14.771,40.438c0-0.041,0-0.078,0-0.119C14.771,40.357,14.771,40.396,14.771,40.438z"/>
			<path fill="#1E100D" d="M36.307,41.396c-0.73,0.004-1.461,0.004-2.193,0c-0.217-0.002-0.44,0.015-0.629-0.133
				c-0.01-0.012-0.018-0.022-0.027-0.033c-0.018,0-0.038,0.002-0.055,0.002c0,0.033-0.004,0.063-0.006,0.097
				c0.045,0.034,0.09,0.071,0.137,0.104c1.189-0.002,2.382-0.004,3.57-0.004c0.057-0.061,0.113-0.119,0.17-0.178
				c0-0.096,0-0.189,0-0.286C37.207,41.361,36.995,41.396,36.307,41.396z"/>
			<path fill="#1E100D" d="M33.482,41.264c0.188,0.147,0.412,0.133,0.629,0.135c0.732,0.002,1.464,0.002,2.195,0
				c0.688-0.002,0.899-0.037,0.965-0.432c0.002-4.051,0.002-8.104,0.004-12.155c-0.229,0.184-0.137,0.44-0.139,0.667
				c-0.005,3.713-0.01,7.428,0.008,11.142c0.002,0.479-0.131,0.641-0.619,0.624c-1.004-0.036-2.012-0.012-3.018-0.014
				c-0.02,0.002-0.033,0.002-0.052,0.002C33.467,41.241,33.475,41.253,33.482,41.264z"/>
			<path fill="#1E100D" d="M33.307,27.052c-0.01-0.846,0.006-1.695-0.017-2.542c-0.011,0.199-0.026,0.397-0.022,0.596
				c0.01,0.646,0.021,1.288,0.03,1.935C33.303,27.044,33.307,27.049,33.307,27.052z"/>
			<path fill="#1E100D" d="M33.434,41.195c-0.012-0.02-0.022-0.035-0.031-0.055c0,0.021,0,0.039,0,0.062
				C33.412,41.198,33.423,41.195,33.434,41.195z"/>
			<path fill="#1E100D" d="M33.227,25.063c-0.011-0.011-0.021-0.022-0.031-0.031c0,0.007,0,0.014,0,0.022
				C33.204,25.052,33.216,25.057,33.227,25.063z"/>
			<path fill="#1E100D" d="M33.234,23.346c0-0.012,0-0.024,0-0.024h-0.006h-0.055c0.004,0.055,0.006,0.136,0.008,0.211
				c0.037,0.092,0.063,0.184,0.082,0.276C33.255,23.653,33.246,23.5,33.234,23.346z"/>
			<path fill="#1E100D" d="M33.234,23.346c0.011,0.154,0.021,0.303,0.029,0.457c0.047,0.235,0.041,0.471,0.025,0.71
				c0.021,0.847,0.007,1.695,0.018,2.541c0.146,0.211,0.084,0.451,0.084,0.679c0.006,4.47,0.008,8.938,0.01,13.408
				c0.01,0.021,0.021,0.036,0.031,0.057c0.027,0,0.053,0.012,0.076,0.033c-0.002-0.256-0.003-0.513-0.003-0.77
				c-0.022-5.508,0.073-11.004-0.108-16.51c-0.008-0.222,0.002-0.463-0.111-0.63h-0.051C33.234,23.321,33.234,23.334,33.234,23.346z
				"/>
			<path fill="#1E100D" d="M33.4,41.202c0,0.011,0,0.021,0,0.03c0.019,0,0.039-0.002,0.056-0.002
				c-0.009-0.01-0.015-0.021-0.024-0.035C33.423,41.195,33.412,41.198,33.4,41.202z"/>
			<path fill="#1E100D" d="M33.434,41.195c0.008,0.014,0.014,0.025,0.023,0.035c0.02,0,0.034,0,0.052,0
				C33.484,41.208,33.46,41.195,33.434,41.195z"/>
			<path fill="#1E100D" d="M33.359,41.253c0.006-0.028,0.014-0.041,0.021-0.041c-0.021-0.024-0.041-0.048-0.057-0.073
				c-0.012,0.033-0.029,0.065-0.053,0.096c0.041,0.031,0.084,0.063,0.123,0.096C33.365,41.307,33.354,41.281,33.359,41.253z"/>
			<path fill="#1E100D" d="M33.382,41.212c-0.008,0-0.017,0.013-0.022,0.041c-0.004,0.028,0.007,0.054,0.037,0.076
				c0.002-0.033,0.006-0.063,0.006-0.097C33.395,41.227,33.389,41.219,33.382,41.212z"/>
			<path fill="#1E100D" d="M33.338,29.509c0.001,3.718,0.001,7.435-0.002,11.152c0.004-0.063,0.008-0.126,0.008-0.188
				C33.339,36.816,33.372,33.163,33.338,29.509z"/>
			<path fill="#1E100D" d="M33.425,41.202c0-0.021,0-0.041,0-0.062c-0.055-0.052-0.054-0.104-0.063-0.158
				c0,0.054-0.012,0.104-0.029,0.156c0.016,0.024,0.033,0.049,0.053,0.072l0.012-0.001C33.402,41.208,33.37,41.204,33.425,41.202z"
				/>
			<path fill="#1E100D" d="M33.309,27.063c0,0,0-0.006-0.002-0.011c0-0.003-0.004-0.008-0.009-0.012
				C33.303,27.049,33.307,27.056,33.309,27.063z"/>
			<path fill="#1E100D" d="M33.338,27.473c0,0.679,0,1.357,0,2.036c0.034,3.654-0.009,7.31-0.006,10.966
				c0,0.062-0.018,0.123-0.018,0.188c0,0.033,0,0.064,0,0.096c0,0.074,0.021,0.149,0.021,0.227c0.012,0.054,0.034,0.106,0.061,0.158
				c-0.002-4.471,0-8.939-0.008-13.409c0-0.229,0.063-0.47-0.082-0.681c0,0.005,0,0.007,0,0.007
				C33.359,27.196,33.338,27.336,33.338,27.473z"/>
			<path fill="#1E100D" d="M33.383,41.211C33.383,41.211,33.383,41.212,33.383,41.211c0.006,0.008,0.012,0.016,0.02,0.021
				c0-0.012,0-0.021,0-0.03C33.396,41.204,33.389,41.208,33.383,41.211z"/>
			<path fill="#1E100D" d="M33.271,41.04c0,0.063,0,0.13,0,0.192c0.023-0.028,0.041-0.062,0.054-0.094
				C33.305,41.105,33.287,41.073,33.271,41.04z"/>
			<path fill="#1E100D" d="M33.348,40.982c-0.019-0.105-0.016-0.215-0.012-0.321c0.003-3.718,0.003-7.437,0.002-11.152
				c-0.006-0.726-0.014-1.452-0.025-2.178c-0.002-0.09-0.004-0.179-0.004-0.269c-0.002-0.007-0.006-0.014-0.011-0.022
				c-0.005,0.2-0.014,0.402-0.014,0.601c-0.005,4.466-0.009,8.933-0.013,13.399c0.016,0.033,0.031,0.065,0.054,0.099
				C33.343,41.088,33.348,41.036,33.348,40.982z"/>
			<path fill="#1E100D" d="M33.309,27.063c0,0.09,0.002,0.179,0.004,0.269c0.013,0.726,0.02,1.452,0.025,2.178
				c0-0.679,0-1.357,0-2.036C33.338,27.336,33.359,27.196,33.309,27.063z"/>
			<path fill="#1E100D" d="M33.313,40.661c0,0.106-0.008,0.216,0.013,0.321c0-0.076-0.013-0.151-0.013-0.227
				C33.313,40.727,33.313,40.693,33.313,40.661z"/>
			<path fill="#1E100D" d="M37.271,41.253c0.028-0.004,0.057-0.01,0.082-0.021c-0.017-0.025-0.028-0.055-0.037-0.084
				C37.305,41.186,37.292,41.219,37.271,41.253z"/>
			<path fill="#1E100D" d="M37.357,28.803c-0.026-0.003-0.055,0-0.082,0.009c0.018,0.027,0.029,0.055,0.039,0.081
				C37.324,28.86,37.338,28.832,37.357,28.803z"/>
			<path fill="#1E100D" d="M37.303,40.807c-0.002-3.647,0-7.299,0-10.947c-0.007,3.515,0,7.026-0.003,10.539
				c-0.001,0.244-0.005,0.43-0.026,0.568c0,0.096,0,0.19,0,0.286c0.02-0.034,0.031-0.067,0.045-0.104
				C37.279,41.04,37.303,40.921,37.303,40.807z"/>
			<path fill="#1E100D" d="M37.3,40.396c0.003-3.512-0.004-7.023,0.003-10.539c0-0.209,0-0.42,0-0.629
				c0-0.111-0.021-0.229,0.014-0.336c-0.012-0.026-0.022-0.054-0.039-0.081c-0.002,4.05-0.004,8.104-0.004,12.155
				C37.295,40.827,37.299,40.643,37.3,40.396z"/>
			<path fill="#1E100D" d="M37.354,40.662c0,0.027,0,0.056,0,0.085c0.004-3.845,0.004-7.688,0.004-11.53
				c0,0.063-0.004,0.124-0.004,0.186C37.357,33.157,37.357,36.909,37.354,40.662z"/>
			<path fill="#1E100D" d="M37.348,29.15c0-0.084,0-0.169,0-0.253c0,0.017-0.017,0.033-0.025,0.051
				C37.34,29.016,37.348,29.083,37.348,29.15z"/>
			<path fill="#1E100D" d="M37.311,41.148c0.008,0.029,0.037,0.059,0.037,0.084c0-0.104,0-0.211,0-0.315
				C37.348,40.996,37.335,41.074,37.311,41.148z"/>
			<path fill="#1E100D" d="M37.328,28.948c0.009-0.018,0.02-0.034,0.02-0.051c0-0.031,0-0.063,0-0.095
				c0,0.029-0.029,0.058-0.039,0.09C37.314,28.911,37.322,28.931,37.328,28.948z"/>
			<path fill="#1E100D" d="M37.327,28.962c-0.015,0.063-0.022,0.127-0.024,0.188c0,0.236,0,0.473,0,0.707
				c0,3.649-0.002,7.301,0,10.947c0,0.115-0.025,0.234,0.01,0.344c0.027-0.074,0.035-0.152,0.035-0.231c0-0.058,0-0.112,0-0.17
				c0-0.029,0.004-0.058,0.004-0.085c0.002-3.753-0.002-7.505-0.004-11.26c-0.002-0.063,0-0.123,0-0.187c0-0.022,0-0.044,0-0.065
				c0-0.067-0.002-0.135-0.02-0.202C37.326,28.953,37.329,28.958,37.327,28.962z"/>
			<path fill="#1E100D" d="M37.327,28.962c0.001-0.004,0.005-0.009,0.007-0.014c-0.006-0.018-0.014-0.037-0.02-0.056
				c-0.032,0.108-0.014,0.225-0.014,0.336c0,0.209,0,0.42,0,0.629c0.002-0.234,0.002-0.471,0.002-0.707
				C37.305,29.089,37.313,29.025,37.327,28.962z"/>
			<path fill="#1E100D" d="M21.71,33.077c0.013-0.025,0.025-0.052,0.034-0.076c-0.049,0.026-0.104,0.043-0.16,0.049
				C21.626,33.059,21.668,33.066,21.71,33.077z"/>
			<path fill="#1E100D" d="M18.656,40.868c0.006,0.004,0.012,0.007,0.019,0.009c-0.007-0.018-0.011-0.036-0.014-0.055
				c0-0.043-0.001-0.086-0.001-0.129c-0.002,0.002-0.002,0.005-0.004,0.008C18.656,40.757,18.656,40.813,18.656,40.868z"/>
			<polygon fill="#1E100D" points="18.661,32.979 18.65,32.991 18.651,32.99 			"/>
			<path fill="#1E100D" d="M19.271,32.98c0.769,0.043,1.546-0.086,2.313,0.068c0.057-0.006,0.111-0.021,0.16-0.049
				c-0.045-0.016-0.09-0.029-0.134-0.047C20.831,32.965,20.05,32.975,19.271,32.98z"/>
			<path fill="#1E100D" d="M18.656,40.701c0.002-0.003,0.002-0.006,0.004-0.008c-0.002-0.129-0.002-0.256-0.003-0.385
				C18.656,40.439,18.656,40.57,18.656,40.701z"/>
			<path fill="#1E100D" d="M18.983,32.986c-0.107,0.002-0.215,0.004-0.322,0.005c0,0.11,0,0.221,0,0.332
				C18.694,33.124,18.797,33.02,18.983,32.986z"/>
			<path fill="#1E100D" d="M21.57,33.05c-0.909,0.009-1.823-0.092-2.729,0.058c-0.05,0.043-0.085,0.097-0.107,0.158
				c-0.064,2.264-0.008,4.526-0.03,6.791c-0.002,0.211,0.039,0.437-0.043,0.639c0,0.043,0.001,0.084,0.001,0.128
				c0.002,0.019,0.007,0.036,0.014,0.055c0.021,0.008,0.048,0.011,0.077,0.005c0.002-2.438,0.011-4.877-0.005-7.316
				c-0.003-0.383,0.098-0.5,0.488-0.487c0.824,0.024,1.649,0.002,2.476,0c-0.042-0.011-0.084-0.021-0.126-0.027
				C21.579,33.05,21.575,33.05,21.57,33.05z"/>
			<path fill="#1E100D" d="M18.661,33.323c-0.002,2.327-0.003,4.657-0.004,6.985c0.001,0.129,0.001,0.256,0.003,0.385
				c0.082-0.201,0.041-0.428,0.043-0.639c0.022-2.264-0.034-4.525,0.03-6.791c0.022-0.062,0.058-0.115,0.107-0.156
				c0.907-0.149,1.82-0.049,2.729-0.059c0.005,0,0.008,0,0.014,0c-0.768-0.154-1.544-0.025-2.313-0.068
				c-0.096,0.002-0.192,0.004-0.287,0.006C18.797,33.02,18.694,33.124,18.661,33.323z"/>
			<path fill="#1E100D" d="M15.72,16.06c-0.028,0.023-0.056,0.047-0.081,0.072c0.073-0.031,0.148-0.057,0.223-0.076
				C15.813,16.057,15.768,16.058,15.72,16.06z"/>
			<path fill="#1E100D" d="M22.837,16.132c-0.123-0.051-0.287,0.005-0.395-0.087c-0.128-0.005-0.255-0.013-0.382-0.019
				c-0.964,0-1.926,0-2.89,0c0.029,0.015,0.055,0.038,0.077,0.065c0.003,0,0.007,0,0.01,0
				C20.451,16.118,21.646,16.041,22.837,16.132z"/>
			<path fill="#1E100D" d="M22.837,16.132c-1.191-0.091-2.386-0.014-3.579-0.04c-0.003,0-0.007,0-0.01,0
				c0.03,0.04,0.05,0.091,0.061,0.163c0.746,0,1.491-0.012,2.236,0.008c0.466,0.012,0.945-0.1,1.397,0.102
				c0.002-0.039,0.004-0.082,0.006-0.123C22.92,16.183,22.881,16.151,22.837,16.132z"/>
			<path fill="#1E100D" d="M19.248,16.092c-0.022-0.027-0.047-0.051-0.077-0.065c-0.43,0-0.858,0-1.289,0
				c-0.293,0-0.589,0.003-0.884,0.004c-0.378,0.008-0.756,0.017-1.136,0.025c-0.074,0.02-0.149,0.045-0.223,0.076
				c0.103,0,0.205,0,0.309,0C17.047,16.043,18.149,16.132,19.248,16.092z"/>
			<path fill="#1E100D" d="M15.947,16.132c0.858,0.007,1.715,0.009,2.572,0.023c0.264,0.004,0.547-0.086,0.789,0.1
				c-0.011-0.072-0.031-0.123-0.061-0.163C18.149,16.132,17.047,16.043,15.947,16.132z"/>
			<path fill="#1E100D" d="M33.234,23.249c0.004-0.307,0.021-0.441,0.152-0.501c-0.072,0.002-0.144,0.002-0.213,0.002
				c-0.113,0.183-0.027,0.365,0,0.548C33.195,23.261,33.216,23.245,33.234,23.249z"/>
			<path fill="#1E100D" d="M36.384,22.731c0.112,0.027,0.216,0.067,0.323,0.117c-0.035-0.039-0.061-0.078-0.094-0.117h0.007l0,0
				C36.507,22.731,36.458,22.731,36.384,22.731z"/>
			<path fill="#1E100D" d="M33.387,22.748c-0.13,0.06-0.146,0.194-0.15,0.501c0.017,0.002,0.031,0.018,0.05,0.049
				c-0.045-0.382,0.169-0.445,0.493-0.443c0.975,0.01,1.947-0.002,2.922-0.006c-0.107-0.05-0.217-0.09-0.328-0.117
				C35.378,22.737,34.382,22.742,33.387,22.748z"/>
			<path fill="#1E100D" d="M33.234,23.298c0-0.017,0-0.034,0-0.049c-0.02-0.004-0.039,0.012-0.061,0.049h0.055H33.234z"/>
			<path fill="#1E100D" d="M33.234,23.249c0,0.015,0,0.032,0,0.049h0.051C33.268,23.267,33.252,23.251,33.234,23.249z"/>
			<path fill="#1E100D" d="M33.176,22.651c-0.003,0.031-0.003,0.066-0.001,0.099c0.054-0.047,0.111-0.073,0.173-0.09
				C33.29,22.656,33.234,22.654,33.176,22.651z"/>
			<path fill="#1E100D" d="M36.6,22.731c-0.004-0.03-0.009-0.059-0.014-0.088c-0.129,0.01-0.258,0.018-0.385,0.026
				C36.334,22.684,36.467,22.703,36.6,22.731z"/>
			<path fill="#1E100D" d="M35.633,22.694c0.127-0.001,0.258-0.001,0.385-0.004c0.123,0,0.252,0.015,0.366,0.041
				c0.074,0,0.123,0,0.235,0l0,0c-0.168-0.028-0.273-0.048-0.408-0.062C36.021,22.679,35.82,22.688,35.633,22.694z"/>
			<path fill="#1E100D" d="M33.83,22.698c0.128-0.003,0.255-0.003,0.382-0.004c-0.289-0.008-0.575-0.019-0.864-0.034
				c-0.062,0.017-0.119,0.043-0.173,0.09c0.069,0,0.14,0,0.212-0.002C33.475,22.707,33.611,22.701,33.83,22.698z"/>
			<path fill="#1E100D" d="M36.018,22.69c-0.127,0.003-0.258,0.003-0.385,0.004c-0.475,0.014-0.947,0.013-1.421,0
				c-0.127,0.001-0.254,0.001-0.382,0.004c-0.219,0.003-0.355,0.009-0.443,0.05c0.995-0.006,1.991-0.011,2.986-0.017
				C36.258,22.705,36.141,22.69,36.018,22.69z"/>
			<path fill="#1E100D" d="M33.389,22.65c-0.07,0-0.143,0.001-0.213,0.001c0.059,0.003,0.114,0.005,0.172,0.009
				C33.359,22.656,33.374,22.653,33.389,22.65z"/>
			<path fill="#1E100D" d="M34.245,22.649c-0.119,0.001-0.239,0.001-0.358,0.001C34.006,22.651,34.126,22.65,34.245,22.649z"/>
			<path fill="#1E100D" d="M36.201,22.67c0.127-0.009,0.255-0.017,0.385-0.026c-0.218,0.001-0.438,0.001-0.652,0.001
				C36.021,22.651,36.111,22.658,36.201,22.67z"/>
			<path fill="#1E100D" d="M35.633,22.694c0.188-0.006,0.379-0.016,0.568-0.024c-0.09-0.012-0.18-0.019-0.27-0.025
				c-0.563,0.002-1.125,0.004-1.688,0.005c-0.119,0.001-0.239,0.002-0.359,0.001c-0.167,0-0.33,0-0.498,0
				c-0.014,0.003-0.027,0.006-0.041,0.01c0.289,0.016,0.576,0.026,0.865,0.034C34.686,22.692,35.158,22.695,35.633,22.694z"/>
			<path fill="#1E100D" d="M35.633,22.694c-0.475,0.001-0.947-0.002-1.421,0C34.686,22.707,35.158,22.708,35.633,22.694z"/>
			<path fill="#1E100D" d="M25.944,31.783c-0.469,0.167-0.925,0.359-1.352,0.619C25.071,32.259,25.535,32.078,25.944,31.783z"/>
			<path fill="#1E100D" d="M24.593,32.402c0.427-0.26,0.883-0.452,1.352-0.619C25.438,31.872,24.953,31.999,24.593,32.402z"/>
			<path fill="#1E100D" d="M33.182,23.52c-0.002,0.367-0.007,0.733-0.009,1.101c0.013,0.017,0.021,0.032,0.028,0.05
				C33.234,24.287,33.271,23.904,33.182,23.52z"/>
			<path fill="#1E100D" d="M33.201,24.67c0.056,0.118,0.033,0.237-0.008,0.361c0.011,0.009,0.021,0.021,0.031,0.031
				c0.016,0.009,0.028,0.021,0.043,0.043c-0.004-0.198,0.01-0.396,0.021-0.596c-0.004-0.238-0.014-0.475-0.025-0.714
				c-0.02-0.092-0.045-0.184-0.082-0.276C33.271,23.904,33.234,24.287,33.201,24.67z"/>
			<path fill="#1E100D" d="M33.266,23.796c0.01,0.239,0.021,0.476,0.024,0.714C33.307,24.271,33.313,24.033,33.266,23.796z"/>
			<path fill="#1E100D" d="M33.227,25.063c0.016,0.015,0.028,0.026,0.041,0.043C33.254,25.084,33.24,25.071,33.227,25.063z"/>
			<path fill="#1E100D" d="M33.201,24.67c-0.008-0.018-0.018-0.033-0.028-0.05c0.003,0.084,0.009,0.168,0.013,0.253
				C33.189,24.806,33.195,24.739,33.201,24.67z"/>
			<path fill="#1E100D" d="M33.201,24.67c-0.006,0.069-0.012,0.136-0.016,0.203c0.002,0.053,0.006,0.104,0.008,0.158
				C33.234,24.907,33.257,24.788,33.201,24.67z"/>
			<path fill="#1E100D" d="M23.219,16.222c0.124,0.029,0.251,0.05,0.381,0.048c-0.072-0.048-0.146-0.095-0.218-0.143
				C23.339,16.189,23.282,16.216,23.219,16.222z"/>
			<path fill="#1E100D" d="M23.139,16.218c0,0-0.002-0.001-0.003-0.002c-0.037,0.041-0.09,0.039-0.145,0.032
				c-0.001,0.043-0.018,0.082-0.049,0.116c0.22-0.022,0.457,0.067,0.657-0.095c-0.13,0.002-0.257-0.019-0.381-0.048
				C23.193,16.224,23.167,16.224,23.139,16.218z"/>
			<path fill="#1E100D" d="M22.948,16.241c-0.002,0.041-0.004,0.084-0.006,0.123c0.031-0.034,0.048-0.073,0.049-0.116
				C22.977,16.245,22.962,16.243,22.948,16.241z"/>
			<path fill="#1E100D" d="M23.146,16.204c0.024,0.006,0.048,0.012,0.073,0.018c0.063-0.006,0.12-0.032,0.163-0.095
				c-0.071,0.012-0.144,0.021-0.215,0.032C23.161,16.179,23.152,16.192,23.146,16.204z"/>
			<path fill="#1E100D" d="M23.139,16.218c0.028,0.006,0.055,0.006,0.08,0.004c-0.025-0.006-0.049-0.012-0.073-0.018
				c-0.003,0.004-0.007,0.008-0.01,0.012C23.137,16.217,23.139,16.218,23.139,16.218z"/>
			<path fill="#1E100D" d="M23.644,32.602c-0.087-0.004,0.021,0.045,0.001,0.071c0.181,0.001,0.351-0.039,0.509-0.134
				C23.973,32.466,23.817,32.607,23.644,32.602z"/>
			<path fill="#1E100D" d="M23.514,32.596c0.043,0.024,0.087,0.051,0.131,0.077c0.02-0.026-0.088-0.075-0.001-0.071
				c0.174,0.006,0.329-0.136,0.51-0.063C23.92,32.346,23.725,32.546,23.514,32.596z"/>
			<path fill="#1E100D" d="M29.754,26.487c0.16-0.139,0.119-0.283,0.014-0.432C29.721,26.199,29.742,26.343,29.754,26.487z"/>
			<path fill="#1E100D" d="M29.754,26.487c-0.012-0.145-0.033-0.288,0.014-0.432C29.541,26.192,29.668,26.341,29.754,26.487z"/>
			<path fill="#1E100D" d="M18.71,20.64c0-0.211-0.043-0.434,0.05-0.634c0-0.077-0.001-0.152-0.001-0.229
				c-0.035-0.011-0.072-0.011-0.107,0.002c0,2.988,0,5.977,0.001,8.966c0.001,0.2,0.017,0.401,0.026,0.603
				c0.033,0,0.066-0.007,0.098-0.018c-0.048-0.055-0.071-0.121-0.069-0.195C18.704,26.304,18.706,23.471,18.71,20.64z"/>
			<path fill="#1E100D" d="M18.774,29.23c-0.004-3.074-0.011-6.149-0.015-9.226c-0.093,0.2-0.05,0.423-0.05,0.634
				c-0.004,2.831-0.006,5.664-0.002,8.495c-0.002,0.074,0.021,0.142,0.069,0.195C18.773,29.296,18.773,29.266,18.774,29.23z"/>
			<path fill="#1E100D" d="M18.599,28.992c-0.003-2.966-0.003-5.931-0.001-8.896c0-0.109-0.017-0.221,0.054-0.317
				c-0.136,0.13-0.11,0.301-0.11,0.463c0,2.868,0,5.735,0.002,8.603c0,0.176-0.044,0.372,0.136,0.502
				C18.552,29.252,18.599,29.113,18.599,28.992z"/>
			<path fill="#1E100D" d="M18.651,19.779c-0.07,0.097-0.054,0.208-0.054,0.317c-0.002,2.965-0.002,5.93,0.001,8.896
				c0,0.121-0.047,0.26,0.08,0.355c-0.01-0.201-0.025-0.403-0.026-0.604C18.651,25.756,18.651,22.768,18.651,19.779z"/>
			<path fill="#1E100D" d="M18.595,40.794c-0.011,0.019-0.018,0.035-0.031,0.052c-0.009,0.006-0.015,0.012-0.024,0.016
				c0.001,0.013,0.003,0.021,0.003,0.035c0.031,0,0.055,0,0.087,0.004l0.007,0.007c0-0.011,0-0.025,0-0.038
				C18.637,40.854,18.606,40.829,18.595,40.794z"/>
			<polygon fill="#1E100D" points="18.661,32.982 18.661,32.979 18.654,32.988 			"/>
			<path fill="#1E100D" d="M18.568,40.846c0.013-0.017,0.025-0.033,0.037-0.052c-0.001-0.005-0.003-0.01-0.005-0.017
				c-0.011-2.459-0.002-4.907-0.003-7.367c0-0.137-0.039-0.286,0.055-0.396c0,0-0.001,0-0.002,0
				c-0.167,0.168-0.106,0.396-0.107,0.604c-0.004,2.395-0.004,4.783-0.004,7.179c0.001,0.022,0.002,0.045,0.004,0.068
				C18.551,40.857,18.56,40.852,18.568,40.846z"/>
			<path fill="#1E100D" d="M18.656,40.868c0-0.058,0-0.111,0-0.167c-0.014,0.031-0.029,0.063-0.051,0.093
				C18.616,40.829,18.633,40.854,18.656,40.868z"/>
			<polygon fill="#1E100D" points="18.654,32.988 18.661,32.979 18.651,32.99 			"/>
			<path fill="#1E100D" d="M18.657,40.311c-0.015-2.265,0.004-4.529-0.012-6.791c-0.001-0.074,0.005-0.14,0.016-0.195
				c0-0.111,0-0.221,0-0.332c-0.003,0-0.007,0-0.009,0c-0.094,0.126-0.055,0.273-0.055,0.41c0.001,2.457-0.008,4.916,0.003,7.377
				c0.002,0.006,0.004,0.011,0.005,0.016c0.021-0.029,0.037-0.063,0.051-0.093C18.656,40.57,18.656,40.439,18.657,40.311z"/>
			<path fill="#1E100D" d="M18.657,40.311c0.001-2.33,0.002-4.658,0.004-6.986c-0.011,0.057-0.017,0.121-0.016,0.195
				C18.661,35.779,18.643,38.046,18.657,40.311z"/>
			<path fill="#1E100D" d="M14.908,40.898c0.023,0,0.045,0,0.068,0c-0.02-0.01-0.036-0.019-0.054-0.028
				c-0.002,0.009-0.006,0.021-0.015,0.026L14.908,40.898L14.908,40.898z"/>
			<path fill="#1E100D" d="M18.507,40.885c-0.007,0.006-0.015,0.006-0.021,0.012c0.008,0,0.017,0,0.026,0
				C18.511,40.891,18.509,40.889,18.507,40.885z"/>
			<path fill="#1E100D" d="M14.923,40.875c0.018,0.01,0.034,0.02,0.054,0.025c1.17-0.002,2.34-0.004,3.509-0.004
				c0.007-0.004,0.015-0.004,0.021-0.008c-0.007-0.033,0.004-0.091,0.032-0.091c-1.209,0-2.417,0-3.627,0
				C14.926,40.799,14.929,40.854,14.923,40.875z"/>
			<path fill="#1E100D" d="M14.923,40.87c-0.005-0.002-0.008-0.006-0.014-0.009c0,0.012-0.001,0.022-0.001,0.035
				C14.917,40.891,14.921,40.879,14.923,40.87z"/>
			<path fill="#1E100D" d="M14.923,40.87c0.006-0.021,0.003-0.048-0.012-0.078c0,0.021-0.001,0.047-0.002,0.069
				C14.915,40.864,14.918,40.868,14.923,40.87z"/>
			<path fill="#1E100D" d="M18.544,40.896c-0.001-0.014-0.001-0.022-0.001-0.035c-0.012,0.009-0.023,0.017-0.036,0.023
				c0.002,0.004,0.004,0.006,0.005,0.012C18.522,40.896,18.533,40.896,18.544,40.896z"/>
			<path fill="#1E100D" d="M18.507,40.885c0.013-0.008,0.024-0.016,0.036-0.023c-0.002-0.021-0.003-0.047-0.004-0.068
				C18.511,40.818,18.5,40.852,18.507,40.885z"/>
			<path fill="#1E100D" d="M21.599,32.954c-0.664-0.187-1.347-0.058-2.014-0.074c-0.313-0.009-0.612-0.112-0.948,0.104
				c0,0.002,0,0.004,0,0.004C19.645,32.861,20.614,32.934,21.599,32.954z"/>
			<path fill="#1E100D" d="M18.65,32.991L18.65,32.991L18.65,32.991z"/>
			<polygon fill="#1E100D" points="18.651,32.99 18.65,32.991 18.65,32.991 			"/>
			<path fill="#1E100D" d="M18.637,32.99L18.637,32.99c0.112,0,0.228-0.002,0.336-0.004c0.062-0.01,0.138-0.012,0.218-0.008
				c0.024,0.002,0.052,0.002,0.076,0.002c0.781-0.006,1.55-0.017,2.33-0.026C20.613,32.934,19.645,32.861,18.637,32.99z"/>
			<path fill="#1E100D" d="M18.983,32.986c0.095-0.002,0.191-0.004,0.287-0.006c-0.025,0-0.05,0-0.074-0.002
				C19.116,32.975,19.046,32.977,18.983,32.986z"/>
			<polygon fill="#1E100D" points="18.65,32.991 18.652,32.991 18.652,32.991 			"/>
			<rect x="18.652" y="32.984" fill="#1E100D" width="0.009" height="0.007"/>
			<rect x="18.651" y="32.99" fill="#1E100D" width="0.001" height="0.002"/>
			<polygon fill="#1E100D" points="18.652,32.991 18.661,32.991 18.661,32.991 			"/>
			<path fill="#1E100D" d="M26.003,23.668c0.131,0.164,0.09,0.336,0.024,0.509c0.194-0.267,0.071-0.545,0.009-0.823
				C26.024,23.46,26.014,23.564,26.003,23.668z"/>
			<path fill="#1E100D" d="M26.003,23.668c0.009,0.169,0.017,0.34,0.024,0.509C26.093,24.004,26.134,23.832,26.003,23.668z"/>
			<path fill="#1E100D" d="M19.528,19.665c-0.174-0.16-0.396-0.135-0.585-0.084c-0.114,0.03,0.035,0.064,0.063,0.101
				C19.177,19.564,19.354,19.596,19.528,19.665z"/>
			<path fill="#1E100D" d="M19.374,19.67c0.052-0.002,0.104-0.004,0.155-0.005c-0.175-0.069-0.352-0.101-0.522,0.017
				c0.054-0.001,0.106-0.003,0.158-0.005C19.233,19.666,19.304,19.665,19.374,19.67z"/>
			<path fill="#1E100D" d="M19.164,19.677c0.07-0.004,0.14-0.005,0.21-0.007C19.304,19.665,19.233,19.666,19.164,19.677z"/>
			<path fill="#1E100D" d="M22.038,19.68c0.105-0.019,0.208-0.037,0.456-0.084c-0.362-0.04-0.573-0.089-0.758,0.064
				C21.841,19.601,21.945,19.579,22.038,19.68z"/>
			<path fill="#1E100D" d="M21.735,19.66c0.101,0.006,0.202,0.013,0.302,0.02C21.945,19.579,21.841,19.601,21.735,19.66z"/>
			<path fill="#1E100D" d="M41.4,26.667c-0.023-0.009-0.049-0.014-0.072-0.019c0.023,0.01,0.047,0.023,0.07,0.04
				C41.398,26.682,41.398,26.674,41.4,26.667z"/>
			<path fill="#1E100D" d="M41.328,26.648c0.023,0.005,0.049,0.01,0.072,0.019c0.014-0.07,0.047-0.107,0.132-0.078
				c-0.134-0.132-0.313-0.128-0.464-0.086c-0.197,0.052,0.02,0.119,0.02,0.184C41.17,26.632,41.251,26.618,41.328,26.648z"/>
			<path fill="#1E100D" d="M41.398,26.688c0.008,0.008,0.014,0.012,0.021,0.018c0.011-0.01,0.019-0.018,0.026-0.027
				c-0.016-0.005-0.029-0.01-0.045-0.012C41.398,26.674,41.398,26.682,41.398,26.688z"/>
			<path fill="#1E100D" d="M41.4,26.667c0.017,0.002,0.031,0.007,0.047,0.012c0.027-0.03,0.058-0.059,0.085-0.09
				C41.447,26.56,41.415,26.597,41.4,26.667z"/>
			<path fill="#1E100D" d="M41.398,26.688c-0.023-0.017-0.047-0.03-0.07-0.04c-0.064-0.011-0.131-0.007-0.2,0.034
				c0,0-0.001,0.002-0.003,0.006c0.096,0.006,0.188,0.012,0.282,0.018c-0.005-0.005-0.009-0.01-0.009-0.016V26.688L41.398,26.688z"
				/>
			<path fill="#1E100D" d="M41.128,26.683c0.069-0.041,0.136-0.045,0.2-0.034c-0.077-0.03-0.158-0.017-0.24,0.038
				c0.012,0.002,0.023,0.002,0.037,0.002C41.127,26.685,41.128,26.683,41.128,26.683z"/>
			<path fill="#1E100D" d="M41.398,26.69c0,0.006,0.004,0.011,0.009,0.016c0.004,0,0.007,0,0.013,0
				c-0.007-0.006-0.014-0.01-0.021-0.018V26.69L41.398,26.69z"/>
			<polygon fill="#1E100D" points="18.632,40.908 18.633,40.908 18.641,40.898 			"/>
			<path fill="#1E100D" d="M14.907,40.898c-0.015,0.015-0.036,0.024-0.065,0.029c0.046,0.021,0.097,0.024,0.146,0.025
				C14.96,40.939,14.934,40.922,14.907,40.898L14.907,40.898z"/>
			<polygon fill="#1E100D" points="18.521,40.915 18.514,40.919 18.522,40.919 18.521,40.919 			"/>
			<path fill="#1E100D" d="M14.799,40.906c0,0-0.001,0-0.002,0c0.011,0.007,0.021,0.014,0.033,0.02
				C14.819,40.919,14.81,40.913,14.799,40.906z"/>
			<path fill="#1E100D" d="M14.799,40.906c0.011,0.007,0.021,0.013,0.031,0.02c0.005,0.002,0.008,0.002,0.012,0.004
				c0.029-0.006,0.051-0.017,0.065-0.029C14.871,40.9,14.835,40.902,14.799,40.906z"/>
			<path fill="#1E100D" d="M18.522,40.919c-0.003,0.001-0.006,0.001-0.009,0.002c-0.094,0.07-0.204,0.09-0.323,0.09
				c-0.975,0.005-1.951,0.005-2.928,0c-0.098,0-0.191-0.013-0.274-0.057c-0.05-0.001-0.101-0.006-0.146-0.024
				c-0.001,0-0.001,0-0.003,0s-0.006-0.002-0.009-0.004c-0.011-0.006-0.022-0.013-0.033-0.02c0.038,0.042,0.076,0.083,0.112,0.126
				c1.212-0.003,2.42,0,3.632-0.003c0.029-0.04,0.062-0.063,0.092-0.118h-0.001C18.599,40.967,18.563,40.945,18.522,40.919z"/>
			<path fill="#1E100D" d="M14.839,40.93c0.002,0,0.002,0,0.003,0c-0.004-0.002-0.007-0.002-0.012-0.004
				C14.833,40.928,14.837,40.93,14.839,40.93z"/>
			<path fill="#1E100D" d="M18.521,40.919L18.521,40.919c0.015-0.004,0.029-0.006,0.044-0.008c0.021-0.002,0.044-0.003,0.066-0.003
				c0.002-0.004,0.006-0.006,0.009-0.01c-0.032-0.002-0.065-0.002-0.097-0.004c-0.008,0.006-0.015,0.012-0.023,0.021L18.521,40.919z
				"/>
			<path fill="#1E100D" d="M18.522,40.919c0.041,0.026,0.076,0.024,0.109-0.011c-0.022,0-0.045,0.001-0.066,0.003
				C18.551,40.913,18.536,40.915,18.522,40.919z"/>
			<path fill="#1E100D" d="M14.988,40.954c0.024,0.001,0.048,0.002,0.07,0.003c0.926-0.003,1.852,0.01,2.777-0.001
				c-0.815,0.004-1.632,0.004-2.447-0.002c-0.141,0-0.284,0.006-0.412-0.056c-0.023,0-0.045,0-0.068,0
				C14.934,40.922,14.96,40.939,14.988,40.954z"/>
			<path fill="#1E100D" d="M18.386,40.945c0.042-0.012,0.085-0.021,0.128-0.026c0.002,0,0.005,0.005,0.007,0.003
				c-0.005-0.007-0.007-0.011-0.009-0.011c-0.01,0-0.019,0-0.026,0c-0.063,0-0.127,0.037-0.193,0.044
				C18.323,40.954,18.354,40.945,18.386,40.945z"/>
			<path fill="#1E100D" d="M17.836,40.956c0.152-0.003,0.305-0.006,0.456-0.008c0.066-0.009,0.131-0.024,0.193-0.054
				c-1.169,0.002-2.339,0.002-3.509,0.004c0.128,0.062,0.271,0.056,0.412,0.056C16.204,40.96,17.021,40.96,17.836,40.956z"/>
			<path fill="#1E100D" d="M18.292,40.948c-0.08,0.008-0.163,0.006-0.244,0.006c-0.07,0.001-0.141,0.001-0.212,0.002
				c-0.926,0.011-1.852-0.002-2.777,0.001c-0.022-0.001-0.046-0.002-0.07-0.003c0.083,0.044,0.176,0.055,0.274,0.057
				c0.977,0.005,1.953,0.005,2.928-0.002c0.119,0,0.229-0.02,0.323-0.09c-0.043,0.007-0.086,0.017-0.128,0.026
				C18.354,40.945,18.323,40.945,18.292,40.948z"/>
			<path fill="#1E100D" d="M18.292,40.948c-0.151,0.002-0.304,0.005-0.456,0.008c0.071-0.001,0.142-0.001,0.212-0.002
				C18.129,40.954,18.212,40.956,18.292,40.948z"/>
			<path fill="#1E100D" d="M18.521,40.915c0.009-0.009,0.016-0.015,0.023-0.021c-0.011,0-0.021,0-0.032,0
				C18.514,40.9,18.516,40.906,18.521,40.915z"/>
		</g>
	</g>
</g>
<g id="Grid" display="none">
</g>
</svg>
