<?xml version="1.0" encoding="utf-8"?>
<!-- Generator: Adobe Illustrator 16.0.0, SVG Export Plug-In . SVG Version: 6.00 Build 0)  -->
<!DOCTYPE svg PUBLIC "-//W3C//DTD SVG 1.1//EN" "http://www.w3.org/Graphics/SVG/1.1/DTD/svg11.dtd">
<svg version="1.1" id="Capa_1" xmlns="http://www.w3.org/2000/svg" xmlns:xlink="http://www.w3.org/1999/xlink" x="0px" y="0px"
	 width="80.125px" height="81.5px" viewBox="0 0 80.125 81.5" enable-background="new 0 0 80.125 81.5" xml:space="preserve">
<g>
	<path d="M67.125,26.875c0,1.657-1.343,3-3,3h-50c-1.657,0-3-1.343-3-3v-1c0-1.657,1.343-3,3-3h50c1.657,0,3,1.343,3,3V26.875z"/>
	<path d="M67.125,40.875c0,1.657-1.343,3-3,3h-50c-1.657,0-3-1.343-3-3v-1c0-1.657,1.343-3,3-3h50c1.657,0,3,1.343,3,3V40.875z"/>
	<path d="M67.125,54.875c0,1.657-1.343,3-3,3h-50c-1.657,0-3-1.343-3-3v-1c0-1.657,1.343-3,3-3h50c1.657,0,3,1.343,3,3V54.875z"/>
</g>
</svg>
