<?xml version="1.0" encoding="utf-8"?>
<!-- Generator: Adobe Illustrator 16.0.0, SVG Export Plug-In . SVG Version: 6.00 Build 0)  -->
<!DOCTYPE svg PUBLIC "-//W3C//DTD SVG 1.1//EN" "http://www.w3.org/Graphics/SVG/1.1/DTD/svg11.dtd">
<svg version="1.1" id="Capa_1" xmlns="http://www.w3.org/2000/svg" xmlns:xlink="http://www.w3.org/1999/xlink" x="0px" y="0px"
	 width="29.093px" height="28.999px" viewBox="84.798 3.853 29.093 28.999" enable-background="new 84.798 3.853 29.093 28.999"
	 xml:space="preserve">
<g>
	<path d="M90.97,3.977c1.346,0,2.438,1.091,2.438,2.438V30.29c0,1.346-1.092,2.438-2.438,2.438l0,0
		c-1.347,0-2.438-1.092-2.438-2.438V6.415C88.533,5.068,89.624,3.977,90.97,3.977L90.97,3.977z"/>
	<path d="M99.303,3.977c1.346,0,2.438,1.091,2.438,2.438V30.29c0,1.346-1.092,2.438-2.438,2.438l0,0
		c-1.346,0-2.438-1.092-2.438-2.438V6.415C96.866,5.068,97.958,3.977,99.303,3.977L99.303,3.977z"/>
	<path d="M107.719,3.977c1.348,0,2.438,1.091,2.438,2.438V30.29c0,1.346-1.09,2.438-2.438,2.438l0,0
		c-1.346,0-2.438-1.092-2.438-2.438V6.415C105.282,5.068,106.374,3.977,107.719,3.977L107.719,3.977z"/>
</g>
</svg>
