<?xml version="1.0" encoding="utf-8"?>
<!-- Generator: Adobe Illustrator 16.0.0, SVG Export Plug-In . SVG Version: 6.00 Build 0)  -->
<!DOCTYPE svg PUBLIC "-//W3C//DTD SVG 1.1//EN" "http://www.w3.org/Graphics/SVG/1.1/DTD/svg11.dtd">
<svg version="1.1" id="Capa_1" xmlns="http://www.w3.org/2000/svg" xmlns:xlink="http://www.w3.org/1999/xlink" x="0px" y="0px"
	 width="29.093px" height="28.999px" viewBox="49.798 3.853 29.093 28.999" enable-background="new 49.798 3.853 29.093 28.999"
	 xml:space="preserve">
<g>
	<path d="M78.792,10.203c0,1.346-1.091,2.438-2.438,2.438H52.48c-1.346,0-2.438-1.091-2.438-2.438l0,0
		c0-1.346,1.092-2.438,2.438-2.438h23.875C77.702,7.766,78.792,8.857,78.792,10.203L78.792,10.203z"/>
	<path d="M78.792,18.536c0,1.347-1.091,2.438-2.438,2.438H52.48c-1.346,0-2.438-1.092-2.438-2.438l0,0
		c0-1.346,1.092-2.437,2.438-2.437h23.875C77.702,16.099,78.792,17.19,78.792,18.536L78.792,18.536z"/>
	<path d="M78.792,26.953c0,1.348-1.091,2.438-2.438,2.438H52.48c-1.346,0-2.438-1.09-2.438-2.438l0,0
		c0-1.346,1.092-2.438,2.438-2.438h23.875C77.702,24.516,78.792,25.607,78.792,26.953L78.792,26.953z"/>
</g>
</svg>
