<?xml version="1.0" encoding="utf-8"?>
<!-- Generator: Adobe Illustrator 16.0.0, SVG Export Plug-In . SVG Version: 6.00 Build 0)  -->
<!DOCTYPE svg PUBLIC "-//W3C//DTD SVG 1.1//EN" "http://www.w3.org/Graphics/SVG/1.1/DTD/svg11.dtd">
<svg version="1.1" xmlns="http://www.w3.org/2000/svg" xmlns:xlink="http://www.w3.org/1999/xlink" x="0px" y="0px" width="52px"
	 height="52px" viewBox="193.667 0 52 52" enable-background="new 193.667 0 52 52" xml:space="preserve">
<g id="Capa_2">
	<rect x="199.292" y="4.147" fill="#FFE120" width="41.535" height="28.581"/>
	<linearGradient id="SVGID_1_" gradientUnits="userSpaceOnUse" x1="220.5596" y1="4.3975" x2="220.5596" y2="32.979">
		<stop  offset="0" style="stop-color:#FFFFFF;stop-opacity:0.8"/>
		<stop  offset="0.0065" style="stop-color:#FFFFFF;stop-opacity:0.7948"/>
		<stop  offset="1" style="stop-color:#FFFFFF;stop-opacity:0"/>
	</linearGradient>
	<rect x="199.792" y="4.397" opacity="0.6" fill="url(#SVGID_1_)" width="41.535" height="28.581"/>
</g>
<g id="Capa_1">
	<g>
		<path fill="#1D1210" d="M227.528,17.131l-10.372-5.895c-0.004-0.003-0.011-0.005-0.016-0.007
			c-0.155-0.077-0.347-0.118-0.553-0.118c-0.194,0-0.405,0.036-0.607,0.102c-0.011,0.005-0.024,0.01-0.037,0.016
			c-0.336,0.168-0.631,0.62-0.631,0.965v11.93c0,0.484,0.205,0.805,0.61,0.961c0.184,0.151,0.379,0.151,0.62,0.151
			c0.24,0,0.452,0,0.643-0.17l10.36-6.004c0.332-0.172,0.622-0.618,0.622-0.961C228.168,17.732,227.97,17.294,227.528,17.131z"/>
	</g>
	<path fill="#1D1210" d="M238.516,0.377h-36.621c-1.764,0-3.198,1.432-3.198,3.193v29.536c0,1.76,1.435,3.191,3.198,3.191h36.621
		c1.761,0,3.193-1.432,3.193-3.191V3.57C241.709,1.809,240.276,0.377,238.516,0.377z M240.448,31.418h-40.255V5.583h-0.526v-3.43
		h2.334c0.003,0,0.008,0,0.009,0h36.626c0.002,0,0.005,0,0.008,0h-36.643c-0.705,0.004-1.407,0.594-1.407,1.417v1.613h39.854V31.418
		z"/>
	<polygon fill="#1D1210" points="238.636,2.152 202.01,2.152 202.001,2.153 238.644,2.153 	"/>
	<path fill="#1D1210" d="M200.594,5.183V3.57c0-0.823,0.702-1.413,1.407-1.417h-2.334v3.43h0.526v-0.4H200.594z"/>
	
		<radialGradient id="SVGID_2_" cx="692.6895" cy="6008.9902" r="17.0614" gradientTransform="matrix(1.1083 0 0 0.1273 -548.1899 -715.1476)" gradientUnits="userSpaceOnUse">
		<stop  offset="0" style="stop-color:#E6C816"/>
		<stop  offset="0.417" style="stop-color:#EDCF19;stop-opacity:0.584"/>
		<stop  offset="1" style="stop-color:#FFE121;stop-opacity:0.003"/>
	</radialGradient>
	<ellipse fill="url(#SVGID_2_)" cx="219.517" cy="49.797" rx="18.633" ry="2.203"/>
	<rect x="199.5" y="1.688" fill="#1D1210" width="4.063" height="3.469"/>
	<rect x="199.406" y="4.313" fill="#1D1210" width="0.688" height="1.938"/>
</g>
</svg>
