<?xml version="1.0" encoding="utf-8"?>
<!-- Generator: Adobe Illustrator 16.0.0, SVG Export Plug-In . SVG Version: 6.00 Build 0)  -->
<!DOCTYPE svg PUBLIC "-//W3C//DTD SVG 1.1//EN" "http://www.w3.org/Graphics/SVG/1.1/DTD/svg11.dtd">
<svg version="1.1" id="Capa_1" xmlns="http://www.w3.org/2000/svg" xmlns:xlink="http://www.w3.org/1999/xlink" x="0px" y="0px"
	 width="57px" height="57px" viewBox="0 0 57 57" enable-background="new 0 0 57 57" xml:space="preserve">
<g id="Back">
</g>
<g id="Diseño">
	<g>
		<g>
			<g>
				<g>
					<rect x="3" y="3" fill="#ECCE16" width="51" height="51"/>
				</g>
			</g>
			<path fill="#1E100D" d="M0,0v57h57V0H0z M54,54c-17,0-34,0-51,0C3,37,3,20,3,3c17,0,34,0,51,0C54,20,54,37,54,54z"/>
		</g>
		<g>
			<path fill="#1E100D" d="M15.289,39.926c-0.072-0.07-0.066-0.154-0.039-0.24c0.336-0.151,0.193-0.455,0.194-0.689
				c0.009-4.946,0.007-9.893,0.007-14.839c0-2.874,0.007-5.748-0.01-8.622c-0.002-0.464,0.14-0.626,0.605-0.605
				c0.745,0.032,1.492,0.009,2.24,0.009c0.857,0,0.857,0,0.857,0.838c0,6.625-0.002,13.25,0.006,19.877
				c0,0.234-0.139,0.543,0.217,0.676c3.209-0.006,6.418-0.012,9.627-0.018c0.237,0,0.473-0.004,0.405,0.352
				c-0.201,1.078-0.285,2.178-0.568,3.24c-0.579,0.003-1.157,0.006-1.735,0.007C23.16,39.915,19.225,39.92,15.289,39.926z"/>
			<path fill="#1E100D" d="M35.92,22.102c0.004,0.039,0.01,0.078,0.014,0.117c-0.121,0.279-0.229,0.557,0.101,0.779
				c0.024,0.145,0.048,0.289,0.081,0.473c0.271-0.111,0.347-0.381,0.505-0.565c1.172-1.363,2.594-2.247,4.43-2.374
				c0.515-0.035,0.743,0.111,0.72,0.682c-0.045,1.006-0.037,2.015-0.004,3.02c0.019,0.501-0.111,0.661-0.646,0.678
				c-1.955,0.059-3.611,0.797-4.858,2.347c-0.318,0.132-0.195,0.414-0.195,0.634c-0.008,3.729-0.017,7.457,0.006,11.185
				c0.003,0.545-0.113,0.773-0.705,0.734c-0.781-0.052-1.566-0.041-2.348-0.002c-0.517,0.025-0.67-0.145-0.664-0.662
				c0.022-2.627,0.028-5.256,0.006-7.885c-0.029-3.146,0.109-6.295-0.1-9.439c-0.05-0.72-0.009-0.722,0.737-0.725
				c0.875-0.003,1.752-0.007,2.627-0.011L35.62,21.08c-0.015,0.155-0.011,0.302,0.183,0.35c0.012,0.074,0.023,0.149,0.035,0.224
				C35.684,21.836,35.657,21.994,35.92,22.102z"/>
			<path fill="#1E100D" d="M19.367,36.328c-0.355-0.133-0.217-0.441-0.217-0.676c-0.008-6.627-0.006-13.252-0.006-19.877
				c0-0.838,0-0.838-0.857-0.838c-0.748,0-1.496,0.023-2.24-0.009c-0.466-0.021-0.607,0.142-0.605,0.605
				c0.017,2.874,0.01,5.748,0.01,8.622c0,4.947,0.002,9.893-0.007,14.839c-0.001,0.234,0.142,0.538-0.194,0.689
				c-0.007-0.186-0.019-0.371-0.019-0.559C15.23,31.253,15.23,23.38,15.23,15.506c0-0.732,0-0.732,0.735-0.732
				c0.84,0,1.68,0,2.519,0c0.826,0,0.826,0,0.826,0.798c-0.001,6.717-0.001,13.435,0.001,20.151
				C19.313,35.925,19.268,36.134,19.367,36.328z"/>
			<path fill="#1E100D" d="M35.625,21.086c-0.875,0.004-1.752,0.008-2.627,0.011c-0.746,0.003-0.787,0.005-0.738,0.725
				c0.209,3.146,0.07,6.294,0.1,9.44c0.023,2.629,0.018,5.258-0.006,7.885c-0.004,0.519,0.148,0.688,0.664,0.662
				c0.781-0.039,1.567-0.05,2.349,0.002c0.592,0.039,0.708-0.189,0.704-0.734c-0.021-3.729-0.014-7.456-0.006-11.185
				c0-0.22-0.123-0.502,0.195-0.634c0.006,4.083,0.01,8.165,0.025,12.248c0.002,0.39-0.17,0.466-0.51,0.462
				c-1.006-0.014-2.014-0.025-3.021,0.004c-0.45,0.014-0.565-0.146-0.563-0.576c0.015-3.113,0.01-6.228,0.008-9.34
				c-0.002-2.891,0.031-5.781-0.16-8.667c-0.014-0.227-0.063-0.46,0.297-0.457c1.025,0.009,2.051,0.006,3.076,0.009
				C35.512,20.94,35.592,20.983,35.625,21.086z"/>
			<path fill="#1E100D" d="M15.289,39.926c3.936-0.006,7.871-0.011,11.808-0.017c0.578-0.001,1.156-0.005,1.735-0.007
				c-0.125,0.24-0.352,0.168-0.544,0.168c-4.146,0.004-8.293,0.004-12.439,0C15.654,40.07,15.431,40.145,15.289,39.926z"/>
			<path fill="#1E100D" d="M36.033,22.998c-0.328-0.223-0.221-0.5-0.1-0.779C35.967,22.479,36,22.738,36.033,22.998z"/>
			<path fill="#1E100D" d="M35.92,22.102c-0.263-0.107-0.236-0.266-0.082-0.448C35.865,21.803,35.893,21.952,35.92,22.102z"/>
			<path fill="#1E100D" d="M35.803,21.43c-0.193-0.048-0.197-0.194-0.183-0.35C35.783,21.143,35.796,21.285,35.803,21.43z"/>
		</g>
	</g>
</g>
<g id="Grid" display="none">
</g>
</svg>
