<?xml version="1.0" encoding="utf-8"?>
<!-- Generator: Adobe Illustrator 16.0.0, SVG Export Plug-In . SVG Version: 6.00 Build 0)  -->
<!DOCTYPE svg PUBLIC "-//W3C//DTD SVG 1.1//EN" "http://www.w3.org/Graphics/SVG/1.1/DTD/svg11.dtd">
<svg version="1.1" id="Capa_1" xmlns="http://www.w3.org/2000/svg" xmlns:xlink="http://www.w3.org/1999/xlink" x="0px" y="0px"
	 width="57px" height="57px" viewBox="0 0 57 57" enable-background="new 0 0 57 57" xml:space="preserve">
<g id="Back">
</g>
<g id="Diseño">
	<g>
		<g>
			<g>
				<g>
					<rect x="3" y="3" fill="#ECCE16" width="51" height="51"/>
				</g>
			</g>
			<path fill="#1E100D" d="M0,0v57h57V0H0z M54,54c-17,0-34,0-51,0C3,37,3,20,3,3c17,0,34,0,51,0C54,20,54,37,54,54z"/>
		</g>
		<g>
			<polygon fill="#1E100D" points="12,21 12,21 12,36 12,36 12,43.5 26,43.5 26,36 19,36 19,21 26,21 26,13.5 12,13.5 			"/>
			<polygon fill="#1E100D" points="45,17.785 45,17.785 45,13.5 30,13.5 30,21 38,21 38,36 30,36 30,43.5 45,43.5 45,37.072 
				45,37.072 			"/>
		</g>
	</g>
</g>
<g id="Grid" display="none">
</g>
</svg>
