<?xml version="1.0" encoding="utf-8"?>
<!-- Generator: Adobe Illustrator 16.0.0, SVG Export Plug-In . SVG Version: 6.00 Build 0)  -->
<!DOCTYPE svg PUBLIC "-//W3C//DTD SVG 1.1//EN" "http://www.w3.org/Graphics/SVG/1.1/DTD/svg11.dtd">
<svg version="1.1" xmlns="http://www.w3.org/2000/svg" xmlns:xlink="http://www.w3.org/1999/xlink" x="0px" y="0px" width="52px"
	 height="52px" viewBox="128 0 52 52" enable-background="new 128 0 52 52" xml:space="preserve">
<g id="Capa_2">
	<rect x="135.405" y="7.239" fill="#FFE120" width="37.485" height="27.209"/>
	<rect x="156.539" y="1.665" fill="#FFE120" width="15.51" height="5.016"/>
	<linearGradient id="SVGID_1_" gradientUnits="userSpaceOnUse" x1="154.6816" y1="7.4888" x2="154.6816" y2="34.6987">
		<stop  offset="0" style="stop-color:#FFFFFF;stop-opacity:0.8"/>
		<stop  offset="0.1336" style="stop-color:#FFFFFF;stop-opacity:0.6931"/>
		<stop  offset="1" style="stop-color:#FFFFFF;stop-opacity:0"/>
	</linearGradient>
	<rect x="135.939" y="7.489" opacity="0.6" fill="url(#SVGID_1_)" width="37.485" height="27.209"/>
</g>
<g id="Capa_1">
	<path fill="#1D1210" d="M169.785,0.352h-30.629c-2.503,0-4.54,2.036-4.54,4.538v26.79c0,2.503,2.037,4.54,4.54,4.54h30.629
		c2.503,0,4.54-2.037,4.54-4.54V4.89C174.325,2.388,172.288,0.352,169.785,0.352z M164.557,1.768c1.321,0,2.396,1.075,2.396,2.396
		c0,1.321-1.074,2.396-2.396,2.396s-2.396-1.075-2.396-2.396C162.16,2.843,163.235,1.768,164.557,1.768z M159.516,1.768
		c1.32,0,2.395,1.075,2.395,2.396c0,1.321-1.074,2.396-2.395,2.396c-1.322,0-2.397-1.075-2.397-2.396
		C157.118,2.843,158.193,1.768,159.516,1.768z M172.584,31.333h-36.396V7.966h36.396V31.333z M169.601,6.56
		c-1.321,0-2.396-1.075-2.396-2.396c0-1.321,1.075-2.396,2.396-2.396s2.396,1.075,2.396,2.396
		C171.997,5.485,170.922,6.56,169.601,6.56z"/>
	<path fill="#1D1210" d="M148.294,21.398c0,1.211,0.392,2.14,1.174,2.786c0.295,0.107,0.582,0.161,0.866,0.161
		c1.261,0,2.395-0.567,3.402-1.701c0.156,0.762,0.449,1.276,0.881,1.54c0.293,0.107,0.581,0.161,0.864,0.161
		c0.801,0,1.549-0.23,2.245-0.69c0.692-0.46,1.265-1.034,1.715-1.722c0.448-0.688,0.835-1.445,1.157-2.266
		c0.326-0.821,0.557-1.591,0.698-2.31c0.143-0.718,0.212-1.342,0.212-1.871c0-0.782-0.47-1.173-1.406-1.173
		c-0.558,0-1.028,0.102-1.409,0.308c0.167,0.431,0.25,0.948,0.25,1.553c0,0.606-0.057,1.264-0.17,1.973
		c-0.112,0.709-0.279,1.414-0.505,2.113s-0.532,1.296-0.917,1.796c-0.387,0.5-0.825,0.782-1.313,0.852
		c-0.332-0.714-0.5-1.653-0.5-2.817c0-0.166,0.011-0.405,0.03-0.719c0.528-1.437,0.792-2.732,0.792-3.886
		c0-0.782-0.47-1.173-1.409-1.173c-0.555,0-1.027,0.102-1.406,0.308c0.165,0.431,0.249,0.948,0.249,1.553
		c0,0.606-0.056,1.264-0.17,1.973c-0.111,0.709-0.281,1.414-0.505,2.113c-0.226,0.699-0.531,1.296-0.918,1.796
		c-0.385,0.5-0.823,0.782-1.313,0.852c-0.175-0.352-0.262-0.998-0.262-1.937c0-0.577,0.098-1.482,0.299-2.72
		c0.201-1.237,0.301-2.085,0.301-2.545c0-0.929-0.479-1.393-1.438-1.393c-0.585,0-1.056,0.117-1.409,0.352
		c0.267,0.548,0.396,1.178,0.396,1.892c0,0.802-0.078,1.652-0.241,2.552C148.375,20.01,148.294,20.773,148.294,21.398z"/>
	
		<radialGradient id="SVGID_2_" cx="633.4395" cy="6008.9902" r="17.0609" gradientTransform="matrix(1.1083 0 0 0.1273 -548.1899 -715.1476)" gradientUnits="userSpaceOnUse">
		<stop  offset="0" style="stop-color:#E6C816"/>
		<stop  offset="0.417" style="stop-color:#EDCF19;stop-opacity:0.584"/>
		<stop  offset="1" style="stop-color:#FFE121;stop-opacity:0.003"/>
	</radialGradient>
	<ellipse fill="url(#SVGID_2_)" cx="153.85" cy="49.797" rx="18.633" ry="2.203"/>
</g>
</svg>
