<?xml version="1.0" encoding="utf-8"?>
<!-- Generator: Adobe Illustrator 16.0.0, SVG Export Plug-In . SVG Version: 6.00 Build 0)  -->
<!DOCTYPE svg PUBLIC "-//W3C//DTD SVG 1.1//EN" "http://www.w3.org/Graphics/SVG/1.1/DTD/svg11.dtd">
<svg version="1.1" xmlns="http://www.w3.org/2000/svg" xmlns:xlink="http://www.w3.org/1999/xlink" x="0px" y="0px"
	 width="36.794px" height="36.793px" viewBox="0 0 36.794 36.793" enable-background="new 0 0 36.794 36.793" xml:space="preserve">
<g id="Back">
</g>
<g id="Diseño">
	<g>
		<g>
			<path fill="#FFD820" stroke="#1E100D" stroke-width="2" stroke-miterlimit="10" d="M35.794,31.539
				c0,2.35-1.904,4.254-4.254,4.254H5.254C2.905,35.793,1,33.889,1,31.539V5.252C1,2.904,2.905,1,5.254,1H31.54
				c2.35,0,4.254,1.904,4.254,4.252V31.539z"/>
			<linearGradient id="SVGID_1_" gradientUnits="userSpaceOnUse" x1="2.2466" y1="2.2461" x2="34.5484" y2="34.5479">
				<stop  offset="0" style="stop-color:#FFFFFF;stop-opacity:0.3"/>
				<stop  offset="1" style="stop-color:#FFD820;stop-opacity:0"/>
			</linearGradient>
			<path fill="url(#SVGID_1_)" d="M35.794,31.539c0,2.35-1.904,4.254-4.254,4.254H5.254C2.905,35.793,1,33.889,1,31.539V5.252
				C1,2.904,2.905,1,5.254,1H31.54c2.35,0,4.254,1.904,4.254,4.252V31.539z"/>
			<path fill="none" stroke="#1E100D" stroke-width="2" stroke-miterlimit="10" d="M35.794,31.539c0,2.35-1.904,4.254-4.254,4.254
				H5.254C2.905,35.793,1,33.889,1,31.539V5.252C1,2.904,2.905,1,5.254,1H31.54c2.35,0,4.254,1.904,4.254,4.252V31.539z"/>
		</g>
		<g>
			<g>
				<path d="M15.998,17.492c0.19-0.134,0.322-0.229,0.455-0.322c1.512-1.053,1.771-2.543,1.49-4.23
					c-0.276-1.648-1.332-2.53-2.875-2.899c-0.556-0.133-1.14-0.202-1.713-0.208C10.965,9.81,8.574,9.838,6.186,9.81
					c-0.539-0.007-0.688,0.142-0.687,0.683c0.02,5.166,0.019,10.331,0.001,15.497c-0.003,0.527,0.127,0.699,0.678,0.692
					c2.417-0.031,4.837-0.016,7.255-0.016c0.664,0,1.31-0.121,1.943-0.317c1.963-0.603,3.196-2.02,3.349-3.845
					C18.938,19.97,18.199,18.575,15.998,17.492z M10.749,12.695c0.769,0.001,1.538-0.05,2.302,0.08
					c1.099,0.186,1.6,0.795,1.578,1.937c-0.022,1.106-0.716,1.772-1.796,1.866c-0.6,0.053-0.934,0.01-1.934,0.01
					c0-0.012,0-0.023,0-0.037c0,0-1.463,0.266-1.865-0.068c-0.479-0.399-0.089-1.337-0.101-2.038
					C8.912,12.693,8.988,12.688,10.749,12.695z M13.489,23.71c-1.334,0.219-2.683,0.055-4.023,0.106
					c-0.354,0.013-0.485-0.129-0.48-0.48c0.013-1.234,0.016-2.469,0-3.702c-0.005-0.382-0.061-0.46,0.262-0.454
					c0.633,0.01,1.652,0.003,1.652,0.003c0,0.012,0,0.024,0,0.036c1,0,1.561-0.051,2.213,0.012c1.229,0.116,1.996,0.881,2.033,2.154
					C15.187,22.775,14.765,23.5,13.489,23.71z"/>
				<path d="M26.517,14.172c-2.36-0.383-4.772,0.773-5.873,2.928c-1.202,2.355-1.194,4.777,0.041,7.115
					c1.055,1.999,2.866,2.791,5.062,2.769c2.037-0.018,3.688-0.76,4.695-2.633c0.795-1.477,0.794-1.478-0.884-1.478
					c-0.109,0-0.222,0.01-0.329-0.002c-0.58-0.063-0.964,0.106-1.356,0.623c-0.786,1.029-1.93,1.187-3.132,0.834
					c-1.128-0.33-1.54-1.229-1.729-2.29c-0.086-0.484,0.03-0.764,0.579-0.745c1.182,0.044,2.364-0.061,3.544-0.061
					c0.688,0,1.375,0,2.063,0c2.301,0,2.301,0.075,1.897-2.265C30.633,16.308,28.923,14.562,26.517,14.172z M27.494,19.259
					c-0.658-0.042-1.319-0.01-1.979-0.01s-1.323-0.021-1.98,0.007c-0.438,0.018-0.588-0.104-0.494-0.562
					c0.243-1.207,1.266-2.04,2.547-2.033c1.274,0.007,2.113,0.712,2.383,1.965C28.062,19.055,28.037,19.293,27.494,19.259z"/>
			</g>
			<path d="M22.332,11.891c-0.052,0.363-0.116,0.774,0.523,0.742c0.874-0.044,1.751-0.012,2.627-0.012
				c0.905,0,1.811-0.031,2.711,0.012c0.62,0.03,0.602-0.347,0.544-0.732c-0.052-0.359,0.304-0.949-0.494-0.945
				c-1.807,0.01-3.614,0.014-5.423-0.002C22.013,10.945,22.381,11.538,22.332,11.891z"/>
		</g>
	</g>
</g>
<g id="Grid" display="none">
</g>
</svg>
