<?xml version="1.0" encoding="utf-8"?>
<!-- Generator: Adobe Illustrator 16.0.0, SVG Export Plug-In . SVG Version: 6.00 Build 0)  -->
<!DOCTYPE svg PUBLIC "-//W3C//DTD SVG 1.1//EN" "http://www.w3.org/Graphics/SVG/1.1/DTD/svg11.dtd">
<svg version="1.1" id="Capa_1" xmlns="http://www.w3.org/2000/svg" xmlns:xlink="http://www.w3.org/1999/xlink" x="0px" y="0px"
	 width="57px" height="57px" viewBox="0 0 57 57" enable-background="new 0 0 57 57" xml:space="preserve">
<g id="Back">
</g>
<g id="Diseño">
	<g>
		<g>
			<g>
				<g>
					<rect x="3" y="3.151" fill="#ECCE16" width="51" height="51"/>
				</g>
			</g>
			<path fill="#1E100D" d="M0,0v57h57V0H0z M54,54c-17,0-34,0-51,0C3,37,3,20,3,3c17,0,34,0,51,0C54,20,54,37,54,54z"/>
		</g>
		<g>
			<path fill="#1E100D" d="M28.469,38.797c-0.008-0.223-0.018-0.445-0.026-0.669c0.153-0.424,0.289-0.847-0.085-1.235
				c-0.036-0.111-0.072-0.226-0.11-0.338c0.303-0.375,0.301-1.31-0.003-1.678c-0.01-0.223-0.019-0.445-0.027-0.667
				c0.155-0.426,0.291-0.849-0.085-1.237c-0.231-0.3-0.115-0.646-0.114-0.97c0.004-0.764-0.014-1.522-0.128-2.28
				c0.013-0.125,0.065-0.262-0.089-0.344c0-0.444-0.001-0.888-0.002-1.331c-0.002-0.04-0.003-0.079-0.005-0.119
				c-0.005-0.074-0.009-0.147-0.014-0.222c0.008-0.125,0.062-0.262-0.092-0.344c-0.08-0.93,0.122-1.87-0.112-2.793
				c0.435-0.573,0.127-1.222,0.174-1.834c0.004-0.055-0.119-0.12-0.184-0.18c-0.007-0.186-0.014-0.37-0.021-0.556
				c0.254-0.467,0.078-0.971,0.122-1.456c0.017-0.183,0.017-0.378-0.214-0.453c-0.007-0.185-0.014-0.369-0.021-0.554
				c0.221-0.338,0.127-0.703,0.091-1.063c-0.028,0.018-0.058,0.031-0.083,0.053c-0.014,0.01-0.018,0.032-0.025,0.049
				c-0.249-0.02-0.186,0.187-0.213,0.311c-1.523,6.86-3.297,13.661-4.868,20.511c-0.043,0.188-0.021,0.422-0.263,0.515
				c-0.139-0.121-0.309-0.111-0.475-0.11c-1.02,0.006-2.039,0.012-3.059,0.018c-0.031-0.112-0.063-0.225-0.096-0.336
				c0.011-0.014,0.031-0.036,0.028-0.043c-0.017-0.024-0.04-0.045-0.061-0.067c-0.906-3.79-1.821-7.577-2.716-11.369
				c-0.588-2.485-1.148-4.978-1.721-7.467c-0.02-0.077-0.04-0.153-0.061-0.229c-0.045-0.222-0.092-0.443-0.138-0.665
				c-0.116-0.421-0.09-0.877-0.312-1.378c-0.078,1.125-0.15,2.147-0.221,3.169c-0.236,5.802-0.801,11.581-1.234,17.368
				c-0.008,0.111-0.031,0.223-0.047,0.332c-0.174,0.061-0.191,0.209-0.2,0.361c-0.011,0.171-0.091,0.298-0.27,0.293
				c-1.11-0.03-2.226,0.135-3.329-0.1c-0.003-0.15-0.006-0.301-0.008-0.453l0.047,0.014c0.32-0.336,0.33-0.674,0.002-1.012
				c-0.015-0.035-0.016-0.07-0.006-0.107c0.039-0.039,0.076-0.079,0.115-0.119c0.327-0.334,0.328-0.67,0.002-1.006
				c-0.014-0.035-0.016-0.07-0.005-0.105c0.038-0.041,0.076-0.08,0.114-0.121c0.328-0.334,0.328-0.668,0.004-1.006
				c-0.016-0.033-0.018-0.069-0.006-0.104c0.038-0.041,0.076-0.08,0.114-0.12c0.327-0.335,0.327-0.669,0.003-1.006
				c-0.015-0.035-0.017-0.07-0.006-0.105c0.039-0.041,0.076-0.08,0.115-0.121c0.328-0.334,0.327-0.668,0.003-1.004
				c-0.015-0.035-0.017-0.07-0.005-0.107c0.037-0.039,0.076-0.08,0.113-0.119c0.328-0.334,0.328-0.67,0.004-1.006
				c-0.016-0.035-0.018-0.07-0.006-0.105c0.038-0.041,0.076-0.08,0.114-0.121c0.327-0.336,0.331-0.67-0.001-1.006
				c-0.002-0.072-0.004-0.146-0.005-0.22c0.028-0.006,0.057-0.009,0.085-0.011c0.393-0.32,0.349-0.656,0.036-1.001
				c-0.015-0.035-0.017-0.07-0.006-0.106c0.038-0.039,0.076-0.08,0.114-0.119c0.328-0.334,0.328-0.669,0.004-1.007
				c-0.016-0.034-0.018-0.07-0.006-0.106c0.038-0.04,0.076-0.08,0.114-0.12c0.329-0.334,0.328-0.669,0.003-1.005
				c-0.015-0.035-0.017-0.07-0.006-0.107c0.039-0.039,0.076-0.08,0.115-0.119c0.328-0.334,0.326-0.669,0.004-1.006
				c-0.016-0.035-0.018-0.07-0.007-0.106c0.038-0.04,0.076-0.08,0.114-0.12c0.329-0.334,0.328-0.669,0.004-1.006
				c-0.016-0.034-0.018-0.07-0.006-0.106c0.038-0.04,0.076-0.079,0.114-0.12c0.329-0.333,0.327-0.668,0.004-1.005
				c-0.015-0.035-0.018-0.07-0.007-0.106c0.04-0.041,0.077-0.08,0.116-0.12c0.328-0.334,0.326-0.669,0.004-1.006
				c-0.016-0.034-0.018-0.07-0.008-0.106c0.039-0.04,0.077-0.08,0.115-0.119c0.329-0.334,0.328-0.67,0.004-1.006
				c-0.015-0.035-0.018-0.07-0.006-0.107c0.037-0.039,0.076-0.08,0.114-0.119c0.329-0.334,0.327-0.669,0.004-1.006
				c-0.015-0.035-0.018-0.07-0.007-0.107c0.038-0.039,0.077-0.079,0.116-0.119c0.328-0.334,0.326-0.669,0.004-1.005
				c-0.016-0.035-0.018-0.071-0.008-0.107c0.039-0.04,0.077-0.079,0.115-0.119c0.33-0.334,0.326-0.669,0.005-1.006
				c-0.016-0.034-0.019-0.07-0.007-0.106c0.037-0.04,0.076-0.08,0.114-0.12c0.399-0.348,0.187-0.745,0.091-1.133
				c-0.001-0.034,0.006-0.067,0.021-0.099c0.145-0.048,0.219-0.158,0.2-0.299c-0.077-0.594,0.289-0.607,0.725-0.602
				c1.192,0.015,2.386,0.024,3.578-0.003c0.622-0.014,1.204-0.046,1.318,0.775c0.009,0.059,0.098,0.106,0.149,0.159
				c0.803,2.835,1.479,5.703,2.189,8.561c0.72,2.895,1.434,5.792,2.045,8.726c0.207-0.132,0.166-0.339,0.206-0.509
				c1.284-5.428,2.719-10.816,4.092-16.222c0.018-0.07,0.055-0.137,0.084-0.205c0.164-0.185,0.354-0.362,0.133-0.628
				c0.021-0.105,0.043-0.211,0.063-0.317c0.029-0.057,0.058-0.112,0.086-0.169c0.008-0.055,0.016-0.109,0.023-0.164
				c1.793,0.001,3.586,0.002,5.379,0.003c-0.076,0.382,0.053,0.745,0.105,1.114c-0.094,0.083-0.086,0.16,0.012,0.234
				c-0.113,0.348,0.109,0.661,0.1,0.999c-0.094,0.081-0.086,0.159,0.01,0.232c-0.08,0.381,0.054,0.742,0.105,1.11
				c-0.01,0.013-0.029,0.027-0.027,0.038c0.006,0.028,0.021,0.055,0.031,0.082c-0.076,0.381,0.053,0.743,0.107,1.112
				c-0.096,0.082-0.086,0.16,0.01,0.234c-0.129,0.385,0.161,0.73,0.105,1.108c-0.01,0.013-0.03,0.028-0.027,0.038
				c0.005,0.029,0.02,0.056,0.031,0.083l-0.006,0.038c-0.004,0.067-0.006,0.134-0.008,0.2c-0.103,0.311,0.178,0.569,0.119,0.873
				c-0.01,0.013-0.029,0.027-0.027,0.038c0.006,0.028,0.021,0.055,0.031,0.082c-0.076,0.382,0.053,0.744,0.106,1.113
				c-0.011,0.012-0.029,0.026-0.027,0.037c0.005,0.027,0.021,0.055,0.031,0.081c-0.071,0.382,0.051,0.744,0.104,1.113
				c-0.094,0.079-0.094,0.153,0.013,0.223c0.022,0.006,0.049,0.005,0.073-0.002c-0.067,0.102-0.103,0.211-0.076,0.334
				c-0.133,0.13-0.064,0.192,0.076,0.231c0.013,0.371,0.023,0.742,0.035,1.113c-0.133,0.129-0.063,0.191,0.078,0.23
				c0.039,0.039,0.078,0.079,0.117,0.118c0.012,0.037,0.01,0.073-0.006,0.108c-0.303,0.15-0.24,0.352-0.078,0.566
				c-0.123,0.314,0.154,0.58,0.104,0.885c-0.094,0.083-0.084,0.16,0.012,0.234c0.006,0.309,0.01,0.618,0.016,0.926
				c-0.021,0.118,0.006,0.223,0.094,0.307c-0.08,0.381,0.053,0.741,0.106,1.109c-0.01,0.013-0.03,0.027-0.028,0.037
				c0.006,0.029,0.021,0.055,0.032,0.082c0.005,0.311,0.009,0.621,0.015,0.932c-0.031,0.155-0.021,0.301,0.104,0.417
				c-0.13,0.386,0.161,0.729,0.105,1.107c-0.012,0.013-0.031,0.026-0.028,0.038c0.006,0.027,0.021,0.056,0.032,0.082l-0.008,0.039
				c-0.002,0.065-0.004,0.134-0.006,0.199c-0.086,0.272,0.178,0.493,0.112,0.764c-0.091,0.08-0.083,0.158,0.011,0.23
				c-0.076,0.381,0.051,0.743,0.105,1.111c-0.01,0.013-0.029,0.027-0.027,0.038c0.006,0.026,0.021,0.054,0.031,0.081l0.018,0.025
				l-0.01,0.026c-0.003,0.063-0.004,0.125-0.007,0.187c-0.101,0.311,0.164,0.571,0.116,0.875c-0.094,0.082-0.086,0.16,0.01,0.233
				l-0.008,0.035c-0.002,0.067-0.004,0.135-0.006,0.2c-0.078,0.309,0.213,0.564,0.119,0.873c-0.011,0.015-0.029,0.027-0.027,0.039
				c0.006,0.027,0.021,0.056,0.031,0.082l0.018,0.022l-0.021,0.019c-0.002,0.065-0.006,0.131-0.008,0.197c0,0.137,0,0.273,0,0.41
				c0.002,0.049,0.004,0.098,0.006,0.146l0.006-0.006c-1.149-0.004-2.301-0.021-3.449-0.006c-0.404,0.006-0.652-0.078-0.604-0.549
				C28.693,39.079,28.703,38.876,28.469,38.797z"/>
			<path fill="#1E100D" d="M35.027,21.217l0.035-0.005l0.006-0.036c1.265-0.001,2.531-0.003,3.798-0.004l0.006,0.037l0.038,0.008
				c0.009,3.047,0.014,6.094,0.025,9.141c0.004,0.873,0.024,1.746,0.037,2.617c-0.037,0.721,0.09,1.416,0.362,2.078
				c0.406,0.98,1.153,1.489,2.215,1.506c1.229,0.02,2.25-0.441,3.048-1.384c0.241-0.149,0.172-0.393,0.172-0.606
				c0.002-4.418,0-8.834,0-13.252l0.047,0.012c0.971,0,1.94-0.002,2.91-0.001c0.773,0,0.774,0.001,0.774,0.765
				c0.001,4.479-0.001,8.956,0.006,13.436c0,0.238-0.123,0.539,0.203,0.693c0.002,0.037,0.002,0.076,0.004,0.115
				c-0.03,0.044-0.063,0.088-0.093,0.133c0.027,0.106-0.053,0.258,0.124,0.305c-0.001,0.338-0.002,0.675-0.002,1.011
				c-0.13,0.114-0.14,0.228,0.006,0.335c-0.002,0.224-0.003,0.445-0.004,0.67c-0.134,0.13-0.063,0.191,0.075,0.23
				c0.039,0.039,0.078,0.08,0.117,0.119c-0.002,0.073-0.004,0.146-0.004,0.219c-0.246,0.529-0.722,0.451-1.172,0.447
				c-0.535-0.006-1.07-0.018-1.604,0.004c-0.327,0.014-0.617-0.057-0.89-0.227c-0.008-0.111-0.016-0.223-0.022-0.334
				c0.153-0.283,0.243-0.559-0.082-0.792c-0.229-0.024-0.312,0.181-0.442,0.294c-1.4,1.206-3.023,1.744-4.857,1.598
				c-2.061-0.164-3.459-1.244-4.229-3.154c-0.357-0.892-0.486-1.832-0.611-2.774c-0.008-3.58-0.02-7.16-0.023-10.74
				C35,22.856,35.018,22.037,35.027,21.217z"/>
			<path fill="#1E100D" d="M48.711,36.219c-0.326-0.154-0.203-0.453-0.203-0.693c-0.007-4.479-0.005-8.956-0.006-13.435
				c0-0.764-0.001-0.765-0.773-0.765c-0.971-0.001-1.94,0.001-2.912,0.001c0.039-0.061,0.076-0.121,0.113-0.182
				c1.225,0.002,2.449,0.003,3.674,0.004c0.049,0.096,0.099,0.192,0.146,0.288c-0.008,0.817-0.02,1.636-0.021,2.453
				C48.721,28,48.717,32.109,48.711,36.219z"/>
			<path fill="#1E100D" d="M16.299,15.866c-0.051-0.053-0.141-0.101-0.149-0.159c-0.114-0.821-0.696-0.789-1.318-0.775
				c-1.192,0.027-2.386,0.018-3.578,0.003c-0.436-0.006-0.802,0.008-0.725,0.602c0.019,0.141-0.056,0.251-0.2,0.299
				c-0.013-0.074-0.025-0.148-0.038-0.222c0.11-0.3-0.155-0.698,0.247-0.919c1.753-0.001,3.505-0.001,5.26-0.001
				C16.303,14.939,16.152,15.467,16.299,15.866z"/>
			<path fill="#1E100D" d="M30.6,14.941c-1.792-0.001-3.585-0.002-5.378-0.003c-0.001-0.144,0.115-0.185,0.212-0.242
				c1.678,0.01,3.354,0.021,5.032,0.031l-0.006-0.009c0.042,0.033,0.084,0.065,0.126,0.099C30.59,14.858,30.594,14.899,30.6,14.941z
				"/>
			<path fill="#1E100D" d="M28.469,38.797c0.234,0.079,0.225,0.282,0.207,0.463c-0.049,0.471,0.199,0.555,0.604,0.549
				c1.148-0.015,2.3,0.002,3.449,0.006c-0.008,0.051-0.017,0.102-0.024,0.15c-1.338,0.01-2.677,0.02-4.015,0.027
				C28.271,39.657,28.512,39.201,28.469,38.797z"/>
			<path fill="#1E100D" d="M45.27,39.581c0.272,0.17,0.563,0.239,0.89,0.228c0.534-0.021,1.069-0.011,1.604-0.006
				c0.45,0.006,0.926,0.083,1.172-0.445c0.064,0.217-0.045,0.401-0.104,0.598c-1.115,0.01-2.229,0.02-3.341,0.027
				C45.381,39.868,45.206,39.79,45.27,39.581z"/>
			<path fill="#1E100D" d="M18.537,39.818c1.02-0.006,2.039-0.012,3.059-0.017c0.166-0.001,0.336-0.011,0.475,0.11
				c-0.008,0.02-0.011,0.039-0.01,0.059c-1.156-0.01-2.312-0.02-3.467-0.029C18.574,39.9,18.557,39.859,18.537,39.818z"/>
			<path fill="#1E100D" d="M11.771,39.984c-1.197-0.017-2.395-0.032-3.592-0.051L8.165,39.92c-0.001-0.077-0.002-0.154-0.003-0.23
				c1.104,0.232,2.219,0.067,3.329,0.099c0.179,0.005,0.259-0.122,0.27-0.293c0.009-0.152,0.026-0.302,0.2-0.361
				C11.955,39.432,12.019,39.742,11.771,39.984z"/>
			<path fill="#1E100D" d="M27.566,22.557c0.064,0.06,0.188,0.125,0.184,0.18c-0.047,0.612,0.261,1.261-0.174,1.834
				C27.573,23.899,27.57,23.228,27.566,22.557z"/>
			<path fill="#1E100D" d="M27.452,20.092c0.231,0.075,0.231,0.271,0.214,0.453c-0.044,0.485,0.132,0.989-0.122,1.456
				C27.362,21.372,27.471,20.729,27.452,20.092z"/>
			<path fill="#1E100D" d="M28.244,34.877c0.305,0.368,0.307,1.303,0.003,1.678C28.246,35.995,28.245,35.436,28.244,34.877z"/>
			<path fill="#1E100D" d="M28.132,32.973c0.376,0.389,0.24,0.813,0.085,1.237C28.059,33.807,28.123,33.389,28.132,32.973z"/>
			<path fill="#1E100D" d="M28.357,36.893c0.374,0.39,0.238,0.813,0.085,1.235C28.283,37.727,28.346,37.309,28.357,36.893z"/>
			<path fill="#1E100D" d="M10.307,15.934c0.096,0.388,0.309,0.785-0.091,1.133c-0.013-0.073-0.024-0.147-0.036-0.222
				c0.012-0.296,0.023-0.593,0.035-0.889C10.246,15.949,10.275,15.942,10.307,15.934z"/>
			<path fill="#1E100D" d="M9.996,18.525c0.322,0.336,0.324,0.671-0.004,1.005c-0.013-0.073-0.025-0.147-0.037-0.221
				C9.969,19.048,9.982,18.786,9.996,18.525z"/>
			<path fill="#1E100D" d="M8.987,29.613c0.313,0.345,0.356,0.681-0.036,1.001c-0.002-0.109-0.003-0.22-0.004-0.329
				C8.961,30.063,8.974,29.837,8.987,29.613z"/>
			<path fill="#1E100D" d="M8.539,34.541c0.324,0.337,0.324,0.671-0.003,1.006c-0.013-0.111-0.024-0.223-0.039-0.333
				C8.512,34.989,8.525,34.766,8.539,34.541z"/>
			<path fill="#1E100D" d="M8.428,35.771c0.324,0.338,0.324,0.672-0.004,1.006c-0.012-0.11-0.025-0.221-0.037-0.332
				C8.4,36.223,8.414,35.997,8.428,35.771z"/>
			<path fill="#1E100D" d="M9.66,22.221c0.322,0.337,0.324,0.672-0.004,1.006c-0.013-0.111-0.025-0.222-0.037-0.333
				C9.633,22.669,9.646,22.445,9.66,22.221z"/>
			<path fill="#1E100D" d="M8.314,37.005c0.326,0.336,0.325,0.672-0.002,1.006c-0.014-0.11-0.025-0.223-0.038-0.334
				C8.288,37.453,8.302,37.229,8.314,37.005z"/>
			<path fill="#1E100D" d="M10.108,17.293c0.321,0.337,0.325,0.672-0.005,1.006c-0.012-0.074-0.024-0.147-0.037-0.222
				C10.08,17.815,10.095,17.555,10.108,17.293z"/>
			<path fill="#1E100D" d="M9.548,23.453c0.323,0.337,0.325,0.672-0.004,1.005c-0.013-0.11-0.024-0.222-0.038-0.333
				C9.521,23.901,9.534,23.677,9.548,23.453z"/>
			<path fill="#1E100D" d="M8.871,30.846c0.332,0.334,0.328,0.67,0.001,1.006c-0.013-0.111-0.024-0.224-0.039-0.334
				C8.847,31.293,8.859,31.068,8.871,30.846z"/>
			<path fill="#1E100D" d="M8.764,32.077c0.324,0.336,0.324,0.672-0.004,1.006c-0.012-0.11-0.025-0.224-0.037-0.334
				C8.736,32.525,8.75,32.301,8.764,32.077z"/>
			<path fill="#1E100D" d="M9.211,27.149c0.324,0.336,0.325,0.671-0.003,1.005c-0.012-0.073-0.024-0.147-0.036-0.222
				C9.185,27.672,9.198,27.41,9.211,27.149z"/>
			<path fill="#1E100D" d="M9.324,25.917c0.322,0.337,0.324,0.672-0.004,1.006c-0.014-0.111-0.025-0.223-0.037-0.334
				C9.297,26.365,9.311,26.142,9.324,25.917z"/>
			<path fill="#1E100D" d="M9.884,19.757c0.323,0.337,0.325,0.672-0.004,1.006c-0.013-0.074-0.024-0.147-0.037-0.222
				C9.856,20.28,9.87,20.019,9.884,19.757z"/>
			<path fill="#1E100D" d="M9.436,24.685c0.324,0.337,0.325,0.672-0.004,1.006c-0.012-0.111-0.024-0.223-0.037-0.333
				C9.408,25.134,9.422,24.909,9.436,24.685z"/>
			<path fill="#1E100D" d="M9.1,28.381c0.324,0.337,0.324,0.672-0.004,1.006c-0.012-0.111-0.025-0.223-0.037-0.332
				C9.072,28.829,9.086,28.605,9.1,28.381z"/>
			<path fill="#1E100D" d="M8.651,33.311c0.324,0.336,0.325,0.67-0.003,1.004c-0.014-0.11-0.026-0.222-0.037-0.332
				C8.625,33.757,8.638,33.533,8.651,33.311z"/>
			<path fill="#1E100D" d="M9.771,20.989c0.324,0.336,0.325,0.672-0.004,1.006c-0.012-0.074-0.024-0.148-0.037-0.222
				C9.744,21.512,9.758,21.251,9.771,20.989z"/>
			<path fill="#1E100D" d="M8.203,38.236c0.328,0.339,0.318,0.677-0.002,1.013c-0.002-0.188-0.004-0.375-0.005-0.563
				c0.003-0.035,0.005-0.071,0.008-0.108C8.203,38.464,8.203,38.352,8.203,38.236z"/>
			<path fill="#1E100D" d="M45.164,38.455c0.324,0.232,0.236,0.509,0.082,0.792C45.166,38.988,45.154,38.723,45.164,38.455z"/>
			<path fill="#1E100D" d="M27.414,18.577c0.008-0.017,0.012-0.039,0.025-0.049c0.025-0.021,0.055-0.035,0.083-0.053
				c0.036,0.359,0.13,0.725-0.091,1.063C27.387,19.218,27.346,18.898,27.414,18.577z"/>
			<path fill="#1E100D" d="M31.721,27.827c-0.162-0.215-0.225-0.416,0.078-0.566C31.792,27.452,31.906,27.661,31.721,27.827z"/>
			<path fill="#1E100D" d="M25.049,15.589c0.221,0.266,0.03,0.443-0.133,0.628C24.96,16.008,25.005,15.799,25.049,15.589z"/>
			<path fill="#1E100D" d="M32.173,32.756c-0.123-0.117-0.134-0.262-0.104-0.417C32.254,32.439,32.176,32.607,32.173,32.756z"/>
			<path fill="#1E100D" d="M31.945,30.178c-0.088-0.084-0.115-0.188-0.094-0.306C32.012,29.936,31.953,30.063,31.945,30.178z"/>
			<path fill="#1E100D" d="M30.826,17.521c-0.096-0.073-0.104-0.151-0.012-0.232C30.818,17.366,30.822,17.444,30.826,17.521z"/>
			<path fill="#1E100D" d="M31.836,28.946c-0.096-0.074-0.105-0.151-0.011-0.234C31.829,28.79,31.832,28.868,31.836,28.946z"/>
			<path fill="#1E100D" d="M31.053,20.099c-0.096-0.074-0.105-0.152-0.01-0.234C31.046,19.942,31.05,20.021,31.053,20.099z"/>
			<path fill="#1E100D" d="M32.619,37.794c-0.096-0.073-0.104-0.151-0.01-0.233C32.611,37.639,32.615,37.716,32.619,37.794z"/>
			<path fill="#1E100D" d="M30.717,16.29c-0.097-0.074-0.105-0.151-0.012-0.234C30.708,16.134,30.713,16.212,30.717,16.29z"/>
			<path fill="#1E100D" d="M31.5,25.127c-0.105-0.069-0.105-0.144-0.012-0.223C31.492,24.979,31.496,25.053,31.5,25.127z"/>
			<path fill="#1E100D" d="M32.393,35.217c-0.094-0.072-0.102-0.15-0.011-0.23C32.385,35.063,32.389,35.141,32.393,35.217z"/>
			<path fill="#1E100D" d="M32.605,38.029c0.002-0.065,0.004-0.133,0.006-0.2C32.697,37.898,32.727,37.968,32.605,38.029z"/>
			<path fill="#1E100D" d="M32.057,31.407c-0.012-0.027-0.027-0.054-0.033-0.082c-0.002-0.011,0.019-0.024,0.029-0.037
				C32.053,31.328,32.055,31.368,32.057,31.407z"/>
			<path fill="#1E100D" d="M25.197,15.103c-0.028,0.057-0.057,0.112-0.086,0.169C25.141,15.215,25.169,15.159,25.197,15.103z"/>
			<path fill="#1E100D" d="M30.936,18.752c-0.011-0.027-0.024-0.054-0.031-0.082c-0.002-0.011,0.019-0.025,0.027-0.038
				C30.934,18.672,30.936,18.712,30.936,18.752z"/>
			<path fill="#1E100D" d="M32.729,39.023c-0.011-0.026-0.024-0.055-0.031-0.082c-0.002-0.012,0.019-0.024,0.027-0.039
				C32.727,38.943,32.729,38.982,32.729,39.023z"/>
			<path fill="#1E100D" d="M32.717,39.264c0.002-0.066,0.006-0.133,0.008-0.197C32.811,39.134,32.838,39.2,32.717,39.264z"/>
			<path fill="#1E100D" d="M31.162,21.328c-0.012-0.027-0.025-0.054-0.031-0.083c-0.003-0.01,0.018-0.025,0.027-0.038
				C31.16,21.247,31.161,21.288,31.162,21.328z"/>
			<path fill="#1E100D" d="M18.409,39.373c0.021,0.021,0.044,0.043,0.061,0.068c0.003,0.006-0.018,0.027-0.028,0.041
				C18.432,39.447,18.42,39.41,18.409,39.373z"/>
			<path fill="#1E100D" d="M31.148,21.566c0.002-0.066,0.004-0.133,0.008-0.2C31.242,21.436,31.27,21.503,31.148,21.566z"/>
			<path fill="#1E100D" d="M32.723,39.818c-0.002-0.049-0.004-0.098-0.006-0.146C32.818,39.719,32.832,39.768,32.723,39.818z"/>
			<path fill="#1E100D" d="M32.493,36.686c0.003-0.062,0.004-0.123,0.007-0.187C32.596,36.564,32.607,36.628,32.493,36.686z"/>
			<path fill="#1E100D" d="M32.282,33.984c-0.011-0.027-0.026-0.055-0.032-0.084c-0.002-0.01,0.018-0.024,0.027-0.037
				C32.279,33.902,32.281,33.943,32.282,33.984z"/>
			<path fill="#1E100D" d="M31.271,22.56c-0.012-0.027-0.025-0.054-0.031-0.082c-0.002-0.011,0.019-0.025,0.027-0.038
				C31.27,22.479,31.271,22.52,31.271,22.56z"/>
			<path fill="#1E100D" d="M32.27,34.223c0.002-0.065,0.004-0.134,0.006-0.199C32.361,34.092,32.391,34.159,32.27,34.223z"/>
			<path fill="#1E100D" d="M31.383,23.791c-0.012-0.026-0.025-0.054-0.031-0.081c-0.002-0.011,0.019-0.025,0.027-0.037
				C31.38,23.712,31.381,23.751,31.383,23.791z"/>
			<path fill="#1E100D" d="M32.501,36.447c-0.01-0.027-0.024-0.055-0.03-0.081c-0.003-0.011,0.018-0.025,0.026-0.038
				C32.5,36.368,32.501,36.407,32.501,36.447z"/>
			<path fill="#1E100D" d="M31.609,26.804c0.115,0.047,0.096,0.139,0.076,0.23C31.547,26.995,31.477,26.933,31.609,26.804z"/>
			<path fill="#1E100D" d="M31.498,25.459c0.115,0.048,0.096,0.14,0.077,0.231C31.434,25.651,31.365,25.589,31.498,25.459z"/>
			<path fill="#1E100D" d="M48.746,38.787c0.113,0.048,0.096,0.14,0.076,0.23C48.682,38.979,48.613,38.917,48.746,38.787z"/>
			<path fill="#1E100D" d="M48.744,37.782c0.002,0.11,0.003,0.224,0.006,0.335C48.605,38.009,48.613,37.896,48.744,37.782z"/>
			<path fill="#1E100D" d="M48.732,36.445c-0.037,0.007-0.074,0.015-0.11,0.021c0.03-0.045,0.062-0.089,0.093-0.133
				C48.721,36.371,48.727,36.408,48.732,36.445z"/>
		</g>
	</g>
</g>
<g id="Grid" display="none">
</g>
</svg>
