<?xml version="1.0" encoding="utf-8"?>
<!-- Generator: Adobe Illustrator 16.0.0, SVG Export Plug-In . SVG Version: 6.00 Build 0)  -->
<!DOCTYPE svg PUBLIC "-//W3C//DTD SVG 1.1//EN" "http://www.w3.org/Graphics/SVG/1.1/DTD/svg11.dtd">
<svg version="1.1" xmlns="http://www.w3.org/2000/svg" xmlns:xlink="http://www.w3.org/1999/xlink" x="0px" y="0px" width="52px"
	 height="52px" viewBox="0 0 52 52" enable-background="new 0 0 52 52" xml:space="preserve">
<g id="Capa_2">
	<polygon fill="#FFE120" points="24.475,1.576 21.841,2.517 19.458,3.542 19.677,8.537 21.274,12.207 22.028,17.098 22.781,19.167 
		22.875,23.871 21.652,25.188 14.69,24.812 9.046,24.717 8.858,31.302 43.663,32.148 44.322,25.093 30.5,24.75 30.398,23.399 
		30.494,19.073 31.529,16.251 32.565,11.453 34.165,5.81 32.28,2.422 	"/>
	<linearGradient id="SVGID_1_" gradientUnits="userSpaceOnUse" x1="14.8008" y1="6.145" x2="33.3369" y2="38.2505">
		<stop  offset="0" style="stop-color:#FFFFFF;stop-opacity:0.8"/>
		<stop  offset="0.1168" style="stop-color:#FFFFFF;stop-opacity:0.7066"/>
		<stop  offset="1" style="stop-color:#FFFFFF;stop-opacity:0"/>
	</linearGradient>
	<polygon opacity="0.6" fill="url(#SVGID_1_)" points="24.85,1.5 21.833,2.083 19.292,4.333 20.052,8.461 21.649,12.13 
		22.403,17.021 23.156,19.09 23.25,23.794 22.027,25.112 15.065,24.735 9.421,24.641 9.233,31.226 44.038,32.072 44.697,25.018 
		30.375,24.875 30.773,23.323 30.869,18.997 31.904,16.175 32.94,11.377 34.54,5.733 32.655,2.346 	"/>
	<polygon fill="#1D1210" points="22.563,19.5 22.625,24.438 30.813,24.75 30.75,19.438 	"/>
</g>
<g id="Capa_1">
	
		<radialGradient id="SVGID_2_" cx="517.9473" cy="6008.9902" r="17.0609" gradientTransform="matrix(1.1083 0 0 0.1273 -548.1899 -715.1476)" gradientUnits="userSpaceOnUse">
		<stop  offset="0" style="stop-color:#E6C816"/>
		<stop  offset="0.417" style="stop-color:#EDCF19;stop-opacity:0.584"/>
		<stop  offset="1" style="stop-color:#FFE121;stop-opacity:0.003"/>
	</radialGradient>
	<ellipse fill="url(#SVGID_2_)" cx="25.85" cy="49.797" rx="18.633" ry="2.203"/>
	<path fill="#1D1210" d="M44.698,24.151H31.362v-4.929l0.159-0.161c0.612-0.613,0.62-1.383,0.633-2.548
		c0.012-1.133,0.026-2.542,0.669-4.26c0.37-0.986,0.686-1.761,0.965-2.444c0.732-1.794,1.1-2.693,1.1-4.277
		c0-3.629-5.013-4.982-8.172-4.982c-3.163,0-8.18,1.353-8.18,4.982c0,1.56,0.363,2.441,1.085,4.196
		c0.289,0.702,0.617,1.498,1.002,2.525c0.644,1.716,0.661,3.127,0.674,4.262c0.014,1.166,0.023,1.934,0.633,2.546l0.16,0.161v4.929
		H8.754c-0.05,0-0.171,0.005-0.21,0.051c-0.053,0.063-0.071,0.124-0.059,0.202c0.173,1.043,0.261,2.297,0.261,3.726
		c0,1.79-0.142,3.021-0.262,3.74c-0.015,0.093,0.021,0.213,0.063,0.262c0.086,0.102,0.173,0.14,0.208,0.14h2.121l0.522,3.884
		c0.022,0.135,0.18,0.173,0.269,0.173h30.119c0.072,0,0.243-0.018,0.269-0.183l0.521-3.874h2.123c0.028,0,0.116-0.034,0.205-0.141
		c0.042-0.05,0.078-0.174,0.063-0.266c-0.118-0.718-0.259-1.95-0.259-3.744c0-1.798,0.141-3.029,0.259-3.745
		c0.009-0.053,0.009-0.092-0.063-0.176C44.866,24.154,44.737,24.151,44.698,24.151z M21.709,11.831l-0.437-1.162
		c-0.246-0.648-0.461-1.178-0.644-1.63c-0.589-1.455-0.882-2.178-0.882-3.507c0-1.186,0.481-2.08,1.471-2.735
		c1.072-0.711,3.921-1.042,5.508-1.042c1.588,0,4.438,0.331,5.512,1.042c0.988,0.657,1.468,1.551,1.468,2.735
		c0,1.332-0.293,2.056-0.878,3.5c-0.184,0.454-0.398,0.986-0.647,1.64l-0.434,1.157c-0.725,1.924-0.721,3.524-0.718,4.692
		c0.009,0.955-0.021,1.294-0.127,1.512l-0.152,0.308l-0.15,0.001c-0.462,0.234-2.698,0.417-3.873,0.417
		c-1.14,0-3.402-0.182-3.799-0.375c-0.212-0.139-0.311-0.234-0.371-0.346l-0.003-0.007c-0.11-0.221-0.13-0.569-0.129-1.438v-0.065
		C22.426,15.356,22.43,13.753,21.709,11.831z M30.248,19.835v4.316h-7.044v-4.315l0.598,0.053c0.496,0.044,2.193,0.075,2.923,0.075
		c0.731,0,2.43-0.031,2.924-0.075L30.248,19.835z M43.581,30.566l0.045,0.591h-33.8l0.043-0.591
		c0.054-0.724,0.083-1.538,0.083-2.354c0-0.832-0.029-1.668-0.082-2.355l-0.045-0.592h33.803l-0.047,0.593
		c-0.052,0.671-0.08,1.508-0.08,2.354C43.501,29.051,43.528,29.865,43.581,30.566z"/>
</g>
</svg>
