<?xml version="1.0" encoding="utf-8"?>
<!-- Generator: Adobe Illustrator 16.0.0, SVG Export Plug-In . SVG Version: 6.00 Build 0)  -->
<!DOCTYPE svg PUBLIC "-//W3C//DTD SVG 1.1//EN" "http://www.w3.org/Graphics/SVG/1.1/DTD/svg11.dtd">
<svg version="1.1" id="Capa_1" xmlns="http://www.w3.org/2000/svg" xmlns:xlink="http://www.w3.org/1999/xlink" x="0px" y="0px"
	 width="57px" height="57px" viewBox="0 0 57 57" enable-background="new 0 0 57 57" xml:space="preserve">
<g id="Back">
</g>
<g id="Diseño">
	<g>
		<g>
			<path fill="#1E100D" d="M0,0v57h57V0H0z M54,54c-17,0-34,0-51,0C3,37,3,20,3,3c17,0,34,0,51,0C54,20,54,37,54,54z"/>
			<g>
				<g>
					<rect x="3" y="2.909" fill="#ECCE16" width="51" height="51"/>
				</g>
			</g>
		</g>
		<g>
			<path fill="#1E100D" d="M27.688,33.643c-0.387-0.627-0.476-1.354-0.693-2.035c-0.15-0.285-0.244-0.59-0.303-0.904
				c-0.088-0.219-0.233-0.42-0.219-0.671c-0.168-0.394-0.318-0.79-0.375-1.218c-0.342-0.633-0.474-1.336-0.674-2.018
				c-0.305-0.805-0.595-1.615-0.781-2.457c-0.34-0.635-0.475-1.338-0.674-2.02c-0.145-0.287-0.239-0.591-0.298-0.905
				c-0.044-0.138-0.088-0.274-0.132-0.412c-0.201-0.478-0.377-0.962-0.461-1.477c-0.297-0.524-0.398-1.114-0.564-1.683
				c-0.145-0.287-0.238-0.59-0.299-0.906c-0.043-0.137-0.086-0.273-0.131-0.41c-0.14-0.352-0.281-0.705-0.421-1.058
				c-1.561,0.005-3.122,0.009-4.684,0.013c-0.132,0-0.262-0.009-0.361-0.111c-0.268,0.137-0.077,0.424-0.198,0.607
				c-0.011,0.135-0.022,0.269-0.032,0.402c0.017,0.21,0.006,0.415-0.061,0.613c-0.008,0.031-0.018,0.063-0.031,0.092
				c-0.189,0.922-0.445,1.822-0.895,2.656c-0.009,0.128,0.008,0.265-0.032,0.384c-0.538,1.628-1.083,3.253-1.626,4.879
				c-0.159,0.538-0.256,1.099-0.588,1.571c-0.073,0.91-0.471,1.723-0.754,2.57c-0.164,0.53-0.236,1.098-0.576,1.563
				c-0.006,0.072-0.012,0.146-0.018,0.218c-0.141,0.242-0.038,0.554-0.227,0.783c-0.063,0.188-0.125,0.379-0.188,0.569
				c-0.135,0.416-0.163,0.873-0.466,1.228c-0.006,0.072-0.013,0.146-0.019,0.218c-0.168,0.355-0.109,0.779-0.335,1.118
				c-0.065,0.202-0.13,0.404-0.197,0.607c-0.087,0.28-0.175,0.563-0.262,0.846C9.738,37.48,9.461,38.7,8.928,39.836
				c-0.078,0.166-0.093,0.372,0.186,0.41c-0.01-0.02-0.008-0.038,0.006-0.057c0.541-0.188,1.1-0.082,1.648-0.08
				c0.717,0.004,1.44-0.102,2.152,0.072c0.016,0.017,0.018,0.033,0.005,0.051c0.185-0.104,0.187-0.306,0.243-0.478
				c0.283-0.856,0.563-1.716,0.845-2.573c0.156-0.645,0.308-1.289,0.591-1.894c0.139-0.584,0.31-1.157,0.542-1.711
				c0-0.122,0.026-0.233,0.128-0.313c0-0.033,0-0.068,0-0.102c0.047-0.205,0.212-0.107,0.318-0.107c2.361-0.006,4.689-0.006,7.051,0
				c0.106,0,0.284-0.098,0.284,0.107c0,0.074,0,0.148,0,0.224c0.229,0.244,0.403,0.544,0.356,0.897
				c0.27,0.492,0.473,1.016,0.589,1.563c0.203,0.432,0.344,0.885,0.455,1.344c0.134,0.205,0.167,0.43,0.138,0.666
				c0.258,0.129,0.221,0.39,0.313,0.603c0.251,0.573,0.293,1.271,0.676,1.729l0,0l0,0c-0.013,0-0.011-0.018,0.006-0.033
				c1.12-0.168,2.248-0.026,3.371-0.062c0.254-0.008,0.521-0.057,0.762,0.078c0.019,0.019,0.021,0.038,0.007,0.06
				c0.03-0.019,0.063-0.031,0.1-0.041c-0.12-0.844-0.523-1.604-0.695-2.433C28.525,36.4,28.023,35.049,27.688,33.643z M22.102,29.59
				c-0.121,0.11-0.272,0.104-0.422,0.104c-1.693,0.002-3.388,0.002-5.082,0c-0.148,0-0.301,0.01-0.423-0.102
				c-0.067-0.076-0.116-0.152-0.015-0.238c0.043-0.109,0.086-0.221,0.129-0.328c0.148-0.573,0.201-1.179,0.564-1.679
				c-0.003-0.037-0.007-0.075-0.01-0.113c0.059-0.549,0.26-1.057,0.449-1.566c0.257-0.982,0.53-1.961,0.879-2.915
				c0.105-0.499,0.149-1.019,0.469-1.448c-0.085-0.207-0.018-0.39,0.088-0.566c0.004-0.495,0.242-0.935,0.313-1.523
				c0.283,0.469,0.24,0.914,0.388,1.3c0.555,1.829,1.109,3.659,1.662,5.489c0.197,0.654,0.393,1.309,0.588,1.963
				c0.154,0.338,0.25,0.693,0.306,1.061c0.04,0.149,0.081,0.302,0.121,0.451C22.105,29.516,22.104,29.553,22.102,29.59z"/>
			<path fill="#1E100D" d="M42.501,27.443c0.087,0.047,0.099-0.389,0.185-0.057c0.131,0.499,0.219,1.023,0.221,1.538
				c0.018,3.689,0.008,7.381,0.007,11.07l0,0h0.001c0.307,0.201,0.648,0.096,0.975,0.102c0.906,0.019,1.814,0.01,2.721,0.01
				c0-3.734,0-7.47,0.002-11.205c0-0.219-0.051-0.448,0.086-0.651c0.015-0.081,0.029-0.163,0.044-0.245
				c-0.007-0.22-0.015-0.439-0.021-0.66c-0.025-0.026-0.029-0.057-0.013-0.089c-0.132-0.174,0.013-0.445-0.206-0.59
				c-0.154-0.151-0.154-0.162-0.016-0.437c-0.106-0.802-0.348-1.559-0.766-2.256c-0.328-0.002-0.322-0.197-0.246-0.432
				c-0.223-0.32-0.388-0.711-0.68-0.945c-0.635-0.514-1.342-0.932-2.143-1.163c-0.69-0.104-1.387-0.162-2.086-0.138
				c-0.063,0.009-0.127,0.019-0.19,0.027c-0.087,0.026-0.173,0.057-0.263,0.078c-1.229,0.291-2.407,0.689-3.352,1.582
				c-0.076,0.224-0.133,0.469-0.455,0.434c-0.334-0.028-0.185-0.272-0.195-0.443c-0.037-0.16-0.073-0.32-0.111-0.48
				c-0.04,0.067-0.044,0.241-0.082,0.202c-0.111-0.116-0.049-0.267,0.057-0.385c0-0.214-0.009-0.423-0.229-0.541
				c-0.744,0.208-1.503,0.063-2.253,0.086c-0.905,0.027-0.938,0.011-1.178,0.713c-0.002,0.009-0.002,0.016-0.002,0.016
				c-0.002,0.026-0.017,0.042-0.023,0.06c-0.004,0.337-0.008,0.674-0.012,1.011c0.095,0.871,0.095,1.746,0.096,2.62
				c0.003,4.432-0.001,8.862,0.005,13.293c0.001,0.228-0.097,0.486,0.125,0.678c-0.012-0.02-0.01-0.037,0.006-0.053
				c0.576-0.194,1.169-0.063,1.753-0.084c0.645-0.025,1.291-0.01,1.938-0.014c0.001-4.266,0.008-8.531-0.006-12.798
				c-0.002-0.611,0.248-0.98,0.799-1.182c0.229,0.006,0.363-0.169,0.531-0.275c0.805-0.507,1.66-0.813,2.629-0.731
				c1.311,0.11,2.252,1.062,2.303,2.356l0.033,0.009L42.501,27.443z"/>
			<path fill="#1E100D" d="M36.305,40.05c-0.01,0.019-0.02,0.036-0.031,0.056c0.011,0,0.021,0.002,0.031,0.002
				C36.305,40.089,36.305,40.068,36.305,40.05z"/>
			<path fill="#1E100D" d="M36.516,26.655c0.034-0.034,0.074-0.061,0.133-0.065c0.115-0.157,0.229-0.315,0.345-0.474
				C36.754,26.263,36.607,26.447,36.516,26.655z"/>
			<path fill="#1E100D" d="M36.193,27.298c0.014,4.267,0.007,8.532,0.006,12.798c0.023,0.002,0.048,0.006,0.074,0.01
				c0.012-0.02,0.021-0.037,0.031-0.056c0.002-4.186,0.006-8.373,0.012-12.56c0-0.236-0.063-0.486,0.096-0.704
				c0.035-0.043,0.064-0.092,0.104-0.131c0.092-0.208,0.238-0.393,0.478-0.539C36.441,26.317,36.191,26.687,36.193,27.298z"/>
			<path fill="#1E100D" d="M36.417,39.993c-0.009,0.022-0.019,0.044-0.03,0.065c-0.025,0.03-0.053,0.049-0.08,0.057
				c0.002,0.02,0.004,0.037,0.01,0.056c0.011,0.021,0.01,0.041-0.002,0.062c0.031-0.021,0.063-0.034,0.1-0.043
				C36.406,40.124,36.408,40.059,36.417,39.993z"/>
			<path fill="#1E100D" d="M36.256,40.107c0,0,0.025,0.004,0.025,0.008c0.029-0.008,0.068-0.025,0.093-0.057
				c0.013-0.021,0.028-0.043,0.038-0.065l0.003-0.017c0.007-4.328,0.022-8.653-0.004-12.98l0.001-0.004
				c-0.036,0.185-0.045,0.382-0.045,0.583c0.004,3.127,0.002,6.254,0.002,9.382c0,0.838-0.047,1.675-0.051,2.514
				c-0.002,0.194,0.117,0.396-0.112,0.579c0,0.021,0,0.039,0,0.058H36.256L36.256,40.107z"/>
			<path fill="#1E100D" d="M36.367,39.471c0.005-0.839,0.002-1.676,0.002-2.514c0.001-3.128,0.003-6.255-0.001-9.382
				c-0.001-0.201,0.01-0.398,0.044-0.583c-0.021-0.068-0.021-0.138,0-0.206c-0.157,0.218-0.096,0.468-0.096,0.704
				c-0.006,4.187-0.01,8.374-0.012,12.56C36.395,39.867,36.367,39.665,36.367,39.471z"/>
			<path fill="#1E100D" d="M36.439,39.939c-0.006,0.019-0.015,0.035-0.022,0.054c-0.009,0.065-0.011,0.131-0.003,0.194
				c-0.004-0.031,0.003-0.061,0.025-0.086C36.439,40.048,36.439,39.994,36.439,39.939z"/>
			<path fill="#1E100D" d="M36.413,26.996c0.026,4.327,0.013,8.652,0.007,12.98c-0.001,0.004-0.001,0.01-0.002,0.017
				c0.008-0.019,0.016-0.035,0.021-0.054c0.002-4.348,0.004-8.694,0.006-13.042c-0.002-0.008-0.004-0.014-0.006-0.021
				c-0.01,0.037-0.02,0.075-0.026,0.115C36.412,26.992,36.412,26.994,36.413,26.996z"/>
			<path fill="#1E100D" d="M36.412,26.992c0.008-0.04,0.018-0.078,0.027-0.115c-0.01-0.03-0.02-0.061-0.027-0.091
				C36.391,26.854,36.393,26.924,36.412,26.992z"/>
			<path fill="#1E100D" d="M46.732,39.934c0.002,0.06,0.002,0.117,0.002,0.176c0.031-0.004,0.063-0.01,0.092-0.018
				c-0.043-0.057-0.068-0.115-0.086-0.177C46.738,39.921,46.734,39.927,46.732,39.934z"/>
			<path fill="#1E100D" d="M46.732,39.934c0.002-0.007,0.006-0.013,0.008-0.019c-0.002-0.011-0.006-0.022-0.008-0.033
				C46.732,39.898,46.732,39.915,46.732,39.934z"/>
			<path fill="#1E100D" d="M46.723,38.221c-0.002-3.127,0-6.253-0.002-9.38c0-0.242,0.014-0.482,0.057-0.721
				c0.002-0.033,0.005-0.067,0.011-0.099c-0.017-0.006-0.031-0.011-0.047-0.017c-0.015,0.082-0.029,0.164-0.044,0.245
				c0.009,3.245,0.017,6.489,0.025,9.733C46.723,38.063,46.723,38.143,46.723,38.221z"/>
			<path fill="#1E100D" d="M46.797,28.367c-0.045,3.63-0.006,7.259-0.021,10.889c-0.002,0.221,0.035,0.448-0.034,0.659
				c0.018,0.062,0.043,0.12,0.086,0.177c-0.002-3.951-0.005-7.9-0.007-11.853C46.816,28.282,46.809,28.325,46.797,28.367z"/>
			<path fill="#1E100D" d="M46.744,28.021c-0.006,0.031,0.015,0.065,0.012,0.099c-0.043,0.238-0.047,0.479-0.047,0.721
				c0.002,3.127,0.008,6.253,0.009,9.38c0.003,0.555,0.009,1.108,0.013,1.661c0.002,0.011,0.006,0.022,0.01,0.033
				c0.068-0.211,0.033-0.438,0.035-0.659c0.016-3.63-0.066-7.259-0.021-10.889c0.013-0.042-0.019-0.085-0.019-0.128
				c0-0.068,0-0.137,0-0.207C46.736,28.032,46.756,28.025,46.744,28.021z"/>
			<path fill="#1E100D" d="M46.633,40.117c-0.012,0.005-0.018,0.008-0.021,0.012c0.002,0.003,0.002,0.008,0.002,0.008
				c0.003,0.004,0.004,0.006,0,0.006c0.002,0.012,0.003,0.022,0.005,0.032l0.014,0.034l-0.022,0.025
				c0.043-0.041,0.084-0.082,0.127-0.125c-0.022-0.024-0.036-0.051-0.047-0.076C46.671,40.063,46.654,40.09,46.633,40.117z"/>
			<path fill="#1E100D" d="M46.508,40.141v0.002V40.141z"/>
			<path fill="#1E100D" d="M46.667,39.736c-0.001-3.736-0.001-7.475-0.001-11.211c0-0.093,0-0.187,0.031-0.275
				c-0.137,0.203-0.086,0.433-0.086,0.651c-0.002,3.735-0.002,7.47-0.002,11.205c0.002,0.009,0.002,0.016,0.002,0.022
				c0.005-0.004,0.011-0.007,0.021-0.012c0.021-0.027,0.038-0.056,0.055-0.084C46.648,39.939,46.667,39.836,46.667,39.736z"/>
			<path fill="#1E100D" d="M46.688,40.033c0.012,0.025,0.024,0.052,0.047,0.076c0-0.06,0-0.117,0-0.178
				C46.721,39.967,46.705,40.001,46.688,40.033z"/>
			<path fill="#1E100D" d="M46.725,39.443c0-0.407,0-0.815-0.002-1.225c0-0.078,0-0.156,0-0.234
				c-0.01-3.245-0.018-6.489-0.025-9.734c-0.031,0.089-0.031,0.183-0.031,0.275c0,3.737,0,7.475,0.001,11.211
				c0,0.1-0.019,0.203,0.021,0.297c0.019-0.032,0.033-0.066,0.047-0.102c0-0.018-0.002-0.033-0.002-0.051
				C46.703,39.739,46.725,39.589,46.725,39.443z"/>
			<path fill="#1E100D" d="M46.732,39.882c-0.004-0.553-0.008-1.106-0.01-1.661c0,0.407,0,0.815,0.002,1.225
				C46.725,39.589,46.703,39.739,46.732,39.882z"/>
			<path fill="#1E100D" d="M42.811,40.014c-0.011-0.023-0.02-0.048-0.025-0.072c-0.02,0.057-0.049,0.11-0.096,0.162
				c0.037,0.035,0.076,0.071,0.115,0.107c-0.007-0.023-0.006-0.049,0-0.072C42.807,40.098,42.809,40.055,42.811,40.014z"/>
			<path fill="#1E100D" d="M42.846,28.942c0,0.121,0,0.242,0,0.363C42.846,29.184,42.846,29.063,42.846,28.942z"/>
			<path fill="#1E100D" d="M42.811,39.813c-0.004,0.045-0.012,0.088-0.025,0.129c0.006,0.024,0.016,0.049,0.025,0.072
				c0-0.006,0-0.012,0-0.012C42.811,39.934,42.811,39.873,42.811,39.813z"/>
			<path fill="#1E100D" d="M42.801,39.409c0,0.062,0.006,0.124,0.01,0.188c-0.002-2.755-0.004-5.509-0.006-8.262
				C42.805,34.025,42.805,36.718,42.801,39.409z"/>
			<path fill="#1E100D" d="M42.749,39.43c0.001-0.039,0.002-0.08,0.002-0.117c-0.002-2.099-0.002-4.195-0.003-6.293
				c0,2.096,0.001,4.19-0.001,6.287C42.746,39.348,42.748,39.389,42.749,39.43z"/>
			<path fill="#1E100D" d="M42.748,39.729c-0.007,0.076-0.025,0.149-0.059,0.221c0,0.052,0,0.104,0,0.154
				c0.047-0.052,0.076-0.105,0.096-0.162C42.764,39.871,42.753,39.8,42.748,39.729z"/>
			<path fill="#1E100D" d="M42.846,39.598c0-0.063-0.027-0.127-0.027-0.188c0.004-2.691-0.006-5.384-0.006-8.073
				c0-0.646,0.017-1.294,0.015-1.941c0-0.029,0.019-0.06,0.019-0.09c0-0.121,0-0.24,0-0.362c0-0.067-0.05-0.133-0.084-0.196
				c0.008,0.165,0,0.333,0,0.499c0,1.259-0.007,2.516-0.007,3.773c0,2.098-0.002,4.194,0,6.293c0,0.037-0.002,0.078-0.004,0.117
				c0.004,0.1,0.009,0.199-0.001,0.299c0.005,0.071,0.033,0.144,0.055,0.213c0.014-0.041,0.041-0.084,0.041-0.129
				C42.846,39.739,42.846,39.668,42.846,39.598z"/>
			<path fill="#1E100D" d="M42.749,39.43c-0.001-0.041-0.002-0.082-0.002-0.123c0.002-2.097,0.001-4.191,0.001-6.287
				c0-1.259,0-2.517,0-3.773c0-0.172-0.005-0.344-0.018-0.515c-0.008-0.014-0.014-0.028-0.023-0.041
				c-0.005,3.753-0.012,7.505-0.018,11.259c0.033-0.07,0.052-0.145,0.059-0.221C42.742,39.628,42.746,39.527,42.749,39.43z"/>
			<path fill="#1E100D" d="M42.749,39.43c-0.002,0.1-0.006,0.198-0.001,0.299C42.758,39.629,42.753,39.527,42.749,39.43z"/>
			<path fill="#1E100D" d="M42.747,29.245c0,1.258,0,2.516,0,3.774c0.001-1.26,0.001-2.517,0.002-3.774
				c0-0.166-0.003-0.334-0.011-0.499c-0.002-0.006-0.006-0.011-0.01-0.016C42.742,28.901,42.747,29.073,42.747,29.245z"/>
			<path fill="#1E100D" d="M22.704,33.257c0.022,0.007,0.046,0.017,0.067,0.025c0.049,0.011,0.093,0.036,0.123,0.098l0,0
				c0.033,0.009,0.068,0.011,0.102,0.009c-0.068-0.051-0.141-0.095-0.224-0.121C22.749,33.264,22.727,33.261,22.704,33.257z"/>
			<path fill="#1E100D" d="M17.08,33.218c0.809,0.001,1.617,0.005,2.426,0.005C18.697,33.215,17.889,33.207,17.08,33.218z"/>
			<path fill="#1E100D" d="M22.343,33.217c-0.337-0.02-0.676-0.001-1.013,0.006c0.259,0,0.518,0,0.776,0
				C22.185,33.223,22.264,33.219,22.343,33.217z"/>
			<path fill="#1E100D" d="M15.275,33.096c0,0,0,0.103,0,0.135c0.063-0.037,0.129-0.035,0.202-0.032
				c0.534,0.003,1.068,0.011,1.603,0.011c0.809-0.01,1.617,0.002,2.426,0.009c0.608-0.001,1.217,0.003,1.824,0.003
				c0.336-0.007,0.676-0.022,1.013-0.004c0.122-0.002,0.243,0.004,0.361,0.039c0.022,0.005,0.011,0.008,0.034,0.012
				c0.083,0.027,0.19,0.071,0.19,0.123c0-0.074,0-0.065,0-0.295C20.41,33.096,17.85,33.096,15.275,33.096z"/>
			<path fill="#1E100D" d="M15.5,33.294c2.367-0.006,4.734-0.012,7.103-0.017c0.056,0,0.116-0.008,0.169,0.005
				c-0.021-0.011-0.045-0.019-0.067-0.025c-0.121-0.021-0.241-0.032-0.361-0.04c-0.079,0.002-0.158,0.006-0.236,0.006
				c-0.259,0-0.518,0-0.776,0c-0.038,0-0.074,0.002-0.111,0.002c-0.57,0.006-1.142,0.002-1.713-0.002
				c-0.809,0-1.617-0.004-2.426-0.005c-0.508,0.007-1.017,0.021-1.524,0.048C15.537,33.273,15.519,33.285,15.5,33.294z"/>
			<path fill="#1E100D" d="M15.5,33.323c0.019,0,0.037-0.035,0.056-0.044c0.508-0.026,1.017-0.049,1.524-0.055
				c-0.534-0.002-1.068-0.004-1.603-0.007c-0.073-0.003-0.14,0.026-0.202,0.063c0.037,0.01,0.074,0.041,0.112,0.041
				C15.425,33.323,15.463,33.323,15.5,33.323z"/>
			<path fill="#1E100D" d="M21.219,33.225c0.037,0,0.074-0.002,0.111-0.002c-0.607,0-1.216,0-1.824,0
				C20.077,33.227,20.648,33.229,21.219,33.225z"/>
			<path fill="#1E100D" d="M22.343,33.217c0.12,0.008,0.241,0.021,0.361,0.04C22.586,33.221,22.465,33.214,22.343,33.217z"/>
			<path fill="#1E100D" d="M16.802,15.35c-0.065-0.001-0.132-0.001-0.198-0.001l0.014,0.021c0.07-0.006,0.141-0.009,0.211-0.014
				C16.82,15.354,16.811,15.353,16.802,15.35z"/>
			<path fill="#1E100D" d="M21.662,15.469c0.005-0.031-0.002-0.06-0.022-0.084c-0.04,0-0.081-0.001-0.122-0.001
				C21.568,15.409,21.615,15.439,21.662,15.469z"/>
			<path fill="#1E100D" d="M21.662,15.469c-0.047-0.029-0.094-0.06-0.145-0.085c-0.106,0-0.213-0.002-0.32-0.002
				c-0.101,0.004-0.201,0.002-0.303-0.003c-0.414-0.003-0.828-0.006-1.242-0.009c-0.798,0.003-1.596,0.002-2.393-0.001
				c-0.143-0.001-0.291,0.018-0.432-0.013c-0.07,0.005-0.141,0.008-0.211,0.014c0.1,0.103,0.229,0.111,0.361,0.111
				C18.54,15.478,20.102,15.474,21.662,15.469z"/>
			<path fill="#1E100D" d="M16.802,15.35c0.009,0.003,0.019,0.005,0.026,0.007c0.035-0.002,0.069-0.004,0.104-0.006
				C16.889,15.351,16.845,15.351,16.802,15.35z"/>
			<path fill="#1E100D" d="M16.828,15.356c0.141,0.03,0.289,0.012,0.432,0.013c0.797,0.003,1.595,0.004,2.393,0.001
				c-0.907-0.007-1.814-0.013-2.721-0.02C16.897,15.353,16.863,15.354,16.828,15.356z"/>
			<path fill="#1E100D" d="M21.197,15.382c-0.101-0.002-0.201-0.002-0.303-0.003C20.996,15.384,21.097,15.386,21.197,15.382z"/>
			<path fill="#1E100D" d="M21.445,15.353c0.02,0.008,0.039,0.014,0.058,0.023c0.046,0.003,0.091,0.004,0.137,0.009
				c0.005-0.028,0.007-0.056,0.001-0.084l0,0v0.001C21.576,15.325,21.511,15.341,21.445,15.353z"/>
			<path fill="#1E100D" d="M16.617,15.259c-0.01,0.029-0.014,0.06-0.014,0.09c0.059-0.001,0.118-0.003,0.178-0.004
				C16.725,15.327,16.67,15.301,16.617,15.259z"/>
			<path fill="#1E100D" d="M21.503,15.376c-0.019-0.01-0.038-0.016-0.058-0.023c-0.025,0.005-0.051,0.01-0.076,0.014
				C21.414,15.369,21.458,15.372,21.503,15.376z"/>
			<path fill="#1E100D" d="M17.182,15.337c0.491-0.023,0.984-0.03,1.477-0.029c0.637-0.009,1.273-0.007,1.91,0.016
				c0.246,0.003,0.492,0.004,0.736,0.002c0.051,0,0.096,0.012,0.141,0.027c0.065-0.012,0.131-0.027,0.195-0.051v-0.001
				c-1.674-0.097-3.349-0.016-5.023-0.042c0.053,0.042,0.107,0.068,0.164,0.086C16.914,15.342,17.047,15.339,17.182,15.337z"/>
			<path fill="#1E100D" d="M17.182,15.337c0.492-0.012,0.984-0.023,1.477-0.029C18.166,15.307,17.673,15.313,17.182,15.337z"/>
			<path fill="#1E100D" d="M21.445,15.353c-0.045-0.016-0.09-0.027-0.141-0.027c-0.244,0.002-0.49,0.001-0.736-0.002
				c0.268,0.011,0.534,0.024,0.801,0.043C21.395,15.362,21.42,15.357,21.445,15.353z"/>
			<path fill="#1E100D" d="M21.518,15.384c0.041,0,0.082,0.001,0.122,0.001c-0.046-0.005-0.091-0.006-0.137-0.009
				C21.508,15.378,21.513,15.381,21.518,15.384z"/>
			<path fill="#1E100D" d="M16.781,15.345c-0.06,0.001-0.119,0.003-0.178,0.004c0.066,0,0.133,0,0.198,0.001
				C16.795,15.348,16.787,15.347,16.781,15.345z"/>
			<path fill="#1E100D" d="M19.652,15.37c0.414,0.003,0.828,0.006,1.242,0.009c-0.137-0.006-0.273-0.015-0.41-0.013
				C20.207,15.37,19.93,15.369,19.652,15.37z"/>
			<path fill="#1E100D" d="M21.369,15.366c-0.057,0.008-0.114,0.013-0.172,0.016c0.107,0,0.214,0.002,0.32,0.002
				c-0.005-0.003-0.01-0.006-0.015-0.008C21.458,15.372,21.414,15.369,21.369,15.366z"/>
			<path fill="#1E100D" d="M17.182,15.337c-0.135,0.002-0.268,0.005-0.4,0.008c0.006,0.002,0.014,0.003,0.021,0.005
				c0.043,0.001,0.087,0.001,0.13,0.001C17.015,15.347,17.098,15.34,17.182,15.337z"/>
			<path fill="#1E100D" d="M18.658,15.308c0.637,0,1.273,0.012,1.91,0.016C19.932,15.301,19.295,15.299,18.658,15.308z"/>
			<path fill="#1E100D" d="M20.568,15.323c-0.637-0.004-1.273-0.016-1.91-0.016c-0.493,0.006-0.984,0.018-1.477,0.029
				c-0.084,0.003-0.167,0.01-0.25,0.014c0.906,0.007,1.813,0.013,2.721,0.02c0.277-0.001,0.554,0,0.832-0.004
				c0.137-0.002,0.273,0.007,0.41,0.013c0.102,0.001,0.202,0.001,0.303,0.003c0.058-0.003,0.115-0.008,0.172-0.016
				C21.103,15.348,20.836,15.334,20.568,15.323z"/>
			<path fill="#1E100D" d="M32.578,21.754c-0.096,0.001-0.191,0.001-0.288,0.001c-0.157,0.295-0.022,0.592-0.001,0.889
				c0.009-0.027,0.018-0.051,0.025-0.075C32.359,22.062,32.382,21.845,32.578,21.754z"/>
			<path fill="#1E100D" d="M35.745,21.77l0.009-0.02c-0.042,0-0.085,0-0.127,0C35.666,21.757,35.705,21.761,35.745,21.77z"/>
			<path fill="#1E100D" d="M32.578,21.754c-0.196,0.091-0.219,0.308-0.264,0.814c0.24-0.702,0.271-0.686,1.178-0.713
				c0.75-0.022,1.509,0.122,2.253-0.086c-0.04-0.009-0.08-0.013-0.119-0.02C34.609,21.751,33.594,21.753,32.578,21.754z"/>
			<path fill="#1E100D" d="M25.555,40.249c-0.033-0.006-0.064-0.013-0.098-0.019c0.003,0.027,0.004,0.056,0.005,0.082
				c0.039-0.028,0.079-0.049,0.121-0.063C25.574,40.249,25.564,40.249,25.555,40.249z"/>
			<path fill="#1E100D" d="M29.479,40.252c0.041,0.016,0.082,0.038,0.121,0.068c0.002-0.028,0.004-0.057,0.002-0.086
				c-0.031,0.007-0.063,0.012-0.098,0.017C29.496,40.252,29.486,40.252,29.479,40.252z"/>
			<path fill="#1E100D" d="M25.583,40.249c0.132-0.047,0.277-0.033,0.416-0.033c0.257,0,0.513,0,0.77,0
				c-0.435-0.007-0.87-0.019-1.306-0.036c-0.017,0.016-0.019,0.032-0.006,0.051l0,0c0.034,0.008,0.065,0.014,0.098,0.02
				C25.564,40.249,25.574,40.249,25.583,40.249z"/>
			<path fill="#1E100D" d="M29.596,40.182c-0.438,0.018-0.876,0.027-1.316,0.034c0.261,0,0.523,0,0.785,0
				c0.14,0,0.283-0.013,0.414,0.036c0.008,0,0.019,0,0.025-0.001c0.033-0.005,0.064-0.01,0.098-0.017
				C29.615,40.216,29.613,40.195,29.596,40.182z"/>
			<path fill="#1E100D" d="M25.583,40.249c-0.042,0.017-0.082,0.035-0.121,0.063c1.378,0.002,2.758,0.006,4.138,0.008
				c-0.039-0.03-0.08-0.053-0.121-0.068C28.18,40.279,26.882,40.285,25.583,40.249z"/>
			<path fill="#1E100D" d="M26.769,40.216c-0.257,0-0.513,0-0.77,0c-0.139,0-0.284-0.014-0.416,0.033
				c1.299,0.036,2.597,0.03,3.896,0.003c-0.131-0.049-0.274-0.036-0.414-0.036c-0.261,0-0.523,0-0.785,0
				C27.776,40.225,27.272,40.225,26.769,40.216z"/>
			<path fill="#1E100D" d="M42.961,40.188c-0.027-0.002-0.049-0.02-0.066-0.041c-0.018,0-0.033-0.002-0.049-0.004
				c-0.014,0.022-0.027,0.045-0.041,0.068c0.002,0.025,0.006,0.055,0.01,0.08c0.191-0.034,0.383-0.055,0.574-0.066
				C43.246,40.213,43.104,40.2,42.961,40.188z"/>
			<path fill="#1E100D" d="M46.361,40.186c-0.041,0.006-0.08,0.013-0.121,0.019c0.125,0.012,0.246,0.042,0.363,0.119
				c0.004-0.028,0.006-0.058,0.004-0.087c-0.012-0.021-0.024-0.039-0.035-0.06C46.501,40.18,46.432,40.182,46.361,40.186z"/>
			<path fill="#1E100D" d="M45.686,40.221c0.183-0.005,0.371-0.033,0.556-0.018c0.041-0.006,0.079-0.014,0.12-0.02
				c-0.407,0.015-0.813,0.028-1.223,0.037C45.32,40.225,45.501,40.227,45.686,40.221z"/>
			<path fill="#1E100D" d="M42.895,40.146c0.019,0.021,0.039,0.037,0.066,0.041c0.143,0.013,0.285,0.024,0.428,0.037
				c0.098-0.008,0.194-0.014,0.291-0.017C43.417,40.195,43.156,40.176,42.895,40.146z"/>
			<path fill="#1E100D" d="M46.617,40.175c-0.016,0.001-0.029,0.002-0.045,0.002c0.011,0.021,0.023,0.039,0.035,0.06l0.022-0.026
				L46.617,40.175z"/>
			<path fill="#1E100D" d="M42.805,40.139c-0.006,0.023-0.007,0.049,0,0.072c0.014-0.023,0.027-0.046,0.041-0.068
				C42.832,40.141,42.818,40.141,42.805,40.139z"/>
			<path fill="#1E100D" d="M43.389,40.225c-0.191,0.014-0.383,0.032-0.574,0.066c1.264,0.011,2.525,0.021,3.789,0.031
				c-0.115-0.077-0.237-0.107-0.362-0.119C45.291,40.337,44.34,40.301,43.389,40.225z"/>
			<path fill="#1E100D" d="M45.686,40.221c-0.184,0.006-0.365,0.004-0.547,0.002c-0.486,0.012-0.973,0.01-1.459-0.014
				c-0.097,0.003-0.193,0.009-0.291,0.016c0.951,0.076,1.902,0.112,2.853-0.021C46.057,40.188,45.867,40.216,45.686,40.221z"/>
			<path fill="#1E100D" d="M12.801,40.253c0.042,0.015,0.084,0.034,0.123,0.063c0.001-0.026,0.002-0.055,0.003-0.082
				c-0.032,0.007-0.063,0.012-0.097,0.017C12.82,40.252,12.811,40.252,12.801,40.253z"/>
			<path fill="#1E100D" d="M9.213,40.259c-0.032-0.005-0.064-0.008-0.098-0.011C9.113,40.273,9.113,40.3,9.12,40.326
				c0.036-0.03,0.075-0.053,0.116-0.067C9.229,40.259,9.221,40.259,9.213,40.259z"/>
			<path fill="#1E100D" d="M12.922,40.184c-1.267,0.004-2.534,0.006-3.801,0.01c-0.014,0.018-0.016,0.002-0.006,0.021
				c0.033,0.004,0.065-0.022,0.098-0.022c0.008,0,0.016,0,0.023,0c0.095,0,0.199-0.01,0.304-0.01
				c0.987-0.002,1.972,0.016,2.957,0.019c0.104,0,0.208,0.011,0.303,0.045c0.01-0.001,0.02,0.004,0.029,0.003
				c0.033-0.005,0.064-0.009,0.097-0.014C12.939,40.215,12.938,40.2,12.922,40.184z"/>
			<path fill="#1E100D" d="M9.236,40.259c-0.041,0.017-0.08,0.037-0.116,0.067c1.268-0.003,2.536-0.006,3.804-0.01
				c-0.039-0.029-0.081-0.051-0.123-0.063C11.612,40.285,10.424,40.273,9.236,40.259z"/>
			<path fill="#1E100D" d="M12.801,40.253c-0.096-0.034-0.199-0.037-0.303-0.037c-0.985-0.003-1.97-0.003-2.957,0
				c-0.105,0-0.209,0.005-0.304,0.043C10.424,40.273,11.612,40.285,12.801,40.253z"/>
			<path fill="#1E100D" d="M36.195,40.177c-0.184,0.13-0.406,0.089-0.615,0.091c-1.002,0.012-2.005-0.004-3.008,0.01
				c-0.016,0-0.031-0.008-0.047-0.01c0.019,0.018,0.031,0.037,0.039,0.063c1.25-0.005,2.5-0.01,3.75-0.016
				c-0.002-0.026,0-0.056,0-0.082c-0.015-0.02-0.027-0.039-0.041-0.06C36.248,40.175,36.223,40.175,36.195,40.177z"/>
			<path fill="#1E100D" d="M32.572,40.275c1.003-0.014,2.006,0.002,3.008-0.01c0.209,0,0.432,0.041,0.615-0.09
				c-1.229,0.073-2.457,0.039-3.687,0.016c-0.016,0.017-0.018,0.035-0.006,0.054c0.009,0.006,0.015,0.015,0.021,0.021
				C32.542,40.27,32.557,40.275,32.572,40.275z"/>
			<path fill="#1E100D" d="M32.508,40.33c0.02-0.001,0.038-0.001,0.057-0.001c-0.006-0.024-0.021-0.045-0.039-0.063
				c-0.006,0-0.014-0.002-0.021-0.004C32.504,40.285,32.503,40.309,32.508,40.33z"/>
			<path fill="#1E100D" d="M32.525,40.268c-0.008-0.008-0.014-0.017-0.021-0.021c-0.001,0.006,0.001,0.012,0,0.018
				C32.512,40.266,32.52,40.266,32.525,40.268z"/>
			<path fill="#1E100D" d="M36.316,40.171c-0.016,0.001-0.028,0.001-0.043,0.002c0.014,0.021,0.026,0.04,0.041,0.06
				C36.326,40.212,36.327,40.191,36.316,40.171z"/>
			<path fill="#1E100D" d="M35.609,21.672c0.051,0.017,0.099,0.039,0.145,0.078c0-0.028-0.003-0.055-0.008-0.081l0,0l0,0
				C35.701,21.671,35.654,21.671,35.609,21.672z"/>
			<path fill="#1E100D" d="M32.291,21.662c-0.001,0.031-0.001,0.063,0,0.093c0.051-0.046,0.105-0.07,0.163-0.087
				C32.4,21.665,32.346,21.665,32.291,21.662z"/>
			<path fill="#1E100D" d="M35.027,21.637c0.199,0.009,0.4,0.012,0.599,0.012c0.042,0,0.085,0,0.127,0
				c-0.045,0-0.094-0.036-0.146-0.052C35.416,21.603,35.221,21.632,35.027,21.637z"/>
			<path fill="#1E100D" d="M33.354,21.698c0.135,0.004,0.27,0.002,0.403-0.001c-0.435-0.001-0.868-0.011-1.304-0.029
				c-0.057,0.017-0.111,0.041-0.163,0.087c0.097,0,0.192,0,0.288-0.001C32.721,21.688,32.953,21.69,33.354,21.698z"/>
			<path fill="#1E100D" d="M35.027,21.688c-0.424,0.009-0.848,0.013-1.271,0.01c-0.134,0.003-0.27,0.005-0.402,0.001
				c-0.4-0.008-0.633-0.01-0.775,0.056c1.016-0.001,2.031-0.003,3.048-0.004C35.428,21.716,35.227,21.696,35.027,21.688z"/>
			<path fill="#1E100D" d="M33.234,21.64c0.547-0.002,1.092-0.002,1.638-0.001C34.326,21.628,33.781,21.63,33.234,21.64z"/>
			<path fill="#1E100D" d="M32.491,21.657c-0.066,0.002-0.134,0.004-0.201,0.005c0.056,0.003,0.11,0.003,0.163,0.006
				C32.466,21.664,32.479,21.66,32.491,21.657z"/>
			<path fill="#1E100D" d="M35.609,21.672c0.045-0.001,0.092-0.001,0.137-0.003l0,0c-0.057-0.004-0.114-0.004-0.172-0.006
				C35.586,21.665,35.598,21.669,35.609,21.672z"/>
			<path fill="#1E100D" d="M35.027,21.688c0.193-0.005,0.388-0.009,0.582-0.016c-0.012-0.003-0.023-0.007-0.035-0.009
				c-0.234-0.01-0.469-0.02-0.702-0.024c-0.546-0.001-1.091-0.001-1.638,0.001c-0.248,0.004-0.496,0.01-0.743,0.018
				c-0.013,0.003-0.025,0.007-0.038,0.011c0.436,0.019,0.869,0.028,1.304,0.029C34.18,21.69,34.604,21.669,35.027,21.688z"/>
			<path fill="#1E100D" d="M35.027,21.688c-0.424-0.019-0.848,0.003-1.271,0.01C34.18,21.7,34.604,21.696,35.027,21.688z"/>
			<path fill="#1E100D" d="M36.764,22.983c-0.146,0.078-0.291,0.156-0.436,0.233c-0.004,0.028-0.006,0.058-0.01,0.086
				C36.527,23.281,36.646,23.135,36.764,22.983z"/>
			<path fill="#1E100D" d="M36.318,23.303c-0.004,0.038-0.008,0.076-0.012,0.114c0.322,0.035,0.379-0.21,0.455-0.434
				C36.646,23.135,36.527,23.281,36.318,23.303z"/>
			<path fill="#1E100D" d="M45.721,23.974c-0.037-0.17-0.129-0.307-0.246-0.432C45.461,23.741,45.596,23.854,45.721,23.974z"/>
			<path fill="#1E100D" d="M45.721,23.974c-0.125-0.119-0.26-0.232-0.246-0.432C45.398,23.776,45.393,23.972,45.721,23.974z"/>
			<path fill="#1E100D" d="M46.501,26.666c0.116-0.148,0.043-0.292-0.015-0.437C46.41,26.378,46.463,26.521,46.501,26.666z"/>
			<path fill="#1E100D" d="M46.501,26.666c-0.039-0.145-0.091-0.288-0.015-0.437C46.348,26.504,46.348,26.515,46.501,26.666z"/>
			<path fill="#1E100D" d="M35.955,22.517c0.005-0.001,0.021-0.008,0.045-0.023c-0.008-0.061-0.018-0.121-0.025-0.183
				c-0.037,0.042-0.058,0.091-0.049,0.144C35.93,22.473,35.879,22.528,35.955,22.517z"/>
			<path fill="#1E100D" d="M35.919,22.695c0.038,0.039,0.042-0.135,0.082-0.202c-0.024,0.016-0.041,0.022-0.045,0.023
				c-0.076,0.012-0.024-0.044-0.028-0.063c-0.009-0.053,0.012-0.102,0.049-0.144C35.87,22.429,35.807,22.579,35.919,22.695z"/>
			<path fill="#1E100D" d="M15.654,33.109c2.321-0.002,4.643-0.002,6.965,0c0.127,0,0.262-0.026,0.377,0.056
				c-0.047-0.205-0.211-0.108-0.318-0.108c-2.361-0.005-4.723-0.005-7.084,0c-0.106,0-0.271-0.097-0.318,0.108
				C15.393,33.083,15.525,33.109,15.654,33.109z"/>
			<path fill="#1E100D" d="M22.619,33.075c-2.322-0.002-4.644-0.021-6.965-0.019c-0.129,0-0.262,0.037-0.379,0.037
				c2.574,0,5.147,0,7.721,0C22.881,33.096,22.746,33.075,22.619,33.075z"/>
			<path fill="#1E100D" d="M21.514,29.581c-1.586,0.004-3.17,0.008-4.755-0.004c-0.06-0.001-0.126,0.009-0.193,0.016
				c1.846,0,3.691-0.002,5.536-0.003c0.002-0.037,0.004-0.074,0.005-0.111C21.927,29.615,21.715,29.581,21.514,29.581z"/>
			<path fill="#1E100D" d="M16.16,29.354c-0.102,0.086-0.053,0.162,0.015,0.238c0.075,0,0.149,0,0.225,0
				C16.295,29.577,16.205,29.521,16.16,29.354z"/>
			<path fill="#1E100D" d="M21.473,29.501c-1.561,0.005-3.121,0.021-4.683,0.008c-0.091,0-0.182-0.003-0.26-0.03
				c-0.134,0.014-0.269,0.049-0.37-0.093c0.045,0.165,0.135,0.274,0.239,0.274c0.056,0,0.11,0,0.166,0
				c0.067,0,0.134-0.051,0.193-0.051c1.585,0.013,3.169-0.03,4.755-0.033c0.201,0,0.413,0.084,0.593-0.145c-0.12,0-0.24,0-0.36,0
				C21.67,29.432,21.58,29.501,21.473,29.501z"/>
			<path fill="#1E100D" d="M16.53,29.482c0.078,0.028,0.169,0.037,0.26,0.037c1.562,0.013,3.122,0.008,4.683,0.004
				c0.107,0,0.197-0.018,0.273-0.047c-1.675-0.002-3.35,0-5.024-0.01C16.66,29.467,16.596,29.477,16.53,29.482z"/>
			<path fill="#1E100D" d="M20,29.634c-1.275-0.008-2.551,0.064-3.825-0.041c0.122,0.11,0.274,0.103,0.423,0.103
				c1.694,0,3.389,0,5.082,0c0.149,0,0.301,0.006,0.422-0.104C21.404,29.701,20.7,29.637,20,29.634z"/>
			<path fill="#1E100D" d="M16.399,29.66c-0.075,0-0.149,0-0.225,0c1.274,0,2.55-0.001,3.825,0.007
				c0.7,0.004,1.404,0.051,2.102-0.06c-1.845,0-3.69,0.025-5.536,0.026C16.509,29.641,16.453,29.66,16.399,29.66z"/>
			<path fill="#1E100D" d="M16.565,29.66c-0.056,0-0.11,0-0.166,0C16.453,29.66,16.509,29.66,16.565,29.66z"/>
			<path fill="#1E100D" d="M29.596,40.182c-0.242-0.138-0.508-0.082-0.762-0.074c-1.123,0.033-2.25-0.098-3.371,0.072
				C26.841,40.146,28.219,40.145,29.596,40.182z"/>
			<path fill="#1E100D" d="M28.279,40.216c0.439-0.007,0.877-0.018,1.317-0.034c-1.378-0.037-2.756-0.035-4.134-0.002
				c0.436,0.019,0.871,0.029,1.306,0.036C27.271,40.216,27.776,40.216,28.279,40.216z"/>
			<path fill="#1E100D" d="M28.279,40.216c-0.503,0-1.008,0-1.511,0C27.272,40.225,27.776,40.225,28.279,40.216z"/>
			<path fill="#1E100D" d="M12.922,40.184c-0.712-0.173-1.436-0.066-2.152-0.07c-0.549-0.004-1.107-0.109-1.648,0.08
				C10.388,40.131,11.655,40.146,12.922,40.184z"/>
			<path fill="#1E100D" d="M9.121,40.191c1.267-0.004,2.534-0.006,3.801-0.008C11.655,40.146,10.388,40.131,9.121,40.191z"/>
			<path fill="#1E100D" d="M42.803,28.744c0.168,0.137,0.049,0.355,0.049,0.52c0.012,3.514,0.01,7.029,0.01,10.543
				c0,0.063,0,0.127,0,0.188c0.018,0,0.035,0,0.053,0l0,0c0.001-3.69,0.011-7.381-0.007-11.07c-0.003-0.515-0.091-1.039-0.222-1.538
				c-0.086-0.332-0.097,0.104-0.184,0.057c0.141,0.191,0.193,0.407,0.191,0.64C42.829,28.277,42.771,28.522,42.803,28.744z"/>
			<path fill="#1E100D" d="M42.501,27.551c-0.008-0.016-0.017-0.031-0.024-0.047c-0.056,0.177,0.135,0.31,0.123,0.479
				c0.016,0.012,0.023,0.023,0.037,0.036C42.602,27.861,42.559,27.705,42.501,27.551z"/>
			<path fill="#1E100D" d="M42.637,28.02c0.021,0.021,0.041,0.042,0.057,0.063c0.002-0.232-0.051-0.448-0.191-0.64
				c-0.014,0.021-0.02,0.041-0.025,0.061c0.008,0.016,0.018,0.031,0.025,0.047C42.559,27.705,42.602,27.861,42.637,28.02z"/>
			<path fill="#1E100D" d="M42.74,28.708c0.021,0.011,0.047,0.023,0.063,0.036c-0.029-0.222,0.026-0.467-0.109-0.661
				c0,0.017,0.002,0.032,0,0.048C42.717,28.323,42.73,28.515,42.74,28.708z"/>
			<path fill="#1E100D" d="M42.637,28.02c-0.013-0.013-0.021-0.024-0.035-0.036c0.035,0.235,0.07,0.471,0.105,0.706
				c0.01,0.004,0.016,0.009,0.023,0.013C42.714,28.472,42.686,28.244,42.637,28.02z"/>
			<path fill="#1E100D" d="M42.693,28.131c0.002-0.016-0.002-0.031,0-0.048c-0.016-0.021-0.036-0.043-0.057-0.063
				c0.049,0.225,0.076,0.452,0.092,0.683c0.004,0.001,0.008,0.004,0.012,0.006C42.73,28.515,42.717,28.323,42.693,28.131z"/>
			<path fill="#1E100D" d="M42.859,39.807c0-3.514,0.004-7.029-0.008-10.543c0-0.162,0.141-0.383-0.029-0.52
				c0.002,0.005,0.021,0.009,0.021,0.013c0,0.063,0,0.124,0,0.186c0,0.12-0.015,0.241-0.021,0.362c0,0.678-0.01,1.354-0.01,2.031
				c0.002,2.753,0.017,5.507,0.018,8.262c0.005,0.071,0.013,0.145,0.013,0.215c0,0.062,0,0.121,0,0.184c0,0,0.017,0,0.032,0
				C42.878,39.934,42.859,39.869,42.859,39.807z"/>
			<path fill="#1E100D" d="M42.846,39.598c0,0.07,0,0.143,0,0.215C42.846,39.741,42.846,39.669,42.846,39.598z"/>
			<path fill="#1E100D" d="M42.803,28.744c-0.016-0.013-0.039-0.025-0.063-0.036c0,0.013,0,0.025,0,0.038
				c0.033,0.063,0.055,0.129,0.064,0.196c0-0.062,0-0.123,0-0.186C42.805,28.753,42.805,28.749,42.803,28.744z"/>
			<path fill="#1E100D" d="M42.803,29.395c0,0.647,0,1.295,0.002,1.941c-0.002-0.677,0-1.354,0-2.031
				C42.803,29.335,42.803,29.364,42.803,29.395z"/>
			<path fill="#1E100D" d="M42.729,28.702c-0.008-0.004-0.013-0.009-0.022-0.013c0.01,0.013,0.017,0.027,0.024,0.041
				C42.73,28.721,42.73,28.711,42.729,28.702z"/>
			<path fill="#1E100D" d="M42.729,28.702c0.002,0.009,0.002,0.019,0.002,0.028c0.004,0.005,0.006,0.01,0.01,0.016
				c0-0.013,0-0.025,0-0.038C42.736,28.706,42.732,28.703,42.729,28.702z"/>
			<path fill="#1E100D" d="M42.857,40.122c-0.004,0.006-0.008,0.011-0.01,0.017c0.014,0.002,0.026,0.002,0.041,0.002
				c-0.012-0.013-0.021-0.025-0.031-0.037C42.857,40.107,42.857,40.115,42.857,40.122z"/>
			<path fill="#1E100D" d="M46.57,40.175c0-0.002,0-0.003-0.002-0.004c0.006-0.008,0.01-0.015,0.014-0.021
				c-0.047,0.008-0.096,0.014-0.143,0.021C46.482,40.173,46.527,40.173,46.57,40.175z"/>
			<path fill="#1E100D" d="M42.859,40.032c0,0.022,0,0.047-0.002,0.069c0.011,0.013,0.021,0.025,0.031,0.037
				c1.182,0.049,2.366-0.006,3.551,0.032c0.047-0.009,0.096-0.015,0.143-0.022c0.009-0.014,0.02-0.027,0.027-0.043
				c-0.906,0-1.814,0.009-2.721-0.01c-0.326-0.006-0.668,0.1-0.976-0.102h-0.001C42.896,40.021,42.876,40.034,42.859,40.032z"/>
			<path fill="#1E100D" d="M46.613,40.141c0,0-0.002-0.009-0.002-0.012C46.602,40.137,46.609,40.139,46.613,40.141z"/>
			<path fill="#1E100D" d="M46.583,40.148c-0.004,0.008-0.008,0.015-0.013,0.021c0,0.001,0,0.002,0.002,0.004
				c0.015,0,0.029,0,0.046,0c-0.002-0.01-0.003-0.021-0.005-0.031c-0.002,0-0.01,0.002-0.025,0.006
				C46.586,40.148,46.583,40.148,46.583,40.148z"/>
			<path fill="#1E100D" d="M46.583,40.148c0.001,0,0.003,0,0.004,0c0.017-0.004,0.022-0.006,0.026-0.006v-0.002
				c-0.004-0.002-0.012-0.004-0.002-0.012c0-0.008-0.002-0.015-0.002-0.021C46.602,40.121,46.592,40.136,46.583,40.148z"/>
			<path fill="#1E100D" d="M42.857,40.122c0,0,0-0.015,0-0.021c-0.006-0.009-0.012-0.017-0.02-0.021
				c-0.011-0.021-0.021-0.044-0.029-0.066c0,0.041-0.002,0.084-0.004,0.125c0.014,0,0.027,0,0.043,0
				C42.852,40.133,42.854,40.128,42.857,40.122z"/>
			<path fill="#1E100D" d="M42.857,40.104c0.002-0.023,0.002-0.047,0.002-0.07c-0.017,0-0.033-0.014-0.049-0.037
				c0,0,0,0.013-0.002,0.02c0.01,0.021,0.02,0.043,0.029,0.065C42.846,40.086,42.852,40.094,42.857,40.104z"/>
			<path fill="#1E100D" d="M42.889,40.141c-0.014,0-0.027,0-0.041-0.002c0,0.002-0.002,0.002-0.002,0.002
				c0.016,0.004,0.031,0.006,0.049,0.006C42.893,40.145,42.891,40.143,42.889,40.141z"/>
			<path fill="#1E100D" d="M46.439,40.172c-0.025,0.005-0.053,0.008-0.078,0.014c0.07-0.004,0.14-0.006,0.211-0.009
				c0,0,0-0.002-0.002-0.002C46.527,40.173,46.482,40.173,46.439,40.172z"/>
			<path fill="#1E100D" d="M42.889,40.141c0.002,0.002,0.004,0.004,0.006,0.006c0.263,0.029,0.523,0.051,0.785,0.063
				c0.486-0.017,0.973,0.006,1.459,0.013c0.408-0.009,0.814-0.022,1.223-0.037c0.025-0.004,0.054-0.008,0.078-0.013
				C45.256,40.134,44.07,40.188,42.889,40.141z"/>
			<path fill="#1E100D" d="M46.572,40.177c0.016,0,0.029-0.001,0.045-0.002c-0.016,0-0.031,0-0.047,0
				C46.572,40.175,46.572,40.177,46.572,40.177z"/>
			<path fill="#1E100D" d="M42.805,40.139c0.014,0.002,0.027,0.002,0.041,0.004c0,0,0.002-0.002,0.002-0.004
				C42.833,40.139,42.818,40.139,42.805,40.139z"/>
			<path fill="#1E100D" d="M45.139,40.223c-0.486-0.008-0.973-0.029-1.459-0.014C44.166,40.232,44.652,40.232,45.139,40.223z"/>
			<path fill="#1E100D" d="M42.859,40.032c0.017,0.002,0.035-0.011,0.054-0.037c-0.019,0-0.035,0-0.054,0
				C42.859,40.008,42.859,40.021,42.859,40.032z"/>
			<path fill="#1E100D" d="M42.811,39.995c0.017,0.024,0.033,0.037,0.049,0.037c0-0.013,0.002-0.024,0.002-0.037
				C42.844,39.995,42.827,39.995,42.811,39.995z"/>
			<path fill="#1E100D" d="M36.3,40.117c-0.011,0.003-0.022,0.001-0.034-0.001c0,0,0,0.003-0.002,0.004
				c-0.02,0.021-0.039,0.034-0.061,0.051c0.023,0,0.047,0,0.07,0C36.283,40.152,36.291,40.136,36.3,40.117z"/>
			<path fill="#1E100D" d="M36.203,40.171c0.021-0.017,0.041-0.03,0.061-0.051c0.002-0.001,0.002-0.002,0.002-0.002
				c-0.021-0.004-0.043-0.011-0.065-0.022c-0.646,0.004-1.293-0.013-1.938,0.014c-0.584,0.021-1.176-0.11-1.752,0.084
				C33.74,40.127,34.973,40.161,36.203,40.171z"/>
			<path fill="#1E100D" d="M36.3,40.117c0.001-0.003,0.003-0.006,0.005-0.01l0,0c-0.011-0.002-0.021-0.002-0.031-0.004
				c-0.002,0.004-0.004,0.008-0.008,0.013C36.277,40.118,36.289,40.12,36.3,40.117z"/>
			<path fill="#1E100D" d="M36.273,40.104c-0.026-0.004-0.051-0.006-0.074-0.008c0.023,0.012,0.045,0.019,0.066,0.021
				C36.27,40.111,36.271,40.107,36.273,40.104z"/>
			<path fill="#1E100D" d="M36.3,40.117c-0.009,0.019-0.017,0.035-0.024,0.054c0.015,0,0.027,0,0.041,0
				c-0.004-0.019-0.008-0.036-0.01-0.056C36.305,40.116,36.303,40.116,36.3,40.117z"/>
			<polygon fill="#1E100D" points="36.305,40.107 36.305,40.107 36.3,40.117 36.307,40.115 36.305,40.109 			"/>
			<path fill="#1E100D" d="M36.273,40.171c-0.023,0-0.047,0-0.07,0c-0.002,0.001-0.004,0.004-0.008,0.006
				c0.027-0.002,0.052-0.002,0.078-0.004l0,0V40.171z"/>
			<path fill="#1E100D" d="M36.195,40.177c0.004-0.002,0.006-0.005,0.008-0.006c-1.23-0.01-2.463-0.044-3.693,0.021
				C33.738,40.216,34.967,40.25,36.195,40.177z"/>
			<path fill="#1E100D" d="M36.273,40.173L36.273,40.173c0.015-0.001,0.027-0.001,0.043-0.002c-0.014,0-0.027,0-0.043,0V40.173z"/>
		</g>
	</g>
</g>
<g id="Grid" display="none">
</g>
</svg>
