<?xml version="1.0" encoding="utf-8"?>
<!-- Generator: Adobe Illustrator 16.0.0, SVG Export Plug-In . SVG Version: 6.00 Build 0)  -->
<!DOCTYPE svg PUBLIC "-//W3C//DTD SVG 1.1//EN" "http://www.w3.org/Graphics/SVG/1.1/DTD/svg11.dtd">
<svg version="1.1" xmlns="http://www.w3.org/2000/svg" xmlns:xlink="http://www.w3.org/1999/xlink" x="0px" y="0px" width="40px"
	 height="40px" viewBox="0 0 40 40" enable-background="new 0 0 40 40" xml:space="preserve">
<g id="Capa_1">
	<path fill="#FFFFFF" stroke="#000000" stroke-width="0.25" stroke-miterlimit="10" d="M26.286,4.563"/>
	
		<radialGradient id="SVGID_1_" cx="-17.4453" cy="37.4531" r="17.0641" gradientTransform="matrix(1.1083 0 0 0.1273 40.5511 32.6865)" gradientUnits="userSpaceOnUse">
		<stop  offset="0" style="stop-color:#E6C816"/>
		<stop  offset="0.417" style="stop-color:#EDCF19;stop-opacity:0.5842"/>
		<stop  offset="1" style="stop-color:#FFE121;stop-opacity:0.0028"/>
	</radialGradient>
	<ellipse fill="url(#SVGID_1_)" cx="21.216" cy="37.453" rx="18.633" ry="2.203"/>
	<g>
		<g>
			<path fill="#D2B814" d="M34.158,4.311c-1.297-0.594-10.413-3.583-10.413-3.583s-1.326-0.327-2.351,1.059
				C20.369,3.17,9.047,24.799,9.047,24.799s-0.94,1.938,1.012,3.081c1.95,1.144,8.857,4.34,8.857,4.34s2.853,1.154,4.076-1.124
				C24.09,29.054,35.298,6.76,35.298,6.76S36.04,5.174,34.158,4.311z"/>
		</g>
		<g>
			<linearGradient id="SVGID_2_" gradientUnits="userSpaceOnUse" x1="17.5605" y1="31.8438" x2="26.275" y2="1.4528">
				<stop  offset="0" style="stop-color:#F7931E;stop-opacity:0.6"/>
				<stop  offset="0.9738" style="stop-color:#FFFCF8;stop-opacity:0.3"/>
				<stop  offset="1" style="stop-color:#FFFFFF;stop-opacity:0"/>
			</linearGradient>
			<path fill="url(#SVGID_2_)" d="M34.158,4.311c-1.297-0.594-10.413-3.583-10.413-3.583s-1.326-0.327-2.351,1.059
				C20.369,3.17,9.047,24.799,9.047,24.799s-0.94,1.938,1.012,3.081c1.95,1.144,8.857,4.34,8.857,4.34s2.853,1.154,4.076-1.124
				C24.09,29.054,35.298,6.76,35.298,6.76S36.04,5.174,34.158,4.311z"/>
		</g>
		<g>
			<path fill="#FFE120" d="M33.681,4.249c-1.243-0.576-10.157-3.603-10.157-3.603s-1.272-0.311-2.262,1.04
				C20.271,3.038,9.317,24.139,9.317,24.139s-0.961,2.089,0.909,3.196c1.87,1.105,9.223,4.254,9.223,4.254s2.012,0.559,3.141-1.396
				c1.126-1.956,12.002-23.716,12.002-23.716S35.485,5.082,33.681,4.249z"/>
		</g>
		<linearGradient id="SVGID_3_" gradientUnits="userSpaceOnUse" x1="22.0098" y1="0.7622" x2="22.0098" y2="31.73">
			<stop  offset="0" style="stop-color:#FFE120;stop-opacity:0"/>
			<stop  offset="0.209" style="stop-color:#FFDC20;stop-opacity:0.1045"/>
			<stop  offset="0.4487" style="stop-color:#FDCE20;stop-opacity:0.2244"/>
			<stop  offset="0.7036" style="stop-color:#FBB71F;stop-opacity:0.3518"/>
			<stop  offset="0.9675" style="stop-color:#F7971E;stop-opacity:0.4837"/>
			<stop  offset="1" style="stop-color:#F7931E;stop-opacity:0.5"/>
		</linearGradient>
		<path fill="url(#SVGID_3_)" d="M21.462,1.855C20.502,3.15,10.522,22.18,9.249,24.61c-0.176,0.661-0.317,1.986,1.045,2.792
			c1.752,1.037,8.314,3.864,9.137,4.217c0.178,0.054,0.395,0.093,0.632,0.108c0.474,0.017,1.181-0.067,1.824-0.568
			c0.062-0.049,0.123-0.101,0.184-0.158c0.072-0.067,0.144-0.141,0.214-0.222c0.118-0.139,0.233-0.291,0.341-0.471
			c0.011-0.018,0.022-0.03,0.032-0.048c1.126-1.956,12.002-23.717,12.002-23.717s0.894-1.395-0.911-2.228
			c-1.022-0.473-7.227-2.602-9.398-3.344c-0.33-0.108-0.537-0.176-0.537-0.176S22.486,0.469,21.462,1.855z"/>
		<linearGradient id="SVGID_4_" gradientUnits="userSpaceOnUse" x1="25.457" y1="30.5889" x2="18.8058" y2="1.7793">
			<stop  offset="0.2513" style="stop-color:#FFE120;stop-opacity:0"/>
			<stop  offset="0.2718" style="stop-color:#FFE32B;stop-opacity:0.0137"/>
			<stop  offset="0.3807" style="stop-color:#FFEA63;stop-opacity:0.0864"/>
			<stop  offset="0.4903" style="stop-color:#FFF093;stop-opacity:0.1596"/>
			<stop  offset="0.5982" style="stop-color:#FFF6BA;stop-opacity:0.2317"/>
			<stop  offset="0.7042" style="stop-color:#FFFAD8;stop-opacity:0.3024"/>
			<stop  offset="0.8077" style="stop-color:#FFFDEE;stop-opacity:0.3716"/>
			<stop  offset="0.9076" style="stop-color:#FFFEFB;stop-opacity:0.4383"/>
			<stop  offset="1" style="stop-color:#FFFFFF;stop-opacity:0.5"/>
		</linearGradient>
		<path fill="url(#SVGID_4_)" d="M21.462,1.855C20.502,3.15,10.522,22.18,9.249,24.61c-0.176,0.661-0.317,1.986,1.045,2.792
			c1.752,1.037,8.314,3.864,9.137,4.217c0.178,0.054,0.395,0.093,0.632,0.108c0.474,0.017,1.181-0.067,1.824-0.568
			c0.062-0.049,0.123-0.101,0.184-0.158c0.072-0.067,0.144-0.141,0.214-0.222c0.118-0.139,0.233-0.291,0.341-0.471
			c0.011-0.018,0.022-0.03,0.032-0.048c1.126-1.956,12.002-23.716,12.002-23.716s0.894-1.395-0.911-2.228
			c-1.022-0.473-7.227-2.602-9.398-3.344c-0.33-0.108-0.537-0.176-0.537-0.176S22.486,0.47,21.462,1.855z"/>
		<path fill="#1E100D" d="M35.57,5.337c-0.198-0.542-0.641-0.973-1.312-1.282c-1.295-0.593-10.067-3.47-10.439-3.593
			c-0.035-0.009-0.19-0.045-0.432-0.045c-0.491,0-1.428,0.155-2.194,1.193C20.169,2.993,9.288,23.77,8.825,24.653
			c-0.014,0.028-1.019,2.164,1.106,3.408c1.938,1.138,8.539,4.321,8.821,4.451c0.043,0.018,0.93,0.43,1.841,0.43
			c1.221,0,2.153-0.535,2.697-1.547C24.377,29.373,35.402,7.063,35.516,6.84C35.531,6.805,35.852,6.105,35.57,5.337z M20.51,32.481
			c-0.874,0-1.597-0.293-1.597-0.293s-6.907-3.196-8.857-4.34c-1.952-1.143-1.012-3.08-1.012-3.08S20.366,3.14,21.392,1.756
			c0.695-0.942,1.531-1.093,1.996-1.093c0.219,0,0.354,0.034,0.354,0.034s9.116,2.988,10.413,3.583c1.882,0.862,1.14,2.45,1.14,2.45
			S24.087,29.022,22.989,31.065C22.381,32.196,21.372,32.481,20.51,32.481z"/>
		<g>
			<path fill="#1E100D" d="M23.523,0.646c0,0,8.914,3.027,10.157,3.603c1.805,0.833,0.911,2.228,0.911,2.228
				S23.714,28.245,22.587,30.201c-1.094,1.896-2.954,1.528-3.545,1.229c-0.649-0.285-2.538-1.11-2.538-1.11
				s-4.409-1.871-6.279-2.977c-1.869-1.107-0.909-3.2-0.909-3.2S20.27,3.039,21.261,1.689C22.251,0.337,23.523,0.646,23.523,0.646
				 M23.582,0.442L23.573,0.44c-0.058-0.016-1.42-0.329-2.484,1.122C20.103,2.911,9.578,23.181,9.131,24.041l-0.002,0.004
				L9.126,24.05c-0.011,0.022-1.019,2.277,0.99,3.467c1.862,1.103,6.327,3.141,6.63,3.27l1.909,0.881l0.178,0.082l0.345,0.158
				c0.354,0.177,2.466,0.672,3.643-1.367c1.114-1.934,11.586-23.03,12.088-24.031c0.053-0.089,0.379-0.668,0.188-1.323
				c-0.148-0.5-0.68-0.83-1.325-1.13c-1.241-0.572-9.816-3.486-10.18-3.61L23.582,0.442L23.582,0.442z"/>
		</g>
		<g>
			<g>
				<path fill="#FFFF00" d="M29.152,4.519c-0.004-0.001-0.006-0.003-0.01-0.004l-2.985-1.103c-0.055-0.02-0.082-0.083-0.063-0.137
					c0.021-0.055,0.08-0.083,0.136-0.063l2.984,1.103c0.057,0.02,0.085,0.082,0.064,0.137C29.26,4.503,29.204,4.532,29.152,4.519z"
					/>
			</g>
		</g>
		<linearGradient id="SVGID_5_" gradientUnits="userSpaceOnUse" x1="26.7969" y1="0.8584" x2="26.7969" y2="6.8691">
			<stop  offset="0" style="stop-color:#FFFFFF;stop-opacity:0.7"/>
			<stop  offset="1" style="stop-color:#FFFFFF;stop-opacity:0"/>
		</linearGradient>
		<path fill="url(#SVGID_5_)" d="M23.532,0.862c0,0-1.442-0.132-2.015,1.233L19.02,6.602l15.243,0.268c0,0,1.008-1.748-0.609-2.426
			C31.802,3.666,23.532,0.862,23.532,0.862z"/>
		<g>
			<g>
				<g>
					<defs>
						<path id="SVGID_75_" d="M29.152,4.519c-0.004-0.001-0.006-0.003-0.01-0.004l-2.985-1.103c-0.055-0.02-0.082-0.083-0.063-0.137
							c0.021-0.055,0.08-0.083,0.136-0.063l2.984,1.103c0.057,0.02,0.085,0.082,0.064,0.137C29.26,4.503,29.204,4.532,29.152,4.519z
							"/>
					</defs>
					<linearGradient id="SVGID_6_" gradientUnits="userSpaceOnUse" x1="27.6475" y1="3.9717" x2="27.7255" y2="3.7574">
						<stop  offset="0.5079" style="stop-color:#000000"/>
						<stop  offset="1" style="stop-color:#FFFF00"/>
					</linearGradient>
					<use xlink:href="#SVGID_75_"  overflow="visible" fill="url(#SVGID_6_)"/>
					<clipPath id="SVGID_7_">
						<use xlink:href="#SVGID_75_"  overflow="visible"/>
					</clipPath>
					<linearGradient id="SVGID_8_" gradientUnits="userSpaceOnUse" x1="27.4531" y1="4.228" x2="27.5653" y2="3.9197">
						<stop  offset="0.5079" style="stop-color:#000000"/>
						<stop  offset="1" style="stop-color:#FFFF00"/>
					</linearGradient>
					<polygon clip-path="url(#SVGID_7_)" fill="url(#SVGID_8_)" points="26.103,3.387 29.015,4.483 26.02,3.706 					"/>
					<linearGradient id="SVGID_9_" gradientUnits="userSpaceOnUse" x1="27.6855" y1="4" x2="27.7617" y2="3.7908">
						<stop  offset="0.5079" style="stop-color:#000000"/>
						<stop  offset="1" style="stop-color:#FFFF00"/>
					</linearGradient>
					<polygon clip-path="url(#SVGID_7_)" fill="url(#SVGID_9_)" points="26.15,3.204 29.348,4.401 29.306,4.559 29.014,4.483 
						26.103,3.387 					"/>
					<linearGradient id="SVGID_10_" gradientUnits="userSpaceOnUse" x1="27.7441" y1="3.8174" x2="27.8696" y2="3.4728">
						<stop  offset="0.5079" style="stop-color:#000000"/>
						<stop  offset="1" style="stop-color:#FFFF00"/>
					</linearGradient>
					<polygon clip-path="url(#SVGID_7_)" fill="url(#SVGID_10_)" points="29.348,4.401 26.15,3.204 26.153,3.193 29.439,4.045 					
						"/>
				</g>
			</g>
		</g>
		<g>
			<path fill="#1E100D" d="M14.849,28.624c-0.111-0.026-0.217-0.076-0.315-0.135c-0.593-0.361-0.751-1.186-0.356-1.833
				c0.325-0.526,0.933-0.796,1.481-0.654c0.11,0.029,0.217,0.073,0.314,0.135c0.592,0.361,0.754,1.185,0.356,1.833
				C16.005,28.498,15.397,28.768,14.849,28.624z M15.617,26.155c-0.479-0.123-1.017,0.114-1.305,0.582
				c-0.35,0.574-0.215,1.3,0.303,1.617c0.086,0.051,0.177,0.09,0.273,0.116c0.482,0.125,1.017-0.115,1.304-0.583
				c0.351-0.574,0.216-1.301-0.303-1.615C15.807,26.22,15.714,26.181,15.617,26.155z"/>
		</g>
	</g>
</g>
<g id="Capa_2" display="none">
</g>
</svg>
