<?xml version="1.0" encoding="utf-8"?>
<!-- Generator: Adobe Illustrator 16.0.0, SVG Export Plug-In . SVG Version: 6.00 Build 0)  -->
<!DOCTYPE svg PUBLIC "-//W3C//DTD SVG 1.1//EN" "http://www.w3.org/Graphics/SVG/1.1/DTD/svg11.dtd">
<svg version="1.1" xmlns="http://www.w3.org/2000/svg" xmlns:xlink="http://www.w3.org/1999/xlink" x="0px" y="0px" width="40px"
	 height="40px" viewBox="0 0 40 40" enable-background="new 0 0 40 40" xml:space="preserve">
<g id="Capa_1">
	<g>
		<g>
			<path fill="#1E100D" d="M7.326,32.845c-0.348,0-0.654-0.228-0.763-0.565L0.591,13.688c-0.148-0.461,0.103-0.97,0.559-1.133
				L32.293,1.427c0.094-0.034,0.191-0.05,0.29-0.05c0.368,0,0.695,0.234,0.815,0.583l5.937,17.313
				c0.158,0.459-0.081,0.979-0.533,1.158L7.634,32.785C7.534,32.824,7.431,32.845,7.326,32.845z"/>
			<g>
				<path fill="#1E100D" d="M32.583,1.502c0.314,0,0.595,0.2,0.697,0.498l5.937,17.313c0.137,0.397-0.07,0.846-0.461,1.001
					L7.588,32.669c-0.085,0.033-0.173,0.051-0.262,0.051c-0.298,0-0.551-0.188-0.644-0.479L0.71,13.65
					c-0.128-0.398,0.088-0.836,0.481-0.977l21.215-7.58l0.493-0.176l0.768-0.274l1.261-0.451l7.407-2.646
					C32.415,1.516,32.499,1.502,32.583,1.502 M32.583,1.252c-0.11,0-0.223,0.019-0.332,0.058l-7.407,2.646
					c-0.518,0.185-1.085,0.388-1.261,0.451c-0.176,0.063-0.743,0.266-1.261,0.451l-21.215,7.58
					c-0.518,0.185-0.804,0.765-0.636,1.289l5.973,18.591c0.13,0.403,0.489,0.652,0.882,0.652c0.117,0,0.236-0.022,0.354-0.068
					l31.168-12.355c0.512-0.203,0.784-0.794,0.605-1.314L33.517,1.919C33.376,1.509,32.992,1.252,32.583,1.252L32.583,1.252z"/>
			</g>
		</g>
		<g>
			<linearGradient id="SVGID_1_" gradientUnits="userSpaceOnUse" x1="13.2988" y1="6.0508" x2="25.5708" y2="27.3065">
				<stop  offset="0" style="stop-color:#1E100D;stop-opacity:0"/>
				<stop  offset="0.0101" style="stop-color:#22140D;stop-opacity:0.0081"/>
				<stop  offset="0.1627" style="stop-color:#5C4A12;stop-opacity:0.1302"/>
				<stop  offset="0.3152" style="stop-color:#8E7816;stop-opacity:0.2522"/>
				<stop  offset="0.4644" style="stop-color:#B69E1A;stop-opacity:0.3715"/>
				<stop  offset="0.6096" style="stop-color:#D6BB1D;stop-opacity:0.4877"/>
				<stop  offset="0.7497" style="stop-color:#EDD01E;stop-opacity:0.5997"/>
				<stop  offset="0.8824" style="stop-color:#FADD20;stop-opacity:0.7059"/>
				<stop  offset="1" style="stop-color:#FFE120;stop-opacity:0.8"/>
			</linearGradient>
			<path fill="url(#SVGID_1_)" d="M38.203,19.041c0.179,0.52-0.095,1.109-0.607,1.309L7.938,31.889
				c-0.513,0.199-1.069-0.066-1.237-0.59L1.144,14c-0.168-0.524,0.119-1.1,0.639-1.281l20.329-7.076
				c0.52-0.181,1.079-0.376,1.243-0.435c0.164-0.059,0.723-0.258,1.24-0.443l6.822-2.438c0.518-0.185,1.087,0.089,1.266,0.609
				L38.203,19.041z"/>
		</g>
		<g>
			<path fill="#1E100D" d="M32.587,1.519c0.318,0,0.602,0.203,0.706,0.504l5.928,17.292c0.139,0.401-0.071,0.855-0.467,1.012
				L7.608,32.672c-0.086,0.034-0.175,0.052-0.265,0.052c-0.303,0-0.497-0.255-0.591-0.549L0.876,13.723
				c-0.13-0.403,0.089-0.847,0.487-0.989L22.405,5.11l1.273-0.455l1.272-0.455l7.385-2.639C32.417,1.533,32.502,1.519,32.587,1.519
				 M32.587,1.265c-0.111,0-0.226,0.019-0.336,0.059l-7.386,2.638c-0.523,0.188-1.096,0.392-1.272,0.455
				c-0.176,0.063-0.747,0.267-1.271,0.455l-21.19,7.572c-0.524,0.188-0.813,0.775-0.644,1.305l5.964,18.568
				c0.131,0.409,0.494,0.661,0.893,0.661c0.118,0,0.238-0.022,0.357-0.07l31.146-12.346c0.519-0.203,0.794-0.803,0.613-1.33
				L33.532,1.94C33.39,1.526,33.001,1.265,32.587,1.265L32.587,1.265z"/>
		</g>
		<linearGradient id="SVGID_2_" gradientUnits="userSpaceOnUse" x1="3.0576" y1="11.7241" x2="4.8392" y2="13.5057">
			<stop  offset="0" style="stop-color:#FFFFFF;stop-opacity:0.3"/>
			<stop  offset="0.1041" style="stop-color:#FFFCF9;stop-opacity:0.2688"/>
			<stop  offset="0.2382" style="stop-color:#FEF5E9;stop-opacity:0.2285"/>
			<stop  offset="0.3887" style="stop-color:#FDE8CF;stop-opacity:0.1834"/>
			<stop  offset="0.5513" style="stop-color:#FCD6AA;stop-opacity:0.1346"/>
			<stop  offset="0.7236" style="stop-color:#FABF7A;stop-opacity:0.0829"/>
			<stop  offset="0.9013" style="stop-color:#F8A441;stop-opacity:0.0296"/>
			<stop  offset="1" style="stop-color:#F7931E;stop-opacity:0"/>
		</linearGradient>
		<path fill="url(#SVGID_2_)" d="M7.469,10.875l-5.813,2.25c0,0-0.406,0.344-0.188,1.188S2,15.928,2,15.928L7.469,10.875z"/>
	</g>
	<path fill="#FFFFFF" stroke="#000000" stroke-width="0.25" stroke-miterlimit="10" d="M25.953,4.563"/>
	<g>
		<g>
			<path fill="#1E100D" d="M7.19,32.809c-0.295,0-0.485-0.225-0.485-0.572V9.748c0-0.494,0.394-1.052,0.858-1.219l11.473-4.1
				c0.093-0.033,0.189-0.05,0.286-0.05c0.365,0,0.687,0.236,0.798,0.587l0.262,0.822c0.146,0.455,0.562,0.761,1.036,0.761
				c0.125,0,0.25-0.022,0.37-0.065l16.92-6.045c0.088-0.032,0.175-0.047,0.256-0.047c0.315,0,0.519,0.233,0.519,0.593v18.16
				c0,0.496-0.39,1.07-0.851,1.252L7.464,32.752C7.369,32.789,7.277,32.809,7.19,32.809z"/>
			<path fill="#1E100D" d="M38.964,0.516c0.243,0,0.394,0.179,0.394,0.468v18.16c0,0.45-0.354,0.971-0.771,1.136L7.418,32.636
				c-0.08,0.031-0.156,0.048-0.228,0.048c-0.226,0-0.36-0.167-0.36-0.447V9.748c0-0.446,0.355-0.951,0.775-1.101l11.473-4.1
				c0.08-0.028,0.162-0.043,0.244-0.043c0.311,0,0.584,0.201,0.679,0.5l0.262,0.822c0.162,0.507,0.626,0.848,1.155,0.848
				c0.14,0,0.278-0.024,0.412-0.072l16.92-6.045C38.825,0.529,38.896,0.516,38.964,0.516 M38.964,0.266
				c-0.094,0-0.194,0.018-0.298,0.055l-16.92,6.045c-0.109,0.039-0.22,0.058-0.328,0.058c-0.408,0-0.785-0.26-0.917-0.674
				l-0.262-0.822c-0.132-0.414-0.509-0.674-0.917-0.674c-0.108,0-0.219,0.019-0.328,0.058l-11.473,4.1
				C7.004,8.597,6.58,9.198,6.58,9.748v22.488c0,0.43,0.255,0.697,0.61,0.697c0.1,0,0.207-0.021,0.319-0.065l31.168-12.355
				c0.512-0.203,0.93-0.819,0.93-1.369V0.984C39.607,0.545,39.337,0.266,38.964,0.266L38.964,0.266z"/>
		</g>
		<g>
			<linearGradient id="SVGID_3_" gradientUnits="userSpaceOnUse" x1="28.4297" y1="26.4375" x2="15.3882" y2="3.849">
				<stop  offset="0" style="stop-color:#FFE120;stop-opacity:0.3"/>
				<stop  offset="1" style="stop-color:#1E100D;stop-opacity:0"/>
			</linearGradient>
			<path fill="url(#SVGID_3_)" d="M39.587,19.145c0.011,0.55-0.398,1.163-0.911,1.363L7.511,32.638
				C6.998,32.837,6.579,32.55,6.579,32L6.58,9.748c0-0.55,0.424-1.151,0.941-1.336l11.22-4.01c0.518-0.185,1.024,0.106,1.126,0.646
				l0.354,1.884c0.102,0.541,0.604,0.822,1.118,0.625l16.931-6.488c0.514-0.197,0.943,0.092,0.954,0.642L39.587,19.145z"/>
		</g>
		<g>
			<linearGradient id="SVGID_4_" gradientUnits="userSpaceOnUse" x1="28.6875" y1="26.2969" x2="15.6421" y2="3.7016">
				<stop  offset="0" style="stop-color:#1E100D;stop-opacity:0"/>
				<stop  offset="0.0489" style="stop-color:#2E211E;stop-opacity:0.0098"/>
				<stop  offset="0.2509" style="stop-color:#6D6462;stop-opacity:0.0502"/>
				<stop  offset="0.4427" style="stop-color:#A19B9A;stop-opacity:0.0885"/>
				<stop  offset="0.6187" style="stop-color:#CAC6C6;stop-opacity:0.1237"/>
				<stop  offset="0.7758" style="stop-color:#E7E5E5;stop-opacity:0.1552"/>
				<stop  offset="0.9082" style="stop-color:#F9F8F8;stop-opacity:0.1816"/>
				<stop  offset="1" style="stop-color:#FFFFFF;stop-opacity:0.2"/>
			</linearGradient>
			<path fill="url(#SVGID_4_)" d="M39.608,19.146c0,0.55-0.418,1.166-0.93,1.369L7.51,32.869c-0.512,0.202-0.93-0.082-0.93-0.632
				V9.748c0-0.55,0.424-1.151,0.941-1.336l11.474-4.1c0.518-0.185,1.078,0.092,1.245,0.616l0.261,0.822
				c0.167,0.524,0.728,0.801,1.245,0.616L38.667,0.32c0.518-0.185,0.941,0.114,0.941,0.664V19.146z"/>
		</g>
		<linearGradient id="SVGID_5_" gradientUnits="userSpaceOnUse" x1="9.5264" y1="8.0933" x2="15.1135" y2="13.6804">
			<stop  offset="0" style="stop-color:#FFFFFF;stop-opacity:0.5"/>
			<stop  offset="1" style="stop-color:#FFFFFF;stop-opacity:0"/>
		</linearGradient>
		<path fill="url(#SVGID_5_)" d="M7.666,18.709c0,0,0.008-5.869,0.001-8.036C7.663,9.539,8.625,9.125,8.625,9.125l10.229-3.771
			c0,0,0.637-0.224,0.829,0.742s0.754,1.592,1.463,1.55L7.666,18.709z"/>
		<g>
			<path d="M38.859,0.624c0.246,0,0.495,0.09,0.495,0.383v18.137c0,0.455-0.358,0.983-0.781,1.149L7.465,32.57
				c-0.08,0.031-0.158,0.049-0.23,0.049c-0.229,0-0.364-0.17-0.364-0.452L7.199,9.941c0-0.452,0.359-0.963,0.785-1.115L18.99,4.804
				c0.081-0.028,0.164-0.043,0.247-0.043c0.314,0,0.591,0.204,0.688,0.506l0.253,0.798c0.164,0.513,0.634,0.859,1.169,0.859
				c0.142,0,0.282-0.025,0.417-0.073l16.879-6.185C38.719,0.637,38.79,0.624,38.859,0.624 M38.956,0.28
				c-0.095,0-0.197,0.018-0.302,0.055L21.756,6.371c-0.11,0.04-0.222,0.059-0.331,0.059c-0.413,0-0.796-0.264-0.929-0.682
				L20.242,4.95c-0.133-0.418-0.515-0.682-0.928-0.682c-0.109,0-0.221,0.019-0.332,0.059L7.532,8.417
				C7.008,8.605,6.579,9.214,6.579,9.771v22.465c0,0.435,0.258,0.705,0.618,0.705c0.101,0,0.209-0.021,0.323-0.066l31.146-12.346
				c0.518-0.204,0.941-0.828,0.941-1.385V1.007C39.607,0.562,39.334,0.28,38.956,0.28L38.956,0.28z"/>
		</g>
	</g>
	
		<radialGradient id="SVGID_6_" cx="15.1836" cy="37.4531" r="17.0651" gradientTransform="matrix(1.1083 0 0 0.1273 4.0541 32.6865)" gradientUnits="userSpaceOnUse">
		<stop  offset="0" style="stop-color:#1E100D"/>
		<stop  offset="1" style="stop-color:#1E100D;stop-opacity:0.0028"/>
	</radialGradient>
	<ellipse fill="url(#SVGID_6_)" cx="20.883" cy="37.453" rx="18.633" ry="2.203"/>
	<polyline fill="none" points="40,2 7,2 7,33 	"/>
</g>
<g id="Capa_2" display="none">
</g>
</svg>
