<?xml version="1.0" encoding="utf-8"?>
<!-- Generator: Adobe Illustrator 16.0.0, SVG Export Plug-In . SVG Version: 6.00 Build 0)  -->
<!DOCTYPE svg PUBLIC "-//W3C//DTD SVG 1.1//EN" "http://www.w3.org/Graphics/SVG/1.1/DTD/svg11.dtd">
<svg version="1.1" xmlns="http://www.w3.org/2000/svg" xmlns:xlink="http://www.w3.org/1999/xlink" x="0px" y="0px"
	 width="36.793px" height="36.794px" viewBox="0 0 36.793 36.794" enable-background="new 0 0 36.793 36.794" xml:space="preserve">
<g id="Back">
</g>
<g id="Diseño">
	<g>
		<path fill="#1E100D" d="M35.77,31.54c0,2.35-1.904,4.254-4.253,4.254H5.229c-2.348,0-4.253-1.904-4.253-4.254V5.255
			c0-2.35,1.905-4.254,4.253-4.254h26.287c2.349,0,4.253,1.904,4.253,4.254V31.54z"/>
		<linearGradient id="SVGID_1_" gradientUnits="userSpaceOnUse" x1="2.2222" y1="2.248" x2="34.5233" y2="34.5492">
			<stop  offset="0" style="stop-color:#FFFFFF;stop-opacity:0.3"/>
			<stop  offset="1" style="stop-color:#FFD820;stop-opacity:0"/>
		</linearGradient>
		<path fill="url(#SVGID_1_)" d="M35.77,31.54c0,2.35-1.904,4.254-4.253,4.254H5.229c-2.348,0-4.253-1.904-4.253-4.254V5.255
			c0-2.35,1.905-4.254,4.253-4.254h26.287c2.349,0,4.253,1.904,4.253,4.254V31.54z"/>
		<path fill="none" stroke="#FFCC33" stroke-width="2" stroke-miterlimit="10" d="M35.77,31.54c0,2.35-1.904,4.254-4.253,4.254
			H5.229c-2.348,0-4.253-1.904-4.253-4.254V5.255c0-2.35,1.905-4.254,4.253-4.254h26.287c2.349,0,4.253,1.904,4.253,4.254V31.54z"/>
		<path fill="#FFCC33" d="M29.105,11.784c-0.021-0.002-0.043-0.006-0.063-0.01c-0.043,0.017-0.088,0.017-0.128-0.02
			c-0.021-0.021,0.015-0.055,0.051-0.063c0.036-0.108,0.139-0.151,0.224-0.211c0.92-0.658,1.576-1.52,1.977-2.576
			c0.005-0.014,0.005-0.026-0.003-0.057c-0.097-0.005-0.168,0.058-0.246,0.102c-0.917,0.509-1.895,0.854-2.911,1.093
			c-0.199,0.047-0.345,0-0.49-0.144c-1.191-1.174-2.646-1.666-4.293-1.552c-2.399,0.164-4.444,1.951-4.97,4.294
			c-0.164,0.732-0.163,1.47-0.048,2.211c0.048,0.311-0.004,0.362-0.318,0.338c-1.304-0.1-2.581-0.338-3.825-0.743
			c-1.844-0.604-3.526-1.51-5.042-2.721c-0.787-0.627-1.509-1.323-2.162-2.089C6.661,9.408,6.628,9.408,6.501,9.688
			c-0.307,0.68-0.5,1.386-0.539,2.143c-0.059,1.236,0.246,2.363,0.936,3.383c0.34,0.503,0.734,0.959,1.238,1.31
			c0.025,0.017,0.048,0.032,0.071,0.052c0.048,0.044,0.124,0.083,0.109,0.152c-0.023,0.089-0.116,0.076-0.187,0.076
			c-0.373,0.001-0.733-0.086-1.094-0.179c-0.341-0.088-0.66-0.226-0.978-0.373c-0.104-0.047-0.157-0.05-0.153,0.097
			c0.04,1.091,0.369,2.088,0.998,2.979c0.767,1.086,1.789,1.812,3.074,2.169c0.099,0.029,0.266,0.016,0.266,0.142
			c-0.003,0.142-0.174,0.127-0.281,0.146c-0.602,0.11-1.208,0.15-1.818,0.063c-0.212-0.03-0.248,0.011-0.165,0.206
			c0.507,1.232,1.319,2.195,2.502,2.839c0.609,0.331,1.256,0.535,1.936,0.644c0.136,0.022,0.274,0.018,0.412,0.027
			c0.057,0.004,0.129,0,0.153,0.063c0.03,0.071-0.024,0.125-0.073,0.166c-0.196,0.163-0.402,0.313-0.616,0.451
			c-0.765,0.5-1.582,0.899-2.439,1.208c-0.451,0.162-0.911,0.3-1.387,0.383c-0.082,0.013-0.163,0.025-0.239-0.008
			c-0.04,0.097-0.14,0.098-0.225,0.113c-0.898,0.171-1.807,0.167-2.715,0.135c-0.101-0.027-0.202-0.043-0.307-0.049
			c-0.005,0.001-0.012,0.003-0.018,0.005c0.002,0.001,0.004,0.002,0.004,0.002c0.604,0.369,1.226,0.704,1.87,0.993
			c0.811,0.364,1.648,0.652,2.509,0.876c0.664,0.172,1.333,0.311,2.013,0.39c1.04,0.123,2.085,0.147,3.134,0.086
			c0.683-0.043,1.36-0.131,2.031-0.259c1.688-0.313,3.283-0.884,4.775-1.74c1.258-0.722,2.394-1.6,3.391-2.651
			c0.915-0.962,1.698-2.021,2.36-3.18c0.804-1.409,1.389-2.899,1.756-4.475c0.193-0.819,0.328-1.651,0.381-2.499
			c0.028-0.507,0.027-1.017,0.028-1.526c0.001-0.197,0.063-0.343,0.227-0.463c0.905-0.665,1.668-1.47,2.329-2.375
			c0.047-0.066,0.091-0.137,0.152-0.191c-0.727,0.315-1.484,0.528-2.256,0.697C29.483,11.755,29.294,11.77,29.105,11.784z"/>
	</g>
</g>
<g id="Grid" display="none">
</g>
</svg>
