<?xml version="1.0" encoding="utf-8"?>
<!-- Generator: Adobe Illustrator 16.0.0, SVG Export Plug-In . SVG Version: 6.00 Build 0)  -->
<!DOCTYPE svg PUBLIC "-//W3C//DTD SVG 1.1//EN" "http://www.w3.org/Graphics/SVG/1.1/DTD/svg11.dtd">
<svg version="1.1" xmlns="http://www.w3.org/2000/svg" xmlns:xlink="http://www.w3.org/1999/xlink" x="0px" y="0px" width="40px"
	 height="40px" viewBox="0 0 40 40" enable-background="new 0 0 40 40" xml:space="preserve">
<g id="Capa_1">
	<g>
		<path fill="#1E100D" stroke="#1E100D" stroke-width="0.25" stroke-miterlimit="10" d="M15.555,32.703l18.131-11.352
			c0,0,0.218-0.211-1.296-0.621c-7.87-2.132-6.184-16.724-6.216-19.622c-0.007-0.588-0.599-0.416-0.599-0.416L5.293,5.234
			c0,0-0.602,0.033-0.467,0.597c0.841,3.476,3.279,25.671,9.608,27.106C14.435,32.938,15.074,33.01,15.555,32.703z"/>
		
			<linearGradient id="SVGID_1_" gradientUnits="userSpaceOnUse" x1="11.1563" y1="9.0146" x2="15.8315" y2="16.6993" gradientTransform="matrix(0.9885 -0.1509 0.1509 0.9885 -6.0817 -2.2746)">
			<stop  offset="0" style="stop-color:#FFFFFF;stop-opacity:0.5"/>
			<stop  offset="1" style="stop-color:#FFFFFF;stop-opacity:0"/>
		</linearGradient>
		<path fill="url(#SVGID_1_)" d="M13.682,3.796L6.833,5.349L5.502,5.667c0,0-0.156,0.012-0.118,0.158
			C5.438,6.03,7.078,15.359,7.19,15.954L13.682,3.796z"/>
		
			<linearGradient id="SVGID_2_" gradientUnits="userSpaceOnUse" x1="26.2764" y1="34.3076" x2="16.3665" y2="7.0804" gradientTransform="matrix(0.9854 -0.1704 0.1704 0.9854 -6.4576 -2.2951)">
			<stop  offset="0.4031" style="stop-color:#F7931E;stop-opacity:0.4"/>
			<stop  offset="0.4119" style="stop-color:#F7961E;stop-opacity:0.3941"/>
			<stop  offset="0.4974" style="stop-color:#FAB11F;stop-opacity:0.3369"/>
			<stop  offset="0.5904" style="stop-color:#FCC71F;stop-opacity:0.2745"/>
			<stop  offset="0.6937" style="stop-color:#FED520;stop-opacity:0.2053"/>
			<stop  offset="0.8152" style="stop-color:#FFDE20;stop-opacity:0.1239"/>
			<stop  offset="1" style="stop-color:#FFE120;stop-opacity:0"/>
		</linearGradient>
		<path fill="url(#SVGID_2_)" d="M15.438,32.674l18.188-11.365c0,0,0.224-0.203-1.288-0.621c-7.856-2.185-6.062-16.643-6.074-19.542
			c-0.002-0.587-0.596-0.415-0.596-0.415L5.356,5.135c0,0-0.604,0.029-0.471,0.592c0.817,3.482,3.109,25.694,9.428,27.171
			C14.313,32.898,14.954,32.975,15.438,32.674z"/>
		
			<linearGradient id="SVGID_3_" gradientUnits="userSpaceOnUse" x1="25.2588" y1="35.0078" x2="15.3499" y2="7.7833" gradientTransform="matrix(0.9841 -0.1777 0.1777 0.9841 -5.4836 -2.9702)">
			<stop  offset="0" style="stop-color:#FFE120;stop-opacity:0"/>
			<stop  offset="0.1357" style="stop-color:#FFE438;stop-opacity:0.0679"/>
			<stop  offset="0.4224" style="stop-color:#FFEC75;stop-opacity:0.2112"/>
			<stop  offset="0.833" style="stop-color:#FFF9D6;stop-opacity:0.4165"/>
			<stop  offset="1" style="stop-color:#FFFFFF;stop-opacity:0.5"/>
		</linearGradient>
		<path fill="url(#SVGID_3_)" d="M15.792,32.705L33.894,21.2c0,0,0.218-0.212-1.296-0.621c-7.872-2.126-6.176-16.577-6.213-19.478
			c-0.006-0.586-0.598-0.413-0.598-0.413L5.509,5.245c0,0-0.604,0.033-0.466,0.596c0.842,3.476,3.301,25.671,9.627,27.103
			C14.67,32.943,15.313,33.01,15.792,32.705z"/>
		<g>
			<path fill="#1E100D" d="M25.72,0.579v0.3c0.088,0,0.16,0.017,0.163,0.221c0.004,0.345-0.017,0.862-0.044,1.517
				c-0.198,4.91-0.665,16.408,6.48,18.337c0.445,0.122,0.718,0.219,0.883,0.29L15.432,32.539c-0.269,0.17-0.616,0.197-0.8,0.197
				c-0.047,0-0.084-0.002-0.098-0.002c-0.004,0-0.006,0-0.006,0c-5.409-1.24-8.086-18.516-9.094-25.022
				C5.3,6.842,5.19,6.139,5.104,5.657c-0.01-0.056-0.015-0.13,0.017-0.171c0.038-0.049,0.132-0.071,0.168-0.073l0.026-0.001
				l0.025-0.005l20.364-4.527L25.72,0.579 M25.72,0.579c-0.031,0-0.051,0.003-0.051,0.003L5.275,5.113c0,0-0.567,0.025-0.466,0.597
				c0.758,4.254,3.334,25.888,9.661,27.319c0,0,0.062,0.006,0.161,0.006c0.222,0,0.63-0.033,0.961-0.242l18.102-11.506
				c0,0,0.217-0.213-1.297-0.622c-7.872-2.126-6.18-16.668-6.215-19.568C26.177,0.625,25.848,0.579,25.72,0.579L25.72,0.579z"/>
		</g>
	</g>
	<g>
		<path fill="#1E100D" stroke="#1E100D" stroke-width="0.25" stroke-miterlimit="10" d="M15.507,32.731l19.076-10.314
			c0,0-0.016-0.02-1.501-0.524c-7.72-2.622-5.146-17.134-4.997-20.028c0.03-0.588-0.571-0.451-0.571-0.451L6.986,4.674
			c0,0-0.602-0.006-0.504,0.565c0.621,3.522,1.664,25.826,7.892,27.656C14.374,32.896,15.008,33.008,15.507,32.731z"/>
		
			<linearGradient id="SVGID_4_" gradientUnits="userSpaceOnUse" x1="10.2666" y1="5.8643" x2="14.9419" y2="13.5489" gradientTransform="matrix(0.9961 -0.0887 0.0887 0.9961 -2.7421 -0.4748)">
			<stop  offset="0" style="stop-color:#FFFFFF;stop-opacity:0.5"/>
			<stop  offset="1" style="stop-color:#FFFFFF;stop-opacity:0"/>
		</linearGradient>
		<path fill="url(#SVGID_4_)" d="M15.438,3.763l-6.933,1.12L7.156,5.117c0,0-0.156,0.002-0.127,0.15
			c0.04,0.207,1.093,9.621,1.168,10.222L15.438,3.763z"/>
		
			<linearGradient id="SVGID_5_" gradientUnits="userSpaceOnUse" x1="26.9082" y1="31.8965" x2="16.9983" y2="4.6693" gradientTransform="matrix(0.9941 -0.1083 0.1083 0.9941 -4.6437 -1.1008)">
			<stop  offset="0.4031" style="stop-color:#F7931E;stop-opacity:0.4"/>
			<stop  offset="0.4119" style="stop-color:#F7961E;stop-opacity:0.3941"/>
			<stop  offset="0.4974" style="stop-color:#FAB11F;stop-opacity:0.3369"/>
			<stop  offset="0.5904" style="stop-color:#FCC71F;stop-opacity:0.2745"/>
			<stop  offset="0.6937" style="stop-color:#FED520;stop-opacity:0.2053"/>
			<stop  offset="0.8152" style="stop-color:#FFDE20;stop-opacity:0.1239"/>
			<stop  offset="1" style="stop-color:#FFE120;stop-opacity:0"/>
		</linearGradient>
		<path fill="url(#SVGID_5_)" d="M15.382,32.705l19.135-10.321c0,0-0.011-0.015-1.494-0.526c-7.7-2.673-5.028-17.045-4.859-19.939
			c0.034-0.587-0.568-0.452-0.568-0.452L7.047,4.589c0,0-0.604-0.008-0.506,0.562c0.597,3.527,1.492,25.838,7.705,27.71
			C14.246,32.86,14.882,32.977,15.382,32.705z"/>
		
			<linearGradient id="SVGID_6_" gradientUnits="userSpaceOnUse" x1="26.0234" y1="31.6992" x2="16.1135" y2="4.472" gradientTransform="matrix(0.9933 -0.1156 0.1156 0.9933 -3.8459 -0.8272)">
			<stop  offset="0" style="stop-color:#FFE120;stop-opacity:0"/>
			<stop  offset="0.1357" style="stop-color:#FFE438;stop-opacity:0.0679"/>
			<stop  offset="0.4224" style="stop-color:#FFEC75;stop-opacity:0.2112"/>
			<stop  offset="0.833" style="stop-color:#FFF9D6;stop-opacity:0.4165"/>
			<stop  offset="1" style="stop-color:#FFFFFF;stop-opacity:0.5"/>
		</linearGradient>
		<path fill="url(#SVGID_6_)" d="M15.526,32.737l19.057-10.471c0,0-0.015-0.021-1.501-0.525c-7.721-2.615-5.147-16.986-5.003-19.885
			c0.03-0.586-0.57-0.448-0.57-0.448L6.985,4.684c0,0-0.605-0.005-0.502,0.565c0.621,3.522,1.684,25.827,7.908,27.653
			C14.392,32.902,15.029,33.01,15.526,32.737z"/>
		<g>
			<path fill="#1E100D" d="M27.624,1.317v0.3c0.029,0,0.092,0.009,0.122,0.041c0.029,0.031,0.044,0.101,0.039,0.191
				c-0.018,0.341-0.069,0.849-0.135,1.493c-0.504,4.909-1.683,16.404,5.337,18.781c0.38,0.129,0.662,0.226,0.872,0.298
				l-18.473,10.15c-0.225,0.123-0.496,0.149-0.685,0.149c-0.121,0-0.212-0.011-0.226-0.011c-0.002,0-0.002,0-0.001,0
				C9.147,31.142,7.561,13.718,6.963,7.157c-0.08-0.873-0.144-1.578-0.199-2.063C6.758,5.039,6.757,4.963,6.791,4.925
				c0.04-0.046,0.135-0.062,0.17-0.062l0.026,0.001L7.015,4.86l20.607-3.243L27.624,1.317 M27.624,1.317c-0.013,0-0.02,0-0.02,0
				L6.968,4.563c0,0-0.001,0-0.003,0c-0.04,0-0.563,0.011-0.499,0.565c0.488,4.293,1.703,26.045,7.929,27.87
				c0,0,0.125,0.021,0.308,0.021c0.23,0,0.551-0.034,0.828-0.186l19.056-10.471c0,0-0.016-0.021-1.502-0.525
				c-7.723-2.615-5.146-17.077-4.999-19.975C28.111,1.347,27.717,1.317,27.624,1.317L27.624,1.317z"/>
		</g>
	</g>
	<g>
		<path fill="#1E100D" stroke="#1E100D" stroke-width="0.25" stroke-miterlimit="10" d="M15.283,32.68l19.679-9.111
			c0,0,1.44-0.576-0.011-1.172c-7.544-3.095-5.528-16.866-5.199-19.745c0.066-0.585-0.542-0.486-0.542-0.486L8.52,4.147
			c0,0-0.601-0.042-0.537,0.534c0.401,3.554,0.059,25.88,6.159,28.092C14.142,32.772,14.769,32.924,15.283,32.68z"/>
		
			<linearGradient id="SVGID_7_" gradientUnits="userSpaceOnUse" x1="11.4102" y1="3.2158" x2="16.0859" y2="10.9013" gradientTransform="matrix(0.9996 -0.0267 0.0267 0.9996 -1.9434 1.0827)">
			<stop  offset="0" style="stop-color:#FFFFFF;stop-opacity:0.5"/>
			<stop  offset="1" style="stop-color:#FFFFFF;stop-opacity:0"/>
		</linearGradient>
		<path fill="url(#SVGID_7_)" d="M17.01,3.762L10.021,4.45l-1.359,0.15c0,0-0.156-0.008-0.138,0.142
			c0.028,0.21,0.495,9.671,0.532,10.274L17.01,3.762z"/>
		
			<linearGradient id="SVGID_8_" gradientUnits="userSpaceOnUse" x1="26.4844" y1="29.5273" x2="16.5745" y2="2.3001" gradientTransform="matrix(0.9989 -0.0465 0.0465 0.9989 -2.1998 0.0519)">
			<stop  offset="0.4031" style="stop-color:#F7931E;stop-opacity:0.4"/>
			<stop  offset="0.4119" style="stop-color:#F7961E;stop-opacity:0.3941"/>
			<stop  offset="0.4974" style="stop-color:#FAB11F;stop-opacity:0.3369"/>
			<stop  offset="0.5904" style="stop-color:#FCC71F;stop-opacity:0.2745"/>
			<stop  offset="0.6937" style="stop-color:#FED520;stop-opacity:0.2053"/>
			<stop  offset="0.8152" style="stop-color:#FFDE20;stop-opacity:0.1239"/>
			<stop  offset="1" style="stop-color:#FFE120;stop-opacity:0"/>
		</linearGradient>
		<path fill="url(#SVGID_8_)" d="M15.158,32.687l19.738-9.114c0,0,1.444-0.568-0.004-1.172c-7.522-3.146-5.416-16.77-5.068-19.649
			c0.07-0.583-0.539-0.486-0.539-0.486L8.583,4.108c0,0-0.602-0.046-0.541,0.529C8.42,8.194,7.93,30.519,14.016,32.771
			C14.016,32.771,14.642,32.927,15.158,32.687z"/>
		
			<linearGradient id="SVGID_9_" gradientUnits="userSpaceOnUse" x1="25.5576" y1="28.6582" x2="15.6484" y2="1.4328" gradientTransform="matrix(0.9986 -0.0538 0.0538 0.9986 -1.3283 1.0448)">
			<stop  offset="0" style="stop-color:#FFE120;stop-opacity:0"/>
			<stop  offset="0.1357" style="stop-color:#FFE438;stop-opacity:0.0679"/>
			<stop  offset="0.4224" style="stop-color:#FFEC75;stop-opacity:0.2112"/>
			<stop  offset="0.833" style="stop-color:#FFF9D6;stop-opacity:0.4165"/>
			<stop  offset="1" style="stop-color:#FFFFFF;stop-opacity:0.5"/>
		</linearGradient>
		<path fill="url(#SVGID_9_)" d="M15.299,32.736l19.669-9.268c0,0,1.44-0.578-0.012-1.172c-7.546-3.089-5.538-16.719-5.213-19.602
			c0.066-0.583-0.542-0.484-0.542-0.484L8.513,4.208c0,0-0.603-0.042-0.536,0.534c0.403,3.554,0.079,25.882,6.18,28.089
			C14.156,32.83,14.785,32.979,15.299,32.736z"/>
		<g>
			<path fill="#1E100D" d="M29.311,2.377c0.023,0.002,0.086,0.013,0.115,0.047c0.028,0.032,0.038,0.103,0.028,0.194L29.4,3.076
				c-1.309,10.956,0.522,17.532,5.442,19.545c0.413,0.169,0.461,0.292,0.462,0.292l0,0c-0.012,0.068-0.221,0.232-0.464,0.331
				l-19.669,9.268c-0.153,0.072-0.351,0.11-0.569,0.11c-0.188,0-0.337-0.028-0.347-0.028c-0.001,0-0.001,0-0.001,0.001
				C9.036,30.697,8.532,13.213,8.342,6.63c-0.025-0.879-0.046-1.588-0.07-2.076C8.269,4.499,8.272,4.425,8.307,4.388
				c0.035-0.037,0.112-0.053,0.178-0.054L8.51,4.337l0.026-0.002L29.311,2.377 M29.308,2.077
				C29.307,2.077,29.307,2.077,29.308,2.077l-20.8,1.959c0,0-0.011-0.001-0.028-0.001c-0.114,0-0.534,0.034-0.508,0.535
				c0.222,4.315,0.084,26.101,6.186,28.309c0,0,0.189,0.045,0.445,0.045c0.211,0,0.466-0.03,0.697-0.14l19.669-9.268
				c0,0,1.439-0.578-0.013-1.172c-7.546-3.089-5.53-16.809-5.204-19.692C29.816,2.084,29.333,2.077,29.308,2.077L29.308,2.077z"/>
		</g>
	</g>
	<path fill="#FFFFFF" stroke="#000000" stroke-width="0.25" stroke-miterlimit="10" d="M26.12,4.563"/>
	
		<radialGradient id="SVGID_10_" cx="3.1211" cy="37.4531" r="17.0641" gradientTransform="matrix(1.1083 0 0 0.1273 17.5916 32.6865)" gradientUnits="userSpaceOnUse">
		<stop  offset="0" style="stop-color:#1E100D"/>
		<stop  offset="1" style="stop-color:#1E100D;stop-opacity:0.0028"/>
	</radialGradient>
	<ellipse fill="url(#SVGID_10_)" cx="21.05" cy="37.453" rx="18.633" ry="2.203"/>
	<g>
		<g>
			<path fill="#1E100D" stroke="#1E100D" stroke-width="0.25" stroke-miterlimit="10" d="M15.449,32.848l20.995-8.386
				c0,0,1.475-0.502,0.051-1.177c-7.401-3.507-5.417-16.914-4.934-19.786c0.099-0.582-0.518-0.515-0.518-0.515L10.185,3.867
				c0,0-0.601-0.073-0.566,0.507c0.213,3.587-1.32,25.963,4.682,28.507C14.3,32.881,14.92,33.065,15.449,32.848z"/>
		</g>
		<linearGradient id="SVGID_11_" gradientUnits="userSpaceOnUse" x1="26.0928" y1="28.9072" x2="16.1839" y2="1.6828">
			<stop  offset="0" style="stop-color:#FFE120;stop-opacity:0"/>
			<stop  offset="0.1078" style="stop-color:#FADD1F;stop-opacity:0.0431"/>
			<stop  offset="0.2315" style="stop-color:#ECD11E;stop-opacity:0.0926"/>
			<stop  offset="0.3632" style="stop-color:#D5BC1B;stop-opacity:0.1453"/>
			<stop  offset="0.5005" style="stop-color:#B5A017;stop-opacity:0.2002"/>
			<stop  offset="0.642" style="stop-color:#8C7B12;stop-opacity:0.2568"/>
			<stop  offset="0.7872" style="stop-color:#594E0B;stop-opacity:0.3149"/>
			<stop  offset="0.9326" style="stop-color:#1E1A04;stop-opacity:0.3731"/>
			<stop  offset="1" style="stop-color:#000000;stop-opacity:0.4"/>
		</linearGradient>
		<path fill="url(#SVGID_11_)" d="M15.431,32.786l20.901-8.348c0,0,1.469-0.5,0.051-1.172c-7.368-3.492-5.393-16.839-4.911-19.698
			c0.098-0.58-0.516-0.513-0.516-0.513L10.19,3.935c0,0-0.599-0.073-0.564,0.504c0.212,3.571-1.314,25.847,4.66,28.38
			C14.286,32.819,14.903,33.003,15.431,32.786z"/>
		<linearGradient id="SVGID_12_" gradientUnits="userSpaceOnUse" x1="26.0928" y1="28.9082" x2="16.1832" y2="1.6819">
			<stop  offset="0" style="stop-color:#FFE120;stop-opacity:0"/>
			<stop  offset="0.1357" style="stop-color:#FFE438;stop-opacity:0.0679"/>
			<stop  offset="0.4224" style="stop-color:#FFEC75;stop-opacity:0.2112"/>
			<stop  offset="0.833" style="stop-color:#FFF9D6;stop-opacity:0.4165"/>
			<stop  offset="1" style="stop-color:#FFFFFF;stop-opacity:0.5"/>
		</linearGradient>
		<path fill="url(#SVGID_12_)" d="M15.431,32.787l20.901-8.35c0,0,1.469-0.5,0.051-1.172c-7.368-3.492-5.393-16.839-4.911-19.698
			c0.098-0.58-0.516-0.513-0.516-0.513L10.19,3.934c0,0-0.599-0.073-0.564,0.504c0.212,3.571-1.314,25.849,4.66,28.382
			C14.286,32.82,14.903,33.002,15.431,32.787z"/>
		
			<linearGradient id="SVGID_13_" gradientUnits="userSpaceOnUse" x1="12.2861" y1="3.3228" x2="16.9614" y2="11.0074" gradientTransform="matrix(0.9997 0.023 -0.023 0.9997 -0.4185 0.7084)">
			<stop  offset="0" style="stop-color:#FFFFFF;stop-opacity:0.5"/>
			<stop  offset="1" style="stop-color:#FFFFFF;stop-opacity:0"/>
		</linearGradient>
		<path fill="url(#SVGID_13_)" d="M19.252,4.452l-7.015,0.34l-1.365,0.083c0,0-0.155-0.016-0.144,0.133
			c0.017,0.213,0.014,9.684,0.02,10.29L19.252,4.452z"/>
		<g>
			<path d="M14.955,33.016c-0.326,0-0.58-0.072-0.591-0.076C9.323,30.803,9.396,15.323,9.491,7.833
				c0.02-1.495,0.037-2.914,0.001-3.521C9.481,4.12,9.529,3.966,9.635,3.854c0.211-0.224,0.563-0.178,0.563-0.177L31.063,2.93
				c0.001,0,0.026-0.002,0.063-0.002c0.12,0,0.344,0.024,0.483,0.189c0.099,0.117,0.132,0.275,0.099,0.472
				C31.076,7.34,29.559,19.84,36.55,23.152c0.478,0.227,0.703,0.465,0.688,0.727c-0.023,0.416-0.677,0.65-0.752,0.676L15.59,32.902
				C15.405,32.979,15.191,33.016,14.955,33.016z M14.459,32.504c0.003,0,0.228,0.061,0.507,0.061c0.203,0,0.386-0.031,0.542-0.096
				l20.892-8.148c0.191-0.064,0.578-0.26,0.589-0.457c0.008-0.143-0.186-0.314-0.546-0.484c-7.149-3.387-5.62-16.036-4.98-19.832
				c0.021-0.12,0.005-0.211-0.044-0.27c-0.076-0.09-0.229-0.1-0.292-0.1c-0.024,0-0.041,0.001-0.043,0.001L10.43,4.129
				c-0.022-0.001-0.041-0.003-0.069-0.003c-0.062,0-0.214,0.01-0.301,0.103C10.003,4.289,9.978,4.38,9.985,4.5
				c0.036,0.617,0.011,1.702-0.009,3.203C9.883,15.138,9.586,30.438,14.459,32.504L14.459,32.504z"/>
		</g>
	</g>
</g>
<g id="Capa_2" display="none">
</g>
</svg>
