<?xml version="1.0" encoding="utf-8"?>
<!-- Generator: Adobe Illustrator 16.0.0, SVG Export Plug-In . SVG Version: 6.00 Build 0)  -->
<!DOCTYPE svg PUBLIC "-//W3C//DTD SVG 1.1//EN" "http://www.w3.org/Graphics/SVG/1.1/DTD/svg11.dtd">
<svg version="1.1" xmlns="http://www.w3.org/2000/svg" xmlns:xlink="http://www.w3.org/1999/xlink" x="0px" y="0px" width="40px"
	 height="40px" viewBox="0 0 40 40" enable-background="new 0 0 40 40" xml:space="preserve">
<g id="Capa_1">
	<g>
		<g>
			<path fill="#FFE120" d="M3.87,12.678c-0.51-0.207-0.927,0.074-0.927,0.624v14.719c0,0.55,0.416,1.173,0.924,1.384l7.206,2.993
				c0.508,0.211,1.343,0.221,1.855,0.021l23.197-9.029c0.513-0.199,0.932-0.813,0.932-1.362V8.219c0-0.55-0.425-0.852-0.944-0.67
				l-23.172,8.095c-0.52,0.181-1.361,0.161-1.871-0.046L3.87,12.678z"/>
		</g>
		<g>
			<linearGradient id="SVGID_1_" gradientUnits="userSpaceOnUse" x1="21.7656" y1="12.417" x2="27.1678" y2="27.2594">
				<stop  offset="0" style="stop-color:#F7931E;stop-opacity:0.5"/>
				<stop  offset="0.2199" style="stop-color:#F7931E;stop-opacity:0.3"/>
				<stop  offset="1" style="stop-color:#FFE120;stop-opacity:0"/>
			</linearGradient>
			<polygon fill="url(#SVGID_1_)" points="37.057,23.027 11.996,32.781 11.996,15.973 37.057,7.219 			"/>
		</g>
		<g>
			<linearGradient id="SVGID_2_" gradientUnits="userSpaceOnUse" x1="11.4072" y1="15.7852" x2="3.533" y2="29.4238">
				<stop  offset="0" style="stop-color:#F7931E;stop-opacity:0.5"/>
				<stop  offset="0.2555" style="stop-color:#F7931E;stop-opacity:0.3257"/>
				<stop  offset="0.2932" style="stop-color:#F7931E;stop-opacity:0.3"/>
				<stop  offset="1" style="stop-color:#FFE120;stop-opacity:0"/>
			</linearGradient>
			<polygon fill="url(#SVGID_2_)" points="2.942,12.364 2.942,29.083 11.996,32.844 11.996,16.125 			"/>
		</g>
		<g>
			<linearGradient id="SVGID_3_" gradientUnits="userSpaceOnUse" x1="39.3857" y1="11.6611" x2="9.2521" y2="27.6835">
				<stop  offset="0" style="stop-color:#FFE120;stop-opacity:0"/>
				<stop  offset="0.4541" style="stop-color:#FFEF8C;stop-opacity:0.1816"/>
				<stop  offset="0.8297" style="stop-color:#FFFBDE;stop-opacity:0.3319"/>
				<stop  offset="1" style="stop-color:#FFFFFF;stop-opacity:0.4"/>
			</linearGradient>
			<polygon fill="url(#SVGID_3_)" points="37.057,23.09 11.996,32.844 11.996,16.035 37.057,7.281 			"/>
		</g>
		<g>
			<linearGradient id="SVGID_4_" gradientUnits="userSpaceOnUse" x1="6.7344" y1="12.0991" x2="8.2035" y2="33.1084">
				<stop  offset="0" style="stop-color:#FFE120;stop-opacity:0"/>
				<stop  offset="0.4541" style="stop-color:#FFEF8C;stop-opacity:0.1816"/>
				<stop  offset="0.8297" style="stop-color:#FFFBDE;stop-opacity:0.3319"/>
				<stop  offset="1" style="stop-color:#FFFFFF;stop-opacity:0.4"/>
			</linearGradient>
			<polygon fill="url(#SVGID_4_)" points="2.942,12.364 2.942,29.083 11.996,32.844 11.996,16.125 			"/>
		</g>
		<linearGradient id="SVGID_5_" gradientUnits="userSpaceOnUse" x1="12.8418" y1="32.1338" x2="16.1062" y2="26.4797">
			<stop  offset="0" style="stop-color:#FFFFFF;stop-opacity:0.7"/>
			<stop  offset="1" style="stop-color:#FFFFFF;stop-opacity:0"/>
		</linearGradient>
		<polygon fill="url(#SVGID_5_)" points="19.516,28.901 12.5,31.937 12.5,24.397 		"/>
		
			<linearGradient id="SVGID_6_" gradientUnits="userSpaceOnUse" x1="7.208" y1="29.7764" x2="9.6855" y2="25.4851" gradientTransform="matrix(0.3736 -0.9276 0.9276 0.3736 -18.6149 27.1756)">
			<stop  offset="0" style="stop-color:#FFFFFF;stop-opacity:0.7"/>
			<stop  offset="1" style="stop-color:#FFFFFF;stop-opacity:0"/>
		</linearGradient>
		<polygon fill="url(#SVGID_6_)" points="11.316,26 11.465,31.8 6.157,29.662 		"/>
		<path fill="#1E100D" d="M36.407,7.746L36.407,7.746c0.247,0,0.4,0.181,0.4,0.473v13.809c0,0.449-0.576,0.957-0.995,1.119
			L12.83,32.031c-0.209,0.082-0.494,0.127-0.801,0.127c-0.328,0-0.646-0.054-0.868-0.146l-7.114-2.903
			c-0.417-0.174-0.854-0.638-0.854-1.089V13.302c0-0.276,0.132-0.442,0.353-0.442c0.071,0,0.149,0.017,0.23,0.05l7.2,2.919
			c0.299,0.121,0.693,0.188,1.112,0.188c0.349,0,0.681-0.049,0.935-0.138l23.172-8.094C36.27,7.759,36.341,7.746,36.407,7.746
			 M36.407,7.496c-0.093,0-0.191,0.017-0.294,0.053l-23.172,8.094c-0.237,0.083-0.543,0.124-0.853,0.124
			c-0.367,0-0.742-0.058-1.019-0.17l-7.2-2.919c-0.114-0.046-0.223-0.068-0.324-0.068c-0.351,0-0.603,0.266-0.603,0.692v14.719
			c0,0.55,0.416,1.173,0.924,1.384l7.206,2.993c0.264,0.109,0.615,0.165,0.964,0.165c0.324,0,0.645-0.048,0.892-0.144l23.197-9.029
			c0.513-0.199,0.932-0.813,0.932-1.362V8.219C37.058,7.777,36.784,7.496,36.407,7.496L36.407,7.496z"/>
		<rect x="11.844" y="16" fill="#1E100D" width="0.438" height="16.563"/>
	</g>
	<path fill="#FFFFFF" stroke="#000000" stroke-width="0.25" stroke-miterlimit="10" d="M26.12,4.563"/>
	
		<radialGradient id="SVGID_7_" cx="-4.8926" cy="37.4531" r="17.0651" gradientTransform="matrix(1.1083 0 0 0.1273 26.4722 32.6865)" gradientUnits="userSpaceOnUse">
		<stop  offset="0" style="stop-color:#E6C816"/>
		<stop  offset="0.417" style="stop-color:#EDCF19;stop-opacity:0.5842"/>
		<stop  offset="1" style="stop-color:#FFE121;stop-opacity:0.0028"/>
	</radialGradient>
	<ellipse fill="url(#SVGID_7_)" cx="21.05" cy="37.453" rx="18.633" ry="2.203"/>
	<g>
		<g>
			<path fill="#FFE120" d="M10.033,17.198c0.005-0.008,0.435-0.158,0.956-0.333l27.537-9.24c0.521-0.175,0.523-0.466,0.004-0.647
				L19.461,0.329c-0.52-0.181-1.302-0.056-1.739,0.277l-16.4,12.5c-0.438,0.333-0.373,0.762,0.144,0.952l7.562,2.786
				c0.517,0.19,0.937,0.351,0.933,0.357c-0.003,0.006,0.004,0.008,0.014,0.005c0.011-0.003,0.027-0.003,0.037,0
				C10.019,17.21,10.029,17.206,10.033,17.198z"/>
		</g>
		<g>
			<linearGradient id="SVGID_8_" gradientUnits="userSpaceOnUse" x1="18.2129" y1="21.9912" x2="29.7944" y2="1.9314">
				<stop  offset="0" style="stop-color:#FFE120;stop-opacity:0"/>
				<stop  offset="0.209" style="stop-color:#FFDC20;stop-opacity:0.0836"/>
				<stop  offset="0.4487" style="stop-color:#FDCE20;stop-opacity:0.1795"/>
				<stop  offset="0.7036" style="stop-color:#FBB71F;stop-opacity:0.2814"/>
				<stop  offset="0.9675" style="stop-color:#F7971E;stop-opacity:0.387"/>
				<stop  offset="1" style="stop-color:#F7931E;stop-opacity:0.4"/>
			</linearGradient>
			<polygon fill="url(#SVGID_8_)" points="18.604,0.413 14.579,7.883 9.938,17.213 38.503,7.627 38.771,7.281 38.571,6.998 
				19.644,0.398 			"/>
		</g>
		<g>
			<linearGradient id="SVGID_9_" gradientUnits="userSpaceOnUse" x1="18.2129" y1="21.9912" x2="29.7944" y2="1.9314">
				<stop  offset="0" style="stop-color:#FFFFFF;stop-opacity:0.5"/>
				<stop  offset="1" style="stop-color:#FFE120;stop-opacity:0"/>
			</linearGradient>
			<polygon fill="url(#SVGID_9_)" points="18.604,0.413 14.579,7.883 9.938,17.213 38.503,7.627 38.771,7.281 38.571,6.998 
				19.644,0.398 			"/>
		</g>
		<linearGradient id="SVGID_10_" gradientUnits="userSpaceOnUse" x1="13.7646" y1="17.4883" x2="17.1899" y2="11.5555">
			<stop  offset="0" style="stop-color:#FFFFFF;stop-opacity:0.7"/>
			<stop  offset="1" style="stop-color:#FFE120;stop-opacity:0"/>
		</linearGradient>
		<polygon fill="url(#SVGID_10_)" points="14.047,11.219 11.188,16 19.766,13.042 		"/>
		<g>
			<linearGradient id="SVGID_11_" gradientUnits="userSpaceOnUse" x1="14.3945" y1="14.6914" x2="9.064" y2="5.4586">
				<stop  offset="0" style="stop-color:#FFFFFF;stop-opacity:0.3"/>
				<stop  offset="0.1624" style="stop-color:#FFFFFC;stop-opacity:0.2513"/>
				<stop  offset="0.2993" style="stop-color:#FFFDF1;stop-opacity:0.2102"/>
				<stop  offset="0.4272" style="stop-color:#FFFBE0;stop-opacity:0.1718"/>
				<stop  offset="0.5494" style="stop-color:#FFF7C7;stop-opacity:0.1352"/>
				<stop  offset="0.6678" style="stop-color:#FFF3A7;stop-opacity:0.0997"/>
				<stop  offset="0.7832" style="stop-color:#FFEE80;stop-opacity:0.0651"/>
				<stop  offset="0.8939" style="stop-color:#FFE853;stop-opacity:0.0318"/>
				<stop  offset="1" style="stop-color:#FFE120;stop-opacity:0"/>
			</linearGradient>
			<polygon fill="url(#SVGID_11_)" points="18.517,0 1.287,13.133 1.156,13.594 1.455,14.055 10.026,17.213 			"/>
		</g>
		<linearGradient id="SVGID_12_" gradientUnits="userSpaceOnUse" x1="9.4121" y1="16.3921" x2="6.5898" y2="11.5038">
			<stop  offset="0" style="stop-color:#FFFFFF;stop-opacity:0.7"/>
			<stop  offset="1" style="stop-color:#FFE120;stop-opacity:0"/>
		</linearGradient>
		<polygon fill="url(#SVGID_12_)" points="11.844,12.182 9.71,16.219 2.942,13.609 		"/>
		<path fill="#1E100D" d="M38.53,6.979L19.461,0.329c-0.162-0.056-0.349-0.083-0.543-0.083c-0.431,0-0.895,0.131-1.196,0.36
			l-16.4,12.5c-0.438,0.333-0.373,0.762,0.144,0.952l7.562,2.786c0.517,0.19,0.937,0.351,0.933,0.357
			c-0.002,0.004,0,0.006,0.005,0.006c0.003,0,0.006,0,0.009-0.001c0.006-0.001,0.012-0.002,0.019-0.002s0.014,0.001,0.019,0.002
			c0.002,0.001,0.005,0.001,0.007,0.001c0.007,0,0.014-0.004,0.017-0.01c0.005-0.008,0.435-0.158,0.956-0.333l27.537-9.24
			C39.048,7.451,39.05,7.16,38.53,6.979z M1.551,13.824c-0.155-0.057-0.256-0.141-0.269-0.225s0.059-0.193,0.19-0.294l16.4-12.5
			c0.147-0.112,0.354-0.196,0.578-0.249L9.837,16.781c-0.151-0.063-0.396-0.154-0.827-0.313L1.551,13.824z M38.447,7.389
			l-27.34,9.08c-0.293,0.098-0.497,0.167-0.649,0.22l8.301-16.181c0.054-0.004,0.106-0.012,0.159-0.012
			c0.172,0,0.331,0.024,0.461,0.069l19.069,6.649c0.092,0.033,0.151,0.064,0.187,0.088C38.6,7.326,38.54,7.357,38.447,7.389z"/>
	</g>
</g>
<g id="Capa_2" display="none">
	
		<line display="inline" fill="none" stroke="#FF0000" stroke-width="0.25" stroke-miterlimit="10" x1="41.375" y1="19.375" x2="4.208" y2="34.125"/>
</g>
</svg>
