<?xml version="1.0" encoding="utf-8"?>
<!-- Generator: Adobe Illustrator 16.0.0, SVG Export Plug-In . SVG Version: 6.00 Build 0)  -->
<!DOCTYPE svg PUBLIC "-//W3C//DTD SVG 1.1//EN" "http://www.w3.org/Graphics/SVG/1.1/DTD/svg11.dtd">
<svg version="1.1" xmlns="http://www.w3.org/2000/svg" xmlns:xlink="http://www.w3.org/1999/xlink" x="0px" y="0px" width="40px"
	 height="40px" viewBox="0 0 40 40" enable-background="new 0 0 40 40" xml:space="preserve">
<g id="Capa_1">
	<path fill="#FFFFFF" stroke="#000000" stroke-width="0.25" stroke-miterlimit="10" d="M26.286,4.563"/>
	
		<radialGradient id="SVGID_1_" cx="-21.7461" cy="37.4531" r="17.0651" gradientTransform="matrix(1.1083 0 0 0.1273 45.3163 32.6865)" gradientUnits="userSpaceOnUse">
		<stop  offset="0" style="stop-color:#1E100D"/>
		<stop  offset="1" style="stop-color:#1E100D;stop-opacity:0.0028"/>
	</radialGradient>
	<ellipse fill="url(#SVGID_1_)" cx="21.216" cy="37.453" rx="18.633" ry="2.203"/>
	<g>
		<g>
			<path fill="#D2B814" d="M33.575,4.311c-1.298-0.594-10.414-3.583-10.414-3.583s-1.326-0.327-2.351,1.059
				C19.785,3.17,8.463,24.799,8.463,24.799s-0.94,1.938,1.012,3.081c1.95,1.144,8.857,4.34,8.857,4.34s2.853,1.154,4.076-1.124
				C23.506,29.054,34.714,6.76,34.714,6.76S35.457,5.174,33.575,4.311z"/>
		</g>
		<g>
			<path fill="#322422" d="M33.575,4.311c-1.298-0.594-10.414-3.583-10.414-3.583s-1.326-0.327-2.351,1.059
				C19.785,3.17,8.463,24.799,8.463,24.799s-0.94,1.938,1.012,3.081c1.95,1.144,8.857,4.34,8.857,4.34s2.853,1.154,4.076-1.124
				C23.506,29.054,34.714,6.76,34.714,6.76S35.457,5.174,33.575,4.311z"/>
		</g>
		<g>
			<path fill="#1E100D" d="M33.097,4.249c-1.243-0.576-10.157-3.603-10.157-3.603s-1.272-0.311-2.262,1.04
				C19.688,3.038,8.734,24.139,8.734,24.139s-0.961,2.089,0.908,3.196c1.87,1.105,9.223,4.254,9.223,4.254s2.012,0.559,3.141-1.396
				c1.126-1.956,12.003-23.716,12.003-23.716S34.901,5.082,33.097,4.249z"/>
		</g>
		<linearGradient id="SVGID_2_" gradientUnits="userSpaceOnUse" x1="21.3584" y1="0.6558" x2="21.3584" y2="31.6226">
			<stop  offset="0" style="stop-color:#FFE120;stop-opacity:0.3"/>
			<stop  offset="1" style="stop-color:#1E100D;stop-opacity:0"/>
		</linearGradient>
		<path fill="url(#SVGID_2_)" d="M20.811,1.748C19.851,3.043,9.871,22.073,8.598,24.503c-0.176,0.661-0.317,1.987,1.045,2.793
			c1.752,1.036,8.315,3.864,9.137,4.217c0.178,0.054,0.395,0.092,0.633,0.107c0.473,0.018,1.18-0.067,1.823-0.568
			c0.063-0.048,0.124-0.101,0.184-0.158c0.072-0.067,0.144-0.141,0.214-0.222c0.118-0.139,0.234-0.291,0.341-0.47
			c0.011-0.018,0.022-0.031,0.032-0.049c1.126-1.956,12.003-23.716,12.003-23.716s0.893-1.395-0.912-2.228
			c-1.022-0.473-7.226-2.602-9.397-3.344c-0.331-0.108-0.538-0.176-0.538-0.176S21.835,0.362,20.811,1.748z"/>
		<linearGradient id="SVGID_3_" gradientUnits="userSpaceOnUse" x1="24.8066" y1="30.4824" x2="18.1552" y2="1.6719">
			<stop  offset="0" style="stop-color:#1E100D;stop-opacity:0"/>
			<stop  offset="0.0489" style="stop-color:#2E211E;stop-opacity:0.0098"/>
			<stop  offset="0.2509" style="stop-color:#6D6462;stop-opacity:0.0502"/>
			<stop  offset="0.4427" style="stop-color:#A19B9A;stop-opacity:0.0885"/>
			<stop  offset="0.6187" style="stop-color:#CAC6C6;stop-opacity:0.1237"/>
			<stop  offset="0.7758" style="stop-color:#E7E5E5;stop-opacity:0.1552"/>
			<stop  offset="0.9082" style="stop-color:#F9F8F8;stop-opacity:0.1816"/>
			<stop  offset="1" style="stop-color:#FFFFFF;stop-opacity:0.2"/>
		</linearGradient>
		<path fill="url(#SVGID_3_)" d="M20.811,1.748C19.851,3.043,9.871,22.073,8.598,24.503c-0.176,0.661-0.317,1.987,1.045,2.793
			c1.752,1.036,8.315,3.864,9.137,4.217c0.178,0.054,0.395,0.092,0.633,0.107c0.473,0.018,1.18-0.067,1.823-0.568
			c0.063-0.048,0.124-0.101,0.184-0.158c0.072-0.067,0.144-0.141,0.214-0.222c0.118-0.139,0.234-0.291,0.341-0.47
			c0.011-0.018,0.022-0.031,0.032-0.049c1.126-1.956,12.003-23.716,12.003-23.716s0.893-1.395-0.912-2.228
			c-1.022-0.473-7.226-2.602-9.397-3.344c-0.331-0.108-0.538-0.176-0.538-0.176S21.835,0.362,20.811,1.748z"/>
		<path fill="#1E100D" d="M34.986,5.337c-0.198-0.542-0.641-0.973-1.312-1.282c-1.295-0.593-10.066-3.47-10.439-3.593
			c-0.035-0.009-0.19-0.045-0.432-0.045c-0.49,0-1.428,0.155-2.194,1.193C19.585,2.993,8.704,23.77,8.241,24.653
			c-0.013,0.028-1.019,2.164,1.106,3.408c1.938,1.138,8.54,4.321,8.822,4.451c0.042,0.018,0.929,0.43,1.84,0.43
			c1.221,0,2.154-0.535,2.697-1.547C23.793,29.373,34.818,7.063,34.932,6.84C34.948,6.805,35.268,6.105,34.986,5.337z
			 M19.926,32.481c-0.874,0-1.597-0.293-1.597-0.293s-6.906-3.196-8.857-4.34c-1.952-1.143-1.012-3.08-1.012-3.08
			S19.782,3.14,20.808,1.756c0.696-0.942,1.531-1.093,1.996-1.093c0.219,0,0.354,0.034,0.354,0.034s9.116,2.988,10.414,3.583
			c1.882,0.862,1.139,2.45,1.139,2.45S23.503,29.022,22.405,31.065C21.798,32.196,20.789,32.481,19.926,32.481z"/>
		<g>
			<path fill="#1E100D" d="M22.939,0.646c0,0,8.914,3.027,10.157,3.603c1.805,0.833,0.912,2.228,0.912,2.228
				S23.13,28.245,22.003,30.201c-1.094,1.896-2.953,1.528-3.544,1.229c-0.649-0.285-2.538-1.11-2.538-1.11s-4.41-1.871-6.28-2.977
				c-1.869-1.107-0.908-3.2-0.908-3.2S19.687,3.039,20.677,1.689C21.667,0.337,22.939,0.646,22.939,0.646 M22.998,0.442L22.989,0.44
				c-0.058-0.016-1.42-0.329-2.484,1.122C19.519,2.911,8.994,23.181,8.547,24.041l-0.002,0.004L8.542,24.05
				c-0.011,0.022-1.019,2.277,0.991,3.467c1.861,1.103,6.326,3.141,6.629,3.27l1.909,0.881l0.179,0.082l0.345,0.158
				c0.354,0.177,2.465,0.672,3.643-1.367c1.113-1.934,11.585-23.03,12.087-24.031c0.053-0.089,0.379-0.668,0.189-1.323
				c-0.148-0.5-0.681-0.83-1.326-1.13c-1.241-0.572-9.816-3.486-10.18-3.61L22.998,0.442L22.998,0.442z"/>
		</g>
		<g>
			<g>
				<path fill="#FFFF00" d="M28.568,4.519c-0.004-0.001-0.005-0.003-0.009-0.004l-2.985-1.103c-0.056-0.02-0.083-0.083-0.063-0.137
					c0.02-0.055,0.079-0.083,0.136-0.063l2.984,1.103c0.056,0.02,0.084,0.082,0.064,0.137C28.676,4.503,28.621,4.532,28.568,4.519z"
					/>
			</g>
		</g>
		<linearGradient id="SVGID_4_" gradientUnits="userSpaceOnUse" x1="26.2129" y1="0.8584" x2="26.2129" y2="6.8691">
			<stop  offset="0" style="stop-color:#FFFFFF;stop-opacity:0.7"/>
			<stop  offset="1" style="stop-color:#FFFFFF;stop-opacity:0"/>
		</linearGradient>
		<path fill="url(#SVGID_4_)" d="M22.948,0.862c0,0-1.441-0.132-2.014,1.233l-2.499,4.506l15.243,0.268c0,0,1.008-1.748-0.608-2.426
			C31.218,3.666,22.948,0.862,22.948,0.862z"/>
		<g>
			<g>
				<g>
					<defs>
						<path id="SVGID_85_" d="M28.568,4.519c-0.004-0.001-0.005-0.003-0.009-0.004l-2.985-1.103
							c-0.056-0.02-0.083-0.083-0.063-0.137c0.02-0.055,0.079-0.083,0.136-0.063l2.984,1.103c0.056,0.02,0.084,0.082,0.064,0.137
							C28.676,4.503,28.621,4.532,28.568,4.519z"/>
					</defs>
					<linearGradient id="SVGID_5_" gradientUnits="userSpaceOnUse" x1="27.0645" y1="3.9722" x2="27.1426" y2="3.7574">
						<stop  offset="0.5079" style="stop-color:#000000"/>
						<stop  offset="1" style="stop-color:#FFFF00"/>
					</linearGradient>
					<use xlink:href="#SVGID_85_"  overflow="visible" fill="url(#SVGID_5_)"/>
					<clipPath id="SVGID_6_">
						<use xlink:href="#SVGID_85_"  overflow="visible"/>
					</clipPath>
					<linearGradient id="SVGID_7_" gradientUnits="userSpaceOnUse" x1="26.8691" y1="4.2275" x2="26.9812" y2="3.9197">
						<stop  offset="0.5079" style="stop-color:#000000"/>
						<stop  offset="1" style="stop-color:#FFFF00"/>
					</linearGradient>
					<polygon clip-path="url(#SVGID_6_)" fill="url(#SVGID_7_)" points="25.519,3.387 28.431,4.483 25.437,3.706 					"/>
					<linearGradient id="SVGID_8_" gradientUnits="userSpaceOnUse" x1="27.1006" y1="3.999" x2="27.1764" y2="3.7907">
						<stop  offset="0.5079" style="stop-color:#000000"/>
						<stop  offset="1" style="stop-color:#FFFF00"/>
					</linearGradient>
					<polygon clip-path="url(#SVGID_6_)" fill="url(#SVGID_8_)" points="25.566,3.204 28.765,4.401 28.722,4.559 28.43,4.483 
						25.519,3.387 					"/>
					<linearGradient id="SVGID_9_" gradientUnits="userSpaceOnUse" x1="27.1602" y1="3.8174" x2="27.2852" y2="3.4737">
						<stop  offset="0.5079" style="stop-color:#000000"/>
						<stop  offset="1" style="stop-color:#FFFF00"/>
					</linearGradient>
					<polygon clip-path="url(#SVGID_6_)" fill="url(#SVGID_9_)" points="28.765,4.401 25.566,3.204 25.57,3.193 28.855,4.045 					
						"/>
				</g>
			</g>
		</g>
		<g>
			<path fill="#FFE120" d="M14.265,28.624c-0.111-0.026-0.217-0.076-0.314-0.135c-0.594-0.361-0.752-1.186-0.356-1.833
				c0.324-0.526,0.932-0.796,1.48-0.654c0.111,0.029,0.217,0.073,0.314,0.135c0.593,0.361,0.755,1.185,0.356,1.833
				C15.421,28.498,14.813,28.768,14.265,28.624z M15.034,26.155c-0.48-0.123-1.018,0.114-1.305,0.582
				c-0.35,0.574-0.215,1.3,0.303,1.617c0.085,0.051,0.176,0.09,0.272,0.116c0.482,0.125,1.017-0.115,1.304-0.583
				c0.351-0.574,0.216-1.301-0.303-1.615C15.223,26.22,15.13,26.181,15.034,26.155z"/>
		</g>
	</g>
	<path fill="#FFFFFF" stroke="#000000" stroke-width="0.25" stroke-miterlimit="10" d="M30.12,4.563"/>
</g>
<g id="Capa_2" display="none">
</g>
</svg>
