<?xml version="1.0" encoding="utf-8"?>
<!-- Generator: Adobe Illustrator 16.0.0, SVG Export Plug-In . SVG Version: 6.00 Build 0)  -->
<!DOCTYPE svg PUBLIC "-//W3C//DTD SVG 1.1//EN" "http://www.w3.org/Graphics/SVG/1.1/DTD/svg11.dtd">
<svg version="1.1" xmlns="http://www.w3.org/2000/svg" xmlns:xlink="http://www.w3.org/1999/xlink" x="0px" y="0px" width="40px"
	 height="40px" viewBox="0 0 40 40" enable-background="new 0 0 40 40" xml:space="preserve">
<g id="Capa_1">
	<g>
		<path fill="#D0A00A" stroke="#1E100D" stroke-width="0.25" stroke-miterlimit="10" d="M15.566,32.704l18.131-11.353
			c0,0,0.218-0.21-1.296-0.621c-7.87-2.132-6.184-16.724-6.216-19.622c-0.007-0.588-0.599-0.416-0.599-0.416L5.305,5.235
			c0,0-0.602,0.033-0.467,0.597c0.841,3.476,3.279,25.671,9.608,27.106C14.446,32.938,15.086,33.01,15.566,32.704z"/>
		
			<linearGradient id="SVGID_1_" gradientUnits="userSpaceOnUse" x1="11.6582" y1="2.3735" x2="16.334" y2="10.059" gradientTransform="matrix(0.9885 -0.1509 0.1509 0.9885 -5.5757 4.365)">
			<stop  offset="0" style="stop-color:#FFFFFF;stop-opacity:0.5"/>
			<stop  offset="1" style="stop-color:#FFFFFF;stop-opacity:0"/>
		</linearGradient>
		<path fill="url(#SVGID_1_)" d="M13.682,3.796L6.833,5.349L5.502,5.667c0,0-0.156,0.012-0.118,0.158
			C5.438,6.03,7.078,15.359,7.19,15.954L13.682,3.796z"/>
		
			<linearGradient id="SVGID_2_" gradientUnits="userSpaceOnUse" x1="26.9199" y1="26.8145" x2="17.0104" y2="-0.4119" gradientTransform="matrix(0.9854 -0.1704 0.1704 0.9854 -5.8151 5.2025)">
			<stop  offset="0.4031" style="stop-color:#F7931E;stop-opacity:0.4"/>
			<stop  offset="0.4119" style="stop-color:#F7961E;stop-opacity:0.3941"/>
			<stop  offset="0.4974" style="stop-color:#FAB11F;stop-opacity:0.3369"/>
			<stop  offset="0.5904" style="stop-color:#FCC71F;stop-opacity:0.2745"/>
			<stop  offset="0.6937" style="stop-color:#FED520;stop-opacity:0.2053"/>
			<stop  offset="0.8152" style="stop-color:#FFDE20;stop-opacity:0.1239"/>
			<stop  offset="1" style="stop-color:#FFE120;stop-opacity:0"/>
		</linearGradient>
		<path fill="url(#SVGID_2_)" d="M15.438,32.677l18.188-11.364c0,0,0.224-0.203-1.288-0.621c-7.856-2.185-6.062-16.643-6.074-19.542
			c-0.002-0.587-0.596-0.415-0.596-0.415L5.356,5.139c0,0-0.604,0.029-0.471,0.592c0.817,3.482,3.109,25.694,9.428,27.171
			C14.313,32.902,14.954,32.979,15.438,32.677z"/>
		
			<linearGradient id="SVGID_3_" gradientUnits="userSpaceOnUse" x1="25.75" y1="27.2051" x2="15.8408" y2="-0.0203" gradientTransform="matrix(0.9841 -0.1777 0.1777 0.9841 -4.784 4.8486)">
			<stop  offset="0" style="stop-color:#FFE120;stop-opacity:0"/>
			<stop  offset="0.1357" style="stop-color:#FFE438;stop-opacity:0.0679"/>
			<stop  offset="0.4224" style="stop-color:#FFEC75;stop-opacity:0.2112"/>
			<stop  offset="0.833" style="stop-color:#FFF9D6;stop-opacity:0.4165"/>
			<stop  offset="1" style="stop-color:#FFFFFF;stop-opacity:0.5"/>
		</linearGradient>
		<path fill="url(#SVGID_3_)" d="M15.589,32.758L33.69,21.252c0,0,0.218-0.212-1.296-0.621c-7.872-2.126-6.176-16.577-6.213-19.478
			c-0.006-0.586-0.598-0.413-0.598-0.413L5.306,5.296c0,0-0.604,0.033-0.466,0.596c0.842,3.476,3.301,25.672,9.627,27.103
			C14.467,32.995,15.109,33.063,15.589,32.758z"/>
		<g>
			<path fill="#1E100D" d="M25.723,0.591v0.3c0.088,0,0.16,0.017,0.163,0.221c0.004,0.345-0.017,0.862-0.044,1.517
				c-0.198,4.91-0.665,16.408,6.48,18.337c0.445,0.121,0.718,0.218,0.883,0.29L15.435,32.552c-0.269,0.17-0.616,0.196-0.8,0.196
				c-0.047,0-0.084-0.002-0.098-0.002c-0.004,0-0.006,0-0.006,0C9.122,31.507,6.445,14.231,5.438,7.725
				C5.303,6.854,5.193,6.151,5.107,5.67c-0.01-0.056-0.015-0.13,0.017-0.171C5.162,5.45,5.256,5.428,5.292,5.426l0.026-0.001
				l0.025-0.005l20.364-4.527L25.723,0.591 M25.723,0.591c-0.031,0-0.051,0.003-0.051,0.003L5.278,5.126
				c0,0-0.567,0.025-0.466,0.597C5.57,9.977,8.146,31.61,14.474,33.041c0,0,0.062,0.007,0.161,0.007c0.222,0,0.63-0.033,0.961-0.243
				l18.102-11.506c0,0,0.217-0.212-1.297-0.621c-7.872-2.126-6.18-16.668-6.215-19.568C26.18,0.638,25.851,0.591,25.723,0.591
				L25.723,0.591z"/>
		</g>
	</g>
	<g>
		<path fill="#D0A00A" stroke="#1E100D" stroke-width="0.25" stroke-miterlimit="10" d="M15.507,32.731l19.076-10.314
			c0,0-0.016-0.02-1.501-0.524c-7.72-2.622-5.146-17.134-4.997-20.028c0.03-0.588-0.571-0.451-0.571-0.451L6.986,4.674
			c0,0-0.602-0.006-0.504,0.565c0.621,3.522,1.664,25.826,7.892,27.656C14.374,32.896,15.008,33.008,15.507,32.731z"/>
		
			<linearGradient id="SVGID_4_" gradientUnits="userSpaceOnUse" x1="10.4414" y1="1.9609" x2="15.1172" y2="9.6464" gradientTransform="matrix(0.9961 -0.0887 0.0887 0.9961 -2.5705 3.428)">
			<stop  offset="0" style="stop-color:#FFFFFF;stop-opacity:0.5"/>
			<stop  offset="1" style="stop-color:#FFFFFF;stop-opacity:0"/>
		</linearGradient>
		<path fill="url(#SVGID_4_)" d="M15.438,3.763l-6.933,1.12L7.156,5.117c0,0-0.156,0.002-0.127,0.15
			c0.04,0.207,1.093,9.621,1.168,10.222L15.438,3.763z"/>
		
			<linearGradient id="SVGID_5_" gradientUnits="userSpaceOnUse" x1="27.1641" y1="27.1211" x2="17.2542" y2="-0.1061" gradientTransform="matrix(0.9941 -0.1083 0.1083 0.9941 -4.3841 3.6644)">
			<stop  offset="0.4031" style="stop-color:#F7931E;stop-opacity:0.4"/>
			<stop  offset="0.4119" style="stop-color:#F7961E;stop-opacity:0.3941"/>
			<stop  offset="0.4974" style="stop-color:#FAB11F;stop-opacity:0.3369"/>
			<stop  offset="0.5904" style="stop-color:#FCC71F;stop-opacity:0.2745"/>
			<stop  offset="0.6937" style="stop-color:#FED520;stop-opacity:0.2053"/>
			<stop  offset="0.8152" style="stop-color:#FFDE20;stop-opacity:0.1239"/>
			<stop  offset="1" style="stop-color:#FFE120;stop-opacity:0"/>
		</linearGradient>
		<path fill="url(#SVGID_5_)" d="M15.379,32.696l19.135-10.321c0,0-0.011-0.015-1.494-0.526c-7.7-2.673-5.028-17.045-4.859-19.939
			c0.034-0.587-0.568-0.452-0.568-0.452L7.044,4.58c0,0-0.604-0.008-0.506,0.562c0.597,3.527,1.492,25.838,7.705,27.71
			C14.243,32.852,14.879,32.968,15.379,32.696z"/>
		
			<linearGradient id="SVGID_6_" gradientUnits="userSpaceOnUse" x1="26.3115" y1="26.6641" x2="16.4016" y2="-0.5632" gradientTransform="matrix(0.9933 -0.1156 0.1156 0.9933 -3.5511 4.2592)">
			<stop  offset="0" style="stop-color:#FFE120;stop-opacity:0"/>
			<stop  offset="0.1357" style="stop-color:#FFE438;stop-opacity:0.0679"/>
			<stop  offset="0.4224" style="stop-color:#FFEC75;stop-opacity:0.2112"/>
			<stop  offset="0.833" style="stop-color:#FFF9D6;stop-opacity:0.4165"/>
			<stop  offset="1" style="stop-color:#FFFFFF;stop-opacity:0.5"/>
		</linearGradient>
		<path fill="url(#SVGID_6_)" d="M15.525,32.788l19.057-10.471c0,0-0.015-0.021-1.501-0.525c-7.721-2.615-5.147-16.986-5.003-19.885
			c0.03-0.586-0.57-0.448-0.57-0.448L6.984,4.734c0,0-0.605-0.005-0.502,0.565c0.621,3.522,1.684,25.827,7.908,27.653
			C14.391,32.953,15.028,33.061,15.525,32.788z"/>
		<g>
			<path fill="#1E100D" d="M27.624,1.317v0.3c0.029,0,0.092,0.009,0.122,0.041c0.029,0.031,0.044,0.101,0.039,0.191
				c-0.018,0.341-0.069,0.849-0.135,1.493c-0.504,4.909-1.683,16.404,5.337,18.781c0.38,0.129,0.662,0.226,0.872,0.298
				l-18.473,10.15c-0.225,0.123-0.496,0.149-0.685,0.149c-0.121,0-0.212-0.011-0.226-0.011c-0.002,0-0.002,0-0.001,0
				C9.147,31.142,7.561,13.718,6.963,7.157c-0.08-0.873-0.144-1.578-0.199-2.063C6.758,5.039,6.757,4.963,6.791,4.925
				c0.04-0.046,0.135-0.062,0.17-0.062l0.027,0.001L7.015,4.86l20.607-3.243L27.624,1.317 M27.624,1.317c-0.013,0-0.02,0-0.02,0
				L6.968,4.563c0,0-0.001,0-0.003,0c-0.04,0-0.563,0.011-0.499,0.565c0.488,4.293,1.703,26.045,7.929,27.87
				c0,0,0.125,0.021,0.308,0.021c0.23,0,0.551-0.034,0.828-0.186l19.056-10.471c0,0-0.016-0.021-1.502-0.525
				c-7.723-2.615-5.146-17.077-4.999-19.975C28.111,1.347,27.717,1.317,27.624,1.317L27.624,1.317z"/>
		</g>
	</g>
	<g>
		<path fill="#D0A00A" stroke="#1E100D" stroke-width="0.25" stroke-miterlimit="10" d="M15.283,32.68l19.679-9.111
			c0,0,1.44-0.576-0.011-1.172c-7.544-3.095-5.528-16.866-5.199-19.745c0.066-0.585-0.542-0.486-0.542-0.486L8.52,4.147
			c0,0-0.601-0.042-0.537,0.534c0.401,3.554,0.059,25.88,6.159,28.092C14.142,32.772,14.769,32.924,15.283,32.68z"/>
		
			<linearGradient id="SVGID_7_" gradientUnits="userSpaceOnUse" x1="11.4248" y1="2.041" x2="16.1001" y2="9.7257" gradientTransform="matrix(0.9996 -0.0267 0.0267 0.9996 -1.9258 2.2575)">
			<stop  offset="0" style="stop-color:#FFFFFF;stop-opacity:0.5"/>
			<stop  offset="1" style="stop-color:#FFFFFF;stop-opacity:0"/>
		</linearGradient>
		<path fill="url(#SVGID_7_)" d="M17.01,3.762L10.021,4.45l-1.359,0.15c0,0-0.156-0.008-0.138,0.142
			c0.028,0.21,0.495,9.671,0.532,10.274L17.01,3.762z"/>
		
			<linearGradient id="SVGID_8_" gradientUnits="userSpaceOnUse" x1="26.5332" y1="27.4307" x2="16.6233" y2="0.2034" gradientTransform="matrix(0.9989 -0.0465 0.0465 0.9989 -2.1514 2.0979)">
			<stop  offset="0.4031" style="stop-color:#F7931E;stop-opacity:0.4"/>
			<stop  offset="0.4119" style="stop-color:#F7961E;stop-opacity:0.3941"/>
			<stop  offset="0.4974" style="stop-color:#FAB11F;stop-opacity:0.3369"/>
			<stop  offset="0.5904" style="stop-color:#FCC71F;stop-opacity:0.2745"/>
			<stop  offset="0.6937" style="stop-color:#FED520;stop-opacity:0.2053"/>
			<stop  offset="0.8152" style="stop-color:#FFDE20;stop-opacity:0.1239"/>
			<stop  offset="1" style="stop-color:#FFE120;stop-opacity:0"/>
		</linearGradient>
		<path fill="url(#SVGID_8_)" d="M15.158,32.636l19.738-9.114c0,0,1.444-0.568-0.004-1.172c-7.522-3.146-5.416-16.77-5.068-19.649
			c0.07-0.583-0.539-0.486-0.539-0.486L8.583,4.058c0,0-0.602-0.046-0.541,0.529C8.42,8.144,7.93,30.468,14.016,32.721
			C14.016,32.721,14.642,32.876,15.158,32.636z"/>
		
			<linearGradient id="SVGID_9_" gradientUnits="userSpaceOnUse" x1="25.623" y1="26.293" x2="15.7135" y2="-0.9333" gradientTransform="matrix(0.9986 -0.0538 0.0538 0.9986 -1.2667 3.412)">
			<stop  offset="0" style="stop-color:#FFE120;stop-opacity:0"/>
			<stop  offset="0.1357" style="stop-color:#FFE438;stop-opacity:0.0679"/>
			<stop  offset="0.4224" style="stop-color:#FFEC75;stop-opacity:0.2112"/>
			<stop  offset="0.833" style="stop-color:#FFF9D6;stop-opacity:0.4165"/>
			<stop  offset="1" style="stop-color:#FFFFFF;stop-opacity:0.5"/>
		</linearGradient>
		<path fill="url(#SVGID_9_)" d="M15.299,32.736l19.669-9.268c0,0,1.44-0.578-0.012-1.172c-7.546-3.089-5.538-16.719-5.213-19.602
			c0.066-0.583-0.542-0.484-0.542-0.484L8.513,4.208c0,0-0.603-0.042-0.536,0.534c0.403,3.554,0.079,25.882,6.18,28.09
			C14.156,32.831,14.785,32.979,15.299,32.736z"/>
		<g>
			<path fill="#1E100D" d="M29.311,2.377c0.023,0.002,0.086,0.013,0.115,0.047c0.028,0.032,0.038,0.103,0.028,0.194L29.4,3.076
				c-1.309,10.956,0.522,17.532,5.442,19.545c0.413,0.169,0.461,0.292,0.462,0.292l0,0c-0.012,0.068-0.221,0.232-0.464,0.331
				l-19.669,9.268c-0.153,0.072-0.351,0.11-0.569,0.11c-0.188,0-0.337-0.028-0.347-0.028c-0.001,0-0.001,0-0.001,0.001
				C9.036,30.697,8.532,13.213,8.342,6.63c-0.025-0.879-0.046-1.588-0.07-2.076C8.269,4.499,8.272,4.425,8.307,4.388
				c0.035-0.037,0.112-0.053,0.178-0.054L8.51,4.337l0.026-0.002L29.311,2.377 M29.308,2.077
				C29.307,2.077,29.307,2.077,29.308,2.077l-20.8,1.959c0,0-0.011-0.001-0.028-0.001c-0.114,0-0.534,0.034-0.508,0.535
				c0.222,4.315,0.084,26.101,6.186,28.309c0,0,0.189,0.045,0.445,0.045c0.211,0,0.466-0.03,0.697-0.14l19.669-9.268
				c0,0,1.439-0.578-0.013-1.172c-7.546-3.089-5.53-16.809-5.204-19.692C29.816,2.084,29.333,2.077,29.308,2.077L29.308,2.077z"/>
		</g>
	</g>
	<path fill="#FFFFFF" stroke="#000000" stroke-width="0.25" stroke-miterlimit="10" d="M26.12,4.563"/>
	
		<radialGradient id="SVGID_10_" cx="7.4199" cy="37.4531" r="17.0641" gradientTransform="matrix(1.1083 0 0 0.1273 12.8264 32.6865)" gradientUnits="userSpaceOnUse">
		<stop  offset="0" style="stop-color:#E6C816"/>
		<stop  offset="0.417" style="stop-color:#EDCF19;stop-opacity:0.5842"/>
		<stop  offset="1" style="stop-color:#FFE121;stop-opacity:0.0028"/>
	</radialGradient>
	<ellipse fill="url(#SVGID_10_)" cx="21.05" cy="37.453" rx="18.633" ry="2.203"/>
	<g>
		<g>
			<path fill="#FFE120" stroke="#1E100D" stroke-width="0.25" stroke-miterlimit="10" d="M15.449,32.852l20.995-8.386
				c0,0,1.475-0.502,0.051-1.177c-7.401-3.507-5.417-16.914-4.934-19.786c0.099-0.582-0.518-0.515-0.518-0.515L10.185,3.871
				c0,0-0.601-0.073-0.566,0.507c0.213,3.587-1.32,25.963,4.682,28.507C14.3,32.885,14.92,33.069,15.449,32.852z"/>
		</g>
		<linearGradient id="SVGID_11_" gradientUnits="userSpaceOnUse" x1="26.0928" y1="28.9063" x2="16.1835" y2="1.6809">
			<stop  offset="0.4031" style="stop-color:#F7931E;stop-opacity:0.4"/>
			<stop  offset="0.4119" style="stop-color:#F7961E;stop-opacity:0.3941"/>
			<stop  offset="0.4974" style="stop-color:#FAB11F;stop-opacity:0.3369"/>
			<stop  offset="0.5904" style="stop-color:#FCC71F;stop-opacity:0.2745"/>
			<stop  offset="0.6937" style="stop-color:#FED520;stop-opacity:0.2053"/>
			<stop  offset="0.8152" style="stop-color:#FFDE20;stop-opacity:0.1239"/>
			<stop  offset="1" style="stop-color:#FFE120;stop-opacity:0"/>
		</linearGradient>
		<path fill="url(#SVGID_11_)" d="M15.431,32.786l20.901-8.349c0,0,1.469-0.5,0.051-1.172c-7.368-3.491-5.393-16.839-4.911-19.698
			c0.098-0.58-0.516-0.513-0.516-0.513L10.19,3.935c0,0-0.599-0.073-0.564,0.504c0.212,3.571-1.314,25.848,4.66,28.381
			C14.286,32.819,14.903,33.002,15.431,32.786z"/>
		<linearGradient id="SVGID_12_" gradientUnits="userSpaceOnUse" x1="26.0938" y1="28.9082" x2="16.1842" y2="1.6819">
			<stop  offset="0" style="stop-color:#FFE120;stop-opacity:0"/>
			<stop  offset="0.1357" style="stop-color:#FFE438;stop-opacity:0.0679"/>
			<stop  offset="0.4224" style="stop-color:#FFEC75;stop-opacity:0.2112"/>
			<stop  offset="0.833" style="stop-color:#FFF9D6;stop-opacity:0.4165"/>
			<stop  offset="1" style="stop-color:#FFFFFF;stop-opacity:0.5"/>
		</linearGradient>
		<path fill="url(#SVGID_12_)" d="M15.431,32.787l20.901-8.35c0,0,1.469-0.5,0.051-1.172c-7.368-3.491-5.393-16.839-4.911-19.698
			c0.098-0.58-0.516-0.513-0.516-0.513L10.19,3.935c0,0-0.599-0.073-0.564,0.504c0.212,3.571-1.314,25.849,4.66,28.382
			C14.286,32.82,14.903,33.002,15.431,32.787z"/>
		
			<linearGradient id="SVGID_13_" gradientUnits="userSpaceOnUse" x1="12.2969" y1="4.3354" x2="16.9721" y2="12.0201" gradientTransform="matrix(0.9997 0.023 -0.023 0.9997 -0.4053 -0.3036)">
			<stop  offset="0" style="stop-color:#FFFFFF;stop-opacity:0.5"/>
			<stop  offset="1" style="stop-color:#FFFFFF;stop-opacity:0"/>
		</linearGradient>
		<path fill="url(#SVGID_13_)" d="M19.252,4.452l-7.015,0.34l-1.365,0.083c0,0-0.155-0.016-0.144,0.133
			c0.017,0.213,0.014,9.684,0.02,10.29L19.252,4.452z"/>
		<g>
			<path d="M14.717,33.016c-0.326,0-0.58-0.072-0.591-0.076C9.085,30.803,9.158,15.323,9.253,7.833
				C9.272,6.338,9.29,4.92,9.254,4.313C9.243,4.12,9.291,3.966,9.396,3.854C9.607,3.63,9.959,3.676,9.959,3.677L30.824,2.93
				c0.001,0,0.026-0.002,0.063-0.002c0.12,0,0.344,0.024,0.483,0.189c0.099,0.117,0.132,0.275,0.099,0.472
				C30.838,7.34,29.32,19.84,36.312,23.152c0.478,0.227,0.703,0.465,0.688,0.727c-0.023,0.416-0.677,0.65-0.752,0.676l-20.896,8.348
				C15.167,32.979,14.953,33.016,14.717,33.016z M14.221,32.504c0.003,0,0.228,0.061,0.507,0.061c0.203,0,0.386-0.031,0.542-0.096
				l20.892-8.148c0.191-0.064,0.578-0.26,0.589-0.457c0.008-0.143-0.186-0.314-0.546-0.484c-7.149-3.387-5.62-16.036-4.98-19.832
				c0.021-0.12,0.005-0.211-0.044-0.27c-0.076-0.09-0.229-0.1-0.292-0.1c-0.024,0-0.041,0.001-0.043,0.001l-20.653,0.95
				c-0.022-0.001-0.041-0.003-0.069-0.003c-0.062,0-0.214,0.01-0.301,0.103C9.765,4.289,9.739,4.38,9.747,4.5
				c0.036,0.617,0.011,1.702-0.009,3.203C9.645,15.138,9.348,30.438,14.221,32.504L14.221,32.504z"/>
		</g>
	</g>
</g>
<g id="Capa_2" display="none">
	
		<line display="inline" fill="none" stroke="#FF0000" stroke-width="0.25" stroke-miterlimit="10" x1="41.375" y1="19.375" x2="4.208" y2="34.125"/>
</g>
</svg>
