<?xml version="1.0" encoding="utf-8"?>
<!-- Generator: Adobe Illustrator 16.0.0, SVG Export Plug-In . SVG Version: 6.00 Build 0)  -->
<!DOCTYPE svg PUBLIC "-//W3C//DTD SVG 1.1//EN" "http://www.w3.org/Graphics/SVG/1.1/DTD/svg11.dtd">
<svg version="1.1" xmlns="http://www.w3.org/2000/svg" xmlns:xlink="http://www.w3.org/1999/xlink" x="0px" y="0px" width="40px"
	 height="40px" viewBox="0 0 40 40" enable-background="new 0 0 40 40" xml:space="preserve">
<g id="Capa_1">
	<g>
		<g>
			<path fill="#1E100D" d="M12.037,32.438c-0.345,0-0.679-0.057-0.916-0.155l-7.206-2.993c-0.459-0.19-0.847-0.771-0.847-1.269
				V13.302c0-0.345,0.188-0.567,0.478-0.567c0.088,0,0.181,0.02,0.277,0.059l7.2,2.919c0.28,0.114,0.669,0.179,1.066,0.179
				c0.334,0,0.651-0.046,0.893-0.13l23.172-8.095c0.087-0.03,0.172-0.046,0.253-0.046c0.319,0,0.525,0.235,0.525,0.598v13.809
				c0,0.496-0.39,1.066-0.852,1.246l-23.197,9.029C12.66,32.39,12.359,32.438,12.037,32.438z"/>
			<g>
				<path fill="#1E100D" d="M36.407,7.746c0.247,0,0.4,0.181,0.4,0.473v13.809c0,0.449-0.354,0.967-0.772,1.129l-23.197,9.029
					c-0.209,0.082-0.494,0.127-0.801,0.127c-0.328,0-0.646-0.054-0.868-0.146l-7.206-2.993c-0.417-0.174-0.77-0.702-0.77-1.153
					V13.302c0-0.277,0.132-0.442,0.353-0.442c0.071,0,0.149,0.017,0.23,0.05l7.2,2.918c0.299,0.122,0.694,0.188,1.113,0.188
					c0.348,0,0.68-0.049,0.934-0.138l23.172-8.095C36.27,7.759,36.34,7.746,36.407,7.746L36.407,7.746 M36.407,7.496
					c-0.093,0-0.191,0.017-0.294,0.053l-23.172,8.095c-0.237,0.083-0.542,0.124-0.852,0.124c-0.368,0-0.743-0.058-1.02-0.17
					l-7.2-2.919c-0.114-0.046-0.223-0.068-0.324-0.068c-0.351,0-0.603,0.265-0.603,0.692v14.719c0,0.55,0.416,1.173,0.924,1.384
					l7.206,2.993c0.264,0.109,0.615,0.165,0.964,0.165c0.324,0,0.645-0.048,0.892-0.144l23.197-9.029
					c0.513-0.199,0.932-0.813,0.932-1.362V8.219C37.058,7.777,36.783,7.496,36.407,7.496L36.407,7.496z"/>
			</g>
		</g>
		<g>
			<linearGradient id="SVGID_1_" gradientUnits="userSpaceOnUse" x1="11.4063" y1="15.7847" x2="3.532" y2="29.4233">
				<stop  offset="0" style="stop-color:#000000;stop-opacity:0.5"/>
				<stop  offset="0.0444" style="stop-color:#131102;stop-opacity:0.4778"/>
				<stop  offset="0.1978" style="stop-color:#51470A;stop-opacity:0.4011"/>
				<stop  offset="0.3501" style="stop-color:#867611;stop-opacity:0.325"/>
				<stop  offset="0.4974" style="stop-color:#B19D16;stop-opacity:0.2513"/>
				<stop  offset="0.6389" style="stop-color:#D3BA1B;stop-opacity:0.1805"/>
				<stop  offset="0.773" style="stop-color:#EBD01E;stop-opacity:0.1135"/>
				<stop  offset="0.8966" style="stop-color:#FADD1F;stop-opacity:0.0517"/>
				<stop  offset="1" style="stop-color:#FFE120;stop-opacity:0"/>
			</linearGradient>
			<polygon fill="url(#SVGID_1_)" points="2.942,12.364 2.942,29.083 11.996,32.844 11.996,16.125 			"/>
		</g>
		<g>
			<linearGradient id="SVGID_2_" gradientUnits="userSpaceOnUse" x1="6.7344" y1="12.0981" x2="8.2036" y2="33.1084">
				<stop  offset="0" style="stop-color:#FFE120;stop-opacity:0"/>
				<stop  offset="0.4541" style="stop-color:#FFEF8C;stop-opacity:0.1816"/>
				<stop  offset="0.8297" style="stop-color:#FFFBDE;stop-opacity:0.3319"/>
				<stop  offset="1" style="stop-color:#FFFFFF;stop-opacity:0.4"/>
			</linearGradient>
			<polygon fill="url(#SVGID_2_)" points="2.942,12.364 2.942,29.083 11.996,32.844 11.996,16.125 			"/>
		</g>
		<g>
			<linearGradient id="SVGID_3_" gradientUnits="userSpaceOnUse" x1="21.7666" y1="12.417" x2="27.1688" y2="27.2594">
				<stop  offset="0" style="stop-color:#000000;stop-opacity:0.5"/>
				<stop  offset="0.2199" style="stop-color:#000000;stop-opacity:0.3"/>
				<stop  offset="1" style="stop-color:#FFE120;stop-opacity:0"/>
			</linearGradient>
			<polygon fill="url(#SVGID_3_)" points="37.057,23.027 11.996,32.781 11.996,15.973 37.057,7.219 			"/>
		</g>
		<g>
			<linearGradient id="SVGID_4_" gradientUnits="userSpaceOnUse" x1="39.3867" y1="11.6621" x2="9.2531" y2="27.6844">
				<stop  offset="0" style="stop-color:#FFE120;stop-opacity:0"/>
				<stop  offset="0.4541" style="stop-color:#FFEF8C;stop-opacity:0.1816"/>
				<stop  offset="0.8297" style="stop-color:#FFFBDE;stop-opacity:0.3319"/>
				<stop  offset="1" style="stop-color:#FFFFFF;stop-opacity:0.4"/>
			</linearGradient>
			<polygon fill="url(#SVGID_4_)" points="37.057,23.09 11.996,32.844 11.996,16.035 37.057,7.281 			"/>
		</g>
		<linearGradient id="SVGID_5_" gradientUnits="userSpaceOnUse" x1="12.8428" y1="32.1348" x2="16.1072" y2="26.4807">
			<stop  offset="0" style="stop-color:#FFFFFF;stop-opacity:0.7"/>
			<stop  offset="1" style="stop-color:#FFFFFF;stop-opacity:0"/>
		</linearGradient>
		<polygon fill="url(#SVGID_5_)" points="19.516,28.901 12.5,31.937 12.5,24.397 		"/>
		
			<linearGradient id="SVGID_6_" gradientUnits="userSpaceOnUse" x1="-21.6055" y1="72.4453" x2="-19.1279" y2="68.1541" gradientTransform="matrix(0.3736 -0.9276 0.9276 0.3736 -47.4294 -15.494)">
			<stop  offset="0" style="stop-color:#FFFFFF;stop-opacity:0.7"/>
			<stop  offset="1" style="stop-color:#FFFFFF;stop-opacity:0"/>
		</linearGradient>
		<polygon fill="url(#SVGID_6_)" points="11.316,26 11.465,31.8 6.157,29.662 		"/>
		<path fill="#1E100D" d="M36.407,7.746L36.407,7.746c0.247,0,0.4,0.181,0.4,0.473v13.809c0,0.449-0.576,0.957-0.995,1.119
			L12.83,32.031c-0.209,0.082-0.494,0.127-0.801,0.127c-0.328,0-0.646-0.054-0.868-0.146l-7.114-2.903
			c-0.417-0.174-0.854-0.638-0.854-1.089V13.302c0-0.276,0.132-0.442,0.353-0.442c0.071,0,0.149,0.017,0.23,0.05l7.2,2.919
			c0.299,0.121,0.693,0.188,1.112,0.188c0.349,0,0.681-0.049,0.935-0.138l23.172-8.094C36.27,7.759,36.341,7.746,36.407,7.746
			 M36.407,7.496c-0.093,0-0.191,0.017-0.294,0.053l-23.172,8.094c-0.237,0.083-0.543,0.124-0.853,0.124
			c-0.367,0-0.742-0.058-1.019-0.17l-7.2-2.919c-0.114-0.046-0.223-0.068-0.324-0.068c-0.351,0-0.603,0.266-0.603,0.692v14.719
			c0,0.55,0.416,1.173,0.924,1.384l7.206,2.993c0.264,0.109,0.615,0.165,0.964,0.165c0.324,0,0.645-0.048,0.892-0.144l23.197-9.029
			c0.513-0.199,0.932-0.813,0.932-1.362V8.219C37.058,7.777,36.784,7.496,36.407,7.496L36.407,7.496z"/>
		<rect x="11.844" y="16" fill="#1E100D" width="0.438" height="16.563"/>
	</g>
	<path fill="#FFFFFF" stroke="#000000" stroke-width="0.25" stroke-miterlimit="10" d="M26.12,4.563"/>
	
		<radialGradient id="SVGID_7_" cx="-9.3867" cy="37.4531" r="17.0641" gradientTransform="matrix(1.1083 0 0 0.1273 31.4539 32.6865)" gradientUnits="userSpaceOnUse">
		<stop  offset="0" style="stop-color:#1E100D"/>
		<stop  offset="1" style="stop-color:#1E100D;stop-opacity:0.0028"/>
	</radialGradient>
	<ellipse fill="url(#SVGID_7_)" cx="21.05" cy="37.453" rx="18.633" ry="2.203"/>
	<g>
		<g>
			<path fill="#1E100D" d="M9.966,17.083c-0.113-0.067-0.356-0.157-0.896-0.355l-7.562-2.786c-0.202-0.074-0.329-0.192-0.349-0.324
				c-0.021-0.131,0.066-0.281,0.238-0.412l16.4-12.5c0.271-0.207,0.7-0.335,1.12-0.335c0.186,0,0.359,0.026,0.502,0.076
				l19.069,6.649c0.224,0.078,0.305,0.167,0.305,0.207c-0.001,0.041-0.082,0.128-0.308,0.203l-27.537,9.24
				c-0.648,0.218-0.873,0.295-0.96,0.336H9.966z"/>
			<g>
				<path fill="#1E100D" d="M18.918,0.496c0.172,0,0.331,0.024,0.461,0.069l19.069,6.649c0.092,0.033,0.151,0.064,0.187,0.088
					C38.6,7.326,38.54,7.357,38.447,7.389l-27.537,9.24c-0.519,0.174-0.777,0.26-0.914,0.317c-0.143-0.064-0.4-0.159-0.883-0.336
					l-7.563-2.787c-0.155-0.057-0.256-0.141-0.269-0.225s0.059-0.193,0.19-0.294l16.4-12.5C18.12,0.617,18.529,0.496,18.918,0.496
					L18.918,0.496 M18.918,0.246c-0.431,0-0.895,0.131-1.196,0.36l-16.4,12.5c-0.438,0.333-0.373,0.762,0.144,0.952l7.562,2.786
					c0.517,0.19,0.937,0.351,0.933,0.357c-0.002,0.004,0,0.006,0.005,0.006c0.003,0,0.006,0,0.009-0.001
					c0.006-0.001,0.012-0.002,0.019-0.002s0.014,0.001,0.019,0.002c0.002,0.001,0.005,0.001,0.007,0.001
					c0.007,0,0.014-0.004,0.017-0.01c0.005-0.008,0.435-0.158,0.956-0.333l27.537-9.24c0.521-0.175,0.523-0.466,0.004-0.647
					L19.461,0.329C19.299,0.273,19.112,0.246,18.918,0.246L18.918,0.246z"/>
			</g>
		</g>
		<g>
			<linearGradient id="SVGID_8_" gradientUnits="userSpaceOnUse" x1="14.3945" y1="14.6914" x2="9.064" y2="5.4586">
				<stop  offset="0" style="stop-color:#FFFFFF;stop-opacity:0.3"/>
				<stop  offset="0.1624" style="stop-color:#FFFFFC;stop-opacity:0.2513"/>
				<stop  offset="0.2993" style="stop-color:#FFFDF1;stop-opacity:0.2102"/>
				<stop  offset="0.4272" style="stop-color:#FFFBE0;stop-opacity:0.1718"/>
				<stop  offset="0.5494" style="stop-color:#FFF7C7;stop-opacity:0.1352"/>
				<stop  offset="0.6678" style="stop-color:#FFF3A7;stop-opacity:0.0997"/>
				<stop  offset="0.7832" style="stop-color:#FFEE80;stop-opacity:0.0651"/>
				<stop  offset="0.8939" style="stop-color:#FFE853;stop-opacity:0.0318"/>
				<stop  offset="1" style="stop-color:#FFE120;stop-opacity:0"/>
			</linearGradient>
			<polygon fill="url(#SVGID_8_)" points="18.517,0 1.287,13.133 1.156,13.594 1.455,14.055 10.026,17.213 			"/>
		</g>
		<g>
			<linearGradient id="SVGID_9_" gradientUnits="userSpaceOnUse" x1="14.4961" y1="14.6914" x2="9.1655" y2="5.4586">
				<stop  offset="0" style="stop-color:#FFFFFF;stop-opacity:0.5"/>
				<stop  offset="1" style="stop-color:#FFE120;stop-opacity:0"/>
			</linearGradient>
			<polygon fill="url(#SVGID_9_)" points="18.618,0 1.389,13.133 1.258,13.594 1.557,14.055 10.128,17.213 			"/>
		</g>
		<g>
			<linearGradient id="SVGID_10_" gradientUnits="userSpaceOnUse" x1="18.2139" y1="21.9912" x2="29.7954" y2="1.9314">
				<stop  offset="0" style="stop-color:#FFE120;stop-opacity:0"/>
				<stop  offset="0.1078" style="stop-color:#FADD1F;stop-opacity:0.0431"/>
				<stop  offset="0.2315" style="stop-color:#ECD11E;stop-opacity:0.0926"/>
				<stop  offset="0.3632" style="stop-color:#D5BC1B;stop-opacity:0.1453"/>
				<stop  offset="0.5005" style="stop-color:#B5A017;stop-opacity:0.2002"/>
				<stop  offset="0.642" style="stop-color:#8C7B12;stop-opacity:0.2568"/>
				<stop  offset="0.7872" style="stop-color:#594E0B;stop-opacity:0.3149"/>
				<stop  offset="0.9326" style="stop-color:#1E1A04;stop-opacity:0.3731"/>
				<stop  offset="1" style="stop-color:#000000;stop-opacity:0.4"/>
			</linearGradient>
			<polygon fill="url(#SVGID_10_)" points="18.604,0.413 14.579,7.883 9.938,17.213 38.503,7.627 38.771,7.281 38.571,6.998 
				19.644,0.398 			"/>
		</g>
		<g>
			<linearGradient id="SVGID_11_" gradientUnits="userSpaceOnUse" x1="18.2139" y1="21.9912" x2="29.7954" y2="1.9314">
				<stop  offset="0" style="stop-color:#FFFFFF;stop-opacity:0.5"/>
				<stop  offset="1" style="stop-color:#FFE120;stop-opacity:0"/>
			</linearGradient>
			<polygon fill="url(#SVGID_11_)" points="18.604,0.413 14.579,7.883 9.938,17.213 38.503,7.627 38.771,7.281 38.571,6.998 
				19.644,0.398 			"/>
		</g>
		<linearGradient id="SVGID_12_" gradientUnits="userSpaceOnUse" x1="13.7637" y1="17.4878" x2="17.189" y2="11.555">
			<stop  offset="0" style="stop-color:#FFFFFF;stop-opacity:0.7"/>
			<stop  offset="0.0042" style="stop-color:#FFFFFD;stop-opacity:0.6971"/>
			<stop  offset="0.1094" style="stop-color:#FFF8CA;stop-opacity:0.6234"/>
			<stop  offset="0.2188" style="stop-color:#FFF29C;stop-opacity:0.5468"/>
			<stop  offset="0.3315" style="stop-color:#FFED76;stop-opacity:0.468"/>
			<stop  offset="0.4475" style="stop-color:#FFE857;stop-opacity:0.3868"/>
			<stop  offset="0.568" style="stop-color:#FFE53F;stop-opacity:0.3024"/>
			<stop  offset="0.6949" style="stop-color:#FFE32D;stop-opacity:0.2136"/>
			<stop  offset="0.8324" style="stop-color:#FFE123;stop-opacity:0.1173"/>
			<stop  offset="1" style="stop-color:#FFE120;stop-opacity:0"/>
		</linearGradient>
		<polygon fill="url(#SVGID_12_)" points="14.047,11.219 11.188,16 19.766,13.042 		"/>
		<linearGradient id="SVGID_13_" gradientUnits="userSpaceOnUse" x1="8.7324" y1="16.5757" x2="7.1021" y2="12.0965">
			<stop  offset="0" style="stop-color:#FFFFFF;stop-opacity:0.7"/>
			<stop  offset="0.0587" style="stop-color:#FFFAD8;stop-opacity:0.6589"/>
			<stop  offset="0.1342" style="stop-color:#FFF4AD;stop-opacity:0.6061"/>
			<stop  offset="0.2159" style="stop-color:#FFEF87;stop-opacity:0.5489"/>
			<stop  offset="0.3027" style="stop-color:#FFEB67;stop-opacity:0.4881"/>
			<stop  offset="0.3962" style="stop-color:#FFE74D;stop-opacity:0.4226"/>
			<stop  offset="0.4988" style="stop-color:#FFE439;stop-opacity:0.3508"/>
			<stop  offset="0.6154" style="stop-color:#FFE22B;stop-opacity:0.2692"/>
			<stop  offset="0.7578" style="stop-color:#FFE122;stop-opacity:0.1696"/>
			<stop  offset="1" style="stop-color:#FFE120;stop-opacity:0"/>
		</linearGradient>
		<polygon fill="url(#SVGID_13_)" points="11.844,12.182 9.71,16.219 2.942,13.609 		"/>
		<path fill="#1E100D" d="M38.53,6.979L19.461,0.329c-0.162-0.056-0.349-0.083-0.543-0.083c-0.431,0-0.895,0.131-1.196,0.36
			l-16.4,12.5c-0.438,0.333-0.373,0.762,0.144,0.952l7.562,2.786c0.517,0.19,0.937,0.351,0.933,0.357
			c-0.002,0.004,0,0.006,0.005,0.006c0.003,0,0.006,0,0.009-0.001c0.006-0.001,0.012-0.002,0.019-0.002s0.014,0.001,0.019,0.002
			c0.002,0.001,0.005,0.001,0.007,0.001c0.007,0,0.014-0.004,0.017-0.01c0.005-0.008,0.435-0.158,0.956-0.333l27.537-9.24
			C39.048,7.451,39.05,7.16,38.53,6.979z M1.551,13.824c-0.155-0.057-0.256-0.141-0.269-0.225s0.059-0.193,0.19-0.294l16.4-12.5
			c0.147-0.112,0.354-0.196,0.578-0.249L9.837,16.781c-0.151-0.063-0.396-0.154-0.827-0.313L1.551,13.824z M38.447,7.389
			l-27.34,9.08c-0.293,0.098-0.497,0.167-0.649,0.22l8.301-16.181c0.054-0.004,0.106-0.012,0.159-0.012
			c0.172,0,0.331,0.024,0.461,0.069l19.069,6.649c0.092,0.033,0.151,0.064,0.187,0.088C38.6,7.326,38.54,7.357,38.447,7.389z"/>
	</g>
</g>
<g id="Capa_2" display="none">
</g>
</svg>
