<?xml version="1.0" encoding="utf-8"?>
<!-- Generator: Adobe Illustrator 16.0.0, SVG Export Plug-In . SVG Version: 6.00 Build 0)  -->
<!DOCTYPE svg PUBLIC "-//W3C//DTD SVG 1.1//EN" "http://www.w3.org/Graphics/SVG/1.1/DTD/svg11.dtd">
<svg version="1.1" id="Capa_1" xmlns="http://www.w3.org/2000/svg" xmlns:xlink="http://www.w3.org/1999/xlink" x="0px" y="0px"
	 width="297.757px" height="55.559px" viewBox="0 0 297.757 55.559" enable-background="new 0 0 297.757 55.559"
	 xml:space="preserve">
<path fill="#1E100D" d="M237.58,25.152c-2.497-2.732-5.18-3.814-9.263-3.814h-0.002h-0.528c-4.111,0-6.955,1.118-9.421,3.813
	c-2.437,2.662-3.763,6.237-3.763,10.405l0,0v0.001v5.348v0.254v7.377c0,0,1.908,0.069,3.233-0.102
	c0.11-0.011,0.211-0.024,0.298-0.042c0.04-0.008,0.076-0.017,0.115-0.024c0.069-0.014,0.133-0.027,0.194-0.042
	c0.425-0.096,0.814-0.22,1.126-0.463c0.366-0.287,0.632-0.649,0.866-1.253c0.21-0.55,0.349-1.263,0.349-2.137v-3.397v-0.171v-5.349
	c0,0,0.093-4.293,1.936-7.077c0.165-0.216,0.338-0.421,0.514-0.61c0.727-0.788,1.663-1.321,2.658-1.64l0.033-0.01
	c0.675-0.253,1.413-0.244,2.032-0.244h0.065h0.064c0.916,0,1.833,0.146,2.73,0.558c0.594,0.257,1.153,0.58,1.66,1.05
	c0.969,0.866,1.653,1.987,1.984,3.251c0.01,0.034,0.01,0.064,0.017,0.099c0.005,0.02-0.004-0.006,0.001,0.016
	c0.316,1.064,0.524,2.757,0.524,4.753v5.203v0.171v3.397c0,0.874,0.136,1.586,0.348,2.137c0.233,0.604,0.501,0.966,0.865,1.253
	c0.313,0.243,0.702,0.367,1.126,0.463c0.061,0.015,0.125,0.029,0.193,0.042c0.039,0.007,0.076,0.016,0.114,0.024
	c0.09,0.018,0.191,0.031,0.298,0.042c1.326,0.17,3.235,0.102,3.235,0.102V41.16v-0.254v-5.348
	C241.185,31.304,239.938,27.729,237.58,25.152z"/>
<g>
	<path fill="#1E100D" d="M31.17,8.284c0.176,0,0.354-0.018,0.53-0.052c0.913-0.181,1.837-0.273,2.744-0.273
		c7.192,0,13.513,5.607,15.028,13.76c0.252,1.364,0.928,2.055,2.009,2.055c0.153,0,0.311-0.014,0.462-0.043
		c1.73-0.32,1.366-2.284,1.247-2.928c-1.155-6.209-3.268-10.369-6.652-13.754C42.69,3.2,36.7,0.778,32.47,0.084
		C32.129,0.028,31.799,0,31.483,0c-1.613,0-2.853,0.741-3.58,2.144c-0.641,1.235-0.517,2.859,0.321,4.239
		C28.947,7.573,30.049,8.284,31.17,8.284z"/>
	<path fill="#1E100D" d="M1.363,23.732c0.152,0.028,0.307,0.042,0.46,0.042c1.08,0,1.757-0.691,2.009-2.055
		c1.518-8.152,7.837-13.76,15.029-13.76c0.905,0,1.828,0.092,2.744,0.273c0.176,0.034,0.354,0.052,0.53,0.052
		c1.121,0,2.222-0.71,2.947-1.901c0.838-1.378,0.96-3.003,0.319-4.239C24.674,0.741,23.436,0,21.821,0
		c-0.313,0-0.645,0.028-0.985,0.084C16.604,0.778,10.615,3.2,6.768,7.048c-3.384,3.384-5.498,7.545-6.652,13.754
		C-0.005,21.448-0.367,23.41,1.363,23.732z"/>
	<path fill="#1E100D" d="M51.602,27.624c-0.154-0.029-0.305-0.043-0.446-0.043c-1.005,0-1.645,0.689-1.901,2.049
		c-1.385,7.309-6.607,13.146-13.973,16.131c-0.484,0.173-0.989,0.262-1.495,0.262c-2.119,0-3.919-1.544-4.281-3.669l-0.002-0.01
		l-0.001-0.007l-0.003-0.008l-0.003-0.01c-0.409-1.531,0.145-5.426,0.151-5.465c0.19-1.063-0.038-2.052-0.662-2.807
		c-0.512-0.622-1.26-0.962-2.22-0.962h-0.014c-0.047,0-0.091,0.002-0.137,0.006c-0.056-0.006-0.105-0.006-0.145-0.006h-0.014
		c-0.96,0-1.707,0.341-2.221,0.962c-0.619,0.75-0.852,1.768-0.66,2.846c0.021,0.155,0.545,3.882,0.156,5.412l-0.007,0.02
		l-0.005,0.015l-0.003,0.019c-0.363,2.125-2.164,3.666-4.282,3.666c-0.505,0-1.012-0.089-1.511-0.267
		C10.573,42.773,5.353,36.939,3.969,29.63c-0.258-1.36-0.897-2.05-1.9-2.05c-0.145,0-0.294,0.014-0.447,0.043
		c-0.47,0.087-0.839,0.325-1.101,0.706c-0.392,0.571-0.506,1.475-0.316,2.479c1.195,6.315,4.539,12.3,9.172,16.956
		c4.999,5.026,11.119,7.794,17.231,7.794c6.115,0,12.238-2.769,17.238-7.794c4.632-4.656,7.976-10.641,9.173-16.956
		c0.188-1.004,0.072-1.908-0.317-2.479C52.438,27.948,52.069,27.71,51.602,27.624z"/>
</g>
<path fill="#1E100D" d="M221.988,43.785c-0.111-0.13-0.234-0.262-0.374-0.403C221.74,43.519,221.865,43.654,221.988,43.785z"/>
<path fill="#1E100D" d="M114.019,25.396c-1.12-1.194-2.465-2.169-3.995-2.896c-1.525-0.725-3.185-1.093-4.933-1.093
	c-1.901,0-3.659,0.368-5.222,1.093c-1.568,0.728-2.91,1.7-3.989,2.892c-1.08,1.228-1.935,2.678-2.53,4.302
	c-0.598,1.626-0.902,3.421-0.902,5.333c0,1.871,0.332,3.642,0.985,5.267c0.651,1.624,1.569,3.073,2.73,4.307
	c1.157,1.234,2.51,2.218,4.022,2.925c1.507,0.706,3.158,1.065,4.905,1.065c1.902,0,3.66-0.359,5.226-1.066
	c1.563-0.707,2.902-1.687,3.982-2.916c1.084-1.232,1.936-2.682,2.532-4.307c0.599-1.63,0.901-3.404,0.901-5.275
	c0-1.907-0.329-3.699-0.983-5.325C116.096,28.078,115.177,26.628,114.019,25.396z M111.322,35.513
	c-0.196,1.875-0.563,3.407-1.094,4.561c-0.529,1.165-1.157,2.069-1.857,2.691c-0.704,0.624-1.435,1.034-2.172,1.219
	c-0.586,0.146-1.117,0.221-1.575,0.221c-0.104,0-0.207-0.003-0.305-0.011c-0.53-0.041-1.152-0.213-1.853-0.514
	c-0.716-0.308-1.377-0.841-1.961-1.587c-0.58-0.74-1.044-1.744-1.377-2.986c-0.335-1.241-0.406-2.818-0.21-4.687
	c0.153-1.862,0.513-3.399,1.063-4.559c0.551-1.163,1.176-2.058,1.858-2.658c0.685-0.606,1.415-1.006,2.171-1.19
	c0.602-0.146,1.141-0.22,1.602-0.22c0.104,0,0.208,0.003,0.308,0.011c0.531,0.042,1.144,0.214,1.824,0.514
	c0.695,0.308,1.345,0.83,1.928,1.556c0.58,0.72,1.044,1.716,1.38,2.96C111.387,32.071,111.477,33.644,111.322,35.513z"/>
<path fill="#1E100D" d="M265.623,25.329c-1.117-1.193-2.462-2.169-3.996-2.896c-1.523-0.725-3.183-1.092-4.93-1.092
	c-1.904,0-3.66,0.367-5.224,1.092c-1.566,0.728-2.909,1.702-3.987,2.893c-1.082,1.229-1.934,2.678-2.529,4.303
	c-0.6,1.625-0.906,3.419-0.906,5.332c0,1.871,0.334,3.642,0.988,5.267c0.654,1.625,1.569,3.073,2.727,4.307
	c1.161,1.232,2.512,2.217,4.025,2.925c1.507,0.707,3.157,1.065,4.906,1.065c1.9,0,3.658-0.359,5.225-1.066
	c1.563-0.705,2.902-1.686,3.98-2.916c1.086-1.231,1.938-2.681,2.533-4.306c0.602-1.63,0.901-3.405,0.901-5.275
	c0-1.908-0.331-3.699-0.984-5.324C267.698,28.012,266.779,26.562,265.623,25.329z M262.928,35.445
	c-0.197,1.875-0.564,3.408-1.092,4.563c-0.532,1.163-1.156,2.069-1.861,2.69c-0.705,0.625-1.433,1.034-2.17,1.219
	c-0.586,0.146-1.118,0.22-1.574,0.22c-0.104,0-0.207-0.003-0.305-0.011c-0.528-0.039-1.154-0.212-1.854-0.513
	c-0.714-0.307-1.377-0.842-1.961-1.588c-0.579-0.737-1.043-1.743-1.376-2.985c-0.334-1.241-0.406-2.817-0.213-4.687
	c0.154-1.863,0.513-3.398,1.066-4.559c0.551-1.165,1.176-2.058,1.854-2.658c0.687-0.606,1.42-1.006,2.175-1.19
	c0.603-0.146,1.142-0.22,1.606-0.22c0.104,0,0.205,0.003,0.302,0.011c0.531,0.042,1.146,0.215,1.825,0.515
	c0.693,0.306,1.343,0.828,1.93,1.554c0.578,0.721,1.041,1.717,1.379,2.96C262.992,32.003,263.083,33.578,262.928,35.445z"/>
<path fill="#1E100D" d="M296.603,28.683c-0.765-1.773-1.756-3.23-2.948-4.327c-1.189-1.095-2.551-1.886-4.054-2.35
	c-1.221-0.375-2.437-0.567-3.614-0.567c-0.284,0-0.566,0.012-0.847,0.034c-0.921,0.074-1.751,0.27-2.462,0.579
	c-0.729,0.317-1.365,0.63-1.893,0.93c-0.63,0.409-1.212,0.824-1.658,1.23l-0.546,0.468v-0.693V15.99
	c0-0.878-0.071-1.605-0.286-2.165c-0.213-0.542-0.492-0.974-0.87-1.284c-0.377-0.309-0.823-0.518-1.34-0.624
	c-0.028-0.003-0.126-0.008-0.248-0.008c-0.61,0-2.12,0.142-2.829,1.446c-0.563,1.049-0.605,3.411-0.605,3.436v18.302
	c0,2.479,0.405,4.608,1.131,6.327c0.729,1.715,1.707,3.121,2.878,4.18c1.171,1.06,2.537,1.841,4.042,2.323
	c1.517,0.487,3.088,0.734,4.656,0.734c1.57,0,3.142-0.247,4.656-0.734c1.506-0.481,2.863-1.263,4.035-2.323
	c1.168-1.059,2.131-2.465,2.859-4.18c0.726-1.718,1.097-3.846,1.097-6.327C297.757,32.619,297.368,30.461,296.603,28.683z
	 M291.347,35.396c-0.078,1.636-0.327,3.042-0.735,4.175c-0.417,1.145-0.939,2.079-1.557,2.775c-0.629,0.707-1.336,1.208-2.109,1.493
	c-0.668,0.248-1.347,0.372-2.016,0.372c-0.097,0-0.194-0.003-0.291-0.008c-0.764-0.039-1.523-0.244-2.248-0.608
	c-0.733-0.366-1.38-0.94-1.927-1.707c-0.539-0.756-0.958-1.74-1.257-2.923c-0.291-1.176-0.404-2.6-0.323-4.231
	c0.078-1.635,0.326-3.031,0.736-4.148c0.417-1.124,0.938-2.048,1.556-2.745c0.625-0.704,1.333-1.215,2.102-1.52
	c0.676-0.267,1.361-0.402,2.045-0.402c0.089,0,0.18,0.002,0.27,0.007c0.769,0.041,1.533,0.255,2.28,0.637
	c0.752,0.386,1.405,0.969,1.952,1.734c0.534,0.758,0.952,1.733,1.225,2.897C291.325,32.353,291.423,33.766,291.347,35.396z"/>
<path fill="#1E100D" d="M88.295,12.311c-0.409-0.321-0.862-0.528-1.379-0.632c0,0-0.245-0.045-0.605-0.045
	c-1.098,0-2.975,0.41-3.215,3.153l0.785,23.042l-0.019,0.006v0.005c0,1.089-0.487,2.567-0.848,3.268
	c-0.388,0.756-1.03,1.368-1.988,1.869c-0.815,0.426-1.857,0.707-3.604,0.959c-1.24,0.18-2.97,0.288-4.764,0.288l-1.029-0.012h-1.702
	h-0.069c-0.04,0-1.013-0.031-1.041,1.154c0,0.247,0.041,0.365,0.104,0.578c0.118,0.33,0.406,0.956,1.03,1.514
	c0.511,0.459,1.351,0.763,2.5,0.907c1.151,0.13,2.319,0.196,3.475,0.196c0.859,0,1.73-0.038,2.597-0.11
	c2.034-0.168,3.815-0.603,5.471-1.326c1.511-0.661,2.731-1.636,3.828-3.07c0.906-1.188,1.296-2.764,1.296-5.109v-23.19
	c0-0.22,0.019-0.427,0.024-0.628c0.016-0.61,0.056-1.137-0.1-1.536C88.88,12.883,88.295,12.311,88.295,12.311z"/>
<path fill="#1E100D" d="M144.174,28.449c-0.832-1.926-1.655-3.3-2.785-4.327c-1.228-1.115-2.527-1.883-4.021-2.351
	c-1.204-0.376-2.396-0.566-3.572-0.566c-0.279,0-0.559,0.011-0.84,0.032c-0.963,0.075-1.813,0.271-2.524,0.581
	c-0.668,0.291-1.427,0.62-1.969,0.928c-0.3,0.208-0.584,0.42-0.853,0.626c-0.269,0.206-0.572,0.42-0.878,0.631l-0.525,0.332v-0.581
	v-7.999c0-0.887,0.032-1.61-0.176-2.154c-0.054-0.111-0.807-1.716-2.435-1.81c-0.058-0.003-0.116-0.005-0.173-0.005
	c-1.561,0-2.729,1.25-3.039,2.426c-0.315,1.201-0.214,4.259-0.212,4.289l0.78,25.785v0.005v0.006c0,0.794,0.166,1.523,0.414,2.163
	c0.193,0.499,0.533,0.931,0.975,1.277c0.342,0.27,0.773,0.441,1.41,0.569c0.384,0.077,0.66,0.101,1.084,0.101
	c0,0,1.371,0.132,1.371-1.335V34.515c0-1.489,0.278-2.917,0.737-4.243c0.363-1.058,0.97-2.012,1.671-2.758
	c0.639-0.679,1.393-1.17,2.238-1.459c0.719-0.245,1.472-0.369,2.24-0.369c0.107,0,0.217,0.003,0.325,0.007
	c0.843,0.04,1.627,0.213,2.348,0.512c0.742,0.31,1.387,0.836,1.934,1.566c0.536,0.715,0.858,1.663,1.162,2.901
	c0.292,1.184,0.327,2.647,0.327,4.475v9.151c0,0.86,0.218,1.589,0.439,2.16c0.209,0.54,0.578,0.958,0.985,1.277
	c0.343,0.268,0.778,0.451,1.416,0.579c0.419,0.083,1.539,0.223,1.978,0.223h1.05l0.002-13.667
	C145.059,32.119,144.876,30.072,144.174,28.449z"/>
<path fill="#1E100D" d="M171.438,25.152c-2.5-2.732-5.183-3.814-9.261-3.814h-0.006h-0.527c-4.111,0-6.955,1.118-9.421,3.813
	c-2.436,2.662-3.762,6.237-3.762,10.405l0,0v0.001v5.348v0.254v7.377c0,0,1.908,0.069,3.234-0.102
	c0.11-0.011,0.21-0.024,0.299-0.042c0.039-0.008,0.075-0.017,0.113-0.024c0.068-0.014,0.134-0.027,0.196-0.042
	c0.423-0.096,0.812-0.22,1.123-0.463c0.367-0.287,0.631-0.649,0.864-1.253c0.214-0.55,0.353-1.263,0.353-2.137v-3.397v-0.171v-5.349
	c0,0,0.092-4.293,1.933-7.077c0.166-0.216,0.339-0.421,0.513-0.61c0.728-0.788,1.667-1.321,2.661-1.64l0.031-0.01
	c0.676-0.253,1.415-0.244,2.032-0.244h0.065h0.064c0.919,0,1.835,0.146,2.732,0.558c0.595,0.257,1.153,0.58,1.658,1.05
	c0.969,0.866,1.655,1.987,1.985,3.251c0.012,0.034,0.009,0.064,0.019,0.099c0.004,0.02-0.006-0.006,0.001,0.016
	c0.313,1.064,0.521,2.757,0.521,4.753v5.203v0.171v3.397c0,0.874,0.139,1.586,0.352,2.137c0.234,0.604,0.498,0.966,0.865,1.253
	c0.312,0.243,0.7,0.367,1.123,0.463c0.063,0.015,0.127,0.029,0.195,0.042c0.038,0.007,0.076,0.016,0.114,0.024
	c0.089,0.018,0.188,0.031,0.298,0.042c1.326,0.17,3.235,0.102,3.235,0.102V41.16v-0.254v-5.348
	C175.042,31.304,173.797,27.729,171.438,25.152z"/>
<path fill="#1E100D" d="M210.656,46.088c-0.107-0.118-0.223-0.239-0.334-0.361l-0.033-0.037l-0.015-0.012v-0.002
	c-0.044-0.048-0.09-0.097-0.134-0.146l-0.082-0.088c-0.553-0.597-1.116-1.207-1.695-1.831l-0.421-0.456
	c-0.719-0.775-1.441-1.566-2.148-2.348c-0.271-0.303-0.558-0.601-0.832-0.888c-0.429-0.445-0.87-0.905-1.263-1.382
	c-0.596-0.724-1.215-1.543-1.867-2.412c-0.945-1.253-1.922-2.551-2.871-3.589l-0.207-0.227l0.229-0.206l10.528-9.426
	c0.667-0.598,0.986-1.126,0.894-1.486c-0.094-0.367-0.619-0.613-1.043-0.716c-0.2-0.036-0.376-0.063-0.541-0.081
	c-0.149-0.012-0.313-0.018-0.482-0.018c-0.77,0-1.666,0.137-2.666,0.409c-1.205,0.33-2.551,1.153-3.992,2.45l-0.05,0.042
	c-0.306,0.266-0.746,0.653-1.327,1.162c-0.602,0.526-1.277,1.107-2.063,1.775c-0.359,0.305-0.747,0.62-1.118,0.925
	c-0.428,0.351-0.876,0.714-1.301,1.077c-0.319,0.275-0.651,0.539-0.964,0.794c-0.469,0.383-0.955,0.745-1.315,1.083l-0.574,0.482
	v-0.704V15.919c0-0.773,0.031-1.567-0.194-2.151c-0.223-0.575-0.452-0.979-0.823-1.271c-0.408-0.319-0.852-0.524-1.365-0.627
	c-0.188-0.038-0.379-0.068-0.607-0.095c-0.314,0.008-2.319,0.171-2.771,2.974l0.818,29.533v0.003v0.005
	c0,0.872,0.068,1.597,0.283,2.148c0.208,0.537,0.481,0.965,0.875,1.272c0.156,0.122,0.329,0.232,0.537,0.334l0.111,0.056
	c0.014,0.006,0.027,0.011,0.039,0.017c0.064,0.027,0.129,0.052,0.197,0.076c0.092,0.032,0.187,0.061,0.296,0.089l0.041,0.011
	c0.038,0.011,0.083,0.021,0.124,0.032c0.014,0.003,0.024,0.006,0.037,0.009l0.02,0.003l0.032,0.005l0.003,0.002l0.002,0
	c0.187,0.041,0.387,0.053,0.592,0.061l1.754,0.005v-1.844v-0.614v-0.267V35.428v-0.77l0.587,0.561
	c0.394,0.418,0.817,0.844,1.214,1.297c0.221,0.25,0.453,0.506,0.687,0.767c0.136,0.154,0.276,0.308,0.417,0.462
	c0.504,0.562,1.027,1.144,1.512,1.718c0.554,0.656,1.089,1.264,1.605,1.851l0.153,0.174c0.614,0.699,1.048,1.223,1.368,1.648
	c0.538,0.683,1.131,1.39,1.76,2.097c0.593,0.669,1.229,1.283,1.886,1.827c0.644,0.534,1.313,0.962,1.991,1.273
	c0.661,0.304,1.361,0.458,2.077,0.458c0.888,0,1.605-0.095,2.138-0.28c0.301-0.109,0.829-0.368,0.951-0.836
	C211.422,47.265,211.193,46.715,210.656,46.088z"/>
</svg>
