<?xml version="1.0" encoding="utf-8"?>
<!-- Generator: Adobe Illustrator 16.0.0, SVG Export Plug-In . SVG Version: 6.00 Build 0)  -->
<!DOCTYPE svg PUBLIC "-//W3C//DTD SVG 1.1//EN" "http://www.w3.org/Graphics/SVG/1.1/DTD/svg11.dtd">
<svg version="1.1" id="Capa_1" xmlns="http://www.w3.org/2000/svg" xmlns:xlink="http://www.w3.org/1999/xlink" x="0px" y="0px"
	 width="142.972px" height="148.581px" viewBox="0 0 142.972 148.581" enable-background="new 0 0 142.972 148.581"
	 xml:space="preserve">
<path fill="#1E100D" d="M-1111.928-227.87c-1.801-1.971-3.736-2.751-6.681-2.751h-0.002h-0.381c-2.965,0-5.016,0.806-6.795,2.75
	c-1.757,1.92-2.713,4.499-2.713,7.505l0,0v0v3.857v0.184v5.321c0,0,1.376,0.05,2.332-0.073c0.079-0.008,0.151-0.018,0.215-0.03
	c0.028-0.006,0.055-0.013,0.083-0.018c0.05-0.01,0.096-0.02,0.14-0.031c0.307-0.069,0.587-0.159,0.812-0.333
	c0.265-0.207,0.456-0.468,0.625-0.904c0.152-0.397,0.252-0.911,0.252-1.541v-2.45v-0.124v-3.858c0,0,0.066-3.096,1.396-5.104
	c0.119-0.156,0.244-0.304,0.371-0.44c0.523-0.568,1.199-0.953,1.917-1.183l0.023-0.007c0.487-0.183,1.02-0.176,1.467-0.176h0.047
	h0.046c0.661,0,1.322,0.105,1.97,0.402c0.429,0.186,0.832,0.419,1.197,0.758c0.699,0.625,1.192,1.434,1.431,2.345
	c0.008,0.024,0.008,0.046,0.013,0.071c0.004,0.015-0.003-0.004,0.001,0.012c0.228,0.768,0.378,1.988,0.378,3.428v3.752v0.124v2.45
	c0,0.63,0.098,1.144,0.251,1.541c0.168,0.436,0.36,0.697,0.624,0.904c0.226,0.175,0.506,0.265,0.812,0.333
	c0.044,0.011,0.091,0.021,0.14,0.031c0.028,0.005,0.055,0.012,0.083,0.018c0.064,0.013,0.138,0.022,0.215,0.03
	c0.956,0.123,2.333,0.073,2.333,0.073v-5.321v-0.184v-3.857C-1109.328-223.433-1110.228-226.012-1111.928-227.87z"/>
<path fill="#1E100D" d="M-756.206-229.348c-1.827-1.996-3.952-3.056-7.375-3.056h-0.415c-3.426,0-5.556,1.061-7.383,3.056
	c-1.826,1.996-2.895,4.783-2.895,8.236v4.136v0.197v5.775h1.612c0.534,0,1.031,0.107,1.478,0.019
	c0.445-0.089,0.847-0.183,1.188-0.45c0.343-0.267,0.493-0.595,0.672-1.057c0.176-0.459,0.176-1.012,0.176-1.723v-2.627v-0.133
	v-4.022c0-1.416,0.288-2.604,0.573-3.567c0.282-0.962,0.759-1.788,1.282-2.354c0.523-0.566,1.189-1.026,1.926-1.25h0.022
	c0.498-0.223,1.029-0.22,1.581-0.22c0.721,0,1.402,0.18,2.017,0.46c0.45,0.196,0.862,0.477,1.223,0.811
	c0.705,0.63,1.226,1.468,1.472,2.413c0.016,0.042,0.028,0.086,0.042,0.129c0.282,0.963,0.564,2.163,0.564,3.578v4.022v0.133v2.627
	c0,0.711,0.006,1.275,0.185,1.735s0.337,0.8,0.679,1.068c0.342,0.267,0.743,0.338,1.189,0.427c0.443,0.089,0.943-0.019,1.477-0.019
	h1.597v-5.775v-0.197v-4.136C-753.319-224.564-754.382-227.352-756.206-229.348z"/>
<path fill="#1E100D" d="M-806.447-3.929c0.92,0.979,1.641,2.113,2.159,3.403c0.519,1.291,0.78,2.692,0.78,4.206
	c0,1.483-0.239,2.87-0.713,4.16c-0.475,1.291-1.143,2.425-2.003,3.404s-1.913,1.751-3.159,2.313
	c-1.246,0.563-2.625,0.847-4.139,0.847c-1.396,0-2.692-0.283-3.895-0.847c-1.202-0.563-2.262-1.334-3.182-2.313
	s-1.638-2.113-2.156-3.404c-0.521-1.29-0.78-2.677-0.78-4.16c0-1.514,0.236-2.915,0.713-4.206c0.474-1.29,1.14-2.425,2.003-3.403
	c0.857-0.95,1.912-1.714,3.159-2.292c1.246-0.578,2.625-0.868,4.138-0.868c1.395,0,2.698,0.29,3.916,0.868
	C-808.391-5.643-807.336-4.879-806.447-3.929z M-814.102,10.533c0.386,0.03,0.848-0.021,1.381-0.156
	c0.534-0.133,1.061-0.43,1.581-0.889c0.519-0.461,0.977-1.128,1.379-2.004c0.398-0.874,0.673-2.023,0.823-3.448
	c0.117-1.423,0.05-2.603-0.202-3.538c-0.251-0.934-0.593-1.668-1.023-2.202c-0.43-0.534-0.896-0.912-1.401-1.135
	c-0.503-0.223-0.948-0.348-1.335-0.379c-0.386-0.028-0.853,0.023-1.401,0.156c-0.55,0.135-1.076,0.423-1.578,0.867
	c-0.506,0.446-0.967,1.106-1.382,1.98c-0.414,0.876-0.682,2.026-0.801,3.449c-0.147,1.425-0.096,2.604,0.156,3.538
	c0.251,0.935,0.593,1.675,1.023,2.225c0.43,0.55,0.904,0.935,1.425,1.157C-814.938,10.377-814.485,10.504-814.102,10.533z"/>
<path fill="#1E100D" d="M-826.029-12.981c-0.177-0.459-0.27-0.823-0.609-1.09c-0.342-0.267-0.705-0.444-1.147-0.534
	c0,0-2.954-0.573-3.227,2.628l0.625,17.832c0,0.772-0.36,1.871-0.643,2.419c-0.283,0.55-0.763,0.985-1.444,1.342
	c-0.681,0.354-1.585,0.492-2.713,0.655c-1.127,0.163-2.76,0.089-4.449,0.089h-1.316h-0.052c-0.218,0-1.016,0.196-1.042,1.217
	c0,0.226,0.039,0.403,0.094,0.586c0.147,0.416,0.433,0.904,0.863,1.289c0.43,0.386,1.114,0.649,2.063,0.769
	c1.572,0.178,3.146,0.204,4.75,0.071c1.602-0.134,3.021-0.479,4.312-1.042c1.291-0.563,2.164-1.379,2.98-2.446
	c0.816-1.068,0.992-2.431,0.992-4.093v-17.934C-825.993-11.935-825.851-12.521-826.029-12.981z"/>
<path fill="#1E100D" d="M-782.581-1.501c-0.608-1.408-1.274-2.551-2.238-3.427c-0.964-0.873-2.009-1.496-3.195-1.868
	c-1.187-0.371-2.345-0.511-3.504-0.423c-0.771,0.06-1.445,0.216-2.023,0.468c-0.578,0.253-1.213,0.496-1.627,0.735
	c-0.475,0.326-0.951,0.651-1.397,0.978v-6.186c0-0.711,0.065-1.297-0.111-1.758c0,0-0.616-1.459-2.078-1.542
	c-1.464-0.083-2.454,1.071-2.711,2.047c-0.256,0.975-0.129,3.389-0.129,3.389l0.64,19.934c0,0.713,0.13,1.298,0.306,1.757
	c0.179,0.46,0.478,0.819,0.816,1.086c0.342,0.267,0.736,0.347,1.182,0.436c0.446,0.089,0.713,0.025,1.247,0.025h0.199
	c0.735,0,0.64-0.376,0.64-0.941v-0.214v-9.71c0-1.276,0.304-2.344,0.599-3.204c0.298-0.86,0.775-1.543,1.249-2.047
	c0.475-0.504,1.05-0.86,1.656-1.069c0.608-0.207,1.254-0.295,1.907-0.267c0.624,0.031,1.21,0.156,1.744,0.378
	c0.533,0.223,1.008,0.602,1.407,1.135c0.401,0.534,0.588,1.255,0.811,2.159c0.223,0.905,0.213,2.039,0.213,3.403v7.077
	c0,0.711,0.212,1.294,0.391,1.753c0.177,0.46,0.498,0.819,0.837,1.086c0.343,0.267,0.768,0.347,1.213,0.436
	c0.443,0.089,0.967,0.025,1.501,0.025h1.187V3.551C-781.853,1.592-781.975-0.091-782.581-1.501z"/>
<path fill="#1E100D" d="M-761.558-4.238c-1.824-1.997-3.949-3.013-7.375-3.013h-0.411c-3.426,0-5.559,1.016-7.386,3.013
	c-1.824,1.995-2.895,4.738-2.895,8.191v4.136v0.196v5.864h1.612c0.533,0,1.033,0.063,1.479-0.025
	c0.442-0.089,0.847-0.205,1.187-0.472c0.342-0.268,0.492-0.608,0.671-1.068s0.179-1.023,0.179-1.734V8.222V8.089V4.065
	c0-1.415,0.288-2.603,0.57-3.567c0.282-0.961,0.76-1.742,1.285-2.309c0.523-0.566,1.188-0.982,1.926-1.205h0.023
	c0.494-0.171,1.025-0.264,1.58-0.264c0.718,0,1.402,0.156,2.017,0.438c0.448,0.195,0.862,0.465,1.223,0.8
	c0.705,0.631,1.226,1.463,1.472,2.405c0.014,0.043,0.029,0.085,0.042,0.127c0.282,0.963,0.563,2.16,0.563,3.575v4.023v0.133v2.628
	c0,0.711,0.008,1.274,0.187,1.734c0.176,0.46,0.337,0.801,0.676,1.068c0.343,0.267,0.744,0.383,1.189,0.472
	c0.446,0.089,0.943,0.025,1.479,0.025h1.597V8.285V8.089V3.953C-758.668,0.5-759.73-2.243-761.558-4.238z"/>
<path fill="#1E100D" d="M-1139.271-7.985c0.92,0.979,1.639,2.113,2.158,3.403c0.519,1.291,0.779,2.692,0.779,4.205
	c0,1.484-0.238,2.871-0.711,4.161c-0.476,1.291-1.144,2.426-2.004,3.405c-0.86,0.979-1.913,1.749-3.158,2.313
	c-1.247,0.563-2.627,0.846-4.139,0.846c-1.396,0-2.693-0.282-3.895-0.846c-1.202-0.563-2.263-1.334-3.182-2.313
	c-0.92-0.979-1.64-2.114-2.158-3.405c-0.52-1.29-0.779-2.677-0.779-4.161c0-1.513,0.237-2.914,0.712-4.205
	c0.475-1.29,1.143-2.424,2.003-3.403c0.86-0.948,1.913-1.713,3.159-2.292c1.247-0.579,2.626-0.868,4.14-0.868
	c1.394,0,2.698,0.289,3.916,0.868C-1141.215-9.698-1140.161-8.934-1139.271-7.985z M-1146.926,6.477
	c0.386,0.03,0.846-0.021,1.381-0.155c0.533-0.134,1.06-0.431,1.579-0.891c0.519-0.46,0.979-1.127,1.38-2.003
	c0.399-0.874,0.674-2.024,0.823-3.447c0.118-1.426,0.051-2.604-0.201-3.539c-0.251-0.934-0.593-1.668-1.023-2.202
	s-0.897-0.912-1.401-1.135c-0.504-0.224-0.949-0.349-1.335-0.377c-0.386-0.031-0.854,0.021-1.401,0.153
	c-0.549,0.134-1.076,0.424-1.58,0.868c-0.505,0.446-0.965,1.105-1.379,1.981c-0.416,0.875-0.683,2.023-0.801,3.449
	c-0.149,1.423-0.097,2.602,0.156,3.537c0.251,0.934,0.593,1.677,1.023,2.225c0.43,0.549,0.905,0.934,1.424,1.157
	C-1147.764,6.321-1147.311,6.447-1146.926,6.477z"/>
<path fill="#1E100D" d="M-1113.558,25.624c0.92,0.979,1.638,2.114,2.158,3.405c0.519,1.289,0.777,2.69,0.777,4.204
	c0,1.483-0.238,2.87-0.71,4.16c-0.477,1.291-1.143,2.426-2.003,3.405c-0.861,0.979-1.913,1.75-3.16,2.314
	c-1.245,0.562-2.626,0.845-4.138,0.845c-1.396,0-2.692-0.283-3.894-0.845c-1.203-0.564-2.263-1.336-3.183-2.314
	c-0.92-0.979-1.641-2.114-2.158-3.405c-0.519-1.29-0.777-2.677-0.777-4.16c0-1.514,0.235-2.915,0.71-4.204
	c0.474-1.291,1.143-2.426,2.003-3.405c0.86-0.948,1.914-1.713,3.16-2.292c1.245-0.578,2.625-0.867,4.139-0.867
	c1.394,0,2.698,0.289,3.916,0.867C-1115.501,23.911-1114.447,24.676-1113.558,25.624z M-1121.213,40.086
	c0.387,0.03,0.847-0.021,1.381-0.155s1.061-0.43,1.579-0.89s0.979-1.126,1.38-2.002s0.675-2.025,0.822-3.449
	c0.119-1.426,0.052-2.604-0.199-3.539c-0.253-0.934-0.594-1.667-1.023-2.202c-0.431-0.534-0.896-0.912-1.402-1.134
	c-0.505-0.223-0.948-0.35-1.334-0.378c-0.387-0.03-0.853,0.021-1.402,0.155c-0.549,0.134-1.075,0.422-1.58,0.868
	c-0.505,0.444-0.965,1.105-1.379,1.979c-0.416,0.876-0.683,2.023-0.801,3.449c-0.149,1.423-0.098,2.602,0.155,3.537
	c0.252,0.935,0.594,1.677,1.023,2.225c0.431,0.55,0.904,0.935,1.424,1.157S-1121.599,40.058-1121.213,40.086z"/>
<path fill="#1E100D" d="M-1107.96,16.414c0.77-1.422,2.599-1.233,2.599-1.233c0.445,0.089,0.832,0.268,1.158,0.534
	s0.625,0.631,0.804,1.091c0.176,0.46,0.313,1.044,0.313,1.757v6.186c0.223-0.326,0.738-0.653,1.244-0.979
	c0.414-0.235,0.889-0.481,1.466-0.733c0.581-0.251,1.229-0.406,1.97-0.467c1.156-0.09,2.33,0.053,3.532,0.423
	s2.272,0.994,3.224,1.868c0.948,0.876,1.726,2.018,2.335,3.426c0.606,1.41,0.909,3.094,0.909,5.051c0,1.959-0.287,3.62-0.865,4.984
	c-0.581,1.364-1.338,2.47-2.271,3.315c-0.936,0.845-2.003,1.462-3.205,1.847c-1.2,0.385-2.426,0.579-3.672,0.579
	c-1.244,0-2.47-0.194-3.67-0.579c-1.202-0.385-2.27-1.002-3.205-1.847c-0.933-0.846-1.692-1.951-2.272-3.315
	c-0.578-1.364-0.871-3.025-0.871-4.984V19.182C-1108.438,19.182-1108.432,17.288-1107.96,16.414z M-1093.835,33.559
	c0.06-1.246-0.016-2.307-0.223-3.182c-0.208-0.874-0.511-1.594-0.912-2.158c-0.399-0.563-0.874-0.985-1.423-1.268
	c-0.55-0.281-1.106-0.438-1.669-0.467c-0.564-0.03-1.127,0.066-1.692,0.289c-0.563,0.222-1.075,0.593-1.534,1.111
	c-0.461,0.52-0.845,1.201-1.158,2.047c-0.311,0.847-0.495,1.893-0.555,3.137c-0.06,1.247,0.021,2.314,0.244,3.205
	c0.223,0.89,0.533,1.618,0.936,2.181c0.398,0.564,0.868,0.979,1.401,1.246c0.534,0.267,1.084,0.416,1.646,0.445
	c0.563,0.028,1.128-0.06,1.692-0.267c0.563-0.207,1.073-0.571,1.534-1.091c0.459-0.519,0.845-1.209,1.158-2.069
	C-1094.078,35.858-1093.895,34.805-1093.835,33.559z"/>
<path fill="#1E100D" d="M-1142.621,47.811h0.054C-1142.567,47.811-1142.588,47.811-1142.621,47.811z"/>
<path fill="#1E100D" d="M-1158.854-17.038c-0.177-0.46-0.271-0.823-0.611-1.09c-0.341-0.267-0.703-0.444-1.148-0.534
	c0,0-2.953-0.572-3.226,2.628l0.625,17.834c0,0.771-0.36,1.868-0.642,2.417c-0.283,0.55-0.762,0.985-1.444,1.34
	c-0.683,0.357-1.586,0.516-2.713,0.679c-1.128,0.164-2.759,0.111-4.45,0.111h-1.315h-0.053c-0.216,0-1.016,0.174-1.041,1.195
	c0,0.226,0.039,0.393,0.092,0.575c0.148,0.416,0.433,0.897,0.864,1.282c0.429,0.387,1.113,0.646,2.063,0.765
	c1.572,0.179,3.146,0.205,4.749,0.071s3.022-0.479,4.313-1.043c1.291-0.563,2.165-1.379,2.981-2.446
	c0.815-1.067,0.993-2.431,0.993-4.093V-15.28C-1158.817-15.992-1158.674-16.578-1158.854-17.038z"/>
<path fill="#1E100D" d="M-1099.966,49.285V49.5C-1099.966,49.371-1099.966,49.285-1099.966,49.285z"/>
<path fill="#1E100D" d="M-1115.405-5.558c-0.609-1.408-1.274-2.551-2.239-3.426c-0.964-0.876-2.008-1.497-3.194-1.869
	c-1.188-0.371-2.346-0.512-3.504-0.423c-0.772,0.06-1.446,0.215-2.023,0.468c-0.578,0.252-1.213,0.498-1.628,0.733
	c-0.476,0.326-0.951,0.653-1.396,0.979v-6.186c0-0.712,0.064-1.298-0.112-1.758c0,0-0.616-1.459-2.079-1.543
	c-1.462-0.083-2.452,1.072-2.709,2.047c-0.256,0.976-0.129,3.39-0.129,3.39l0.64,19.935c0,0.712,0.128,1.296,0.306,1.756
	c0.179,0.46,0.476,0.818,0.816,1.086c0.342,0.268,0.736,0.369,1.182,0.457c0.444,0.088,0.713,0.048,1.246,0.048h0.2
	c0.735,0,0.64-0.42,0.64-0.985V8.936v-9.709c0-1.275,0.303-2.343,0.599-3.203c0.298-0.86,0.774-1.543,1.249-2.047
	c0.475-0.506,1.048-0.86,1.656-1.068c0.608-0.207,1.254-0.298,1.907-0.268c0.624,0.029,1.21,0.156,1.743,0.379
	c0.534,0.222,1.007,0.601,1.407,1.134c0.401,0.534,0.589,1.253,0.812,2.159c0.223,0.905,0.212,2.039,0.212,3.403v7.077
	c0,0.711,0.213,1.293,0.391,1.753c0.177,0.46,0.497,0.818,0.838,1.086c0.342,0.268,0.768,0.369,1.213,0.457
	c0.443,0.088,0.965,0.048,1.499,0.048h1.187V-0.507C-1114.679-2.465-1114.799-4.147-1115.405-5.558z"/>
<path fill="#1E100D" d="M-1153.673,40.703c0.098,0.104,0.194,0.208,0.289,0.311C-1153.47,40.913-1153.564,40.811-1153.673,40.703z"
	/>
<polygon fill="#1E100D" points="-1153.673,40.703 -1153.674,40.7 -1153.674,40.7 "/>
<g>
	<polygon fill="#1E100D" points="-1171.884,43.913 -1171.874,43.913 -1171.884,43.912 	"/>
	<path fill="#1E100D" d="M-1156.951,41.683c-0.094-0.102-0.19-0.207-0.289-0.312c0-0.001,0-0.001-0.001-0.002
		c-0.059-0.063-0.116-0.125-0.176-0.189c-0.531-0.575-1.077-1.165-1.636-1.769c-0.56-0.605-1.113-1.209-1.659-1.813
		c-0.546-0.604-1.123-1.152-1.614-1.748c-1.138-1.38-2.433-3.293-3.671-4.649l8.141-7.289c1.744-1.563,0.066-2.039-0.225-2.109
		c-0.145-0.026-0.292-0.049-0.442-0.064c-0.707-0.06-1.547,0.044-2.52,0.308c-0.973,0.266-2.035,0.915-3.185,1.946
		c-0.236,0.208-0.591,0.518-1.061,0.931c-0.473,0.412-1.003,0.868-1.593,1.369c-0.59,0.502-1.323,1.018-1.941,1.549
		c-0.619,0.531-1.364,1.017-1.81,1.459V18.508c0-0.707,0.041-1.29-0.136-1.746c-0.177-0.457-0.372-0.819-0.71-1.085
		c-0.339-0.266-0.697-0.441-1.139-0.529c-0.165-0.034-0.32-0.059-0.497-0.079c-0.195,0.002-2.037,0.092-2.418,2.52l0.604,22.859
		c0,0.709,0.089,1.291,0.267,1.748c0.177,0.456,0.383,0.817,0.723,1.083c0.143,0.111,0.186,0.205,0.409,0.285v0.004
		c0,0.008,0.086,0.015,0.104,0.022c0.027,0.013,0.082,0.025,0.11,0.037c0.053,0.022,0.12,0.043,0.177,0.062
		c0.08,0.028,0.169,0.053,0.253,0.075c0.045,0.012,0.092,0.024,0.139,0.034c0.01,0.002,0.021,0.006,0.032,0.008
		c0.014,0.003,0.031,0.006,0.045,0.008c0.332,0.071,0.688,0.023,1.024,0.048c0.125,0.014,0.246-0.063,0.392-0.063h0.13
		c0.481,0,0.492,0.182,0.492,0.182v-1.771v-0.474v-0.207v-7.933c0.446,0.502,0.999,1.033,1.5,1.591
		c0.501,0.562,1.052,1.122,1.523,1.683c0.472,0.56,0.955,1.083,1.382,1.57c0.427,0.485,0.79,0.905,1.055,1.259
		c0.443,0.562,0.907,1.106,1.379,1.638c0.471,0.53,0.969,1.011,1.485,1.438s1.048,0.766,1.594,1.017
		c0.545,0.25,1.114,0.376,1.704,0.376c0.717,0,1.293-0.078,1.73-0.229C-1156.774,43.75-1155.692,43.15-1156.951,41.683z"/>
</g>
<g>
	<g>
		<g>
			<g>
				<path fill="#1E100D" d="M-1191.103,7.54c0.172,0,0.346-0.016,0.521-0.048c1.538-0.286,1.542-1.765,1.255-3.303
					c-1.295-6.973-3.633-13.324-8.673-18.365c-5.04-5.042-12.938-8.196-18.362-9.086c-2.917-0.478-4.63,0.736-5.529,2.47
					c-1.646,3.175,1.204,8,4.492,7.35c11.892-2.354,21.917,6.807,24.121,18.667C-1193.024,6.588-1192.44,7.54-1191.103,7.54z"/>
			</g>
		</g>
		<g>
			<g>
				<path fill="#1E100D" d="M-1256.868,7.54c-0.172,0-0.346-0.016-0.521-0.048c-1.539-0.286-1.542-1.765-1.256-3.303
					c1.296-6.973,3.633-13.324,8.673-18.365c5.04-5.042,12.938-8.196,18.362-9.086c2.917-0.478,4.63,0.736,5.529,2.47
					c1.646,3.175-1.204,8-4.492,7.35c-11.892-2.354-21.916,6.807-24.121,18.667C-1254.947,6.588-1255.53,7.54-1256.868,7.54z"/>
			</g>
		</g>
	</g>
	<path fill="#1E100D" d="M-1191.034,12.8c-1.556-0.288-2.244,0.726-2.534,2.264c-1.917,10.128-9.22,18.253-18.804,22.139
		c-3.839,1.373-7.679-1.112-8.324-4.888c-0.579-2.169,0.188-7.439,0.188-7.439c0.414-2.316-0.834-4.543-3.332-4.576
		c-0.066,0-0.133,0.004-0.2,0.011c0-0.007-0.135-0.011-0.201-0.011c-2.498,0.033-3.747,2.26-3.333,4.576
		c0,0,0.767,5.271,0.188,7.439c-0.644,3.775-4.484,6.261-8.323,4.888c-9.584-3.886-16.887-12.011-18.805-22.139
		c-0.291-1.538-0.978-2.552-2.534-2.264c-1.555,0.289-1.771,1.841-1.479,3.379c3.139,16.576,17.397,32.523,34.482,32.523
		c0.002,0,0.006,0,0.006,0s0,0,0.003,0c17.084,0,31.343-15.947,34.483-32.523C-1189.263,14.641-1189.479,13.089-1191.034,12.8z"/>
</g>
<path fill="#1E100D" d="M-856.415-229.13c0.92,0.979,1.64,2.114,2.158,3.404c0.521,1.291,0.78,2.692,0.78,4.205
	c0,1.483-0.238,2.87-0.713,4.16c-0.475,1.292-1.143,2.426-2.003,3.405c-0.86,0.978-1.912,1.75-3.159,2.314
	c-1.246,0.563-2.625,0.845-4.138,0.845c-1.395,0-2.692-0.282-3.893-0.845c-1.202-0.563-2.265-1.336-3.183-2.314
	c-0.92-0.979-1.64-2.114-2.158-3.405c-0.521-1.29-0.78-2.677-0.78-4.16c0-1.513,0.239-2.915,0.713-4.205
	c0.475-1.291,1.143-2.425,2.003-3.404c0.86-0.948,1.913-1.713,3.159-2.292s2.625-0.867,4.139-0.867c1.394,0,2.7,0.289,3.915,0.867
	C-858.356-230.843-857.304-230.079-856.415-229.13z M-864.067-214.667c0.386,0.03,0.845-0.023,1.379-0.156
	c0.533-0.133,1.06-0.43,1.58-0.89c0.519-0.46,0.979-1.126,1.379-2.002c0.401-0.875,0.674-2.024,0.824-3.448
	c0.116-1.424,0.052-2.603-0.2-3.538c-0.254-0.935-0.596-1.668-1.023-2.203c-0.43-0.534-0.899-0.913-1.401-1.135
	c-0.506-0.222-0.951-0.348-1.335-0.378c-0.386-0.03-0.855,0.022-1.401,0.156c-0.55,0.133-1.076,0.422-1.581,0.867
	c-0.506,0.446-0.964,1.106-1.379,1.98c-0.417,0.875-0.684,2.025-0.801,3.449c-0.15,1.424-0.099,2.603,0.156,3.538
	c0.251,0.934,0.593,1.676,1.023,2.225c0.43,0.55,0.904,0.935,1.422,1.157C-864.907-214.824-864.453-214.697-864.067-214.667z"/>
<path fill="#1E100D" d="M-734.397-229.182c0.92,0.979,1.638,2.114,2.158,3.405c0.519,1.291,0.777,2.692,0.777,4.205
	c0,1.484-0.235,2.871-0.71,4.161c-0.477,1.291-1.143,2.425-2.003,3.404c-0.86,0.979-1.915,1.75-3.159,2.314
	c-1.246,0.563-2.627,0.845-4.138,0.845c-1.397,0-2.692-0.282-3.896-0.845c-1.202-0.563-2.262-1.335-3.182-2.314
	c-0.92-0.979-1.641-2.114-2.158-3.404c-0.519-1.291-0.777-2.677-0.777-4.161c0-1.513,0.235-2.914,0.71-4.205
	c0.474-1.291,1.143-2.425,2.003-3.405c0.86-0.949,1.915-1.713,3.161-2.292c1.244-0.579,2.625-0.867,4.139-0.867
	c1.394,0,2.697,0.289,3.915,0.867C-736.341-230.895-735.286-230.131-734.397-229.182z M-742.053-214.719
	c0.387,0.03,0.848-0.023,1.382-0.156c0.533-0.133,1.06-0.43,1.578-0.89c0.518-0.46,0.979-1.127,1.381-2.002
	c0.399-0.875,0.674-2.025,0.821-3.449c0.119-1.424,0.052-2.603-0.199-3.538c-0.252-0.934-0.594-1.668-1.023-2.203
	c-0.431-0.534-0.896-0.912-1.402-1.134c-0.505-0.223-0.948-0.349-1.334-0.378c-0.387-0.03-0.854,0.022-1.402,0.156
	c-0.549,0.133-1.075,0.422-1.581,0.868c-0.502,0.445-0.964,1.105-1.378,1.98c-0.415,0.876-0.682,2.025-0.801,3.449
	c-0.148,1.424-0.096,2.603,0.155,3.538c0.251,0.934,0.594,1.676,1.023,2.225c0.431,0.549,0.904,0.934,1.425,1.157
	C-742.89-214.875-742.438-214.749-742.053-214.719z"/>
<path fill="#1E100D" d="M-728.785-238.391c0.77-1.423,2.592-1.234,2.592-1.234c0.445,0.09,0.826,0.267,1.153,0.535
	c0.326,0.267,0.528,0.63,0.707,1.09s0.218,1.045,0.218,1.757v6.186c0.445-0.326,0.834-0.652,1.337-0.979
	c0.417-0.237,0.938-0.482,1.517-0.735c0.577-0.251,1.251-0.407,1.992-0.467c1.156-0.088,2.343,0.053,3.542,0.423
	c1.203,0.371,2.28,0.994,3.231,1.868c0.949,0.876,1.729,2.018,2.338,3.427c0.606,1.409,0.912,3.093,0.912,5.05
	c0,1.958-0.288,3.62-0.868,4.984c-0.578,1.365-1.335,2.47-2.268,3.315c-0.936,0.846-2.003,1.461-3.205,1.847
	c-1.2,0.385-2.426,0.578-3.67,0.578c-1.246,0-2.47-0.193-3.672-0.578s-2.27-1.001-3.205-1.847c-0.933-0.846-1.677-1.951-2.255-3.315
	c-0.577-1.364-0.854-3.026-0.854-4.984v-14.154C-729.243-235.623-729.257-237.518-728.785-238.391z M-714.675-221.247
	c0.06-1.246-0.016-2.306-0.224-3.181c-0.207-0.875-0.51-1.595-0.912-2.159c-0.398-0.563-0.873-0.986-1.422-1.268
	c-0.55-0.282-1.106-0.437-1.669-0.467c-0.565-0.029-1.128,0.066-1.692,0.289c-0.563,0.223-1.075,0.594-1.534,1.112
	c-0.461,0.521-0.845,1.202-1.155,2.047c-0.313,0.845-0.498,1.891-0.558,3.138c-0.06,1.246,0.021,2.314,0.244,3.203
	c0.223,0.891,0.533,1.618,0.936,2.182c0.398,0.563,0.868,0.978,1.401,1.245c0.534,0.267,1.083,0.416,1.646,0.445
	c0.565,0.03,1.127-0.06,1.692-0.268c0.563-0.207,1.075-0.57,1.534-1.09c0.461-0.519,0.845-1.208,1.158-2.069
	C-714.919-218.947-714.734-220-714.675-221.247z"/>
<path fill="#1E100D" d="M-762.791-206.991h0.052C-762.739-206.991-762.757-206.991-762.791-206.991z"/>
<path fill="#1E100D" d="M-875.868-238.182c-0.177-0.46-0.335-0.824-0.677-1.091c-0.339-0.267-0.733-0.444-1.179-0.534
	c0,0-2.97-0.573-3.242,2.627l0.617,17.833c0,0.771-0.363,1.87-0.646,2.418c-0.282,0.549-0.765,0.985-1.446,1.341
	c-0.681,0.356-1.585,0.518-2.713,0.68c-1.13,0.164-2.76,0.114-4.452,0.114h-1.313h-0.055c-0.215,0-1.016,0.171-1.039,1.191
	c0,0.226,0.036,0.392,0.091,0.575c0.147,0.416,0.433,0.897,0.865,1.282c0.428,0.386,1.112,0.646,2.061,0.765
	c1.573,0.178,3.148,0.205,4.75,0.071s3.021-0.479,4.312-1.043c1.291-0.563,2.294-1.379,3.11-2.446
	c0.815-1.068,1.119-2.432,1.119-4.093v-17.933C-875.705-237.136-875.689-237.722-875.868-238.182z"/>
<path fill="#1E100D" d="M-721.441-205.52v0.214C-721.441-205.434-721.441-205.52-721.441-205.52z"/>
<path fill="#1E100D" d="M-832.42-226.702c-0.608-1.408-1.34-2.55-2.304-3.426c-0.964-0.875-2.042-1.497-3.226-1.869
	c-1.188-0.37-2.363-0.511-3.52-0.422c-0.772,0.06-1.453,0.216-2.031,0.467c-0.581,0.252-1.091,0.498-1.506,0.734
	c-0.474,0.327-0.826,0.652-1.272,0.979v-6.186c0-0.712-0.062-1.298-0.241-1.758c0,0-0.679-1.459-2.14-1.543
	c-1.465-0.083-2.485,1.072-2.742,2.047c-0.259,0.976-0.145,3.388-0.145,3.388l0.629,19.935c0,0.712,0.125,1.297,0.304,1.756
	c0.179,0.46,0.475,0.819,0.816,1.086c0.339,0.267,0.733,0.37,1.179,0.459c0.443,0.089,0.71,0.05,1.244,0.05h0.199
	c0.738,0,0.896-0.424,0.896-0.991v-0.214v-9.709c0-1.275,0.177-2.344,0.472-3.204c0.298-0.86,0.71-1.542,1.185-2.047
	c0.474-0.504,1.016-0.859,1.625-1.067c0.608-0.208,1.238-0.297,1.892-0.267c0.621,0.03,1.202,0.156,1.736,0.378
	c0.533,0.222,1,0.6,1.401,1.134c0.401,0.534,0.715,1.253,0.938,2.158c0.22,0.905,0.337,2.04,0.337,3.404v7.076
	c0,0.712,0.085,1.294,0.262,1.753c0.179,0.46,0.435,0.819,0.774,1.086c0.342,0.267,0.736,0.37,1.179,0.459
	c0.446,0.089,0.936,0.05,1.47,0.05h1.443v-10.647C-831.564-223.608-831.813-225.292-832.42-226.702z"/>
<path fill="#1E100D" d="M-773.62-214.104c0.096,0.105,0.194,0.209,0.288,0.311C-773.418-213.892-773.511-213.995-773.62-214.104z"/>
<polygon fill="#1E100D" points="-773.62,-214.104 -773.622,-214.105 -773.622,-214.105 "/>
<g>
	<polygon fill="#1E100D" points="-791.832,-210.893 -791.821,-210.893 -791.832,-210.894 	"/>
	<path fill="#1E100D" d="M-776.898-213.124c-0.096-0.102-0.191-0.206-0.29-0.311c0-0.001,0-0.001,0-0.002
		c-0.06-0.063-0.116-0.125-0.176-0.189c-0.531-0.575-1.075-1.165-1.636-1.769c-0.562-0.604-1.113-1.209-1.66-1.814
		c-0.545-0.604-1.122-1.151-1.612-1.747c-1.14-1.38-2.434-3.293-3.672-4.649l8.14-7.29c1.746-1.563,0.067-2.04-0.223-2.108
		c-0.146-0.027-0.293-0.051-0.443-0.066c-0.708-0.06-1.547,0.044-2.519,0.31c-0.975,0.265-2.037,0.914-3.186,1.946
		c-0.238,0.206-0.591,0.516-1.062,0.928c-0.472,0.414-1.003,0.87-1.592,1.372c-0.591,0.501-1.194,1.017-1.813,1.548
		c-0.619,0.53-1.236,1.017-1.682,1.459v-10.792c0-0.708-0.089-1.29-0.265-1.747c-0.179-0.458-0.436-0.819-0.774-1.084
		c-0.34-0.266-0.729-0.442-1.172-0.531c-0.166-0.034-0.337-0.058-0.513-0.078c-0.194,0.002-2.045,0.093-2.426,2.52l0.602,22.86
		c0,0.708,0.088,1.291,0.264,1.747c0.177,0.458,0.434,0.818,0.775,1.084c0.143,0.112,0.298,0.205,0.458,0.284v0.004
		c0.016,0.008,0.037,0.015,0.052,0.023c0.029,0.013,0.055,0.025,0.083,0.037c0.052,0.022,0.106,0.043,0.164,0.063
		c0.08,0.028,0.163,0.052,0.248,0.074c0.044,0.012,0.089,0.024,0.135,0.035c0.011,0.002,0.021,0.006,0.031,0.008
		c0.013,0.003,0.031,0.005,0.044,0.008c0.332,0.07,0.687,0.025,1.023,0.05c0.125,0.013,0.246-0.062,0.392-0.062h0.13
		c0.481,0,0.749,0.177,0.749,0.177v-1.77v-0.475v-0.207v-7.933c0.445,0.502,0.87,1.033,1.37,1.592
		c0.503,0.561,0.987,1.121,1.459,1.681c0.472,0.561,0.923,1.084,1.351,1.57c0.428,0.486,0.774,0.906,1.039,1.26
		c0.443,0.56,0.899,1.105,1.37,1.636c0.472,0.531,0.967,1.011,1.482,1.438c0.516,0.428,1.047,0.767,1.592,1.017
		c0.547,0.251,1.114,0.376,1.705,0.376c0.715,0,1.293-0.077,1.729-0.229C-776.722-211.056-775.642-211.655-776.898-213.124z"/>
</g>
<path fill="#1E100D" d="M-809.826,52.047h0.052C-809.774,52.047-809.795,52.047-809.826,52.047z"/>
<path fill="#1E100D" d="M-768.479,53.296v0.213C-768.479,53.382-768.479,53.296-768.479,53.296z"/>
<path fill="#1E100D" d="M-820.881,44.712c0.099,0.106,0.194,0.21,0.291,0.312C-820.676,44.924-820.771,44.82-820.881,44.712z"/>
<polygon fill="#1E100D" points="-820.881,44.712 -820.881,44.71 -820.881,44.71 "/>
<g>
	<path fill="#1E100D" d="M-839.093,47.924c0.006,0,0.008-0.002,0.014-0.002c-0.006,0-0.008,0-0.011,0L-839.093,47.924z"/>
	<path fill="#1E100D" d="M-824.158,45.692c-0.094-0.103-0.189-0.206-0.288-0.313l0,0c-0.06-0.063-0.116-0.125-0.176-0.19
		c-0.531-0.575-1.078-1.164-1.638-1.769c-0.561-0.604-1.112-1.209-1.659-1.813c-0.544-0.604-1.122-1.152-1.614-1.747
		c-1.138-1.381-2.431-3.293-3.669-4.648l8.14-7.289c1.743-1.563,0.067-2.042-0.226-2.109c-0.146-0.027-0.29-0.051-0.44-0.067
		c-0.708-0.059-1.547,0.044-2.521,0.311c-0.972,0.265-2.034,0.913-3.185,1.946c-0.236,0.206-0.591,0.516-1.061,0.928
		c-0.472,0.413-1.003,0.87-1.594,1.371c-0.588,0.502-1.194,1.018-1.813,1.549c-0.619,0.53-1.236,1.017-1.682,1.459V22.519
		c0-0.709-0.088-1.289-0.265-1.748c-0.176-0.456-0.436-0.817-0.772-1.083c-0.339-0.265-0.73-0.442-1.174-0.531
		c-0.163-0.032-0.334-0.058-0.51-0.078c-0.194,0.003-2.045,0.094-2.426,2.521l0.599,22.859c0,0.707,0.088,1.29,0.267,1.746
		c0.177,0.459,0.433,0.819,0.772,1.085c0.146,0.112,0.301,0.204,0.461,0.285v0.004c0.016,0.008,0.034,0.014,0.052,0.021
		c0.026,0.013,0.055,0.024,0.083,0.038c0.052,0.021,0.106,0.041,0.163,0.062c0.081,0.028,0.164,0.052,0.246,0.074
		c0.047,0.012,0.091,0.024,0.138,0.035c0.011,0.002,0.021,0.005,0.031,0.008c0.013,0.002,0.028,0.005,0.044,0.008
		c0.332,0.069,0.687,0.136,1.023,0.16c0.125,0.013,0.246,0.05,0.392,0.05h0.13c0.481,0,0.746-0.045,0.746-0.045v-1.77v-0.476v-0.206
		v-7.933c0.445,0.501,0.87,1.032,1.373,1.592c0.5,0.56,0.987,1.121,1.459,1.681s0.923,1.084,1.351,1.569
		c0.427,0.486,0.771,0.906,1.039,1.261c0.442,0.561,0.898,1.104,1.37,1.636s0.967,1.011,1.482,1.438s1.047,0.767,1.591,1.017
		c0.547,0.25,1.114,0.376,1.703,0.376c0.718,0,1.293-0.076,1.73-0.229C-823.979,47.761-822.899,47.16-824.158,45.692z"/>
</g>
<path fill="#1E100D" d="M-1142.566,47.811h0.054C-1142.513,47.811-1142.534,47.811-1142.566,47.811z"/>
<path fill="#1E100D" d="M-1101.304,49.109v0.214C-1101.304,49.194-1101.304,49.109-1101.304,49.109z"/>
<path fill="#1E100D" d="M-1153.618,40.525c0.097,0.104,0.194,0.21,0.288,0.313C-1153.416,40.736-1153.51,40.633-1153.618,40.525z"/>
<polygon fill="#1E100D" points="-1153.618,40.525 -1153.62,40.524 -1153.62,40.524 "/>
<path fill="#1E100D" d="M-1524.406,73.999c0.92,0.978,1.639,2.113,2.159,3.403c0.519,1.291,0.779,2.692,0.779,4.205
	c0,1.484-0.239,2.871-0.712,4.161c-0.475,1.29-1.142,2.426-2.003,3.403c-0.86,0.98-1.913,1.751-3.159,2.314
	c-1.247,0.563-2.626,0.846-4.139,0.846c-1.395,0-2.692-0.282-3.894-0.846s-2.263-1.334-3.181-2.314
	c-0.92-0.978-1.64-2.113-2.158-3.403c-0.52-1.29-0.779-2.677-0.779-4.161c0-1.513,0.237-2.914,0.712-4.205
	c0.474-1.29,1.142-2.426,2.003-3.403c0.859-0.95,1.913-1.713,3.159-2.292c1.246-0.579,2.625-0.867,4.139-0.867
	c1.395,0,2.699,0.288,3.916,0.867C-1526.349,72.286-1525.296,73.049-1524.406,73.999z M-1532.061,88.461
	c0.386,0.03,0.846-0.023,1.38-0.155c0.534-0.135,1.061-0.431,1.58-0.891s0.979-1.127,1.38-2.003c0.4-0.874,0.674-2.025,0.823-3.447
	c0.118-1.426,0.051-2.604-0.2-3.539c-0.252-0.934-0.594-1.669-1.024-2.202c-0.43-0.534-0.897-0.912-1.401-1.135
	c-0.505-0.222-0.95-0.349-1.335-0.379c-0.385-0.029-0.853,0.022-1.402,0.157c-0.548,0.132-1.075,0.422-1.579,0.866
	c-0.505,0.444-0.965,1.105-1.379,1.981c-0.416,0.875-0.683,2.023-0.801,3.447c-0.149,1.425-0.097,2.604,0.156,3.539
	c0.251,0.934,0.593,1.677,1.023,2.225c0.43,0.549,0.904,0.934,1.424,1.157C-1532.898,88.306-1532.446,88.432-1532.061,88.461z"/>
<path fill="#1E100D" d="M-1518.809,64.789c0.769-1.423,2.599-1.233,2.599-1.233c0.446,0.088,0.831,0.267,1.158,0.534
	c0.326,0.267,0.625,0.63,0.803,1.09c0.179,0.46,0.315,1.045,0.315,1.758v6.186c0.223-0.326,0.739-0.653,1.243-0.979
	c0.416-0.237,0.89-0.482,1.468-0.733c0.578-0.251,1.226-0.408,1.968-0.468c1.158-0.09,2.331,0.052,3.532,0.423
	c1.202,0.371,2.274,0.993,3.224,1.868c0.949,0.876,1.726,2.019,2.334,3.427c0.608,1.41,0.912,3.093,0.912,5.051
	c0,1.959-0.29,3.62-0.868,4.984s-1.335,2.469-2.27,3.315c-0.935,0.845-2.003,1.461-3.204,1.847
	c-1.202,0.385-2.425,0.579-3.672,0.579c-1.245,0-2.469-0.194-3.67-0.579c-1.202-0.386-2.27-1.002-3.204-1.847
	c-0.934-0.847-1.694-1.951-2.273-3.315c-0.578-1.364-0.871-3.025-0.871-4.984V67.557
	C-1519.285,67.557-1519.281,65.662-1518.809,64.789z M-1504.683,81.934c0.059-1.246-0.015-2.307-0.223-3.183
	c-0.208-0.874-0.512-1.594-0.912-2.158c-0.4-0.563-0.875-0.984-1.424-1.268c-0.549-0.282-1.106-0.438-1.669-0.468
	c-0.563-0.028-1.127,0.066-1.691,0.289c-0.563,0.223-1.075,0.595-1.535,1.113c-0.46,0.52-0.845,1.201-1.157,2.047
	c-0.312,0.847-0.497,1.891-0.556,3.137c-0.061,1.247,0.022,2.314,0.244,3.204c0.223,0.891,0.535,1.617,0.935,2.181
	c0.4,0.564,0.867,0.979,1.402,1.247c0.534,0.267,1.083,0.414,1.646,0.444c0.563,0.029,1.127-0.059,1.691-0.268
	c0.563-0.207,1.075-0.571,1.535-1.089c0.46-0.519,0.846-1.209,1.157-2.071C-1504.927,84.233-1504.743,83.18-1504.683,81.934z"/>
<g>
	<polygon fill="#1E100D" points="-1582.732,92.288 -1582.721,92.287 -1582.732,92.286 	"/>
	<path fill="#1E100D" d="M-1567.799,90.058c-0.094-0.103-0.19-0.208-0.288-0.313c-0.001,0-0.001-0.001-0.001-0.001
		c-0.058-0.063-0.116-0.126-0.176-0.189c-0.53-0.575-1.077-1.165-1.636-1.77s-1.113-1.209-1.658-1.814
		c-0.546-0.604-1.123-1.15-1.615-1.746c-1.138-1.38-2.432-3.293-3.671-4.649l8.141-7.289c1.745-1.563,0.066-2.041-0.224-2.109
		c-0.146-0.026-0.292-0.05-0.442-0.066c-0.708-0.058-1.547,0.044-2.521,0.31c-0.973,0.266-2.034,0.915-3.184,1.946
		c-0.236,0.207-0.591,0.516-1.061,0.929c-0.472,0.414-1.003,0.87-1.593,1.371c-0.59,0.502-1.322,1.018-1.941,1.549
		c-0.62,0.529-1.365,1.016-1.81,1.459V66.883c0-0.709,0.04-1.29-0.136-1.748c-0.177-0.457-0.371-0.818-0.71-1.084
		c-0.339-0.265-0.698-0.441-1.14-0.53c-0.164-0.032-0.319-0.057-0.496-0.077c-0.195,0.002-2.038,0.092-2.418,2.52l0.604,22.859
		c0,0.708,0.09,1.291,0.268,1.747c0.177,0.457,0.383,0.818,0.722,1.084c0.143,0.111,0.186,0.205,0.409,0.285v0.003
		c0,0.009,0.087,0.016,0.103,0.023c0.028,0.013,0.082,0.024,0.111,0.036c0.052,0.021,0.12,0.043,0.176,0.062
		c0.08,0.029,0.169,0.054,0.254,0.075c0.045,0.012,0.093,0.023,0.139,0.034c0.01,0.003,0.021,0.007,0.032,0.008
		c0.014,0.004,0.031,0.005,0.045,0.008c0.332,0.071,0.688,0.023,1.024,0.049c0.125,0.014,0.246-0.063,0.391-0.063h0.129
		c0.482,0,0.493,0.181,0.493,0.181v-1.771v-0.474v-0.208V81.97c0.445,0.5,0.998,1.031,1.5,1.591
		c0.501,0.562,1.052,1.122,1.524,1.682c0.472,0.561,0.954,1.084,1.382,1.569c0.427,0.486,0.79,0.907,1.055,1.261
		c0.442,0.56,0.907,1.105,1.379,1.637c0.471,0.529,0.969,1.011,1.486,1.437c0.515,0.428,1.047,0.768,1.594,1.019
		c0.545,0.25,1.113,0.376,1.704,0.376c0.717,0,1.294-0.078,1.73-0.229C-1567.623,92.125-1566.54,91.525-1567.799,90.058z"/>
</g>
<path fill="#1E100D" d="M-1546.917,73.984c-1.826-1.995-3.95-2.989-7.375-2.989h-0.413c-3.425,0-5.558,0.994-7.383,2.989
	c-1.826,1.997-2.896,4.718-2.896,8.171v4.136v0.196v5.908h1.612c0.535,0,1.033,0.041,1.479-0.048
	c0.444-0.088,0.848-0.216,1.188-0.483c0.342-0.267,0.493-0.612,0.671-1.072s0.178-1.029,0.178-1.74v-2.628v-0.133v-4.023
	c0-1.415,0.288-2.604,0.571-3.566c0.283-0.963,0.76-1.721,1.284-2.287c0.523-0.566,1.189-0.96,1.926-1.183h0.023
	c0.496-0.225,1.027-0.287,1.581-0.287c0.719,0,1.402,0.146,2.016,0.428c0.45,0.194,0.863,0.459,1.223,0.793
	c0.705,0.63,1.226,1.459,1.473,2.405c0.013,0.041,0.028,0.08,0.041,0.124c0.283,0.963,0.563,2.158,0.563,3.573v4.023v0.133v2.628
	c0,0.711,0.007,1.275,0.186,1.735s0.337,0.799,0.679,1.066c0.341,0.267,0.744,0.406,1.188,0.494
	c0.445,0.089,0.944,0.048,1.478,0.048h1.596v-5.908v-0.196v-4.136C-1544.029,78.702-1545.091,75.981-1546.917,73.984z"/>
<g>
	<g>
		<g>
			<g>
				<path fill="#1E100D" d="M-1513.723-22.826c0.161,0,0.324-0.016,0.488-0.045c1.441-0.269,1.444-1.655,1.176-3.096
					c-1.214-6.534-3.405-12.486-8.127-17.212c-4.723-4.724-12.124-7.679-17.207-8.512c-2.734-0.448-4.34,0.688-5.182,2.313
					c-1.542,2.976,1.128,7.498,4.21,6.888c11.143-2.205,20.538,6.379,22.604,17.494
					C-1515.523-23.718-1514.977-22.826-1513.723-22.826z"/>
			</g>
		</g>
		<g>
			<g>
				<path fill="#1E100D" d="M-1575.353-22.826c-0.161,0-0.324-0.016-0.488-0.045c-1.441-0.269-1.445-1.655-1.177-3.096
					c1.215-6.534,3.405-12.486,8.128-17.212c4.723-4.724,12.124-7.679,17.207-8.512c2.734-0.448,4.34,0.688,5.182,2.313
					c1.542,2.976-1.129,7.498-4.21,6.888c-11.144-2.205-20.538,6.379-22.604,17.494
					C-1573.552-23.718-1574.099-22.826-1575.353-22.826z"/>
			</g>
		</g>
	</g>
	<path fill="#1E100D" d="M-1513.659-17.897c-1.458-0.27-2.102,0.679-2.375,2.12c-1.796,9.492-8.64,17.106-17.622,20.747
		c-3.598,1.288-7.196-1.042-7.8-4.58c-0.542-2.031,0.176-6.972,0.176-6.972c0.387-2.171-0.782-4.257-3.122-4.287
		c-0.062-0.002-0.125,0.002-0.188,0.01c0-0.008-0.127-0.012-0.189-0.01c-2.34,0.03-3.511,2.116-3.123,4.287
		c0,0,0.718,4.94,0.175,6.972c-0.603,3.538-4.202,5.868-7.8,4.58c-8.981-3.641-15.825-11.255-17.622-20.747
		c-0.273-1.441-0.916-2.39-2.375-2.12c-1.458,0.27-1.66,1.705-1.387,3.147c2.941,15.533,16.304,30.46,32.313,30.46
		c0.003,0,0.006,0,0.006,0s0.001,0,0.003,0c16.01,0,29.372-14.927,32.314-30.46C-1511.999-16.192-1512.201-17.628-1513.659-17.897z"
		/>
</g>
<path fill="#1E100D" d="M-1550.202,40.475c0.919,0.979,1.638,2.113,2.158,3.404c0.519,1.291,0.779,2.692,0.779,4.204
	c0,1.484-0.238,2.871-0.711,4.162c-0.476,1.29-1.143,2.425-2.003,3.404c-0.861,0.979-1.913,1.749-3.16,2.313
	c-1.246,0.563-2.625,0.846-4.138,0.846c-1.395,0-2.692-0.282-3.894-0.846c-1.202-0.564-2.263-1.335-3.182-2.313
	c-0.919-0.979-1.64-2.114-2.158-3.404c-0.519-1.291-0.779-2.678-0.779-4.162c0-1.512,0.236-2.913,0.712-4.204
	c0.474-1.291,1.142-2.425,2.002-3.404c0.86-0.949,1.914-1.713,3.16-2.292s2.625-0.868,4.138-0.868c1.394,0,2.699,0.289,3.916,0.868
	C-1552.146,38.762-1551.092,39.525-1550.202,40.475z M-1557.856,54.938c0.386,0.029,0.846-0.023,1.379-0.156
	c0.534-0.135,1.061-0.43,1.58-0.89c0.519-0.46,0.979-1.127,1.379-2.003c0.401-0.875,0.675-2.025,0.824-3.448
	c0.118-1.425,0.052-2.604-0.2-3.538c-0.253-0.935-0.594-1.669-1.023-2.203c-0.43-0.533-0.897-0.912-1.401-1.135
	c-0.505-0.222-0.951-0.349-1.335-0.377c-0.386-0.03-0.853,0.022-1.402,0.155c-0.549,0.133-1.075,0.423-1.579,0.867
	c-0.505,0.445-0.965,1.104-1.38,1.98c-0.416,0.876-0.683,2.024-0.801,3.449c-0.149,1.423-0.097,2.602,0.155,3.537
	c0.252,0.935,0.593,1.677,1.023,2.225c0.43,0.55,0.905,0.935,1.424,1.157C-1558.695,54.781-1558.242,54.907-1557.856,54.938z"/>
<path fill="#1E100D" d="M-1553.552,96.408h0.053C-1553.499,96.408-1553.519,96.408-1553.552,96.408z"/>
<path fill="#1E100D" d="M-1569.744,31.422c-0.177-0.46-0.291-0.822-0.631-1.09c-0.341-0.267-0.713-0.445-1.158-0.533
	c0,0-2.959-0.573-3.231,2.627l0.623,17.834c0,0.771-0.361,1.868-0.643,2.418c-0.282,0.549-0.763,0.984-1.445,1.341
	c-0.683,0.356-1.586,0.583-2.714,0.746c-1.128,0.163-2.759,0.181-4.449,0.181h-1.315h-0.053c-0.217,0-1.017,0.104-1.041,1.124
	c0,0.227,0.038,0.36,0.092,0.542c0.148,0.416,0.434,0.881,0.864,1.267c0.43,0.385,1.113,0.638,2.063,0.756
	c1.572,0.178,3.147,0.2,4.749,0.065c1.602-0.132,3.022-0.48,4.313-1.044s2.206-1.38,3.022-2.447
	c0.816-1.069,1.035-2.433,1.035-4.095V33.181C-1569.665,32.468-1569.564,31.882-1569.744,31.422z"/>
<path fill="#1E100D" d="M-1512.374,97.746v0.215C-1512.374,97.831-1512.374,97.746-1512.374,97.746z"/>
<path fill="#1E100D" d="M-1526.295,42.903c-0.608-1.409-1.295-2.55-2.259-3.426c-0.965-0.876-2.02-1.498-3.206-1.87
	c-1.187-0.37-2.352-0.512-3.509-0.422c-0.771,0.06-1.447,0.216-2.026,0.468c-0.579,0.251-1.172,0.496-1.588,0.733
	c-0.475,0.326-0.911,0.652-1.356,0.979v-6.186c0-0.713,0.024-1.299-0.153-1.759c0,0-0.637-1.459-2.1-1.542
	c-1.464-0.084-2.463,1.072-2.721,2.046c-0.256,0.978-0.133,3.39-0.133,3.39l0.637,19.936c0,0.711,0.128,1.295,0.306,1.755
	c0.177,0.46,0.473,0.819,0.815,1.086c0.341,0.269,0.735,0.437,1.18,0.526c0.445,0.089,0.712,0.116,1.246,0.116h0.199
	c0.737,0,0.723-0.559,0.723-1.123v-0.215v-9.71c0-1.275,0.262-2.343,0.559-3.203c0.296-0.86,0.752-1.543,1.228-2.047
	c0.474-0.505,1.037-0.86,1.646-1.067c0.608-0.208,1.249-0.297,1.902-0.268c0.624,0.029,1.208,0.156,1.742,0.379
	c0.534,0.222,1.005,0.6,1.405,1.134c0.401,0.533,0.63,1.253,0.853,2.158c0.222,0.906,0.253,2.039,0.253,3.403v7.077
	c0,0.712,0.17,1.293,0.349,1.753s0.477,0.819,0.818,1.086c0.34,0.269,0.755,0.437,1.2,0.526c0.445,0.089,0.956,0.116,1.49,0.116
	h1.27V47.953C-1525.526,45.996-1525.688,44.313-1526.295,42.903z"/>
<path fill="#1E100D" d="M-1503.245,43.708c-0.383-1.373-0.933-2.541-1.769-3.504c-0.835-0.963-1.888-1.705-3.219-2.229
	c-1.331-0.523-2.521-0.785-4.418-0.785c-3.425,0-5.964,0.997-7.79,2.992c-1.826,1.997-2.857,4.722-2.857,8.175v4.136v0.197v6.045
	h1.53c0.534,0,1.033-0.027,1.479-0.116c0.444-0.09,0.847-0.25,1.188-0.518c0.342-0.267,0.534-0.629,0.712-1.091
	c0.178-0.458,0.22-1.045,0.22-1.757v-2.627v-0.134v-4.023c0-1.414,0.246-2.604,0.529-3.565c0.282-0.964,0.739-1.729,1.263-2.293
	c0.523-0.566,1.179-0.963,1.916-1.189c0.735-0.226,1.147-0.325,2.025-0.298c0.877-0.027,1.254,0.079,1.934,0.318
	c0.68,0.241,1.25,0.646,1.702,1.21c0.452,0.567,0.667,1.324,0.894,2.272c0.227,0.949,0.215,1.721,0.215,3.137v4.629v2.563
	c0,0.712,0.271,1.299,0.45,1.757c0.178,0.462,0.529,0.824,0.87,1.091c0.341,0.268,0.78,0.428,1.225,0.518
	c0.446,0.089,1.131,0.116,1.665,0.116h0.695v-6.045v-4.333C-1502.788,46.631-1502.863,45.08-1503.245,43.708z"/>
<path fill="#1E100D" d="M-1564.604,89.163c0.097,0.105,0.194,0.209,0.288,0.312C-1564.401,89.373-1564.495,89.271-1564.604,89.163z"
	/>
<polygon fill="#1E100D" points="-1564.604,89.163 -1564.605,89.16 -1564.605,89.16 "/>
<path fill="#1E100D" d="M-1099.92-6.898c0.449,0.205,0.858,0.476,1.221,0.8C-1099.057-6.434-1099.471-6.703-1099.92-6.898z"/>
<path fill="#1E100D" d="M-1094.382-8.273c-1.827-1.996-3.949-2.99-7.375-2.99h-0.414c-3.424,0-5.557,0.994-7.383,2.99
	c-1.824,1.996-2.895,4.717-2.895,8.17v4.137v0.195v5.908h1.611c0.534,0,1.034,0.04,1.479-0.048c0.443-0.088,0.848-0.216,1.188-0.481
	c0.342-0.269,0.492-0.614,0.671-1.074s0.176-1.029,0.176-1.74V4.165V4.033V0.009c0-1.415,0.291-2.604,0.573-3.567
	c0.282-0.962,0.759-1.721,1.282-2.286c0.523-0.566,1.189-0.96,1.929-1.184h0.021c0.497-0.223,1.028-0.286,1.583-0.286
	c0.718,0,1.402,0.146,2.016,0.428c0.449,0.194,0.863,0.459,1.221,0.793c0.705,0.631,1.226,1.46,1.475,2.404
	c0.013,0.042,0.028,0.081,0.039,0.125c0.285,0.963,0.564,2.158,0.564,3.573v4.024v0.132v2.628c0,0.711,0.008,1.274,0.185,1.733
	c0.179,0.461,0.337,0.801,0.679,1.067c0.342,0.268,0.744,0.407,1.189,0.495s0.943,0.048,1.477,0.048h1.597V4.229V4.033v-4.137
	C-1091.495-3.557-1092.555-6.277-1094.382-8.273z"/>
<path fill="#1E100D" d="M-1136.068,25.611c-1.826-1.996-3.95-2.99-7.376-2.99h-0.412c-3.425,0-5.558,0.994-7.384,2.99
	c-1.825,1.995-2.896,4.716-2.896,8.17v4.136v0.197v5.907h1.612c0.534,0,1.033,0.041,1.479-0.049
	c0.444-0.088,0.847-0.215,1.188-0.481c0.342-0.269,0.494-0.614,0.67-1.074c0.179-0.46,0.179-1.027,0.179-1.74V38.05v-0.133v-4.024
	c0-1.414,0.287-2.604,0.57-3.565c0.282-0.963,0.76-1.722,1.285-2.288c0.522-0.564,1.188-0.96,1.926-1.183h0.022
	c0.495-0.224,1.027-0.286,1.581-0.286c0.719,0,1.401,0.146,2.017,0.427c0.448,0.194,0.862,0.459,1.221,0.793
	c0.706,0.631,1.228,1.461,1.474,2.405c0.014,0.041,0.028,0.081,0.041,0.124c0.284,0.963,0.563,2.159,0.563,3.573v4.024v0.133v2.627
	c0,0.713,0.008,1.275,0.186,1.735s0.336,0.799,0.678,1.067c0.342,0.267,0.743,0.405,1.189,0.493c0.445,0.09,0.943,0.049,1.479,0.049
	h1.595v-5.907v-0.197v-4.136C-1133.182,30.327-1134.241,27.606-1136.068,25.611z"/>
<path fill="#1E100D" d="M-1098.699-6.099c0.08,0.075,0.161,0.151,0.233,0.231c0.503,0.54,0.954,1.271,1.241,2.174
	C-1097.474-4.636-1097.994-5.47-1098.699-6.099z"/>
<path fill="#1E100D" d="M-780.956,29.681c0.92,0.979,1.638,2.113,2.158,3.403c0.519,1.291,0.778,2.692,0.778,4.206
	c0,1.483-0.239,2.87-0.711,4.16c-0.477,1.291-1.143,2.426-2.003,3.404c-0.86,0.979-1.912,1.751-3.158,2.313
	c-1.247,0.563-2.628,0.848-4.139,0.848c-1.396,0-2.692-0.284-3.895-0.848c-1.202-0.563-2.263-1.334-3.183-2.313
	c-0.92-0.979-1.64-2.113-2.158-3.404c-0.519-1.29-0.777-2.677-0.777-4.16c0-1.514,0.235-2.915,0.71-4.206
	c0.474-1.29,1.143-2.425,2.003-3.403c0.86-0.948,1.915-1.713,3.161-2.292c1.244-0.578,2.625-0.868,4.139-0.868
	c1.395,0,2.697,0.29,3.915,0.868C-782.899,27.968-781.848,28.732-780.956,29.681z M-788.61,44.143
	c0.386,0.03,0.847-0.021,1.381-0.155s1.06-0.43,1.578-0.89s0.979-1.128,1.381-2.004c0.399-0.873,0.674-2.023,0.821-3.447
	c0.119-1.424,0.053-2.604-0.199-3.538c-0.251-0.935-0.594-1.669-1.023-2.203c-0.431-0.534-0.896-0.912-1.402-1.135
	c-0.505-0.222-0.948-0.348-1.334-0.377c-0.387-0.03-0.853,0.021-1.402,0.155c-0.549,0.134-1.075,0.422-1.58,0.867
	c-0.503,0.445-0.965,1.106-1.379,1.98c-0.415,0.875-0.682,2.025-0.801,3.449c-0.15,1.424-0.096,2.603,0.155,3.537
	c0.252,0.935,0.594,1.677,1.023,2.225c0.431,0.55,0.904,0.936,1.426,1.157C-789.447,43.987-788.997,44.113-788.61,44.143z"/>
<path fill="#1E100D" d="M-775.136,20.471c0.77-1.422,2.599-1.233,2.599-1.233c0.446,0.09,0.832,0.268,1.158,0.534
	c0.327,0.267,0.625,0.631,0.804,1.09c0.179,0.461,0.313,1.047,0.313,1.758v6.186c0.223-0.326,0.738-0.651,1.244-0.979
	c0.414-0.238,0.889-0.481,1.469-0.734c0.578-0.253,1.227-0.408,1.967-0.468c1.158-0.088,2.33,0.052,3.532,0.423
	c1.202,0.372,2.272,0.995,3.224,1.869c0.948,0.875,1.726,2.018,2.335,3.428c0.606,1.408,0.912,3.092,0.912,5.05
	s-0.29,3.619-0.868,4.983c-0.58,1.365-1.337,2.47-2.27,3.315c-0.936,0.847-2.004,1.462-3.206,1.847
	c-1.199,0.386-2.426,0.579-3.669,0.579c-1.247,0-2.47-0.193-3.672-0.579c-1.203-0.385-2.271-1-3.203-1.847
	c-0.936-0.846-1.694-1.95-2.272-3.315c-0.581-1.364-0.873-3.025-0.873-4.983V23.24C-775.612,23.24-775.607,21.345-775.136,20.471z
	 M-761.011,37.616c0.06-1.246-0.016-2.308-0.223-3.182c-0.207-0.876-0.511-1.595-0.912-2.158c-0.399-0.564-0.873-0.986-1.423-1.269
	c-0.549-0.281-1.106-0.437-1.669-0.468c-0.564-0.028-1.127,0.067-1.691,0.29c-0.563,0.223-1.076,0.594-1.534,1.111
	c-0.462,0.521-0.845,1.202-1.156,2.047c-0.313,0.847-0.497,1.893-0.557,3.139c-0.06,1.245,0.021,2.314,0.243,3.203
	c0.223,0.891,0.534,1.616,0.936,2.182c0.399,0.563,0.868,0.979,1.402,1.245c0.533,0.267,1.083,0.416,1.646,0.444
	c0.564,0.031,1.127-0.059,1.691-0.267c0.563-0.208,1.076-0.57,1.534-1.09c0.462-0.52,0.845-1.209,1.158-2.069
	C-761.254,39.915-761.07,38.861-761.011,37.616z"/>
<path fill="#1E100D" d="M-809.795,51.823h0.052C-809.743,51.823-809.764,51.823-809.795,51.823z"/>
<path fill="#1E100D" d="M-767.142,53.342v0.214C-767.142,53.429-767.142,53.342-767.142,53.342z"/>
<path fill="#1E100D" d="M-820.847,44.759c0.096,0.105,0.194,0.209,0.287,0.312C-820.645,44.971-820.738,44.867-820.847,44.759z"/>
<polygon fill="#1E100D" points="-820.847,44.759 -820.85,44.757 -820.85,44.757 "/>
<path fill="#1E100D" d="M-809.74,51.823h0.052C-809.688,51.823-809.709,51.823-809.74,51.823z"/>
<path fill="#1E100D" d="M-768.479,53.166v0.214C-768.479,53.251-768.479,53.166-768.479,53.166z"/>
<path fill="#1E100D" d="M-820.792,44.582c0.096,0.106,0.194,0.21,0.287,0.311C-820.59,44.795-820.687,44.691-820.792,44.582z"/>
<polygon fill="#1E100D" points="-820.792,44.582 -820.795,44.581 -820.795,44.581 "/>
<path fill="#1E100D" d="M-767.095-2.842c0.448,0.205,0.857,0.475,1.223,0.8C-766.232-2.377-766.646-2.646-767.095-2.842z"/>
<path fill="#1E100D" d="M-803.244,29.646c-1.824-1.996-3.949-3.013-7.375-3.013h-0.412c-3.426,0-5.558,1.017-7.385,3.013
	c-1.824,1.995-2.895,4.738-2.895,8.191v4.136v0.197v5.864h1.611c0.534,0,1.034,0.063,1.48-0.026
	c0.442-0.088,0.847-0.205,1.187-0.472c0.342-0.267,0.492-0.607,0.671-1.067s0.179-1.023,0.179-1.735v-2.627v-0.134v-4.021
	c0-1.416,0.288-2.604,0.57-3.568c0.282-0.962,0.759-1.741,1.285-2.309c0.521-0.565,1.187-0.982,1.926-1.205h0.023
	c0.494-0.171,1.025-0.265,1.58-0.265c0.718,0,1.402,0.158,2.017,0.438c0.448,0.196,0.862,0.467,1.22,0.8
	c0.708,0.631,1.229,1.463,1.475,2.407c0.014,0.042,0.028,0.083,0.042,0.126c0.282,0.963,0.563,2.16,0.563,3.576v4.021v0.134v2.627
	c0,0.712,0.008,1.275,0.187,1.735c0.176,0.46,0.334,0.801,0.676,1.067s0.744,0.384,1.189,0.472c0.446,0.09,0.943,0.026,1.479,0.026
	h1.594V42.17v-0.197v-4.136C-800.357,34.384-801.417,31.641-803.244,29.646z"/>
<path fill="#1E100D" d="M-765.872-2.042c0.078,0.073,0.158,0.151,0.23,0.231c0.503,0.542,0.954,1.272,1.241,2.174
	C-764.646-0.579-765.167-1.411-765.872-2.042z"/>
<path fill="#1E100D" d="M-811.492-229.348c-1.824-1.996-3.949-3.056-7.375-3.056h-0.412c-3.426,0-5.559,1.061-7.385,3.056
	c-1.824,1.996-2.895,4.783-2.895,8.236v4.136v0.197v5.775h1.611c0.534,0,1.034,0.107,1.479,0.019
	c0.443-0.089,0.848-0.183,1.188-0.45c0.342-0.267,0.492-0.595,0.671-1.057c0.179-0.459,0.179-1.012,0.179-1.723v-2.627v-0.133
	v-4.022c0-1.416,0.288-2.604,0.57-3.567s0.759-1.788,1.285-2.354c0.521-0.566,1.187-1.026,1.925-1.25h0.023
	c0.495-0.223,1.026-0.22,1.581-0.22c0.718,0,1.402,0.18,2.017,0.46c0.448,0.196,0.862,0.477,1.22,0.811
	c0.708,0.63,1.229,1.468,1.475,2.413c0.013,0.042,0.028,0.086,0.042,0.129c0.282,0.963,0.562,2.163,0.562,3.578v4.022v0.133v2.627
	c0,0.711,0.008,1.275,0.187,1.735c0.177,0.46,0.337,0.8,0.677,1.068c0.342,0.267,0.744,0.338,1.189,0.427
	c0.445,0.089,0.943-0.019,1.479-0.019h1.594v-5.775v-0.197v-4.136C-808.605-224.564-809.665-227.352-811.492-229.348z"/>
<g>
	<path fill="#1E100D" d="M-1260.801-240.036c0.127,0,0.255-0.013,0.382-0.038c0.659-0.131,1.325-0.197,1.979-0.197
		c5.188,0,9.747,4.044,10.839,9.925c0.183,0.983,0.67,1.481,1.449,1.481c0.111,0,0.223-0.01,0.333-0.031
		c1.249-0.231,0.985-1.647,0.899-2.112c-0.833-4.479-2.357-7.479-4.798-9.92c-2.774-2.775-7.095-4.522-10.146-5.023
		c-0.246-0.041-0.484-0.061-0.71-0.061c-1.165,0-2.058,0.534-2.583,1.546c-0.462,0.891-0.374,2.063,0.23,3.057
		C-1262.404-240.549-1261.609-240.036-1260.801-240.036z"/>
	<path fill="#1E100D" d="M-1282.299-228.895c0.109,0.02,0.222,0.03,0.333,0.03c0.779,0,1.266-0.498,1.449-1.481
		c1.093-5.88,5.651-9.925,10.839-9.925c0.653,0,1.319,0.066,1.979,0.197c0.126,0.025,0.254,0.038,0.382,0.038
		c0.809,0,1.603-0.512,2.125-1.371c0.604-0.994,0.692-2.166,0.23-3.057c-0.525-1.012-1.418-1.546-2.583-1.546
		c-0.226,0-0.465,0.02-0.71,0.061c-3.051,0.5-7.372,2.248-10.146,5.023c-2.441,2.441-3.965,5.441-4.798,9.92
		C-1283.285-230.542-1283.547-229.126-1282.299-228.895z"/>
	<path fill="#1E100D" d="M-1246.065-226.087c-0.111-0.021-0.219-0.031-0.322-0.031c-0.725,0-1.186,0.497-1.372,1.478
		c-0.999,5.271-4.766,9.481-10.077,11.635c-0.349,0.125-0.713,0.188-1.079,0.188c-1.528,0-2.826-1.113-3.088-2.646l0-0.007
		l-0.001-0.005l-0.001-0.006l-0.002-0.007c-0.295-1.104,0.104-3.914,0.109-3.941c0.137-0.766-0.028-1.479-0.479-2.024
		c-0.37-0.449-0.908-0.694-1.601-0.694h-0.01c-0.033,0-0.065,0.001-0.099,0.004c-0.04-0.004-0.076-0.004-0.104-0.004h-0.009
		c-0.693,0-1.232,0.246-1.603,0.694c-0.446,0.541-0.615,1.275-0.476,2.053c0.015,0.112,0.393,2.8,0.113,3.903l-0.005,0.014
		l-0.004,0.011l-0.002,0.014c-0.261,1.533-1.56,2.644-3.087,2.644c-0.364,0-0.73-0.064-1.089-0.193
		c-5.304-2.151-9.069-6.359-10.067-11.63c-0.186-0.981-0.647-1.479-1.372-1.479c-0.103,0-0.21,0.01-0.322,0.031
		c-0.337,0.063-0.604,0.234-0.792,0.509c-0.283,0.412-0.366,1.063-0.229,1.788c0.862,4.555,3.274,8.871,6.615,12.229
		c3.606,3.625,8.02,5.622,12.427,5.622c4.412,0,8.828-1.997,12.434-5.622c3.341-3.358,5.752-7.674,6.615-12.229
		c0.137-0.725,0.054-1.376-0.229-1.788C-1245.46-225.854-1245.728-226.025-1246.065-226.087z"/>
</g>
<path fill="#1E100D" d="M-1123.174-214.431c-0.08-0.093-0.169-0.189-0.27-0.29C-1123.353-214.623-1123.262-214.526-1123.174-214.431
	z"/>
<path fill="#1E100D" d="M-1201.046-227.694c-0.808-0.861-1.777-1.564-2.881-2.089c-1.1-0.523-2.297-0.788-3.558-0.788
	c-1.373,0-2.64,0.265-3.767,0.789c-1.13,0.525-2.098,1.226-2.877,2.086c-0.779,0.886-1.394,1.931-1.824,3.103
	c-0.432,1.173-0.651,2.467-0.651,3.846c0,1.349,0.239,2.627,0.711,3.799c0.47,1.171,1.132,2.216,1.969,3.106
	c0.835,0.89,1.811,1.6,2.901,2.11c1.087,0.509,2.277,0.768,3.539,0.768c1.372,0,2.64-0.259,3.769-0.769
	c1.126-0.509,2.093-1.217,2.873-2.103c0.781-0.889,1.396-1.935,1.826-3.106c0.432-1.175,0.651-2.455,0.651-3.805
	c0-1.375-0.239-2.667-0.71-3.84C-1199.549-225.76-1200.211-226.805-1201.046-227.694z M-1202.991-220.397
	c-0.142,1.352-0.406,2.457-0.788,3.29c-0.383,0.84-0.835,1.493-1.34,1.941c-0.508,0.45-1.035,0.746-1.566,0.879
	c-0.423,0.105-0.806,0.159-1.137,0.159c-0.075,0-0.149-0.002-0.219-0.008c-0.382-0.029-0.832-0.154-1.336-0.371
	c-0.517-0.222-0.993-0.607-1.414-1.145c-0.418-0.534-0.753-1.258-0.994-2.153c-0.242-0.895-0.293-2.032-0.152-3.38
	c0.112-1.343,0.37-2.451,0.767-3.288c0.398-0.839,0.849-1.484,1.34-1.917c0.495-0.438,1.022-0.726,1.566-0.858
	c0.434-0.105,0.822-0.158,1.155-0.158c0.076,0,0.15,0.002,0.222,0.008c0.383,0.03,0.826,0.154,1.316,0.371
	c0.502,0.222,0.969,0.599,1.391,1.122c0.418,0.519,0.753,1.237,0.996,2.135C-1202.945-222.88-1202.88-221.745-1202.991-220.397z"/>
<path fill="#1E100D" d="M-1091.702-227.743c-0.806-0.86-1.775-1.564-2.882-2.089c-1.099-0.523-2.296-0.788-3.556-0.788
	c-1.373,0-2.64,0.265-3.768,0.788c-1.13,0.525-2.099,1.227-2.876,2.086c-0.78,0.886-1.395,1.932-1.824,3.104
	c-0.433,1.172-0.653,2.466-0.653,3.846c0,1.349,0.241,2.626,0.713,3.798s1.132,2.217,1.967,3.107
	c0.837,0.889,1.812,1.599,2.902,2.109c1.088,0.51,2.277,0.768,3.539,0.768c1.371,0,2.639-0.259,3.769-0.77
	c1.127-0.508,2.094-1.216,2.871-2.103c0.782-0.888,1.396-1.934,1.826-3.106c0.434-1.176,0.65-2.456,0.65-3.805
	c0-1.376-0.238-2.668-0.71-3.84C-1090.205-225.808-1090.868-226.854-1091.702-227.743z M-1093.646-220.446
	c-0.143,1.352-0.407,2.458-0.788,3.291c-0.384,0.839-0.834,1.492-1.343,1.94c-0.508,0.451-1.033,0.746-1.564,0.879
	c-0.423,0.105-0.807,0.159-1.136,0.159c-0.074,0-0.149-0.002-0.22-0.008c-0.381-0.028-0.832-0.153-1.337-0.37
	c-0.516-0.222-0.993-0.607-1.415-1.146c-0.417-0.532-0.752-1.257-0.992-2.153c-0.241-0.895-0.293-2.032-0.153-3.38
	c0.111-1.344,0.37-2.451,0.77-3.288c0.396-0.84,0.848-1.484,1.337-1.917c0.495-0.437,1.023-0.726,1.568-0.858
	c0.435-0.106,0.823-0.159,1.158-0.159c0.075,0,0.147,0.002,0.218,0.008c0.383,0.03,0.826,0.155,1.316,0.371
	c0.5,0.221,0.969,0.598,1.392,1.121c0.417,0.521,0.751,1.238,0.995,2.135C-1093.6-222.928-1093.534-221.793-1093.646-220.446z"/>
<path fill="#1E100D" d="M-1069.357-225.323c-0.552-1.279-1.268-2.33-2.127-3.121c-0.858-0.79-1.84-1.36-2.924-1.695
	c-0.881-0.271-1.757-0.409-2.606-0.409c-0.205,0-0.409,0.008-0.611,0.024c-0.664,0.054-1.263,0.194-1.775,0.418
	c-0.526,0.229-0.984,0.455-1.365,0.671c-0.454,0.295-0.874,0.594-1.195,0.887l-0.394,0.337v-0.5v-5.768
	c0-0.633-0.052-1.158-0.207-1.561c-0.153-0.391-0.355-0.703-0.627-0.926c-0.272-0.223-0.594-0.374-0.967-0.45
	c-0.021-0.002-0.091-0.006-0.179-0.006c-0.44,0-1.529,0.102-2.04,1.043c-0.406,0.757-0.438,2.46-0.438,2.478v13.201
	c0,1.788,0.293,3.324,0.816,4.563c0.525,1.237,1.23,2.251,2.075,3.015c0.845,0.764,1.83,1.328,2.915,1.675
	c1.094,0.351,2.227,0.529,3.358,0.529c1.133,0,2.266-0.178,3.358-0.529c1.086-0.347,2.065-0.911,2.91-1.675
	c0.843-0.764,1.537-1.778,2.063-3.015c0.523-1.239,0.791-2.774,0.791-4.563C-1068.525-222.485-1068.806-224.041-1069.357-225.323z
	 M-1073.148-220.481c-0.057,1.18-0.236,2.193-0.531,3.011c-0.301,0.826-0.677,1.499-1.122,2.001
	c-0.453,0.51-0.964,0.872-1.521,1.077c-0.481,0.178-0.972,0.268-1.453,0.268c-0.07,0-0.141-0.002-0.21-0.005
	c-0.552-0.028-1.099-0.176-1.622-0.438c-0.529-0.264-0.995-0.678-1.39-1.231c-0.389-0.545-0.691-1.255-0.906-2.108
	c-0.21-0.848-0.291-1.875-0.233-3.052c0.057-1.179,0.235-2.186,0.531-2.992c0.301-0.811,0.676-1.477,1.122-1.979
	c0.451-0.508,0.961-0.876,1.516-1.096c0.487-0.192,0.982-0.29,1.475-0.29c0.064,0,0.13,0.001,0.194,0.005
	c0.555,0.029,1.106,0.184,1.646,0.459c0.542,0.278,1.014,0.699,1.407,1.251c0.386,0.547,0.687,1.25,0.884,2.089
	C-1073.164-222.676-1073.094-221.657-1073.148-220.481z"/>
<path fill="#1E100D" d="M-1219.599-237.131c-0.296-0.232-0.623-0.381-0.995-0.456c0,0-0.177-0.032-0.437-0.032
	c-0.792,0-2.145,0.295-2.319,2.274l0.567,16.62l-0.013,0.004v0.004c0,0.785-0.352,1.851-0.611,2.356
	c-0.28,0.545-0.744,0.987-1.434,1.348c-0.589,0.307-1.34,0.51-2.6,0.692c-0.895,0.129-2.142,0.208-3.436,0.208l-0.742-0.009h-1.227
	h-0.049c-0.03,0-0.73-0.022-0.751,0.833c0,0.178,0.029,0.263,0.075,0.417c0.085,0.238,0.294,0.689,0.744,1.092
	c0.368,0.331,0.974,0.55,1.803,0.654c0.831,0.093,1.673,0.141,2.506,0.141c0.62,0,1.248-0.027,1.873-0.079
	c1.467-0.122,2.752-0.435,3.946-0.956c1.091-0.477,1.97-1.18,2.761-2.214c0.653-0.857,0.934-1.993,0.934-3.685v-16.726
	c0-0.159,0.015-0.308,0.018-0.453c0.011-0.44,0.04-0.82-0.071-1.107C-1219.178-236.719-1219.599-237.131-1219.599-237.131z"/>
<path fill="#1E100D" d="M-1179.297-225.492c-0.599-1.389-1.194-2.38-2.009-3.121c-0.886-0.804-1.823-1.358-2.9-1.695
	c-0.868-0.271-1.729-0.409-2.576-0.409c-0.203,0-0.404,0.008-0.606,0.023c-0.695,0.054-1.307,0.195-1.821,0.419
	c-0.481,0.209-1.029,0.447-1.419,0.669c-0.217,0.15-0.422,0.303-0.615,0.452c-0.194,0.149-0.413,0.303-0.633,0.456l-0.378,0.239
	v-0.419v-5.769c0-0.64,0.022-1.162-0.128-1.554c-0.038-0.08-0.581-1.238-1.755-1.305c-0.042-0.002-0.083-0.004-0.125-0.004
	c-1.126,0-1.968,0.902-2.192,1.75c-0.228,0.866-0.153,3.071-0.153,3.093l0.563,18.597v0.004v0.004c0,0.573,0.12,1.099,0.298,1.56
	c0.14,0.36,0.385,0.671,0.703,0.921c0.248,0.194,0.557,0.319,1.017,0.411c0.278,0.056,0.476,0.073,0.782,0.073
	c0,0,0.99,0.095,0.99-0.963v-9.056c0-1.074,0.201-2.103,0.53-3.06c0.263-0.763,0.7-1.451,1.205-1.989
	c0.461-0.49,1.005-0.844,1.616-1.053c0.517-0.177,1.061-0.266,1.615-0.266c0.078,0,0.155,0.002,0.234,0.005
	c0.607,0.029,1.174,0.153,1.693,0.37c0.535,0.223,1,0.603,1.394,1.129c0.388,0.516,0.62,1.2,0.839,2.092
	c0.21,0.854,0.235,1.909,0.235,3.228v6.6c0,0.621,0.158,1.146,0.317,1.558c0.151,0.389,0.418,0.691,0.711,0.921
	c0.247,0.194,0.561,0.325,1.021,0.418c0.302,0.06,1.11,0.161,1.426,0.161h0.756l0.003-9.858
	C-1178.658-222.845-1178.792-224.322-1179.297-225.492z"/>
<path fill="#1E100D" d="M-1159.633-227.87c-1.802-1.971-3.738-2.751-6.68-2.751h-0.003h-0.381c-2.964,0-5.015,0.806-6.794,2.75
	c-1.757,1.92-2.713,4.499-2.713,7.505l0,0v0v3.857v0.184v5.321c0,0,1.377,0.05,2.333-0.073c0.079-0.008,0.151-0.018,0.215-0.03
	c0.028-0.006,0.054-0.013,0.082-0.018c0.049-0.01,0.096-0.02,0.141-0.031c0.306-0.069,0.586-0.159,0.811-0.333
	c0.265-0.207,0.456-0.468,0.624-0.904c0.154-0.397,0.253-0.911,0.253-1.541v-2.45v-0.124v-3.858c0,0,0.066-3.096,1.396-5.104
	c0.119-0.156,0.243-0.304,0.369-0.44c0.525-0.568,1.202-0.953,1.919-1.183l0.023-0.007c0.487-0.183,1.02-0.176,1.466-0.176h0.047
	h0.046c0.662,0,1.323,0.105,1.971,0.402c0.429,0.186,0.832,0.419,1.196,0.758c0.699,0.625,1.193,1.434,1.432,2.345
	c0.008,0.024,0.006,0.046,0.012,0.071c0.004,0.015-0.003-0.004,0.001,0.012c0.226,0.768,0.376,1.988,0.376,3.428v3.752v0.124v2.45
	c0,0.63,0.1,1.144,0.253,1.541c0.168,0.436,0.359,0.697,0.625,0.904c0.224,0.175,0.504,0.265,0.811,0.333
	c0.044,0.011,0.091,0.021,0.14,0.031c0.028,0.005,0.055,0.012,0.083,0.018c0.064,0.013,0.137,0.022,0.215,0.03
	c0.957,0.123,2.333,0.073,2.333,0.073v-5.321v-0.184v-3.857C-1157.034-223.433-1157.932-226.012-1159.633-227.87z"/>
<path fill="#1E100D" d="M-1131.347-212.77c-0.078-0.085-0.16-0.173-0.241-0.261l-0.023-0.026l-0.011-0.009v-0.001
	c-0.032-0.035-0.064-0.07-0.097-0.105l-0.059-0.063c-0.398-0.431-0.806-0.871-1.223-1.321l-0.304-0.329
	c-0.519-0.56-1.04-1.13-1.55-1.693c-0.196-0.219-0.401-0.433-0.601-0.641c-0.309-0.321-0.627-0.653-0.91-0.997
	c-0.43-0.522-0.876-1.113-1.347-1.739c-0.682-0.904-1.387-1.84-2.071-2.589l-0.148-0.164l0.164-0.148l7.594-6.798
	c0.481-0.432,0.712-0.813,0.645-1.072c-0.067-0.264-0.446-0.442-0.752-0.516c-0.145-0.026-0.271-0.045-0.391-0.059
	c-0.107-0.008-0.226-0.013-0.348-0.013c-0.555,0-1.202,0.099-1.923,0.295c-0.869,0.238-1.84,0.832-2.88,1.767l-0.035,0.03
	c-0.221,0.192-0.539,0.471-0.958,0.838c-0.434,0.379-0.921,0.799-1.488,1.281c-0.259,0.22-0.539,0.447-0.806,0.667
	c-0.309,0.253-0.633,0.515-0.938,0.776c-0.23,0.198-0.47,0.389-0.695,0.573c-0.338,0.276-0.688,0.538-0.948,0.782l-0.414,0.348
	v-0.508v-10.064c0-0.557,0.021-1.13-0.141-1.551c-0.161-0.415-0.326-0.707-0.594-0.917c-0.295-0.23-0.614-0.378-0.985-0.452
	c-0.135-0.027-0.272-0.049-0.438-0.069c-0.227,0.006-1.673,0.124-1.999,2.145l0.59,21.301v0.002v0.003
	c0,0.629,0.05,1.151,0.205,1.55c0.149,0.387,0.347,0.696,0.631,0.917c0.112,0.088,0.237,0.167,0.388,0.242l0.08,0.04
	c0.01,0.004,0.02,0.008,0.027,0.012c0.047,0.02,0.094,0.038,0.143,0.055c0.066,0.023,0.135,0.044,0.214,0.064l0.029,0.008
	c0.028,0.008,0.06,0.016,0.09,0.023c0.009,0.002,0.018,0.004,0.026,0.006l0.014,0.002l0.023,0.004l0.002,0.001l0.002,0
	c0.135,0.029,0.279,0.038,0.427,0.044l1.266,0.003v-1.33v-0.443v-0.192v-7.399v-0.555l0.423,0.405
	c0.283,0.302,0.59,0.609,0.876,0.935c0.159,0.181,0.326,0.365,0.495,0.554c0.098,0.111,0.199,0.222,0.3,0.333
	c0.364,0.405,0.741,0.825,1.091,1.239c0.399,0.473,0.785,0.912,1.157,1.335l0.111,0.126c0.442,0.504,0.756,0.882,0.986,1.188
	c0.389,0.492,0.816,1.002,1.27,1.513c0.428,0.482,0.887,0.925,1.36,1.317c0.464,0.385,0.947,0.694,1.436,0.918
	c0.478,0.22,0.982,0.331,1.498,0.331c0.641,0,1.158-0.068,1.542-0.202c0.217-0.079,0.599-0.266,0.687-0.603
	C-1130.795-211.921-1130.96-212.317-1131.347-212.77z"/>
<path fill="#1E100D" d="M-105.887-28.515v0.437C-105.887-28.34-105.887-28.515-105.887-28.515z"/>
<path fill="#1E100D" d="M-108.602-28.871v0.432C-108.602-28.701-108.602-28.871-108.602-28.871z"/>
<path fill="#1E100D" d="M-105.793-142.569c0.912,0.416,1.743,0.965,2.479,1.624C-104.041-141.625-104.881-142.173-105.793-142.569z"
	/>
<g>
	<path fill="#1E100D" d="M-184.592-144.289c1.896,2.019,3.379,4.356,4.45,7.017c1.068,2.662,1.605,5.55,1.605,8.668
		c0,3.061-0.491,5.92-1.464,8.58c-0.981,2.662-2.358,5.001-4.132,7.021c-1.773,2.017-3.945,3.606-6.511,4.768
		c-2.572,1.162-5.418,1.744-8.533,1.744c-2.88,0-5.553-0.582-8.03-1.744c-2.479-1.161-4.666-2.75-6.559-4.768
		c-1.897-2.02-3.381-4.359-4.451-7.021c-1.069-2.659-1.604-5.519-1.604-8.58c0-3.119,0.488-6.007,1.467-8.668
		c0.979-2.661,2.356-4.998,4.129-7.017c1.773-1.955,3.947-3.531,6.514-4.726c2.571-1.193,5.414-1.79,8.535-1.79
		c2.873,0,5.562,0.596,8.072,1.79C-188.599-147.82-186.426-146.244-184.592-144.289z M-200.373-114.474
		c0.797,0.063,1.744-0.044,2.847-0.319c1.101-0.276,2.187-0.888,3.256-1.836c1.07-0.949,2.019-2.324,2.846-4.129
		c0.823-1.802,1.389-4.174,1.697-7.107c0.242-2.939,0.104-5.369-0.415-7.296c-0.519-1.924-1.223-3.438-2.109-4.54
		c-0.889-1.102-1.851-1.881-2.89-2.34c-1.038-0.461-1.958-0.719-2.753-0.777c-0.795-0.064-1.759,0.042-2.89,0.316
		c-1.13,0.276-2.218,0.874-3.256,1.79c-1.041,0.92-1.99,2.279-2.843,4.085c-0.858,1.804-1.41,4.172-1.654,7.111
		c-0.308,2.933-0.198,5.364,0.323,7.292c0.519,1.925,1.222,3.457,2.106,4.586c0.89,1.131,1.866,1.925,2.939,2.386
		C-202.1-114.793-201.165-114.534-200.373-114.474z"/>
	<path fill="#1E100D" d="M-131.578-74.998c1.896,2.019,3.376,4.359,4.448,7.02c1.069,2.657,1.604,5.546,1.604,8.667
		c0,3.061-0.492,5.919-1.464,8.575c-0.983,2.662-2.356,5.002-4.131,7.023c-1.775,2.018-3.942,3.607-6.515,4.771
		c-2.566,1.157-5.413,1.74-8.529,1.74c-2.879,0-5.552-0.583-8.028-1.74c-2.481-1.164-4.664-2.754-6.562-4.771
		c-1.896-2.021-3.382-4.361-4.449-7.023c-1.069-2.656-1.604-5.515-1.604-8.575c0-3.121,0.485-6.01,1.466-8.667
		c0.975-2.661,2.354-5.001,4.128-7.02c1.774-1.956,3.946-3.532,6.516-4.726c2.568-1.191,5.411-1.788,8.533-1.788
		c2.872,0,5.563,0.596,8.072,1.788C-135.584-78.529-133.413-76.953-131.578-74.998z M-147.361-45.182
		c0.797,0.06,1.746-0.045,2.848-0.321c1.102-0.274,2.187-0.886,3.255-1.833c1.069-0.95,2.02-2.323,2.846-4.127
		c0.824-1.808,1.39-4.177,1.694-7.111c0.246-2.939,0.107-5.367-0.41-7.298c-0.522-1.925-1.224-3.437-2.11-4.54
		c-0.888-1.101-1.849-1.881-2.892-2.337c-1.04-0.459-1.954-0.721-2.75-0.779c-0.797-0.063-1.758,0.044-2.891,0.32
		c-1.131,0.275-2.217,0.869-3.258,1.789c-1.04,0.917-1.988,2.28-2.843,4.082c-0.856,1.806-1.407,4.172-1.651,7.112
		c-0.308,2.932-0.2,5.362,0.32,7.291c0.52,1.927,1.224,3.455,2.11,4.588c0.889,1.131,1.864,1.924,2.936,2.383
		C-149.086-45.503-148.157-45.241-147.361-45.182z"/>
	<path fill="#1E100D" d="M-120.038-93.986c1.588-2.932,5.357-2.543,5.357-2.543c0.918,0.184,1.715,0.552,2.389,1.102
		c0.672,0.55,1.289,1.301,1.658,2.249c0.36,0.948,0.644,2.152,0.644,3.622v12.752c0.461-0.673,1.522-1.347,2.565-2.019
		c0.854-0.486,1.833-0.993,3.023-1.513c1.198-0.518,2.532-0.836,4.06-0.962c2.385-0.185,4.805,0.109,7.283,0.872
		c2.479,0.764,4.686,2.05,6.646,3.852c1.954,1.805,3.557,4.159,4.813,7.062c1.252,2.908,1.875,6.381,1.875,10.415
		c0,4.038-0.592,7.461-1.784,10.275c-1.197,2.812-2.758,5.09-4.682,6.834c-1.927,1.743-4.128,3.018-6.605,3.809
		c-2.476,0.795-5.003,1.192-7.571,1.192c-2.565,0-5.092-0.397-7.566-1.192c-2.479-0.791-4.678-2.065-6.607-3.809
		c-1.924-1.744-3.49-4.022-4.686-6.834c-1.191-2.814-1.796-6.237-1.796-10.275V-88.28C-121.022-88.28-121.01-92.185-120.038-93.986z
		 M-90.917-58.638c0.123-2.569-0.032-4.757-0.459-6.562c-0.429-1.802-1.053-3.286-1.88-4.448c-0.824-1.163-1.803-2.032-2.934-2.614
		c-1.134-0.58-2.281-0.904-3.441-0.963c-1.164-0.063-2.323,0.137-3.488,0.596c-1.16,0.458-2.218,1.223-3.164,2.292
		c-0.951,1.071-1.74,2.478-2.387,4.22c-0.641,1.744-1.021,3.903-1.143,6.469c-0.124,2.568,0.042,4.771,0.502,6.606
		c0.459,1.832,1.101,3.335,1.93,4.495c0.82,1.163,1.789,2.02,2.889,2.568c1.102,0.552,2.234,0.856,3.393,0.918
		s2.326-0.121,3.488-0.546c1.16-0.429,2.213-1.181,3.163-2.253c0.945-1.068,1.741-2.493,2.388-4.264
		C-91.418-53.898-91.04-56.07-90.917-58.638z"/>
	<path fill="#1E100D" d="M-192.124-30.693h0.11C-192.014-30.693-192.055-30.693-192.124-30.693z"/>
	<path fill="#1E100D" d="M-224.965-162.953c-0.365-0.948-0.557-1.697-1.259-2.247c-0.703-0.549-1.447-0.917-2.365-1.102
		c0,0-6.089-1.179-6.651,5.419l1.289,36.767c0,1.588-0.741,3.852-1.323,4.983c-0.58,1.133-1.569,2.031-2.977,2.763
		c-1.408,0.736-3.271,1.063-5.594,1.399c-2.326,0.338-5.69,0.229-9.175,0.229h-2.712h-0.109c-0.446,0-2.093,0.358-2.146,2.465
		c0,0.464,0.081,0.809,0.189,1.186c0.306,0.857,0.895,1.851,1.783,2.644c0.883,0.797,2.293,1.333,4.253,1.577
		c3.241,0.368,6.487,0.423,9.789,0.146c3.302-0.276,6.231-0.986,8.891-2.15c2.661-1.162,4.462-2.843,6.145-5.043
		c1.684-2.2,2.05-5.012,2.05-8.438v-36.973C-224.887-160.797-224.593-162.005-224.965-162.953z"/>
	<path fill="#1E100D" d="M-135.387-139.284c-1.258-2.903-2.627-5.258-4.617-7.063c-1.986-1.805-4.141-3.086-6.586-3.854
		c-2.447-0.766-4.835-1.055-7.223-0.872c-1.594,0.124-2.983,0.443-4.174,0.965c-1.19,0.52-2.5,1.027-3.354,1.512
		c-0.981,0.672-1.962,1.347-2.88,2.019v-12.752c0-1.468,0.132-2.676-0.23-3.624c0,0-1.271-3.008-4.288-3.181
		c-3.013-0.171-5.056,2.211-5.585,4.22c-0.526,2.012-0.265,6.988-0.265,6.988l1.317,41.099c0,1.468,0.265,2.673,0.632,3.62
		c0.367,0.948,0.979,1.688,1.683,2.239c0.705,0.551,1.518,0.761,2.436,0.942c0.916,0.181,1.47,0.099,2.569,0.099h0.413
		c1.516,0,1.318-0.866,1.318-2.031v-0.445v-20.016c0-2.63,0.624-4.831,1.233-6.604c0.616-1.773,1.597-3.181,2.575-4.22
		c0.979-1.043,2.16-1.774,3.415-2.203c1.255-0.427,2.585-0.614,3.933-0.552c1.286,0.061,2.494,0.323,3.594,0.781
		c1.101,0.457,2.076,1.239,2.902,2.338c0.826,1.101,1.213,2.583,1.672,4.451c0.459,1.867,0.438,4.204,0.438,7.016v14.591
		c0,1.467,0.438,2.667,0.804,3.614c0.365,0.948,1.025,1.688,1.729,2.239s1.583,0.761,2.501,0.942
		c0.913,0.181,1.989,0.099,3.089,0.099h2.447v-21.943C-133.89-132.908-134.138-136.377-135.387-139.284z"/>
	<path fill="#1E100D" d="M-214.686-45.202c0.202,0.211,0.397,0.421,0.589,0.635C-214.271-44.776-214.464-44.983-214.686-45.202z"/>
	<polygon fill="#1E100D" points="-214.686,-45.202 -214.686,-45.211 -214.686,-45.211 	"/>
	<g>
		<path fill="#1E100D" d="M-251.83-37.293c0.009,0,0.016,0,0.023,0c-0.008,0-0.015,0-0.021,0H-251.83z"/>
		<path fill="#1E100D" d="M-221.041-41.892c-0.193-0.209-0.392-0.427-0.598-0.642c0-0.003,0-0.003,0-0.003
			c-0.12-0.128-0.238-0.257-0.361-0.391c-1.095-1.188-2.221-2.404-3.375-3.647c-1.154-1.248-2.295-2.493-3.418-3.736
			c-1.127-1.25-2.314-2.376-3.328-3.604c-2.346-2.847-5.014-6.789-7.568-9.588l16.783-15.026c3.598-3.222,0.138-4.204-0.463-4.349
			c-0.299-0.054-0.602-0.101-0.912-0.132c-1.457-0.123-3.188,0.09-5.195,0.634c-2.007,0.548-4.195,1.886-6.563,4.013
			c-0.488,0.428-1.22,1.066-2.188,1.918c-0.976,0.85-2.069,1.79-3.285,2.822c-1.217,1.035-2.726,2.099-4.002,3.193
			s-2.812,2.096-3.733,3.007v-22.247c0-1.458,0.085-2.659-0.276-3.6c-0.366-0.942-0.768-1.689-1.467-2.237s-1.438-0.91-2.348-1.091
			c-0.34-0.07-0.66-0.121-1.024-0.163c-0.401,0.004-4.2,0.189-4.985,5.194l1.247,47.13c0,1.463,0.184,2.662,0.549,3.604
			c0.364,0.938,0.79,1.683,1.49,2.229c0.296,0.23,0.382,0.423,0.844,0.588v0.008c0,0.018,0.177,0.033,0.213,0.05
			c0.057,0.023,0.168,0.052,0.226,0.077c0.108,0.043,0.248,0.086,0.366,0.124c0.164,0.061,0.347,0.108,0.521,0.157
			c0.094,0.024,0.192,0.048,0.288,0.068c0.021,0.003,0.043,0.012,0.064,0.016c0.027,0.008,0.064,0.012,0.093,0.017
			c0.685,0.148,1.42,0.048,2.112,0.1c0.258,0.03,0.507-0.132,0.807-0.132h0.269c0.993,0,1.012,0.374,1.012,0.374v-3.652v-0.974
			v-0.428v-16.356c0.922,1.035,2.061,2.131,3.094,3.282c1.034,1.156,2.17,2.311,3.14,3.467c0.975,1.156,1.97,2.235,2.853,3.237
			c0.878,1.002,1.626,1.868,2.173,2.598c0.915,1.154,1.871,2.279,2.844,3.375c0.973,1.095,2,2.085,3.064,2.963
			c1.063,0.882,2.16,1.579,3.285,2.098c1.124,0.516,2.296,0.772,3.512,0.772c1.478,0,2.667-0.16,3.568-0.47
			C-220.675-37.627-218.444-38.863-221.041-41.892z"/>
	</g>
	<g>
		<g>
			<g>
				<g>
					<path fill="#1E100D" d="M-291.449-112.281c0.354,0,0.714-0.032,1.073-0.099c3.172-0.589,3.178-3.637,2.589-6.809
						c-2.67-14.375-7.49-27.47-17.882-37.863c-10.39-10.395-26.673-16.898-37.855-18.733c-6.013-0.984-9.547,1.519-11.398,5.092
						c-3.395,6.545,2.482,16.493,9.259,15.153c24.519-4.855,45.186,14.032,49.729,38.485
						C-295.409-114.244-294.207-112.281-291.449-112.281z"/>
				</g>
			</g>
			<g>
				<g>
					<path fill="#1E100D" d="M-427.036-112.281c-0.356,0-0.715-0.032-1.074-0.099c-3.174-0.589-3.177-3.637-2.59-6.809
						c2.675-14.375,7.49-27.47,17.882-37.863c10.39-10.395,26.673-16.898,37.856-18.733c6.014-0.984,9.545,1.519,11.4,5.092
						c3.392,6.545-2.483,16.493-9.262,15.153c-24.519-4.855-45.185,14.032-49.73,38.485
						C-423.077-114.244-424.277-112.281-427.036-112.281z"/>
				</g>
			</g>
		</g>
		<path fill="#1E100D" d="M-291.307-101.438c-3.21-0.593-4.628,1.496-5.227,4.668c-3.952,20.88-19.008,37.633-38.768,45.642
			c-7.914,2.83-15.831-2.292-17.16-10.076c-1.193-4.473,0.388-15.338,0.388-15.338c0.853-4.775-1.72-9.366-6.87-9.434
			c-0.137,0-0.274,0.008-0.41,0.022c0-0.014-0.281-0.022-0.416-0.022c-5.15,0.068-7.727,4.659-6.873,9.434
			c0,0,1.581,10.866,0.387,15.338c-1.326,7.784-9.243,12.906-17.157,10.076c-19.762-8.009-34.816-24.762-38.77-45.642
			c-0.601-3.172-2.018-5.261-5.228-4.668c-3.205,0.596-3.647,3.795-3.047,6.966c6.471,34.173,35.865,67.052,71.09,67.052
			c0.006,0,0.014,0,0.014,0s0,0,0.005,0c35.223,0,64.619-32.879,71.094-67.052C-287.656-97.642-288.102-100.841-291.307-101.438z"/>
	</g>
	<path fill="#1E100D" d="M-192.012-30.693h0.109C-191.902-30.693-191.945-30.693-192.012-30.693z"/>
	<path fill="#1E100D" d="M-214.573-45.564c0.197,0.21,0.396,0.425,0.587,0.637C-214.16-45.135-214.352-45.347-214.573-45.564z"/>
	<polygon fill="#1E100D" points="-214.573,-45.564 -214.576,-45.569 -214.576,-45.569 	"/>
	<path fill="#1E100D" d="M-92.045-144.884c-3.768-4.115-8.142-6.164-15.204-6.164h-0.854c-7.059,0-11.455,2.049-15.222,6.164
		c-3.762,4.116-5.967,9.725-5.967,16.845v8.528v0.402v12.181h3.323c1.1,0,2.131,0.083,3.049-0.099
		c0.915-0.182,1.747-0.445,2.448-0.992c0.705-0.554,1.015-1.267,1.382-2.215c0.369-0.948,0.364-2.121,0.364-3.588v-5.417v-0.271
		v-8.298c0-2.917,0.601-5.369,1.182-7.354c0.58-1.983,1.563-3.547,2.643-4.713c1.08-1.168,2.453-1.979,3.977-2.44h0.043
		c1.024-0.459,2.12-0.59,3.264-0.59c1.479,0,2.892,0.3,4.155,0.882c0.926,0.401,1.779,0.947,2.517,1.635
		c1.454,1.301,2.526,3.01,3.041,4.957c0.026,0.087,0.058,0.168,0.078,0.258c0.59,1.986,1.165,4.45,1.165,7.367v8.298v0.271v5.417
		c0,1.467,0.016,2.628,0.381,3.574c0.367,0.95,0.695,1.651,1.399,2.201c0.704,0.552,1.534,0.839,2.452,1.021
		c0.918,0.181,1.946,0.099,3.045,0.099h3.292v-12.181v-0.402v-8.528C-86.092-135.159-88.277-140.768-92.045-144.884z"/>
	<path fill="#1E100D" d="M-177.987-75.025c-3.767-4.115-8.146-6.164-15.207-6.164h-0.849c-7.063,0-11.46,2.049-15.223,6.164
		c-3.766,4.114-5.972,9.724-5.972,16.844v8.525v0.407v12.181h3.323c1.1,0,2.132,0.085,3.05-0.101
		c0.915-0.182,1.747-0.443,2.447-0.995c0.707-0.552,1.02-1.264,1.385-2.213c0.368-0.948,0.368-2.119,0.368-3.589v-5.416v-0.274
		v-8.295c0-2.916,0.591-5.367,1.175-7.351c0.581-1.986,1.567-3.551,2.649-4.719c1.078-1.162,2.45-1.979,3.971-2.438h0.046
		c1.021-0.461,2.118-0.589,3.26-0.589c1.482,0,2.889,0.3,4.158,0.88c0.924,0.4,1.777,0.946,2.517,1.634
		c1.456,1.302,2.531,3.014,3.037,4.959c0.029,0.085,0.06,0.168,0.085,0.256c0.587,1.984,1.163,4.452,1.163,7.368v8.295v0.274v5.416
		c0,1.47,0.016,2.629,0.383,3.58c0.365,0.945,0.691,1.646,1.396,2.198c0.703,0.551,1.532,0.837,2.451,1.019
		c0.919,0.186,1.945,0.101,3.048,0.101h3.288v-12.181v-0.407v-8.525C-172.037-65.301-174.222-70.911-177.987-75.025z"/>
	<g>
		<g>
			<g>
				<g>
					<path fill="#1E100D" d="M139.551,63.719c0.354,0,0.714-0.032,1.073-0.1c3.172-0.589,3.178-3.637,2.589-6.809
						c-2.67-14.375-7.49-27.47-17.882-37.862C114.941,8.553,98.658,2.051,87.476,0.215c-6.013-0.983-9.547,1.52-11.398,5.093
						c-3.395,6.546,2.482,16.493,9.259,15.153c24.519-4.855,45.186,14.031,49.729,38.484
						C135.591,61.756,136.793,63.719,139.551,63.719z"/>
				</g>
			</g>
			<g>
				<g>
					<path fill="#1E100D" d="M3.964,63.719c-0.356,0-0.715-0.032-1.074-0.1c-3.174-0.589-3.177-3.637-2.59-6.809
						c2.675-14.375,7.49-27.47,17.882-37.862C28.571,8.553,44.854,2.051,56.038,0.215c6.014-0.983,9.545,1.52,11.4,5.093
						c3.392,6.546-2.483,16.493-9.262,15.153c-24.519-4.855-45.185,14.031-49.73,38.484C7.923,61.756,6.723,63.719,3.964,63.719z"/>
				</g>
			</g>
		</g>
		<path fill="#1E100D" d="M139.693,74.563c-3.21-0.594-4.628,1.496-5.227,4.668c-3.952,20.88-19.008,37.633-38.768,45.642
			c-7.914,2.83-15.831-2.292-17.16-10.076c-1.193-4.473,0.388-15.339,0.388-15.339c0.853-4.775-1.72-9.365-6.87-9.434
			c-0.137,0-0.274,0.008-0.41,0.021c0-0.014-0.281-0.021-0.416-0.021c-5.15,0.068-7.727,4.658-6.873,9.434
			c0,0,1.581,10.866,0.387,15.339c-1.326,7.784-9.243,12.906-17.157,10.076c-19.762-8.009-34.816-24.762-38.77-45.642
			C8.217,76.059,6.8,73.969,3.59,74.563c-3.205,0.596-3.647,3.795-3.047,6.967c6.471,34.173,35.865,67.052,71.09,67.052
			c0.006,0,0.014,0,0.014,0s0,0,0.005,0c35.223,0,64.619-32.879,71.094-67.052C143.344,78.357,142.898,75.158,139.693,74.563z"/>
	</g>
</g>
<path fill="#1E100D" d="M-101.811-140.599c0.164,0.154,0.33,0.31,0.478,0.475c1.031,1.107,1.957,2.606,2.546,4.457
	C-99.299-137.6-100.365-139.31-101.811-140.599z"/>
</svg>
