<?xml version="1.0" encoding="utf-8"?>
<!-- Generator: Adobe Illustrator 16.0.0, SVG Export Plug-In . SVG Version: 6.00 Build 0)  -->
<!DOCTYPE svg PUBLIC "-//W3C//DTD SVG 1.1//EN" "http://www.w3.org/Graphics/SVG/1.1/DTD/svg11.dtd">
<svg version="1.1" id="Capa_1" xmlns="http://www.w3.org/2000/svg" xmlns:xlink="http://www.w3.org/1999/xlink" x="0px" y="0px"
	 width="355px" height="151px" viewBox="0 0 355 151" enable-background="new 0 0 355 151" xml:space="preserve">
<path fill="#1E100D" d="M327.498,149.011v0.437C327.498,149.186,327.498,149.011,327.498,149.011z"/>
<path fill="#1E100D" d="M324.783,148.654v0.432C324.783,148.824,324.783,148.654,324.783,148.654z"/>
<path fill="#1E100D" d="M327.592,34.956c0.912,0.416,1.743,0.965,2.479,1.624C329.344,35.9,328.504,35.353,327.592,34.956z"/>
<g>
	<path fill="#1E100D" d="M248.793,33.236c1.896,2.019,3.379,4.356,4.45,7.017c1.068,2.662,1.605,5.55,1.605,8.668
		c0,3.061-0.491,5.92-1.464,8.58c-0.981,2.662-2.358,5.001-4.132,7.021c-1.773,2.017-3.945,3.606-6.511,4.768
		c-2.572,1.162-5.418,1.744-8.533,1.744c-2.88,0-5.553-0.582-8.03-1.744c-2.479-1.161-4.666-2.75-6.559-4.768
		c-1.897-2.02-3.381-4.359-4.451-7.021c-1.069-2.659-1.604-5.519-1.604-8.58c0-3.119,0.488-6.007,1.467-8.668
		c0.979-2.661,2.356-4.998,4.129-7.017c1.773-1.955,3.947-3.531,6.514-4.726c2.571-1.193,5.414-1.79,8.535-1.79
		c2.873,0,5.562,0.596,8.072,1.79C244.786,29.705,246.959,31.281,248.793,33.236z M233.012,63.051
		c0.797,0.063,1.744-0.044,2.847-0.319c1.101-0.276,2.187-0.888,3.256-1.836c1.07-0.949,2.019-2.324,2.846-4.129
		c0.823-1.802,1.389-4.174,1.697-7.107c0.242-2.939,0.104-5.369-0.415-7.296c-0.519-1.924-1.223-3.438-2.109-4.54
		c-0.889-1.102-1.851-1.881-2.89-2.34c-1.038-0.461-1.958-0.719-2.753-0.777c-0.795-0.064-1.759,0.042-2.89,0.316
		c-1.13,0.276-2.218,0.874-3.256,1.79c-1.041,0.92-1.99,2.279-2.843,4.085c-0.858,1.804-1.41,4.172-1.654,7.111
		c-0.308,2.933-0.198,5.364,0.323,7.292c0.519,1.925,1.222,3.457,2.106,4.586c0.89,1.131,1.866,1.925,2.939,2.386
		C231.285,62.732,232.22,62.991,233.012,63.051z"/>
	<path fill="#1E100D" d="M301.807,102.528c1.896,2.019,3.376,4.359,4.448,7.02c1.069,2.657,1.604,5.546,1.604,8.667
		c0,3.061-0.492,5.919-1.464,8.575c-0.983,2.662-2.356,5.002-4.131,7.023c-1.775,2.018-3.942,3.607-6.515,4.771
		c-2.566,1.157-5.413,1.74-8.529,1.74c-2.879,0-5.552-0.583-8.028-1.74c-2.481-1.164-4.664-2.754-6.562-4.771
		c-1.896-2.021-3.382-4.361-4.449-7.023c-1.069-2.656-1.604-5.515-1.604-8.575c0-3.121,0.485-6.01,1.466-8.667
		c0.975-2.661,2.354-5.001,4.128-7.02c1.774-1.956,3.946-3.532,6.516-4.726c2.568-1.191,5.411-1.788,8.533-1.788
		c2.872,0,5.563,0.596,8.072,1.788C297.801,98.996,299.972,100.572,301.807,102.528z M286.023,132.344
		c0.797,0.06,1.746-0.045,2.848-0.321c1.102-0.274,2.187-0.886,3.255-1.833c1.069-0.95,2.02-2.323,2.846-4.127
		c0.824-1.808,1.39-4.177,1.694-7.111c0.246-2.939,0.107-5.367-0.41-7.298c-0.522-1.925-1.224-3.437-2.11-4.54
		c-0.888-1.101-1.849-1.881-2.892-2.337c-1.04-0.459-1.954-0.721-2.75-0.779c-0.797-0.063-1.758,0.044-2.891,0.32
		c-1.131,0.275-2.217,0.869-3.258,1.789c-1.04,0.917-1.988,2.28-2.843,4.082c-0.856,1.806-1.407,4.172-1.651,7.112
		c-0.308,2.932-0.2,5.362,0.32,7.291c0.52,1.927,1.224,3.455,2.11,4.588c0.889,1.131,1.864,1.924,2.936,2.383
		C284.299,132.022,285.228,132.284,286.023,132.344z"/>
	<path fill="#1E100D" d="M313.347,83.54c1.588-2.932,5.357-2.543,5.357-2.543c0.918,0.184,1.715,0.552,2.389,1.102
		c0.672,0.55,1.289,1.301,1.658,2.249c0.36,0.948,0.644,2.152,0.644,3.622v12.752c0.461-0.673,1.522-1.347,2.565-2.019
		c0.854-0.486,1.833-0.993,3.023-1.513c1.198-0.518,2.532-0.836,4.06-0.962c2.385-0.185,4.805,0.109,7.283,0.872
		c2.479,0.764,4.686,2.05,6.646,3.852c1.954,1.805,3.557,4.159,4.813,7.062c1.252,2.908,1.875,6.381,1.875,10.415
		c0,4.038-0.592,7.461-1.784,10.275c-1.197,2.812-2.758,5.09-4.682,6.834c-1.927,1.743-4.128,3.018-6.605,3.809
		c-2.476,0.795-5.003,1.192-7.571,1.192c-2.565,0-5.092-0.397-7.566-1.192c-2.479-0.791-4.678-2.065-6.607-3.809
		c-1.924-1.744-3.49-4.022-4.686-6.834c-1.191-2.814-1.796-6.237-1.796-10.275V89.245C312.362,89.245,312.375,85.341,313.347,83.54z
		 M342.468,118.888c0.123-2.569-0.032-4.757-0.459-6.562c-0.429-1.802-1.053-3.286-1.88-4.448c-0.824-1.163-1.803-2.032-2.934-2.614
		c-1.134-0.58-2.281-0.904-3.441-0.963c-1.164-0.063-2.323,0.137-3.488,0.596c-1.16,0.458-2.218,1.223-3.164,2.292
		c-0.951,1.071-1.74,2.478-2.387,4.22c-0.641,1.744-1.021,3.903-1.143,6.469c-0.124,2.568,0.042,4.771,0.502,6.606
		c0.459,1.832,1.101,3.335,1.93,4.495c0.82,1.163,1.789,2.02,2.889,2.568c1.102,0.552,2.234,0.856,3.393,0.918
		s2.326-0.121,3.488-0.546c1.16-0.429,2.213-1.181,3.163-2.253c0.945-1.068,1.741-2.493,2.388-4.264
		C341.967,123.627,342.345,121.455,342.468,118.888z"/>
	<path fill="#1E100D" d="M241.261,146.832h0.11C241.371,146.832,241.33,146.832,241.261,146.832z"/>
	<path fill="#1E100D" d="M208.42,14.572c-0.365-0.948-0.557-1.697-1.259-2.247c-0.703-0.549-1.447-0.917-2.365-1.102
		c0,0-6.089-1.179-6.651,5.419l1.289,36.767c0,1.588-0.741,3.852-1.323,4.983c-0.58,1.133-1.569,2.031-2.977,2.763
		c-1.408,0.736-3.271,1.063-5.594,1.399c-2.326,0.338-5.69,0.229-9.175,0.229h-2.712h-0.109c-0.446,0-2.093,0.358-2.146,2.465
		c0,0.464,0.081,0.809,0.189,1.186c0.306,0.857,0.895,1.851,1.783,2.644c0.883,0.797,2.293,1.333,4.253,1.577
		c3.241,0.368,6.487,0.423,9.789,0.146c3.302-0.276,6.231-0.986,8.891-2.15c2.661-1.162,4.462-2.843,6.145-5.043
		c1.684-2.2,2.05-5.012,2.05-8.438V18.196C208.498,16.729,208.792,15.521,208.42,14.572z"/>
	<path fill="#1E100D" d="M297.998,38.241c-1.258-2.903-2.627-5.258-4.617-7.063c-1.986-1.805-4.141-3.086-6.586-3.854
		c-2.447-0.766-4.835-1.055-7.223-0.872c-1.594,0.124-2.983,0.443-4.174,0.965c-1.19,0.52-2.5,1.027-3.354,1.512
		c-0.981,0.672-1.962,1.347-2.88,2.019V18.196c0-1.468,0.132-2.676-0.23-3.624c0,0-1.271-3.008-4.288-3.181
		c-3.013-0.171-5.056,2.211-5.585,4.22c-0.526,2.012-0.265,6.988-0.265,6.988l1.317,41.099c0,1.468,0.265,2.673,0.632,3.62
		c0.367,0.948,0.979,1.688,1.683,2.239c0.705,0.551,1.518,0.761,2.436,0.942c0.916,0.181,1.47,0.099,2.569,0.099h0.413
		c1.516,0,1.318-0.866,1.318-2.031v-0.445V48.105c0-2.63,0.624-4.831,1.233-6.604c0.616-1.773,1.597-3.181,2.575-4.22
		c0.979-1.043,2.16-1.774,3.415-2.203c1.255-0.427,2.585-0.614,3.933-0.552c1.286,0.061,2.494,0.323,3.594,0.781
		c1.101,0.457,2.076,1.239,2.902,2.338c0.826,1.101,1.213,2.583,1.672,4.451c0.459,1.867,0.438,4.204,0.438,7.016v14.591
		c0,1.467,0.438,2.667,0.804,3.614c0.365,0.948,1.025,1.688,1.729,2.239s1.583,0.761,2.501,0.942
		c0.913,0.181,1.989,0.099,3.089,0.099h2.447V48.654C299.495,44.618,299.247,41.148,297.998,38.241z"/>
	<path fill="#1E100D" d="M218.699,132.323c0.202,0.211,0.397,0.421,0.589,0.635C219.114,132.749,218.921,132.542,218.699,132.323z"
		/>
	<polygon fill="#1E100D" points="218.699,132.323 218.699,132.314 218.699,132.314 	"/>
	<g>
		<path fill="#1E100D" d="M181.555,140.232c0.009,0,0.016,0,0.023,0c-0.008,0-0.015,0-0.021,0H181.555z"/>
		<path fill="#1E100D" d="M212.344,135.634c-0.193-0.209-0.392-0.427-0.598-0.642c0-0.003,0-0.003,0-0.003
			c-0.12-0.128-0.238-0.257-0.361-0.391c-1.095-1.188-2.221-2.404-3.375-3.647c-1.154-1.248-2.295-2.493-3.418-3.736
			c-1.127-1.25-2.314-2.376-3.328-3.604c-2.346-2.847-5.014-6.789-7.568-9.588l16.783-15.026c3.598-3.222,0.138-4.204-0.463-4.349
			c-0.299-0.054-0.602-0.101-0.912-0.132c-1.457-0.123-3.188,0.09-5.195,0.634c-2.007,0.548-4.195,1.886-6.563,4.013
			c-0.488,0.428-1.22,1.066-2.188,1.918c-0.976,0.85-2.069,1.79-3.285,2.822c-1.217,1.035-2.726,2.099-4.002,3.193
			s-2.812,2.096-3.733,3.007V87.856c0-1.458,0.085-2.659-0.276-3.6c-0.366-0.942-0.768-1.689-1.467-2.237s-1.438-0.91-2.348-1.091
			c-0.34-0.07-0.66-0.121-1.024-0.163c-0.401,0.004-4.2,0.189-4.985,5.194l1.247,47.13c0,1.463,0.184,2.662,0.549,3.604
			c0.364,0.938,0.79,1.683,1.49,2.229c0.296,0.23,0.382,0.423,0.844,0.588v0.008c0,0.018,0.177,0.033,0.213,0.05
			c0.057,0.023,0.168,0.052,0.226,0.077c0.108,0.043,0.248,0.086,0.366,0.124c0.164,0.061,0.347,0.108,0.521,0.157
			c0.094,0.024,0.192,0.048,0.288,0.068c0.021,0.003,0.043,0.012,0.064,0.016c0.027,0.008,0.064,0.012,0.093,0.017
			c0.685,0.148,1.42,0.048,2.112,0.1c0.258,0.03,0.507-0.132,0.807-0.132h0.269c0.993,0,1.012,0.374,1.012,0.374v-3.652v-0.974
			v-0.428v-16.356c0.922,1.035,2.061,2.131,3.094,3.282c1.034,1.156,2.17,2.311,3.14,3.467c0.975,1.156,1.97,2.235,2.853,3.237
			c0.878,1.002,1.626,1.868,2.173,2.598c0.915,1.154,1.871,2.279,2.844,3.375c0.973,1.095,2,2.085,3.064,2.963
			c1.063,0.882,2.16,1.579,3.285,2.098c1.124,0.516,2.296,0.772,3.512,0.772c1.478,0,2.667-0.16,3.568-0.47
			C212.71,139.898,214.94,138.662,212.344,135.634z"/>
	</g>
	<g>
		<g>
			<g>
				<g>
					<path fill="#1E100D" d="M141.936,65.244c0.354,0,0.714-0.032,1.073-0.099c3.172-0.589,3.178-3.637,2.589-6.809
						c-2.67-14.375-7.49-27.47-17.882-37.863C117.326,10.079,101.043,3.576,89.86,1.741c-6.013-0.984-9.547,1.519-11.398,5.092
						c-3.395,6.545,2.482,16.493,9.259,15.153c24.519-4.855,45.186,14.032,49.729,38.485
						C137.976,63.281,139.178,65.244,141.936,65.244z"/>
				</g>
			</g>
			<g>
				<g>
					<path fill="#1E100D" d="M6.349,65.244c-0.356,0-0.715-0.032-1.074-0.099c-3.174-0.589-3.177-3.637-2.59-6.809
						c2.675-14.375,7.49-27.47,17.882-37.863C30.956,10.079,47.239,3.576,58.423,1.741c6.014-0.984,9.545,1.519,11.4,5.092
						c3.392,6.545-2.483,16.493-9.262,15.153c-24.519-4.855-45.185,14.032-49.73,38.485C10.308,63.281,9.107,65.244,6.349,65.244z"
						/>
				</g>
			</g>
		</g>
		<path fill="#1E100D" d="M142.078,76.088c-3.21-0.593-4.628,1.496-5.227,4.668c-3.952,20.88-19.008,37.633-38.768,45.642
			c-7.914,2.83-15.831-2.292-17.16-10.076c-1.193-4.473,0.388-15.338,0.388-15.338c0.853-4.775-1.72-9.366-6.87-9.434
			c-0.137,0-0.274,0.008-0.41,0.022c0-0.014-0.281-0.022-0.416-0.022c-5.15,0.068-7.727,4.659-6.873,9.434
			c0,0,1.581,10.866,0.387,15.338c-1.326,7.784-9.243,12.906-17.157,10.076c-19.762-8.009-34.816-24.762-38.77-45.642
			c-0.601-3.172-2.018-5.261-5.228-4.668c-3.205,0.596-3.647,3.795-3.047,6.966c6.471,34.173,35.865,67.052,71.09,67.052
			c0.006,0,0.014,0,0.014,0s0,0,0.005,0c35.223,0,64.619-32.879,71.094-67.052C145.729,79.883,145.283,76.684,142.078,76.088z"/>
	</g>
	<path fill="#1E100D" d="M241.373,146.832h0.109C241.482,146.832,241.439,146.832,241.373,146.832z"/>
	<path fill="#1E100D" d="M218.812,131.961c0.197,0.21,0.396,0.425,0.587,0.637C219.225,132.391,219.033,132.179,218.812,131.961z"/>
	<polygon fill="#1E100D" points="218.812,131.961 218.809,131.956 218.809,131.956 	"/>
	<path fill="#1E100D" d="M341.34,32.642c-3.768-4.115-8.142-6.164-15.204-6.164h-0.854c-7.059,0-11.455,2.049-15.222,6.164
		c-3.762,4.116-5.967,9.725-5.967,16.845v8.528v0.402v12.181h3.323c1.1,0,2.131,0.083,3.049-0.099
		c0.915-0.182,1.747-0.445,2.448-0.992c0.705-0.554,1.015-1.267,1.382-2.215c0.369-0.948,0.364-2.121,0.364-3.588v-5.417v-0.271
		v-8.298c0-2.917,0.601-5.369,1.182-7.354c0.58-1.983,1.563-3.547,2.643-4.713c1.08-1.168,2.453-1.979,3.977-2.44h0.043
		c1.024-0.459,2.12-0.59,3.264-0.59c1.479,0,2.892,0.3,4.155,0.882c0.926,0.401,1.779,0.947,2.517,1.635
		c1.454,1.301,2.526,3.01,3.041,4.957c0.026,0.087,0.058,0.168,0.078,0.258c0.59,1.986,1.165,4.45,1.165,7.367v8.298v0.271v5.417
		c0,1.467,0.016,2.628,0.381,3.574c0.367,0.95,0.695,1.651,1.399,2.201c0.704,0.552,1.534,0.839,2.452,1.021
		c0.918,0.181,1.946,0.099,3.045,0.099h3.292V58.417v-0.402v-8.528C347.293,42.367,345.107,36.758,341.34,32.642z"/>
	<path fill="#1E100D" d="M255.397,102.5c-3.767-4.115-8.146-6.164-15.207-6.164h-0.849c-7.063,0-11.46,2.049-15.223,6.164
		c-3.766,4.114-5.972,9.724-5.972,16.844v8.525v0.407v12.181h3.323c1.1,0,2.132,0.085,3.05-0.101
		c0.915-0.182,1.747-0.443,2.447-0.995c0.707-0.552,1.02-1.264,1.385-2.213c0.368-0.948,0.368-2.119,0.368-3.589v-5.416v-0.274
		v-8.295c0-2.916,0.591-5.367,1.175-7.351c0.581-1.986,1.567-3.551,2.649-4.719c1.078-1.162,2.45-1.979,3.971-2.438h0.046
		c1.021-0.461,2.118-0.589,3.26-0.589c1.482,0,2.889,0.3,4.158,0.88c0.924,0.4,1.777,0.946,2.517,1.634
		c1.456,1.302,2.531,3.014,3.037,4.959c0.029,0.085,0.06,0.168,0.085,0.256c0.587,1.984,1.163,4.452,1.163,7.368v8.295v0.274v5.416
		c0,1.47,0.016,2.629,0.383,3.58c0.365,0.945,0.691,1.646,1.396,2.198c0.703,0.551,1.532,0.837,2.451,1.019
		c0.919,0.186,1.945,0.101,3.048,0.101h3.288v-12.181v-0.407v-8.525C261.348,112.225,259.163,106.614,255.397,102.5z"/>
</g>
<path fill="#1E100D" d="M331.574,36.926c0.164,0.154,0.33,0.31,0.478,0.475c1.031,1.107,1.957,2.606,2.546,4.457
	C334.086,39.925,333.02,38.215,331.574,36.926z"/>
</svg>
