<?xml version="1.0" encoding="utf-8"?>
<!-- Generator: Adobe Illustrator 16.0.0, SVG Export Plug-In . SVG Version: 6.00 Build 0)  -->
<!DOCTYPE svg PUBLIC "-//W3C//DTD SVG 1.1//EN" "http://www.w3.org/Graphics/SVG/1.1/DTD/svg11.dtd">
<svg version="1.1" id="Capa_1" xmlns="http://www.w3.org/2000/svg" xmlns:xlink="http://www.w3.org/1999/xlink" x="0px" y="0px"
	 width="359.767px" height="57.274px" viewBox="0 0 359.767 57.274" enable-background="new 0 0 359.767 57.274"
	 xml:space="preserve">
<path fill="#1E100D" d="M267.328,20.452c-3.597-3.929-7.779-6.016-14.518-6.016h-0.816c-6.743,0-10.936,2.087-14.533,6.016
	c-3.594,3.928-5.697,9.415-5.697,16.212v8.141v0.387v11.369h3.174c1.052,0,2.029,0.211,2.908,0.037
	c0.877-0.176,1.667-0.359,2.34-0.886c0.675-0.525,0.971-1.171,1.322-2.08c0.346-0.903,0.346-1.991,0.346-3.392v-5.172v-0.262v-7.918
	c0-2.787,0.567-5.127,1.129-7.021c0.556-1.894,1.493-3.519,2.523-4.633c1.031-1.114,2.342-2.021,3.791-2.46h0.045
	c0.98-0.438,2.025-0.433,3.111-0.433c1.419,0,2.761,0.354,3.97,0.906c0.887,0.385,1.698,0.938,2.407,1.595
	c1.388,1.241,2.412,2.891,2.896,4.75c0.031,0.083,0.056,0.169,0.083,0.253c0.556,1.896,1.11,4.257,1.11,7.043v7.918v0.262v5.172
	c0,1.4,0.012,2.509,0.364,3.415c0.352,0.905,0.663,1.575,1.336,2.102c0.673,0.524,1.463,0.665,2.341,0.841
	c0.873,0.175,1.857-0.037,2.906-0.037h3.144V45.192v-0.387v-8.141C273.011,29.867,270.919,24.38,267.328,20.452z"/>
<path fill="#1E100D" d="M70.072,20.879c1.811,1.928,3.228,4.161,4.248,6.701c1.024,2.54,1.536,5.3,1.536,8.277
	c0,2.92-0.469,5.649-1.403,8.189c-0.935,2.542-2.249,4.775-3.942,6.703c-1.694,1.925-3.765,3.446-6.219,4.555
	c-2.453,1.108-5.167,1.663-8.146,1.663c-2.744,0-5.299-0.555-7.662-1.663c-2.366-1.109-4.457-2.629-6.265-4.555
	c-1.811-1.928-3.228-4.161-4.248-6.703c-1.024-2.54-1.536-5.269-1.536-8.189c0-2.978,0.471-5.737,1.403-8.277
	c0.935-2.541,2.249-4.773,3.942-6.701c1.693-1.867,3.766-3.372,6.219-4.511c2.453-1.139,5.168-1.707,8.146-1.707
	c2.744,0,5.315,0.568,7.707,1.707C66.251,17.507,68.323,19.013,70.072,20.879z M55.009,49.349c0.76,0.059,1.663-0.045,2.714-0.308
	s2.086-0.846,3.111-1.752c1.021-0.906,1.928-2.218,2.714-3.942c0.79-1.722,1.326-3.985,1.622-6.788
	c0.229-2.803,0.103-5.124-0.394-6.965c-0.5-1.839-1.173-3.284-2.015-4.335c-0.846-1.052-1.771-1.796-2.759-2.234
	c-0.995-0.438-1.872-0.685-2.628-0.744c-0.759-0.059-1.684,0.043-2.758,0.307c-1.083,0.263-2.119,0.832-3.112,1.707
	c-0.996,0.878-1.897,2.177-2.715,3.898c-0.82,1.724-1.346,3.987-1.576,6.79c-0.296,2.803-0.194,5.124,0.308,6.964
	c0.494,1.838,1.167,3.3,2.015,4.379c0.846,1.083,1.78,1.84,2.799,2.278C53.355,49.041,54.25,49.29,55.009,49.349z"/>
<path fill="#1E100D" d="M310.258,20.777c1.811,1.928,3.224,4.162,4.248,6.702c1.021,2.54,1.53,5.299,1.53,8.276
	c0,2.921-0.464,5.651-1.397,8.191c-0.938,2.541-2.249,4.773-3.943,6.701c-1.693,1.927-3.77,3.446-6.219,4.555
	c-2.452,1.108-5.17,1.664-8.145,1.664c-2.751,0-5.3-0.556-7.668-1.664c-2.366-1.109-4.452-2.628-6.263-4.555
	c-1.812-1.928-3.229-4.161-4.249-6.701c-1.021-2.54-1.529-5.27-1.529-8.191c0-2.978,0.463-5.736,1.397-8.276
	c0.933-2.541,2.249-4.774,3.942-6.702c1.693-1.868,3.77-3.372,6.223-4.511c2.449-1.139,5.167-1.707,8.146-1.707
	c2.743,0,5.31,0.568,7.707,1.707C306.432,17.406,308.508,18.91,310.258,20.777z M295.188,49.247c0.761,0.059,1.669-0.045,2.72-0.308
	c1.05-0.262,2.086-0.846,3.106-1.751c1.02-0.905,1.929-2.218,2.719-3.942c0.786-1.722,1.326-3.986,1.616-6.789
	c0.234-2.804,0.102-5.124-0.392-6.964c-0.496-1.839-1.169-3.283-2.015-4.336c-0.848-1.05-1.765-1.795-2.761-2.233
	c-0.994-0.438-1.866-0.686-2.626-0.745c-0.762-0.059-1.68,0.043-2.76,0.307c-1.081,0.262-2.117,0.831-3.113,1.708
	c-0.987,0.875-1.896,2.176-2.712,3.897c-0.817,1.724-1.342,3.987-1.576,6.79c-0.292,2.803-0.188,5.124,0.306,6.963
	c0.494,1.839,1.169,3.299,2.015,4.379c0.848,1.08,1.78,1.838,2.805,2.278C293.541,48.939,294.43,49.189,295.188,49.247z"/>
<path fill="#1E100D" d="M321.305,2.65c1.516-2.802,5.102-2.43,5.102-2.43c0.877,0.177,1.627,0.525,2.271,1.052
	c0.643,0.526,1.04,1.241,1.392,2.146c0.353,0.905,0.43,2.058,0.43,3.459v12.176c0.876-0.642,1.641-1.284,2.631-1.926
	c0.821-0.467,1.848-0.95,2.985-1.447c1.136-0.495,2.463-0.801,3.922-0.92c2.276-0.174,4.611,0.104,6.972,0.833
	c2.369,0.729,4.489,1.956,6.361,3.677c1.869,1.725,3.402,3.973,4.602,6.747c1.194,2.773,1.796,6.088,1.796,9.941
	c0,3.854-0.567,7.125-1.709,9.811c-1.138,2.687-2.628,4.862-4.464,6.526c-1.842,1.665-3.942,2.877-6.309,3.635
	c-2.362,0.758-4.775,1.138-7.225,1.138c-2.452,0-4.861-0.379-7.228-1.138s-4.468-1.97-6.309-3.635
	c-1.836-1.665-3.301-3.84-4.438-6.526c-1.137-2.685-1.683-5.956-1.683-9.811V8.099C320.403,8.099,320.377,4.368,321.305,2.65z
	 M349.08,36.397c0.117-2.452-0.03-4.539-0.439-6.262c-0.408-1.723-1.004-3.139-1.796-4.25c-0.784-1.108-1.719-1.941-2.799-2.496
	c-1.082-0.555-2.178-0.86-3.285-0.919c-1.113-0.058-2.22,0.131-3.331,0.568c-1.107,0.439-2.117,1.169-3.021,2.189
	c-0.907,1.024-1.663,2.366-2.274,4.03c-0.616,1.664-0.979,3.723-1.098,6.177c-0.117,2.452,0.041,4.555,0.481,6.305
	c0.438,1.754,1.05,3.184,1.841,4.294c0.785,1.109,1.709,1.925,2.759,2.451c1.052,0.525,2.132,0.818,3.239,0.876
	c1.113,0.059,2.219-0.117,3.331-0.526c1.107-0.407,2.116-1.123,3.021-2.146c0.907-1.021,1.662-2.379,2.279-4.073
	C348.6,40.924,348.963,38.851,349.08,36.397z"/>
<path fill="#1E100D" d="M31.779,3.061c-0.348-0.905-0.659-1.621-1.332-2.147c-0.667-0.525-1.443-0.875-2.32-1.051
	c0,0-5.846-1.127-6.382,5.172L22.96,40.14c0,1.519-0.715,3.68-1.271,4.76c-0.556,1.082-1.505,1.939-2.847,2.639
	c-1.34,0.702-3.12,1.019-5.341,1.339c-2.224,0.322-5.432,0.225-8.764,0.225H2.153H2.045c-0.422,0-1.999,0.336-2.045,2.345
	c0,0.445,0.071,0.771,0.179,1.131c0.29,0.818,0.852,1.766,1.703,2.524c0.842,0.76,2.189,1.271,4.056,1.505
	c3.098,0.351,6.198,0.402,9.351,0.14s5.948-0.944,8.487-2.054c2.541-1.108,4.516-2.714,6.122-4.815
	c1.605-2.103,2.203-4.787,2.203-8.058v-35.3C32.101,5.12,32.132,3.967,31.779,3.061z"/>
<path fill="#1E100D" d="M117.306,25.66c-1.198-2.772-2.638-5.021-4.535-6.745c-1.897-1.722-4.02-2.947-6.35-3.679
	c-2.337-0.729-4.651-1.006-6.928-0.832c-1.521,0.117-2.86,0.425-3.998,0.92c-1.144,0.497-2.147,0.979-2.965,1.445
	c-0.933,0.643-1.626,1.284-2.505,1.927V6.521c0-1.401-0.121-2.555-0.475-3.46c0,0-1.336-2.873-4.212-3.037
	c-2.883-0.164-4.892,2.111-5.397,4.03c-0.51,1.92-0.285,6.669-0.285,6.669l1.238,39.241c0,1.401,0.246,2.553,0.598,3.456
	c0.353,0.906,0.935,1.613,1.607,2.139c0.667,0.526,1.443,0.728,2.32,0.903c0.873,0.176,1.397,0.098,2.449,0.098h0.393
	c1.453,0,1.764-0.835,1.764-1.95V54.19V35.077c0-2.51,0.349-4.613,0.929-6.307c0.587-1.693,1.397-3.036,2.332-4.03
	c0.933-0.992,1.999-1.692,3.198-2.101c1.198-0.409,2.438-0.584,3.724-0.526c1.223,0.059,2.366,0.307,3.418,0.745
	c1.05,0.437,1.969,1.181,2.759,2.232c0.79,1.051,1.407,2.467,1.848,4.249c0.432,1.782,0.663,4.016,0.663,6.701V49.97
	c0,1.401,0.167,2.548,0.515,3.451c0.352,0.906,0.855,1.613,1.524,2.139c0.673,0.526,1.45,0.728,2.32,0.903
	c0.879,0.176,1.842,0.098,2.894,0.098h2.841V35.603C118.989,31.749,118.499,28.435,117.306,25.66z"/>
<path fill="#1E100D" d="M233.05,50.458c0.188,0.207,0.382,0.413,0.567,0.612C233.447,50.875,233.265,50.672,233.05,50.458z"/>
<polygon fill="#1E100D" points="233.05,50.458 233.046,50.455 233.046,50.455 "/>
<g>
	<path fill="#1E100D" d="M197.2,56.779c0.006,0,0.012,0,0.021,0c-0.006-0.002-0.016-0.002-0.021-0.003V56.779z"/>
	<path fill="#1E100D" d="M226.597,52.387c-0.188-0.2-0.377-0.405-0.571-0.611c0-0.002,0-0.003,0-0.004
		c-0.117-0.124-0.229-0.246-0.346-0.373c-1.046-1.132-2.117-2.292-3.22-3.482c-1.105-1.19-2.191-2.38-3.269-3.571
		c-1.072-1.189-2.209-2.266-3.174-3.438c-2.243-2.717-4.79-6.482-7.228-9.152l16.022-14.349c3.438-3.076,0.133-4.016-0.438-4.15
		c-0.286-0.054-0.576-0.1-0.872-0.131c-1.395-0.117-3.045,0.086-4.958,0.609c-1.919,0.522-4.01,1.798-6.271,3.831
		c-0.469,0.406-1.163,1.015-2.09,1.827c-0.928,0.814-1.975,1.713-3.133,2.7c-1.163,0.987-2.352,2.002-3.57,3.047
		c-1.219,1.043-2.434,2.002-3.311,2.873V6.771c0-1.394-0.174-2.54-0.521-3.438c-0.352-0.901-0.857-1.612-1.524-2.134
		c-0.669-0.523-1.434-0.871-2.307-1.045c-0.327-0.066-0.663-0.114-1.01-0.154c-0.382,0.004-4.024,0.183-4.774,4.959l1.185,44.999
		c0,1.393,0.173,2.541,0.519,3.439c0.348,0.9,0.854,1.611,1.526,2.134c0.28,0.22,0.586,0.403,0.901,0.56v0.007
		c0.031,0.016,0.073,0.03,0.103,0.045c0.057,0.025,0.107,0.05,0.163,0.072c0.102,0.043,0.209,0.084,0.323,0.123
		c0.157,0.056,0.32,0.103,0.488,0.145c0.086,0.024,0.174,0.048,0.265,0.069c0.021,0.005,0.042,0.013,0.062,0.016
		c0.025,0.006,0.062,0.01,0.087,0.015c0.653,0.139,1.351,0.049,2.015,0.099c0.246,0.026,0.484-0.121,0.771-0.121h0.256
		c0.947,0,1.474,0.348,1.474,0.348v-3.484V52.49v-0.408V36.467c0.877,0.988,1.713,2.033,2.697,3.134
		c0.99,1.104,1.943,2.207,2.872,3.308c0.929,1.104,1.816,2.134,2.659,3.091c0.842,0.956,1.523,1.784,2.045,2.48
		c0.873,1.103,1.771,2.176,2.697,3.221c0.928,1.045,1.902,1.989,2.918,2.83c1.015,0.842,2.061,1.51,3.133,2.002
		c1.077,0.495,2.193,0.74,3.356,0.74c1.407,0,2.546-0.151,3.403-0.451C226.944,56.458,229.07,55.278,226.597,52.387z"/>
</g>
<path fill="#1E100D" d="M158.5,20.452c-3.59-3.929-7.773-6.016-14.517-6.016h-0.812c-6.743,0-10.941,2.087-14.536,6.016
	c-3.591,3.928-5.698,9.415-5.698,16.212v8.141v0.387v11.369h3.172c1.052,0,2.036,0.211,2.912,0.037
	c0.873-0.176,1.669-0.359,2.338-0.886c0.673-0.525,0.969-1.171,1.32-2.08c0.352-0.903,0.352-1.991,0.352-3.392v-5.172v-0.262v-7.918
	c0-2.787,0.567-5.127,1.123-7.021c0.556-1.894,1.494-3.519,2.529-4.633c1.025-1.114,2.336-2.021,3.789-2.46h0.047
	c0.975-0.438,2.02-0.433,3.111-0.433c1.413,0,2.761,0.354,3.971,0.906c0.882,0.385,1.697,0.938,2.4,1.595
	c1.394,1.241,2.418,2.891,2.902,4.75c0.025,0.083,0.057,0.169,0.083,0.253c0.556,1.896,1.105,4.257,1.105,7.043v7.918v0.262v5.172
	c0,1.4,0.015,2.509,0.367,3.415c0.348,0.905,0.663,1.575,1.332,2.102c0.673,0.524,1.465,0.665,2.341,0.841
	c0.877,0.175,1.857-0.037,2.913-0.037h3.137V45.192v-0.387v-8.141C164.183,29.867,162.098,24.38,158.5,20.452z"/>
</svg>
